<svg width="66" height="66" viewBox="0 0 66 66" fill="none" xmlns="http://www.w3.org/2000/svg">
<g filter="url(#filter0_b_107_1150)">
<rect width="66" height="66" rx="2" fill="white" fill-opacity="0.5"/>
<rect x="0.5" y="0.5" width="65" height="65" rx="1.5" stroke="white"/>
</g>
<path d="M39.8919 18.9321C40.3146 18.5373 40.3151 17.8673 39.8931 17.4718L39.2742 16.8917C38.89 16.5317 38.2925 16.5312 37.9078 16.8906L22.1503 31.6087C21.7271 32.0039 21.7271 32.675 22.1503 33.0703L37.9095 47.79C38.2936 48.1487 38.8897 48.1489 39.2741 47.7906L39.8894 47.2168C40.3131 46.8218 40.3136 46.1505 39.8904 45.7549L26.3222 33.0702C25.8993 32.6749 25.8994 32.0042 26.3225 31.609L39.8919 18.9321Z" fill="white"/>
<defs>
<filter id="filter0_b_107_1150" x="-80" y="-80" width="226" height="226" filterUnits="userSpaceOnUse" color-interpolation-filters="sRGB">
<feFlood flood-opacity="0" result="BackgroundImageFix"/>
<feGaussianBlur in="BackgroundImageFix" stdDeviation="40"/>
<feComposite in2="SourceAlpha" operator="in" result="effect1_backgroundBlur_107_1150"/>
<feBlend mode="normal" in="SourceGraphic" in2="effect1_backgroundBlur_107_1150" result="shape"/>
</filter>
</defs>
</svg>
