<svg fill="none" height="33" viewBox="0 0 33 33" width="33" xmlns="http://www.w3.org/2000/svg"><path clip-rule="evenodd" d="m26.6128 6.026c5.8634 5.8634 5.8785 15.345.0459 21.1776-5.8326 5.8327-15.3142 5.8175-21.17763-.0459-5.863435-5.8635-5.878581-15.345-.04594-21.17764 5.83267-5.832649 15.31417-5.817503 21.17767.04594zm.7071-.70711c6.2512 6.25121 6.2718 16.36601.0459 22.59181-6.2259 6.2259-16.3406 6.2053-22.59183-.0459-6.25125-6.2513-6.27182-16.366-.04594-22.59185 6.22587-6.225879 16.34057-6.205311 22.59187.04594zm-16.7717 4.90971 5.7621 5.762 5.4712-5.4712.7072.7071-5.4713 5.4712 5.3887 5.3888-.7071.7071-5.3887-5.3888-5.6314 5.6314-.70711-.7071 5.63141-5.6314-5.76206-5.762z" fill="#090909" fill-rule="evenodd"/></svg>