<svg width="33" height="33" viewBox="0 0 33 33" fill="none" xmlns="http://www.w3.org/2000/svg">
<path fill-rule="evenodd" clip-rule="evenodd" d="M26.6128 6.026C32.4762 11.8894 32.4913 21.371 26.6587 27.2036C20.8261 33.0363 11.3445 33.0211 5.48107 27.1577C-0.382365 21.2942 -0.397511 11.8127 5.43513 5.98006C11.2678 0.147411 20.7493 0.162557 26.6128 6.026ZM27.3199 5.31889C33.5711 11.5701 33.5917 21.6849 27.3658 27.9107C21.1399 34.1366 11.0252 34.116 4.77397 27.8648C-1.47728 21.6135 -1.49785 11.4988 4.72803 5.27295C10.9539 -0.952929 21.0686 -0.932361 27.3199 5.31889ZM10.5482 10.2286L16.3103 15.9906L21.7815 10.5194L22.4887 11.2265L17.0174 16.6977L22.4061 22.0865L21.699 22.7936L16.3103 17.4048L10.6789 23.0362L9.97179 22.3291L15.6032 16.6977L9.84114 10.9357L10.5482 10.2286Z" fill="#090909"/>
</svg>
