<svg enable-background="new 0 0 80 80" viewBox="0 0 80 80" xmlns="http://www.w3.org/2000/svg"><g style="fill:none;stroke:#000;stroke-linecap:round;stroke-linejoin:round;stroke-miterlimit:10;stroke-width:3"><path d="m42 73h5c2.209 0 4-1.791 4-4s-1.791-4-4-4h-34c-2.209 0-4 1.791-4 4s1.791 4 4 4h23"/><path d="m14 65v-52c0-2.209 1.791-4 4-4h24c2.209 0 4 1.791 4 4v52"/><path d="m36 33h-12c-2.209 0-4-1.791-4-4v-10c0-2.209 1.791-4 4-4h12c2.209 0 4 1.791 4 4v10c0 2.209-1.791 4-4 4z"/><path d="m46 40h9c2.209 0 4 1.791 4 4v8.5c0 1.933 1.567 3.5 3.5 3.5 1.933 0 3.5-1.567 3.5-3.5v-18.5"/><path d="m61 31v-1c0-1.657 1.343-3 3-3h4c1.657 0 3 1.343 3 3v1c0 1.657-1.343 3-3 3h-4c-1.657 0-3-1.343-3-3z"/><path d="m63 24v3.171"/><path d="m69 24v3.171"/></g></svg>