<svg fill="none" height="32" viewBox="0 0 34 32" width="34" xmlns="http://www.w3.org/2000/svg" xmlns:xlink="http://www.w3.org/1999/xlink"><clipPath id="a"><path d="m0 0h34v32h-34z"/></clipPath><mask id="b" height="32" maskUnits="userSpaceOnUse" width="34" x="0" y="0"><path clip-rule="evenodd" d="m2.125 1.06667c0-.589106.4757-1.06667 1.0625-1.06667h29.75c.5867 0 1.0625.477564 1.0625 1.06667v29.86663c0 .589-.4758 1.0667-1.0625 1.0667h-29.75c-.5868 0-1.0625-.4777-1.0625-1.0667v-2.1333c0-.589-.4757-1.0667-1.0625-1.0667-.586802 0-1.0625-.4776-1.0625-1.0666v-1.0667c0-.589.475698-1.0667 1.0625-1.0667.5868 0 1.0625-.4776 1.0625-1.0666v-14.93337c0-.5891-.4757-1.06666-1.0625-1.06666-.586802 0-1.0625-.47757-1.0625-1.06667v-1.06667c0-.5891.475698-1.06666 1.0625-1.06666.5868 0 1.0625-.47757 1.0625-1.06667z" fill="#fff" fill-rule="evenodd"/></mask><g clip-path="url(#a)"><g mask="url(#b)"><path d="m32.9375-1.06665h-29.75v2.13333h29.75zm2.125 31.99995v-29.86662h-2.125v29.86662zm-31.875 2.1334h29.75v-2.1334h-29.75zm-2.125-4.2667v2.1333h2.125v-2.1333zm0-2.1333v-1.0667h-2.125v1.0667zm0-18.13335v14.93335h2.125v-14.93335zm-2.125-3.2v1.06667h2.125v-1.06667zm2.125-4.26667v2.13334h2.125v-2.13334zm0 4.26667c1.1736 0 2.125-.95514 2.125-2.13333h-2.125zm0 0v-2.13333c-1.173605 0-2.125.95513-2.125 2.13333zm0 1.06667h-2.125c0 1.17819.951395 2.13333 2.125 2.13333zm2.125 2.13333c0-1.1782-.9514-2.13333-2.125-2.13333v2.13333zm-2.125 17.06665c1.1736 0 2.125-.9551 2.125-2.1333h-2.125zm0 0v-2.1333c-1.173605 0-2.125.9551-2.125 2.1333zm0 1.0667h-2.125c0 1.1782.951395 2.1333 2.125 2.1333zm2.125 2.1333c0-1.1782-.9514-2.1333-2.125-2.1333v2.1333zm0 2.1333h-2.125c0 1.1783.95139 2.1334 2.125 2.1334zm29.75 0v2.1334c1.1736 0 2.125-.9551 2.125-2.1334zm-29.75-31.99995c-1.1736 0-2.125.955124-2.125 2.13333h2.125zm29.75 2.13333h2.125c0-1.178203-.9514-2.13333-2.125-2.13333z" fill="#000"/></g><path clip-rule="evenodd" d="m29.3252 7.67995c0-.5891-.4758-1.06667-1.0625-1.06667h-20.1875v.64h20.1875c.2348 0 .425.19102.425.42667v2.13333c0 .23562-.1902.42662-.425.42662h-20.1875c-.5868 0-1.0625.4776-1.0625 1.0667v2.1333c0 .5891.4757 1.0667 1.0625 1.0667h20.1875c.2348 0 .425.191.425.4267v2.1333c0 .2357-.1902.4267-.425.4267h-20.1875c-.5868 0-1.0625.4775-1.0625 1.0666v2.1334c0 .5891.4757 1.0666 1.0625 1.0666h20.1875c.2348 0 .425.191.425.4267v2.1333c0 .2358-.1902.4267-.425.4267h-20.1875v.64h20.1875c.5867 0 1.0625-.4776 1.0625-1.0667v-2.1333c0-.589-.4758-1.0667-1.0625-1.0667h-20.1875c-.23473 0-.425-.191-.425-.4266v-2.1334c0-.2356.19027-.4266.425-.4266h20.1875c.5867 0 1.0625-.4776 1.0625-1.0667v-2.1333c0-.5891-.4758-1.0667-1.0625-1.0667h-20.1875c-.23473 0-.425-.191-.425-.4267v-2.1333c0-.2356.19027-.4267.425-.4267h20.1875c.5867 0 1.0625-.4775 1.0625-1.06662z" fill="#000" fill-rule="evenodd"/></g></svg>