<svg width="42" height="42" viewBox="0 0 42 42" fill="none" xmlns="http://www.w3.org/2000/svg">
<mask id="mask0_758_7" style="mask-type:luminance" maskUnits="userSpaceOnUse" x="3" y="5" width="34" height="32">
<path fill-rule="evenodd" clip-rule="evenodd" d="M5.125 6.06667C5.125 5.47756 5.6007 5 6.1875 5H35.9375C36.5242 5 37 5.47756 37 6.06667V35.9333C37 36.5223 36.5242 37 35.9375 37H6.1875C5.6007 37 5.125 36.5223 5.125 35.9333V33.8C5.125 33.211 4.6493 32.7333 4.0625 32.7333C3.4757 32.7333 3 32.2557 3 31.6667V30.6C3 30.011 3.4757 29.5333 4.0625 29.5333C4.6493 29.5333 5.125 29.0557 5.125 28.4667V13.5333C5.125 12.9442 4.6493 12.4667 4.0625 12.4667C3.4757 12.4667 3 11.9891 3 11.4V10.3333C3 9.74423 3.4757 9.26667 4.0625 9.26667C4.6493 9.26667 5.125 8.7891 5.125 8.2V6.06667Z" fill="white"/>
</mask>
<g mask="url(#mask0_758_7)">
<path d="M35.9375 3.93335H6.1875V6.06668H35.9375V3.93335ZM38.0625 35.9333V6.06668H35.9375V35.9333H38.0625ZM6.1875 38.0667H35.9375V35.9333H6.1875V38.0667ZM4.0625 33.8V35.9333H6.1875V33.8H4.0625ZM4.0625 31.6667V30.6H1.9375V31.6667H4.0625ZM4.0625 13.5333V28.4667H6.1875V13.5333H4.0625ZM1.9375 10.3333V11.4H4.0625V10.3333H1.9375ZM4.0625 6.06668V8.20002H6.1875V6.06668H4.0625ZM4.0625 10.3333C5.2361 10.3333 6.1875 9.37821 6.1875 8.20002H4.0625V10.3333ZM4.0625 10.3333V8.20002C2.88889 8.20002 1.9375 9.15515 1.9375 10.3333H4.0625ZM4.0625 11.4H1.9375C1.9375 12.5782 2.8889 13.5333 4.0625 13.5333V11.4ZM6.1875 13.5333C6.1875 12.3552 5.2361 11.4 4.0625 11.4V13.5333H6.1875ZM4.0625 30.6C5.2361 30.6 6.1875 29.6449 6.1875 28.4667H4.0625V30.6ZM4.0625 30.6V28.4667C2.8889 28.4667 1.9375 29.4218 1.9375 30.6H4.0625ZM4.0625 31.6667H1.9375C1.9375 32.8449 2.88889 33.8 4.0625 33.8V31.6667ZM6.1875 33.8C6.1875 32.6218 5.2361 31.6667 4.0625 31.6667V33.8H6.1875ZM6.1875 35.9333H4.0625C4.0625 37.1116 5.01389 38.0667 6.1875 38.0667V35.9333ZM35.9375 35.9333V38.0667C37.1111 38.0667 38.0625 37.1116 38.0625 35.9333H35.9375ZM6.1875 3.93335C5.0139 3.93335 4.0625 4.88847 4.0625 6.06668H6.1875V3.93335ZM35.9375 6.06668H38.0625C38.0625 4.88848 37.1111 3.93335 35.9375 3.93335V6.06668Z" fill="black"/>
</g>
<path fill-rule="evenodd" clip-rule="evenodd" d="M32.3252 12.6799C32.3252 12.0908 31.8494 11.6133 31.2627 11.6133H11.0752V12.2533H31.2627C31.4975 12.2533 31.6877 12.4443 31.6877 12.6799V14.8133C31.6877 15.0489 31.4975 15.2399 31.2627 15.2399H11.0752C10.4884 15.2399 10.0127 15.7175 10.0127 16.3066V18.4399C10.0127 19.029 10.4884 19.5066 11.0752 19.5066H31.2627C31.4975 19.5066 31.6877 19.6976 31.6877 19.9333V22.0666C31.6877 22.3023 31.4975 22.4933 31.2627 22.4933H11.0752C10.4884 22.4933 10.0127 22.9708 10.0127 23.5599V25.6933C10.0127 26.2824 10.4884 26.7599 11.0752 26.7599H31.2627C31.4975 26.7599 31.6877 26.9509 31.6877 27.1866V29.3199C31.6877 29.5557 31.4975 29.7466 31.2627 29.7466H11.0752V30.3866H31.2627C31.8494 30.3866 32.3252 29.909 32.3252 29.3199V27.1866C32.3252 26.5976 31.8494 26.1199 31.2627 26.1199H11.0752C10.8405 26.1199 10.6502 25.9289 10.6502 25.6933V23.5599C10.6502 23.3243 10.8405 23.1333 11.0752 23.1333H31.2627C31.8494 23.1333 32.3252 22.6557 32.3252 22.0666V19.9333C32.3252 19.3442 31.8494 18.8666 31.2627 18.8666H11.0752C10.8405 18.8666 10.6502 18.6756 10.6502 18.4399V16.3066C10.6502 16.071 10.8405 15.8799 11.0752 15.8799H31.2627C31.8494 15.8799 32.3252 15.4024 32.3252 14.8133V12.6799Z" fill="black"/>
</svg>
