<svg fill="none" height="45" viewBox="0 0 153 45" width="153" xmlns="http://www.w3.org/2000/svg"><path d="m4.58398 42.353v-9.6256h3.23187c.75037 0 1.36374.1363 1.84011.4088.47944.2695.83444.6345 1.06484 1.0951s.3456.9745.3456 1.5417c0 .5671-.1152 1.0826-.3456 1.5462-.2273.4638-.5791.8336-1.0555 1.1093-.47638.2726-1.08663.409-1.83077.409h-2.31648v-1.0341h2.27912c.51374 0 .92628-.0893 1.23763-.2679.31136-.1787.5371-.4198.6772-.7238.14322-.3071.21484-.6533.21484-1.0387s-.07162-.7301-.21484-1.034c-.1401-.304-.3674-.5421-.68187-.7144-.31447-.1755-.73168-.2633-1.25164-.2633h-2.03627v8.5917zm10.05792 0v-9.6256h5.7725v1.0339h-4.6143v3.2525h4.3155v1.0341h-4.3155v3.2712h4.6891v1.0339zm9.5699 0v-9.6256h3.2319c.7472 0 1.3606.1284 1.84.3854.4795.2537.8345.6031 1.0649 1.0481.2304.4448.3456.951.3456 1.5181s-.1152 1.0701-.3456 1.5087-.5838.7834-1.0602 1.0341c-.4763.2475-1.0851.3712-1.8261.3712h-2.6153v-1.0529h2.578c.5105 0 .9215-.0751 1.2329-.2255.3145-.1505.5418-.3634.6818-.6393.1434-.2788.2149-.6109.2149-.9963s-.0715-.7223-.2149-1.0105c-.1432-.2883-.372-.5108-.6865-.6675-.3144-.1597-.73-.2397-1.2469-.2397h-2.0363v8.5917zm4.5022-4.3239 2.3538 4.3239h-1.3451l-2.3164-4.3239zm5.7939-5.3017 2.8396 8.1028h.112l2.8396-8.1028h1.2143l-3.5121 9.6256h-1.1957l-3.512-9.6256zm17.8257 4.8127c0 1.0153-.182 1.8927-.5463 2.6321-.3643.7395-.864 1.3098-1.4991 1.7108-.6353.4011-1.3607.6016-2.1765.6016-.8157 0-1.5412-.2005-2.1763-.6016-.6352-.401-1.1349-.9713-1.4992-1.7108-.3643-.7394-.5464-1.6168-.5464-2.6321 0-1.0151.1821-1.8925.5464-2.6319.3643-.7395.864-1.3098 1.4992-1.7108.6351-.4011 1.3606-.6017 2.1763-.6017.8158 0 1.5412.2006 2.1765.6017.6351.401 1.1348.9713 1.4991 1.7108.3643.7394.5463 1.6168.5463 2.6319zm-1.1207 0c0-.8334-.1387-1.5368-.4158-2.1102-.2739-.5735-.646-1.0075-1.1161-1.3019-.4671-.2945-.9901-.4418-1.5693-.4418-.5791 0-1.1037.1473-1.5739.4418-.467.2944-.839.7284-1.1161 1.3019-.2741.5734-.411 1.2768-.411 2.1102 0 .8336.1369 1.5371.411 2.1104.2771.5734.6491 1.0073 1.1161 1.302.4702.2945.9948.4418 1.5739.4418.5792 0 1.1022-.1473 1.5693-.4418.4701-.2947.8422-.7286 1.1161-1.302.2771-.5733.4158-1.2768.4158-2.1104zm4.7781 4.8129v-9.6256h1.1582v8.5917h4.4461v1.0339zm10.2657-9.6256v9.6256h-1.1582v-9.6256zm4.4244 9.6256h-1.2143l3.512-9.6256h1.1956l3.5122 9.6256h-1.2143l-2.8583-8.1029h-.0748zm.4483-3.76h4.8945v1.034h-4.8945z" fill="#090909"/><path d="m14.6498 11.9121c-.1849-.5697-.4288-1.0801-.7314-1.5313-.2971-.45685-.6529-.84602-1.0677-1.16749-.4091-.32148-.8742-.56683-1.3955-.73603-.5212-.1692-1.0928-.2538-1.71489-.2538-1.02 0-1.94753.26508-2.78258.79525-.83505.53016-1.49918 1.31127-1.99236 2.34347-.49319 1.0321-.73978 2.2982-.73978 3.7985s.2494 2.7664.74819 3.7986c.49879 1.0321 1.17411 1.8133 2.02598 2.3435.85188.53 1.81022.7951 2.87506.7951.98638 0 1.85508-.2114 2.60608-.6344.7566-.4286 1.345-1.0321 1.7654-1.8105.4258-.7839.6389-1.706.6389-2.7664l.6389.1353h-5.1785v-1.8612h6.5572v1.8612c0 1.4269-.3028 2.6678-.908 3.7225-.5996 1.0547-1.4291 1.8725-2.4883 2.4534-1.0537.5752-2.2642.8629-3.63168.8629-1.5244 0-2.86385-.361-4.01835-1.0829-1.1489-.722-2.04561-1.7484-2.6901-3.0794-.63891-1.3311-.95836-2.9103-.95836-4.7377 0-1.3705.18215-2.6028.54643-3.697.36989-1.0998.89109-2.03607 1.56363-2.80876.67252-.77268 1.46834-1.36489 2.38747-1.77661.91911-.41173 1.93071-.61759 3.03477-.61759.90789 0 1.75419.13819 2.53879.41454.7902.27073 1.4936.65707 2.11 1.15903.6221.49633 1.1405 1.09136 1.5553 1.78509.4147.6881.7005 1.4523.8575 2.2927zm8.9011 11.9117v-17.32617h5.8174c1.345 0 2.4491.23124 3.3121.69373.8631.45684 1.502 1.0857 1.9167 1.88658.4148.8009.6221 1.71176.6221 2.73266 0 1.0208-.2073 1.9261-.6221 2.7156-.4147.7896-1.0508 1.4101-1.9083 1.8612-.8575.4456-1.9531.6684-3.287.6684h-4.7076v-1.8951h4.6404c.9192 0 1.659-.1353 2.2194-.4061.566-.2706.9751-.6542 1.2273-1.1505.2579-.502.3868-1.0998.3868-1.7935 0-.6938-.1289-1.3001-.3868-1.81896-.2578-.51889-.6697-.91934-1.2358-1.20133-.566-.28764-1.3142-.43147-2.2446-.43147h-3.6652v15.46496zm8.1039-7.7832 4.237 7.7832h-2.4211l-4.1698-7.7832zm10.116 7.7832v-17.32617h10.3904v1.86121h-8.3056v5.85436h7.7676v1.8612h-7.7676v5.8883h8.4402v1.8611zm17.2257 0v-17.32617h10.3905v1.86121h-8.3057v5.85436h7.7677v1.8612h-7.7677v5.8883h8.4402v1.8611zm30.8781-17.32617v17.32617h-2.0176l-9.3818-13.6037h-.1681v13.6037h-2.0848v-17.32617h2.0176l9.4154 13.63767h.168v-13.63767z" fill="#66952f"/><path d="m97.124 23.8233v-17.32623h2.0848v15.46503h8.0032v1.8612zm18.478-17.32623v17.32623h-2.084v-17.32623zm7.258 17.32623v-17.32623h10.323v1.86121h-8.238v5.85432h7.465v1.8613h-7.465v7.7494zm16.971 0v-17.32623h10.391v1.86121h-8.305v5.85432h7.767v1.8613h-7.767v5.8882h8.439v1.8612z" fill="#090909"/></svg>