<svg fill="none" height="70" viewBox="0 0 90 70" width="90" xmlns="http://www.w3.org/2000/svg"><g stroke="#090909" stroke-linejoin="round"><g stroke-width="2"><path d="m26.7511 12.3818h-2.816c-1.5552 0-2.816 1.2474-2.816 2.786v39.0035c0 1.5387 1.2608 2.786 2.816 2.786h2.816c1.5553 0 2.816-1.2473 2.816-2.786v-39.0035c0-1.5386-1.2607-2.786-2.816-2.786z"/><path d="m18.3039 19.3467h-2.816c-1.5553 0-2.816 1.2473-2.816 2.7859v25.0737c0 1.5387 1.2607 2.786 2.816 2.786h2.816c1.5552 0 2.816-1.2473 2.816-2.786v-25.0737c0-1.5386-1.2608-2.7859-2.816-2.7859z"/><path d="m9.85563 24.9189h-2.816c-1.55523 0-2.816 1.2474-2.816 2.786v13.9298c0 1.5387 1.26077 2.786 2.816 2.786h2.816c1.55527 0 2.81597-1.2473 2.81597-2.786v-13.9298c0-1.5386-1.2607-2.786-2.81597-2.786z"/><path d="m63.3592 56.957h2.816c1.5552 0 2.816-1.2473 2.816-2.7859v-39.0036c0-1.5386-1.2608-2.7859-2.816-2.7859h-2.816c-1.5552 0-2.816 1.2473-2.816 2.7859v39.0036c0 1.5386 1.2608 2.7859 2.816 2.7859z"/><path d="m71.8075 49.9922h2.816c1.5552 0 2.816-1.2473 2.816-2.786v-25.0737c0-1.5386-1.2608-2.7859-2.816-2.7859h-2.816c-1.5553 0-2.816 1.2473-2.816 2.7859v25.0737c0 1.5387 1.2607 2.786 2.816 2.786z"/><path d="m80.2557 44.4209h2.816c1.5552 0 2.816-1.2473 2.816-2.786v-13.9298c0-1.5387-1.2608-2.786-2.816-2.786h-2.816c-1.5552 0-2.816 1.2473-2.816 2.786v13.9298c0 1.5387 1.2608 2.786 2.816 2.786z"/></g><path d="m29.5674 34.6699h30.976" stroke-width="4"/></g></svg>