<svg fill="none" height="56" viewBox="0 0 34 56" width="34" xmlns="http://www.w3.org/2000/svg"><g fill="#090909"><path d="m21.916 40.8157 9.5001-15.1122c.031-.0489.057-.1003.0773-.1536 1.6404-2.6465 2.5066-5.6699 2.5066-8.7565 0-9.25987-7.615-16.7934-16.975-16.7934-9.35997 0-16.9755774 7.53353-16.9755774 16.7934 0 3.0873.8674414 6.1118 2.5091774 8.7603.01901.0464.04119.0915.0678.1354l9.1591 15.1642c-7.10994.9942-11.7855 3.8865-11.7855 7.395 0 4.3473 7.46734 7.7517 16.9997 7.7517 9.5323 0 16.9997-3.4051 16.9997-7.7517.0006-3.5248-4.8929-6.4816-12.0834-7.4326zm-17.65103-16.1089c-1.51438-2.3845-2.31465-5.1207-2.31465-7.9134 0-8.22305 6.7621-14.91284 15.07468-14.91284 8.312 0 15.0741 6.68979 15.0741 14.91284 0 2.7939-.8003 5.5301-2.314 7.9134-.0317.0502-.0577.1022-.0786.1561l-10.0367 15.9641c-.1508.2288-.1806.2808-.365.5805l-2.5345 4.0319-12.42042-20.5633c-.02218-.0583-.0507-.1154-.08491-.1693zm12.73533 29.4126c-8.89806 0-15.09877-3.0947-15.09877-5.8711 0-2.5199 4.66985-4.8945 10.95107-5.6298l3.0858 5.1095c.1704.2815.4758.4551.8072.4576h.0082c.3283 0 .6337-.168.8073-.4438l3.2442-5.1602c6.3813.6839 11.2932 3.1186 11.2932 5.6667.0006 2.777-6.2001 5.8711-15.0982 5.8711z"/><path d="m23.1715 16.7937c0-3.3668-2.7689-6.1062-6.1722-6.1062-3.4032 0-6.1722 2.7394-6.1722 6.1062s2.769 6.1062 6.1722 6.1062c3.4033 0 6.1722-2.7394 6.1722-6.1062zm-10.4435 0c0-2.33 1.9161-4.2256 4.2713-4.2256 2.3553 0 4.2714 1.8956 4.2714 4.2256s-1.9155 4.2256-4.2714 4.2256c-2.3558 0-4.2713-1.8956-4.2713-4.2256z"/></g></svg>