<svg width="324" height="41" viewBox="0 0 324 41" fill="none" xmlns="http://www.w3.org/2000/svg">
<g clip-path="url(#clip0_747_32)">
<path d="M29.0402 6.98289L24.9723 25.5071H32.6695L29.0402 6.98289ZM25.7234 40.5879H16.3086V38.479H17.9934C18.7883 38.479 19.4773 37.9297 19.6555 37.1559L27.9766 0.91289H31.1043L38.6844 37.1231C38.8504 37.9129 39.5465 38.479 40.3535 38.479H42.2215V40.5879H31.5773V38.479H34.2633C34.7863 38.479 35.1793 38 35.0766 37.486L33.1715 28.009H24.3473L22.2563 37.4707C22.1414 37.9879 22.5355 38.479 23.0652 38.479H25.7223" fill="#40422F"/>
<path d="M81.3271 40.5879H70.623V38.479H72.9271C73.6661 38.479 74.2641 37.8801 74.2641 37.1411V4.58089C74.2641 3.75509 73.5951 3.08399 72.7681 3.08399H70.871V0.976189H81.5781V3.08399H79.3911C78.5641 3.08399 77.894 3.75509 77.894 4.58089V19.9993C80.084 19.8751 81.336 18.8731 82.398 16.7461L88.31 3.84809C88.473 3.49109 88.213 3.08399 87.82 3.08399H86.073V0.976189H95.1021V3.08399H93.0511C92.1321 3.08399 91.2961 3.61289 90.9041 4.44299L83.6521 19.7493L91.5271 36.7501C92.0161 37.8051 93.071 38.479 94.234 38.479H95.786V40.5879H89.4931C86.5641 34.393 83.637 28.1969 80.709 22.002L77.894 21.752V37.1411C77.894 37.8801 78.493 38.479 79.232 38.479H81.3271" fill="#40422F"/>
<path d="M169.347 38.6215C171.968 36.0746 171.931 32.4848 171.931 31.5258C171.931 27.2078 169.99 23.7668 165.673 19.1348C161.543 14.6309 159.479 11.6258 159.479 8.12147C159.479 4.61757 161.229 2.55277 164.234 2.55277C166.424 2.55277 167.675 3.86568 168.114 6.24378L169.302 13.2528H171.054V1.04958C171.054 0.424575 170.929 0.111672 170.304 0.111672H169.49L168.74 1.98867C167.926 0.862474 166.424 0.236672 164.109 0.236672C159.102 0.236672 156.036 3.36567 156.036 8.55977C156.036 13.6285 158.477 17.0078 162.544 21.3258C166.612 25.7067 168.614 28.6477 168.614 32.0899C168.614 36.2196 166.55 38.5348 162.982 38.5348C162.978 38.5348 162.974 38.5348 162.97 38.5348C160.346 38.2875 157.755 36.1938 157.641 31.5149L157.114 25.8016H155.386V39.9418C155.386 40.7399 155.546 41.1387 156.344 41.1387H156.797V41.1375C156.923 40.8778 157.018 40.6715 157.075 40.5496C157.335 39.9875 157.412 39.7957 157.633 39.6649C157.776 39.5797 157.909 39.5617 157.978 39.5528C158.27 39.5149 158.538 39.6149 158.744 39.7278C158.825 39.7867 158.916 39.8375 159.002 39.8926C159.041 39.9215 159.083 39.9535 159.101 39.9676C159.295 40.1227 159.605 40.2688 159.986 40.3989C159.988 40.3996 159.991 40.4008 159.994 40.4016C160.003 40.4047 160.013 40.4078 160.023 40.4117C160.995 40.7828 162.201 40.9797 163.662 40.9797C163.89 40.9797 164.136 40.9559 164.387 40.9196C164.396 40.9188 164.406 40.9188 164.416 40.9188C164.442 40.9157 164.466 40.9086 164.492 40.9059C164.51 40.9028 164.528 40.9008 164.546 40.8977C167.247 40.6008 169.08 38.8817 169.347 38.6215Z" fill="#40422F"/>
<path d="M321.547 38.6215C324.168 36.0746 324.131 32.4848 324.131 31.5258C324.131 27.2078 322.19 23.7668 317.873 19.1348C313.743 14.6309 311.679 11.6258 311.679 8.12147C311.679 4.61757 313.429 2.55277 316.434 2.55277C318.624 2.55277 319.875 3.86568 320.314 6.24378L321.502 13.2528H323.254V1.04958C323.254 0.424575 323.129 0.111672 322.504 0.111672H321.69L320.94 1.98867C320.127 0.862474 318.624 0.236672 316.309 0.236672C311.302 0.236672 308.236 3.36567 308.236 8.55977C308.236 13.6285 310.677 17.0078 314.745 21.3258C318.813 25.7067 320.814 28.6477 320.814 32.0899C320.814 36.2196 318.75 38.5348 315.182 38.5348C315.179 38.5348 315.174 38.5348 315.17 38.5348C312.546 38.2875 309.955 36.1938 309.841 31.5149L309.314 25.8016H307.586V39.9418C307.586 40.7399 307.746 41.1387 308.545 41.1387H308.997V41.1375C309.123 40.8778 309.218 40.6715 309.275 40.5496C309.536 39.9875 309.613 39.7957 309.834 39.6649C309.977 39.5797 310.109 39.5617 310.177 39.5528C310.47 39.5149 310.738 39.6149 310.945 39.7278C311.025 39.7867 311.116 39.8375 311.202 39.8926C311.241 39.9215 311.284 39.9535 311.302 39.9676C311.495 40.1227 311.805 40.2688 312.186 40.3989C312.188 40.3996 312.191 40.4008 312.195 40.4016C312.204 40.4047 312.213 40.4078 312.223 40.4117C313.195 40.7828 314.402 40.9797 315.863 40.9797C316.09 40.9797 316.336 40.9559 316.588 40.9196C316.596 40.9188 316.606 40.9188 316.616 40.9188C316.643 40.9157 316.666 40.9086 316.693 40.9059C316.711 40.9028 316.729 40.9008 316.746 40.8977C319.447 40.6008 321.28 38.8817 321.547 38.6215Z" fill="#40422F"/>
<path d="M274.218 40.9766C267.334 40.9766 264.143 35.0317 264.143 21.4528C264.143 6.74566 267.396 0.23746 274.343 0.23746C276.471 0.23746 277.784 0.800362 278.661 1.98946L279.538 0.23746H280.225C280.789 0.23746 281.038 0.487459 281.038 1.17656V13.1286H279.225L278.098 6.87066C277.661 3.80466 276.659 2.55356 274.343 2.55356C269.9 2.55356 267.961 8.37266 267.961 21.4528C267.961 33.1536 270.025 38.2844 274.718 38.2844C277.159 38.2844 278.598 36.9715 279.411 33.9676L281.604 34.5305C280.664 38.9735 278.411 40.9766 274.218 40.9766Z" fill="#40422F"/>
<path d="M147.077 3.35389C147.9 3.35389 148.55 3.96009 148.723 4.76479C148.837 5.29289 149.119 6.28979 149.277 7.05699C149.655 8.89289 149.603 8.73899 149.942 10.7191H151.32V0.976092H149.254H135.56H132.199H131.948V3.08509H134.219C134.953 3.08509 135.549 3.68079 135.549 4.41599V4.86209V6.23979V35.3242H135.554V37.1492C135.554 37.8839 134.958 38.48 134.223 38.48H131.942V40.5879H132.199H135.554H146.69H149.254H149.949H151.32V30.625H149.942C149.892 30.905 149.817 31.3211 149.728 31.8281C149.553 32.8101 149.48 33.2422 149.359 33.9281C148.92 36.4199 148.759 36.5691 148.723 36.7992C148.598 37.6129 147.9 38.2101 147.077 38.2101H146.69H139.117V21.3468H142.373C143.423 21.3468 144.338 22.064 144.589 23.0839C144.788 23.8949 144.987 24.7058 145.187 25.5172L146.69 25.2672V22.9648V20.1789V15.141L145.187 14.891C144.987 15.7019 144.788 16.5129 144.589 17.3242C144.338 18.3441 143.423 19.0609 142.373 19.0609H139.117V3.35389" fill="#40422F"/>
<path d="M228.102 3.35389C228.925 3.35389 229.575 3.96009 229.748 4.76479C229.862 5.29289 230.144 6.28979 230.302 7.05699C230.68 8.89289 230.628 8.73899 230.967 10.7191H232.345V0.976092H230.279H216.585H213.224H212.973V3.08509H215.244C215.978 3.08509 216.574 3.68079 216.574 4.41599V4.86209V6.23979V35.3242H216.579V37.1492C216.579 37.8839 215.983 38.48 215.248 38.48H212.967V40.5879H213.224H216.579H227.715H230.279H230.974H232.345V30.625H230.967C230.917 30.905 230.842 31.3211 230.753 31.8281C230.578 32.8101 230.505 33.2422 230.384 33.9281C229.945 36.4199 229.784 36.5691 229.748 36.7992C229.623 37.6129 228.925 38.2101 228.102 38.2101H227.715H220.142V21.3468H223.398C224.448 21.3468 225.363 22.064 225.614 23.0839C225.813 23.8949 226.012 24.7058 226.212 25.5172L227.715 25.2672V22.9648V20.1789V15.141L226.212 14.891C226.012 15.7019 225.813 16.5129 225.614 17.3242C225.363 18.3441 224.448 19.0609 223.398 19.0609H220.142V3.35389" fill="#40422F"/>
<path d="M198.359 38.2102H196.418V3.35399H198.359C204.554 3.35399 207.306 8.42189 207.306 19.9372C207.306 32.7032 204.617 38.2102 198.359 38.2102ZM198.359 0.976189H192.852H189.505H189.244V3.08399H191.51C192.245 3.08399 192.841 3.68009 192.841 4.41529V4.86219H192.85V36.702H192.841V37.1493C192.841 37.8833 192.245 38.479 191.51 38.479H189.244V40.5879H189.505H192.852H198.359C207.12 40.5879 211.062 34.2051 211.062 19.9372C211.062 6.79499 207.12 0.976189 198.359 0.976189Z" fill="#40422F"/>
<path d="M183.727 38.479C182.992 38.479 182.396 37.8829 182.396 37.1481V35.3231H182.402V11.0961H182.398V4.42389C182.398 3.64299 183.032 3.00899 183.813 3.00899H185.796V3.01219H186.015V0.974987H185.736H175.409H175.131V3.01219H175.409V3.00899H177.357C178.138 3.00899 178.771 3.64299 178.771 4.42389V5.41999V11.0961V35.3231H178.774V37.1481C178.774 37.8829 178.179 38.479 177.443 38.479H175.161V39.209C175.16 39.2098 175.159 39.2098 175.158 39.211L175.161 39.227V40.5879H175.409H178.785H182.396H185.736H186.055V38.479" fill="#40422F"/>
<path d="M116.257 20.9379H113.628V3.35279H115.755C121.076 3.35279 123.14 5.73089 123.14 11.802C123.14 16.87 120.95 20.9379 116.257 20.9379ZM127.666 38.65C126.754 38.4137 126.021 37.7379 125.712 36.8481L121.889 25.8188C121.325 24.2547 120.887 23.3161 120.448 22.5649C124.079 20.875 126.77 17.684 126.77 11.802C126.77 4.29179 123.765 0.974987 115.63 0.974987H110.063H107.949H106.714V3.08399H108.722C109.457 3.08399 110.053 3.67969 110.053 4.41489V4.86179H110.06V35.3239H110.082V37.1477C110.082 37.8829 109.487 38.479 108.752 38.479H106.744V40.5879H110.053H110.093H113.626H116.262H117.06V38.479H114.957C114.222 38.479 113.626 37.8829 113.626 37.1477V35.3239H113.628V23.1899H117.57L123.203 40.5879H129.523L129.837 39.211" fill="#40422F"/>
<path d="M54.3945 20.9379H51.7656V3.35279H53.8926C59.2137 3.35279 61.2773 5.73089 61.2773 11.802C61.2773 16.87 59.0875 20.9379 54.3945 20.9379ZM65.8036 38.65C64.8916 38.4137 64.1586 37.7379 63.8496 36.8481L60.0266 25.8188C59.4625 24.2547 59.0246 23.3161 58.5855 22.5649C62.2166 20.875 64.9076 17.684 64.9076 11.802C64.9076 4.29179 61.9026 0.974987 53.7676 0.974987H48.2004H46.0863H44.8516V3.08399H46.8594C47.5945 3.08399 48.1906 3.67969 48.1906 4.41489V4.86179H48.1976V35.3239H48.2195V37.1477C48.2195 37.8829 47.6246 38.479 46.8894 38.479H44.8816V40.5879H48.1906H48.2305H51.7637H54.3996H55.1976V38.479H53.0945C52.3594 38.479 51.7637 37.8829 51.7637 37.1477V35.3239H51.7656V23.1899H55.7074L61.3406 40.5879H67.6606L67.9746 39.211" fill="#40422F"/>
<path d="M258.261 6.22579V4.40079C258.261 3.66609 258.857 3.06999 259.592 3.06999H261.859V0.974987H261.288H258.261H255.702H252.779H252.058V3.06999H254.371C255.106 3.06999 255.702 3.66609 255.702 4.40079V6.22579H255.699V32.5149C255.448 30.8879 255.011 29.3227 254.76 28.384L246.687 2.28989C246.376 1.41369 245.811 0.974987 244.874 0.974987H240.818H237.361H237.176V3.08399H239.477C240.212 3.08399 240.807 3.67969 240.807 4.41489V6.23989H240.806V35.336H240.812V37.1598C240.812 37.895 240.216 38.4911 239.481 38.4911H237.176V40.586H237.367V40.5879H243.308H246.559H246.883V38.4911H244.639C243.904 38.4911 243.308 37.895 243.308 37.1598V38.2731V4.41679H243.621L255.262 40.5879H258.265V6.22579" fill="#40422F"/>
<path d="M287.744 0.976092H284.131V3.08509H286.402C287.137 3.08509 287.733 3.68079 287.733 4.41479V4.86209V6.23979V35.3242H287.738V37.1492C287.738 37.8839 287.142 38.48 286.407 38.48H284.125V40.5879H284.382H287.738H298.874H301.438H302.133H303.504V30.6261H302.126C302.076 30.905 302.001 31.3211 301.911 31.8281C301.737 32.8101 301.664 33.2422 301.543 33.9281C301.104 36.4199 300.943 36.5691 300.907 36.7992C300.781 37.6129 300.084 38.2101 299.261 38.2101H298.874H291.301V21.3468H294.556C295.607 21.3468 296.522 22.064 296.772 23.0839C296.972 23.8949 297.171 24.7058 297.37 25.5172L298.874 25.2672V22.9648V20.1789V15.141L297.37 14.891C297.171 15.7019 296.972 16.5129 296.772 17.3242C296.522 18.3441 295.607 19.0609 294.556 19.0609H291.301V3.35389H299.261C300.084 3.35389 300.734 3.96009 300.907 4.76479C301.021 5.29289 301.303 6.28979 301.461 7.05699C301.839 8.89289 301.787 8.73899 302.126 10.7191H303.504V0.976092H301.438" fill="#40422F"/>
<path d="M8.41307 3.35279C13.5432 3.35279 15.6092 5.85589 15.6092 12.5516C15.6092 19.686 13.4811 22.8778 8.85017 22.8778C7.91107 22.8778 7.16027 22.8149 6.53527 22.6899V8.11489H6.53607V3.35279H8.41307ZM6.53527 36.8118V25.0047C7.22317 25.1926 7.97397 25.2547 8.91307 25.2547C15.7963 25.2547 19.3014 20.9996 19.3014 12.4887C19.3014 4.92969 16.6303 1.52889 10.1334 1.04379V1.02579C10.0361 1.01999 9.92907 1.02069 9.83217 1.01569C9.72707 1.00979 9.61307 1.01099 9.50607 1.00589C9.18727 0.992592 8.87637 0.974587 8.53807 0.974587H8.41307H3.43727H2.97127H0.857172H-0.37793V3.08359H1.62907C2.36497 3.08359 2.96027 3.67969 2.96027 4.41489V4.86099H2.96737V33.827V35.3227V36.6836C2.97517 36.6836 2.98217 36.6836 2.98927 36.6848V37.1477C2.98927 37.8828 2.39317 38.4789 1.65837 38.4789H-0.34863V40.5879H2.95917H3.00017H6.53337H9.16817H9.96617V38.4789H7.86427C7.12907 38.4789 6.53337 37.8828 6.53337 37.1477V36.8118C6.53337 36.8118 6.53417 36.8118 6.53527 36.8118Z" fill="#40422F"/>
</g>
<defs>
<clipPath id="clip0_747_32">
<rect width="324" height="41" fill="white"/>
</clipPath>
</defs>
</svg>
