<svg fill="none" height="120" viewBox="0 0 325 120" width="325" xmlns="http://www.w3.org/2000/svg"><g fill="#404231"><path d="m26.2 80.1h-9.4v-2.1h1.7c.8 0 1.5001-.5 1.7001-1.3l8.2999-36.2h3.1l7.6 36.2c.2.8.9001 1.4 1.7001 1.4h1.9v2.1h-10.6001v-2.1h2.7001c.5 0 .8999-.5.7999-1l-1.8999-9.5h-8.8001l-2.0999 9.5c0 .5.3 1 .8 1h2.7v2.1h-.2001zm3.3-33.6-4.0999 18.5h7.6999z"/><path d="m81.8001 80.0999h-10.7v-2.1h2.3c.7 0 1.3-.6 1.3-1.3v-32.6c0-.8-.7-1.5-1.5-1.5h-1.9v-2.1h10.7v2.1h-2.2c-.8 0-1.5.7-1.5 1.5v15.4c2.2 0 3.4-1.1 4.5-3.3l5.9-12.9c.2-.4 0-.8-.5-.8h-1.7v-2.1h9v2.1h-2.1c-.9 0-1.8.5-2.1 1.4l-7.3 15.3 7.9 17c.5 1.1 1.5 1.7 2.7 1.7h1.6v2.1h-6.3c-2.9-6.2-5.9-12.4-8.8-18.6l-2.8-.3v15.4c0 .7.6 1.3 1.3 1.3h2.1v2.3z"/><path d="m169.8 78.1001c2.6-2.5 2.6-6.1 2.6-7.1 0-4.3-1.9-7.8-6.3-12.4-4.1-4.5-6.2-7.5-6.2-11s1.8-5.6 4.8-5.6 3.4 1.3 3.9 3.7l1.2 7h1.8v-12.2c0-.6-.1-.9-.8-.9h-.8l-.8 1.9c-.8-1.1-2.3-1.8-4.6-1.8-5 0-8.1 3.1-8.1 8.3s2.4 8.4 6.5 12.8 6.1 7.3 6.1 10.8-2.1 6.4-5.6 6.4c-2.6-.2-5.2-2.3-5.3-7l-.5-5.7h-1.7v14.1c0 .8.2 1.2 1 1.2h.5c.1-.3.2-.5.3-.6.3-.6.3-.8.6-.9h.3c.3 0 .6 0 .8.2 0 0 .2 0 .3.2.2.2.5.3.9.4 1 .4 2.2.6 3.6.6h.7c2.7-.3 4.5-2 4.8-2.3z"/><path d="m322 78.1001c2.6-2.5 2.6-6.1 2.6-7.1 0-4.3-1.9-7.8-6.3-12.4-4.1-4.5-6.2-7.5-6.2-11s1.8-5.6 4.8-5.6 3.4 1.3 3.9 3.7l1.2 7h1.8v-12.2c0-.6-.1-.9-.8-.9h-.8l-.8 1.9c-.8-1.1-2.3-1.8-4.6-1.8-5 0-8.1 3.1-8.1 8.3s2.4 8.4 6.5 12.8 6.1 7.3 6.1 10.8-2.1 6.4-5.6 6.4c-2.6-.2-5.2-2.3-5.3-7l-.5-5.7h-1.7v14.1c0 .8.2 1.2 1 1.2h.5c.1-.3.2-.5.3-.6.3-.6.3-.8.6-.9h.3c.3 0 .6 0 .8.2 0 0 .2 0 .3.2.2.2.5.3.9.4 1 .4 2.2.6 3.6.6h.7c2.7-.3 4.5-2 4.8-2.3z"/><path d="m274.7 80.4998c-6.9 0-10.1-5.9-10.1-19.5s3.3-21.2 10.2-21.2 3.4.6 4.3 1.8l.9-1.8h.7c.6 0 .8.3.8.9v12h-1.8l-1.1-6.3c-.4-3.1-1.4-4.3-3.8-4.3-4.4 0-6.4 5.8-6.4 18.9s2.1 16.8 6.8 16.8 3.9-1.3 4.7-4.3l2.2.6c-.9 4.4-3.2 6.4-7.4 6.4z"/><path d="m147.6 42.9001c.8 0 1.5.6 1.6 1.4s.4 1.5.6 2.3c.4 1.8.3 1.7.7 3.7h1.4v-9.7h-19.4v2.1h2.3c.7 0 1.3.6 1.3 1.3v30.9 1.8c0 .7-.6 1.3-1.3 1.3h-2.3v2.1h19.4v-10h-1.4c0 .3-.1.7-.2 1.2-.2 1-.2 1.4-.4 2.1-.4 2.5-.6 2.6-.6 2.9-.1.8-.8 1.4-1.6 1.4h-8v-16.9h3.3c1.1 0 2 .7 2.2 1.7.2.8.4 1.6.6 2.4l1.5-.2v-10.1l-1.5-.2c-.2.8-.4 1.6-.6 2.4-.3 1-1.2 1.7-2.2 1.7h-3.3v-15.7h8-.1z"/><path d="m228.6 42.9001c.8 0 1.5.6 1.6 1.4s.4 1.5.6 2.3c.4 1.8.3 1.7.7 3.7h1.4v-9.7h-19.4v2.1h2.3c.7 0 1.3.6 1.3 1.3v30.9 1.8c0 .7-.6 1.3-1.3 1.3h-2.3v2.1h19.4v-10h-1.4c0 .3-.1.7-.2 1.2-.2 1-.2 1.4-.4 2.1-.4 2.5-.6 2.6-.6 2.9-.1.8-.8 1.4-1.6 1.4h-8v-16.9h3.3c1.1 0 2 .7 2.2 1.7.2.8.4 1.6.6 2.4l1.5-.2v-10.1l-1.5-.2c-.2.8-.4 1.6-.6 2.4-.3 1-1.2 1.7-2.2 1.7h-3.3v-15.7h8-.1z"/><path d="m198.9 40.5002h-9.1v2.1h2.3c.7 0 1.3.6 1.3 1.3v.4 31.8.4c0 .7-.6 1.3-1.3 1.3h-2.3v2.1h9.1c8.8 0 12.7-6.4 12.7-20.7s-3.9-19-12.7-19zm0 37.2h-1.9v-34.9h1.9c6.2 0 8.9 5.1 8.9 16.6s-2.7 18.3-8.9 18.3z"/><path d="m184.2 78.0001c-.7 0-1.3-.6-1.3-1.3v-1.8-24.2-6.7c0-.8.6-1.4 1.4-1.4h2.2v-2h-10.9v2h2.2c.8 0 1.4.6 1.4 1.4v30.9 1.8c0 .7-.6 1.3-1.3 1.3h-2.3v.7 1.4h10.9v-2.1z"/><path d="m128.2 78.0999c-.9-.2-1.6-.9-2-1.8l-3.8-11c-.6-1.6-1-2.5-1.4-3.3 3.6-1.7 6.3-4.9 6.3-10.8s-3-10.8-11.1-10.8h-8.9v2.1h2c.7 0 1.3.6 1.3 1.3v.4 30.5 1.8c0 .7-.6 1.3-1.3 1.3h-2v2.1h10.3v-2.1h-2.1c-.7 0-1.3-.6-1.3-1.3v-1.8-12.1h3.9l5.6 17.4h6.3l.3-1.4-2.2-.6zm-11.4-17.7h-2.6v-17.6h2.1c5.3 0 7.4 2.4 7.4 8.4s-2.2 9.1-6.9 9.1z"/><path d="m66.2999 78.0999c-.9-.2-1.6-.9-2-1.8l-3.8-11c-.6-1.6-1-2.5-1.4-3.3 3.6-1.7 6.3-4.9 6.3-10.8s-3-10.8-11.1-10.8h-8.9v2.1h2c.7 0 1.3.6 1.3 1.3v.4 30.5 1.8c0 .7-.6 1.3-1.3 1.3h-2v2.1h10.3v-2.1h-2.1c-.7 0-1.3-.6-1.3-1.3v-1.8-12.1h3.9l5.6 17.4h6.3l.3-1.4-2.2-.6zm-11.4-17.7h-2.6v-17.6h2.1c5.3 0 7.4 2.4 7.4 8.4s-2.2 9.1-6.9 9.1z"/><path d="m258.8 45.7v-1.8c0-.7.6-1.3 1.3-1.3h2.3v-2.1h-9.8v2.1h2.3c.7 0 1.3.6 1.3 1.3v1.8 26.3c-.3-1.6-.7-3.2-.9-4.1l-8.1-26.1c-.3-.9-.9-1.3-1.8-1.3h-7.7v2.1h2.3c.7 0 1.3.6 1.3 1.3v1.8 29.1 1.8c0 .7-.6 1.3-1.3 1.3h-2.3v2.1h9.7v-2.1h-2.2c-.7 0-1.3-.6-1.3-1.3v1.1-33.9h.3l11.6 36.2h3v-34.4z"/><path d="m288.2 40.4999h-3.6v2.1h2.3c.7 0 1.3.6 1.3 1.3v30.9 1.8c0 .7-.6 1.3-1.3 1.3h-2.3v2.1h19.4v-10h-1.4c0 .3-.1.7-.2 1.2-.2 1-.2 1.4-.4 2.1-.4 2.5-.6 2.6-.6 2.9-.1.8-.8 1.4-1.6 1.4h-8v-16.9h3.3c1.1 0 2 .7 2.2 1.7.2.8.4 1.6.6 2.4l1.5-.2v-10.1l-1.5-.2c-.2.8-.4 1.6-.6 2.4-.3 1-1.2 1.7-2.2 1.7h-3.3v-15.7h8c.8 0 1.5.6 1.6 1.4.1.5.4 1.5.6 2.3.4 1.8.3 1.7.7 3.7h1.4v-9.7h-15.9z"/><path d="m7.0001 76.3v-11.8c.7.2 1.4.2 2.4.2 6.9 0 10.4-4.3 10.4-12.8s-2.7-11-9.2-11.4h-10.500002v2.1h2.000002c.7 0 1.3.6 1.3 1.3v.4 29 1.5 1.4.5c0 .7-.6 1.3-1.3 1.3h-2.000002v2.1h10.300002v-2.1h-2.1c-.7 0-1.3-.6-1.3-1.3v-.3zm1.9-33.4c5.1 0 7.2 2.5 7.2 9.2s-2.1 10.3-6.8 10.3-1.7 0-2.3-.2v-14.6-4.8h1.9z"/></g></svg>