<?xml version="1.0" encoding="UTF-8"?>
<svg id="_Шар_1" data-name=" Шар 1" xmlns="http://www.w3.org/2000/svg" version="1.1" viewBox="0 0 400.8 120.3">
  <defs>
    <style>
      .cls-1 {
        fill: #404231;
        stroke-width: 0px;
      }
    </style>
  </defs>
  <path class="cls-1" d="M64.2,80.1h-9.4v-2.1h1.7c.8,0,1.5-.5,1.7-1.3l8.3-36.2h3.1l7.6,36.2c.2.8.9,1.4,1.7,1.4h1.9v2.1h-10.6v-2.1h2.7c.5,0,.9-.5.8-1l-1.9-9.5h-8.8l-2.1,9.5c0,.5.3,1,.8,1h2.7v2.1h-.2ZM67.5,46.5l-4.1,18.5h7.7l-3.6-18.5Z"/>
  <path class="cls-1" d="M119.8,80.1h-10.7v-2.1h2.3c.7,0,1.3-.6,1.3-1.3v-32.6c0-.8-.7-1.5-1.5-1.5h-1.9v-2.1h10.7v2.1h-2.2c-.8,0-1.5.7-1.5,1.5v15.4c2.2,0,3.4-1.1,4.5-3.3l5.9-12.9c.2-.4,0-.8-.5-.8h-1.7v-2.1h9v2.1h-2.1c-.9,0-1.8.5-2.1,1.4l-7.3,15.3,7.9,17c.5,1.1,1.5,1.7,2.7,1.7h1.6v2.1h-6.3c-2.9-6.2-5.9-12.4-8.8-18.6l-2.8-.3v15.4c0,.7.6,1.3,1.3,1.3h2.1v2.3Z"/>
  <path class="cls-1" d="M207.8,78.1c2.6-2.5,2.6-6.1,2.6-7.1,0-4.3-1.9-7.8-6.3-12.4-4.1-4.5-6.2-7.5-6.2-11s1.8-5.6,4.8-5.6,3.4,1.3,3.9,3.7l1.2,7h1.8v-12.2c0-.6-.1-.9-.8-.9h-.8l-.8,1.9c-.8-1.1-2.3-1.8-4.6-1.8-5,0-8.1,3.1-8.1,8.3s2.4,8.4,6.5,12.8,6.1,7.3,6.1,10.8-2.1,6.4-5.6,6.4,0,0,0,0c-2.6-.2-5.2-2.3-5.3-7l-.5-5.7h-1.7v14.1c0,.8.2,1.2,1,1.2h.5c.1-.3.2-.5.3-.6.3-.6.3-.8.6-.9.1,0,.3,0,.3,0,.3,0,.6,0,.8.2,0,0,.2,0,.3.2h0c.2.2.5.3.9.4h0c1,.4,2.2.6,3.6.6s.5,0,.7,0h0c2.7-.3,4.5-2,4.8-2.3Z"/>
  <path class="cls-1" d="M360,78.1c2.6-2.5,2.6-6.1,2.6-7.1,0-4.3-1.9-7.8-6.3-12.4-4.1-4.5-6.2-7.5-6.2-11s1.8-5.6,4.8-5.6,3.4,1.3,3.9,3.7l1.2,7h1.8v-12.2c0-.6-.1-.9-.8-.9h-.8l-.8,1.9c-.8-1.1-2.3-1.8-4.6-1.8-5,0-8.1,3.1-8.1,8.3s2.4,8.4,6.5,12.8,6.1,7.3,6.1,10.8-2.1,6.4-5.6,6.4,0,0,0,0c-2.6-.2-5.2-2.3-5.3-7l-.5-5.7h-1.7v14.1c0,.8.2,1.2,1,1.2h.5c.1-.3.2-.5.3-.6.3-.6.3-.8.6-.9.1,0,.3,0,.3,0,.3,0,.6,0,.8.2,0,0,.2,0,.3.2h0c.2.2.5.3.9.4h0c1,.4,2.2.6,3.6.6s.5,0,.7,0h0c2.7-.3,4.5-2,4.8-2.3h0Z"/>
  <path class="cls-1" d="M312.7,80.5c-6.9,0-10.1-5.9-10.1-19.5s3.3-21.2,10.2-21.2,3.4.6,4.3,1.8l.9-1.8h.7c.6,0,.8.3.8.9v12h-1.8l-1.1-6.3c-.4-3.1-1.4-4.3-3.8-4.3-4.4,0-6.4,5.8-6.4,18.9s2.1,16.8,6.8,16.8,3.9-1.3,4.7-4.3l2.2.6c-.9,4.4-3.2,6.4-7.4,6.4h0Z"/>
  <path class="cls-1" d="M185.6,42.9c.8,0,1.5.6,1.6,1.4s.4,1.5.6,2.3c.4,1.8.3,1.7.7,3.7h1.4v-9.7h-19.4v2.1h2.3c.7,0,1.3.6,1.3,1.3v30.9h0v1.8c0,.7-.6,1.3-1.3,1.3h-2.3v2.1h19.4v-10h-1.4c0,.3-.1.7-.2,1.2-.2,1-.2,1.4-.4,2.1-.4,2.5-.6,2.6-.6,2.9-.1.8-.8,1.4-1.6,1.4h-8v-16.9h3.3c1.1,0,2,.7,2.2,1.7.2.8.4,1.6.6,2.4l1.5-.2v-10.1l-1.5-.2c-.2.8-.4,1.6-.6,2.4-.3,1-1.2,1.7-2.2,1.7h-3.3v-15.7h8-.1Z"/>
  <path class="cls-1" d="M266.6,42.9c.8,0,1.5.6,1.6,1.4s.4,1.5.6,2.3c.4,1.8.3,1.7.7,3.7h1.4v-9.7h-19.4v2.1h2.3c.7,0,1.3.6,1.3,1.3v30.9h0v1.8c0,.7-.6,1.3-1.3,1.3h-2.3v2.1h19.4v-10h-1.4c0,.3-.1.7-.2,1.2-.2,1-.2,1.4-.4,2.1-.4,2.5-.6,2.6-.6,2.9-.1.8-.8,1.4-1.6,1.4h-8v-16.9h3.3c1.1,0,2,.7,2.2,1.7.2.8.4,1.6.6,2.4l1.5-.2v-10.1l-1.5-.2c-.2.8-.4,1.6-.6,2.4-.3,1-1.2,1.7-2.2,1.7h-3.3v-15.7h8-.1Z"/>
  <path class="cls-1" d="M236.9,40.5h-9.1v2.1h2.3c.7,0,1.3.6,1.3,1.3v.4h0v31.8h0v.4c0,.7-.6,1.3-1.3,1.3h-2.3v2.1h9.1c8.8,0,12.7-6.4,12.7-20.7s-3.9-19-12.7-19v.3ZM236.9,77.7h-1.9v-34.9h1.9c6.2,0,8.9,5.1,8.9,16.6s-2.7,18.3-8.9,18.3Z"/>
  <path class="cls-1" d="M222.2,78c-.7,0-1.3-.6-1.3-1.3v-1.8h0v-24.2h0v-6.7c0-.8.6-1.4,1.4-1.4h2.2v-2h-10.9v2h2.2c.8,0,1.4.6,1.4,1.4v30.9h0v1.8c0,.7-.6,1.3-1.3,1.3h-2.3v.7h0v1.4h10.9v-2.1h-2.3,0Z"/>
  <path class="cls-1" d="M166.2,78.1c-.9-.2-1.6-.9-2-1.8l-3.8-11c-.6-1.6-1-2.5-1.4-3.3,3.6-1.7,6.3-4.9,6.3-10.8s-3-10.8-11.1-10.8h-8.9v2.1h2c.7,0,1.3.6,1.3,1.3v.4h0v30.5h0v1.8c0,.7-.6,1.3-1.3,1.3h-2v2.1h10.3v-2.1h-2.1c-.7,0-1.3-.6-1.3-1.3v-1.8h0v-12.1h3.9l5.6,17.4h6.3l.3-1.4-2.2-.6h0ZM154.8,60.4h-2.6v-17.6h2.1c5.3,0,7.4,2.4,7.4,8.4s-2.2,9.1-6.9,9.1h0Z"/>
  <path class="cls-1" d="M104.3,78.1c-.9-.2-1.6-.9-2-1.8l-3.8-11c-.6-1.6-1-2.5-1.4-3.3,3.6-1.7,6.3-4.9,6.3-10.8s-3-10.8-11.1-10.8h-8.9v2.1h2c.7,0,1.3.6,1.3,1.3v.4h0v30.5h0v1.8c0,.7-.6,1.3-1.3,1.3h-2v2.1h10.3v-2.1h-2.1c-.7,0-1.3-.6-1.3-1.3v-1.8h0v-12.1h3.9l5.6,17.4h6.3l.3-1.4-2.2-.6h0ZM92.9,60.4h-2.6v-17.6h2.1c5.3,0,7.4,2.4,7.4,8.4s-2.2,9.1-6.9,9.1h0Z"/>
  <path class="cls-1" d="M296.8,45.7v-1.8c0-.7.6-1.3,1.3-1.3h2.3v-2.1h-9.8v2.1h2.3c.7,0,1.3.6,1.3,1.3v1.8h0v26.3c-.3-1.6-.7-3.2-.9-4.1l-8.1-26.1c-.3-.9-.9-1.3-1.8-1.3h-7.7v2.1h2.3c.7,0,1.3.6,1.3,1.3v1.8h0v29.1h0v1.8c0,.7-.6,1.3-1.3,1.3h-2.3v2.1h9.7v-2.1h-2.2c-.7,0-1.3-.6-1.3-1.3v1.1h0v-33.9h.3l11.6,36.2h3v-34.4h0Z"/>
  <path class="cls-1" d="M326.2,40.5h-3.6v2.1h2.3c.7,0,1.3.6,1.3,1.3v30.9h0v1.8c0,.7-.6,1.3-1.3,1.3h-2.3v2.1h19.4v-10h-1.4c0,.3-.1.7-.2,1.2-.2,1-.2,1.4-.4,2.1-.4,2.5-.6,2.6-.6,2.9-.1.8-.8,1.4-1.6,1.4h-8v-16.9h3.3c1.1,0,2,.7,2.2,1.7.2.8.4,1.6.6,2.4l1.5-.2v-10.1l-1.5-.2c-.2.8-.4,1.6-.6,2.4-.3,1-1.2,1.7-2.2,1.7h-3.3v-15.7h8c.8,0,1.5.6,1.6,1.4.1.5.4,1.5.6,2.3.4,1.8.3,1.7.7,3.7h1.4v-9.7h-15.9Z"/>
  <path class="cls-1" d="M45,76.3v-11.8c.7.2,1.4.2,2.4.2,6.9,0,10.4-4.3,10.4-12.8s-2.7-11-9.2-11.4h-10.5v2.1h2c.7,0,1.3.6,1.3,1.3v.4h0v29h0v1.5h0v1.4h0v.5c0,.7-.6,1.3-1.3,1.3h-2v2.1h10.3v-2.1h-2.1c-.7,0-1.3-.6-1.3-1.3v-.3h0ZM46.9,42.9c5.1,0,7.2,2.5,7.2,9.2s-2.1,10.3-6.8,10.3-1.7,0-2.3-.2v-14.6h0v-4.8h1.9,0Z"/>
</svg>