<?xml version="1.0" encoding="UTF-8"?>
<svg id="_Шар_1" data-name="Шар 1" xmlns="http://www.w3.org/2000/svg" version="1.1" viewBox="0 0 400.8 209.2">
  <defs>
    <style>
      .cls-1 {
        fill: #fff;
        stroke-width: 0px;
      }
    </style>
  </defs>
  <path class="cls-1" d="M64.2,169.1h-9.4v-2.1h1.7c.8,0,1.5-.5,1.7-1.3l8.3-36.2h3.1l7.6,36.2c.2.8.9,1.4,1.7,1.4h1.9v2.1h-10.6v-2.1h2.7c.5,0,.9-.5.8-1l-1.9-9.5h-8.8l-2.1,9.5c-.1.5.3,1,.8,1h2.7v2.1ZM67.5,135.5l-4.1,18.5h7.7l-3.6-18.5Z"/>
  <path class="cls-1" d="M119.8,169.1h-10.7v-2.1h2.3c.7,0,1.3-.6,1.3-1.3v-32.6c0-.8-.7-1.5-1.5-1.5h-1.9v-2.1h10.7v2.1h-2.2c-.8,0-1.5.7-1.5,1.5v15.4c2.2-.1,3.4-1.1,4.5-3.3l5.9-12.9c.2-.4,0-.8-.5-.8h-1.7v-2.1h9v2.1h-2.1c-.9,0-1.8.5-2.1,1.4l-7.3,15.3,7.9,17c.5,1.1,1.5,1.7,2.7,1.7h1.6v2.1h-6.3c-2.9-6.2-5.9-12.4-8.8-18.6l-2.8-.3v15.4c0,.7.6,1.3,1.3,1.3h2.1v2.1Z"/>
  <path class="cls-1" d="M207.8,167.1c2.6-2.5,2.6-6.1,2.6-7.1,0-4.3-1.9-7.8-6.3-12.4-4.1-4.5-6.2-7.5-6.2-11s1.8-5.6,4.8-5.6,3.4,1.3,3.9,3.7l1.2,7h1.8v-12.2c0-.6-.1-.9-.8-.9h-.8l-.8,1.9c-.8-1.1-2.3-1.8-4.6-1.8-5,0-8.1,3.1-8.1,8.3s2.4,8.4,6.5,12.8c4.1,4.4,6.1,7.3,6.1,10.8s-2.1,6.4-5.6,6.4,0,0,0,0c-2.6-.2-5.2-2.3-5.3-7l-.5-5.7h-1.7v14.1c0,.8.2,1.2,1,1.2h.5c.1-.3.2-.5.3-.6.3-.6.3-.8.6-.9.1,0,.3-.1.3-.1.3,0,.6,0,.8.2,0,0,.2.1.3.2,0,0,0,0,0,0,.2.2.5.3.9.4,0,0,0,0,0,0,0,0,0,0,0,0,1,.4,2.2.6,3.6.6s.5,0,.7,0c0,0,0,0,0,0,0,0,0,0,0,0,0,0,0,0,0,0,2.7-.3,4.5-2,4.8-2.3Z"/>
  <path class="cls-1" d="M360,167.1c2.6-2.5,2.6-6.1,2.6-7.1,0-4.3-1.9-7.8-6.3-12.4-4.1-4.5-6.2-7.5-6.2-11s1.8-5.6,4.8-5.6,3.4,1.3,3.9,3.7l1.2,7h1.8v-12.2c0-.6-.1-.9-.8-.9h-.8l-.8,1.9c-.8-1.1-2.3-1.8-4.6-1.8-5,0-8.1,3.1-8.1,8.3s2.4,8.4,6.5,12.8c4.1,4.4,6.1,7.3,6.1,10.8s-2.1,6.4-5.6,6.4,0,0,0,0c-2.6-.2-5.2-2.3-5.3-7l-.5-5.7h-1.7v14.1c0,.8.2,1.2,1,1.2h.5c.1-.3.2-.5.3-.6.3-.6.3-.8.6-.9.1,0,.3-.1.3-.1.3,0,.6,0,.8.2,0,0,.2.1.3.2,0,0,0,0,0,0,.2.2.5.3.9.4,0,0,0,0,0,0,0,0,0,0,0,0,1,.4,2.2.6,3.6.6s.5,0,.7,0c0,0,0,0,0,0,0,0,0,0,0,0,0,0,0,0,0,0,2.7-.3,4.5-2,4.8-2.3Z"/>
  <path class="cls-1" d="M312.7,169.4c-6.9,0-10.1-5.9-10.1-19.5s3.3-21.2,10.2-21.2,3.4.6,4.3,1.8l.9-1.8h.7c.6,0,.8.3.8.9v12h-1.8l-1.1-6.3c-.4-3.1-1.4-4.3-3.8-4.3-4.4,0-6.4,5.8-6.4,18.9s2.1,16.8,6.8,16.8,3.9-1.3,4.7-4.3l2.2.6c-.9,4.4-3.2,6.4-7.4,6.4Z"/>
  <path class="cls-1" d="M185.6,131.8c.8,0,1.5.6,1.6,1.4s.4,1.5.6,2.3c.4,1.8.3,1.7.7,3.7h1.4v-9.7h-19.4v2.1h2.3c.7,0,1.3.6,1.3,1.3v30.9h0v1.8c0,.7-.6,1.3-1.3,1.3h-2.3v2.1h19.4v-10h-1.4c0,.3-.1.7-.2,1.2-.2,1-.2,1.4-.4,2.1-.4,2.5-.6,2.6-.6,2.9-.1.8-.8,1.4-1.6,1.4h-8v-16.9h3.3c1.1,0,2,.7,2.2,1.7.2.8.4,1.6.6,2.4l1.5-.2v-10.1l-1.5-.2c-.2.8-.4,1.6-.6,2.4-.3,1-1.2,1.7-2.2,1.7h-3.3v-15.7h8Z"/>
  <path class="cls-1" d="M266.6,131.8c.8,0,1.5.6,1.6,1.4.1.5.4,1.5.6,2.3.4,1.8.3,1.7.7,3.7h1.4v-9.7h-19.4v2.1h2.3c.7,0,1.3.6,1.3,1.3v30.9h0v1.8c0,.7-.6,1.3-1.3,1.3h-2.3v2.1h19.4v-10h-1.4c0,.3-.1.7-.2,1.2-.2,1-.2,1.4-.4,2.1-.4,2.5-.6,2.6-.6,2.9-.1.8-.8,1.4-1.6,1.4h-8v-16.9h3.3c1.1,0,2,.7,2.2,1.7.2.8.4,1.6.6,2.4l1.5-.2v-10.1l-1.5-.2c-.2.8-.4,1.6-.6,2.4-.3,1-1.2,1.7-2.2,1.7h-3.3v-15.7h8Z"/>
  <path class="cls-1" d="M236.9,129.4h-9.1v2.1h2.3c.7,0,1.3.6,1.3,1.3v.4h0v31.8h0v.4c0,.7-.6,1.3-1.3,1.3h-2.3v2.1h9.1c8.8,0,12.7-6.4,12.7-20.7s-3.9-19-12.7-19ZM236.9,166.7h-1.9v-34.9h1.9c6.2,0,8.9,5.1,8.9,16.6s-2.7,18.3-8.9,18.3Z"/>
  <path class="cls-1" d="M222.2,167c-.7,0-1.3-.6-1.3-1.3v-1.8h0v-24.2h0v-6.7c0-.8.6-1.4,1.4-1.4h2s.2,0,.2,0v-2h-10.9v2h.3s1.9,0,1.9,0c.8,0,1.4.6,1.4,1.4v30.9h0v1.8c0,.7-.6,1.3-1.3,1.3h-2.3v.7s0,0,0,0h0v1.4h10.9v-2.1h-2.3Z"/>
  <path class="cls-1" d="M166.2,167.1c-.9-.2-1.6-.9-2-1.8l-3.8-11c-.6-1.6-1-2.5-1.4-3.3,3.6-1.7,6.3-4.9,6.3-10.8s-3-10.8-11.1-10.8h-8.9v2.1h2c.7,0,1.3.6,1.3,1.3v.4h0v30.5h0v1.8c0,.7-.6,1.3-1.3,1.3h-2v2.1h10.3v-2.1h-2.1c-.7,0-1.3-.6-1.3-1.3v-1.8h0v-12.1h3.9l5.6,17.4h6.3l.3-1.4-2.2-.6ZM154.8,149.4h-2.6v-17.6h2.1c5.3,0,7.4,2.4,7.4,8.4s-2.2,9.1-6.9,9.1Z"/>
  <path class="cls-1" d="M104.3,167.1c-.9-.2-1.6-.9-2-1.8l-3.8-11c-.6-1.6-1-2.5-1.4-3.3,3.6-1.7,6.3-4.9,6.3-10.8s-3-10.8-11.1-10.8h-8.9v2.1h2c.7,0,1.3.6,1.3,1.3v.4h0v30.5h0v1.8c0,.7-.6,1.3-1.3,1.3h-2v2.1h10.3v-2.1h-2.1c-.7,0-1.3-.6-1.3-1.3v-1.8h0v-12.1h3.9l5.6,17.4h6.3l.3-1.4-2.2-.6ZM92.9,149.4h-2.6v-17.6h2.1c5.3,0,7.4,2.4,7.4,8.4s-2.2,9.1-6.9,9.1Z"/>
  <path class="cls-1" d="M296.8,134.7v-1.8c0-.7.6-1.3,1.3-1.3h2.3v-2.1h-9.8v2.1h2.3c.7,0,1.3.6,1.3,1.3v1.8h0v26.3c-.3-1.6-.7-3.2-.9-4.1l-8.1-26.1c-.3-.9-.9-1.3-1.8-1.3h-7.7v2.1h2.3c.7,0,1.3.6,1.3,1.3v1.8h0v29.1h0v1.8c0,.7-.6,1.3-1.3,1.3h-2.3v2.1h.2s5.9,0,5.9,0h3.6v-2.1h-2.2c-.7,0-1.3-.6-1.3-1.3v1.1h0v-33.9h.3l11.6,36.2h3v-34.4h0Z"/>
  <path class="cls-1" d="M326.2,129.4h-3.6v2.1h2.3c.7,0,1.3.6,1.3,1.3v30.9h0v1.8c0,.7-.6,1.3-1.3,1.3h-2.3v2.1h19.4v-10h-1.4c0,.3-.1.7-.2,1.2-.2,1-.2,1.4-.4,2.1-.4,2.5-.6,2.6-.6,2.9-.1.8-.8,1.4-1.6,1.4h-8v-16.9h3.3c1.1,0,2,.7,2.2,1.7.2.8.4,1.6.6,2.4l1.5-.2v-10.1l-1.5-.2c-.2.8-.4,1.6-.6,2.4-.3,1-1.2,1.7-2.2,1.7h-3.3v-15.7h8c.8,0,1.5.6,1.6,1.4.1.5.4,1.5.6,2.3.4,1.8.3,1.7.7,3.7h1.4v-9.7h-15.8Z"/>
  <path class="cls-1" d="M45,165.3v-11.8c.7.2,1.4.2,2.4.2,6.9,0,10.4-4.3,10.4-12.8s-2.7-11-9.2-11.4h0c0,0-.2,0-.3,0-.1,0-.2,0-.3,0-.3,0-.6,0-1,0h-8.9v2.1h2c.7,0,1.3.6,1.3,1.3v.4h0v29h0v1.5h0v1.4s0,0,0,0v.5c0,.7-.6,1.3-1.3,1.3h-2v2.1h10.3v-2.1h-2.1c-.7,0-1.3-.6-1.3-1.3v-.3s0,0,0,0ZM46.9,131.8c5.1,0,7.2,2.5,7.2,9.2s-2.1,10.3-6.8,10.3-1.7,0-2.3-.2v-14.6h0v-4.8h1.9Z"/>
  <g id="qx1Mst">
    <g>
      <path class="cls-1" d="M203.3,93s-.2,0-.2,0c.4-1.5.4-.5.2,0Z"/>
      <path class="cls-1" d="M213.6,43.9c-.3.3.7,2.5.4,2.9l-.4-.8c-.8,0,0,1.5-.9.5s0-1,.2-1.4.3-1,.4-1.1.4,0,.4,0ZM213.6,45.3s-.6,0-.6,0c-.5.5,1.1.5.6,0Z"/>
      <polygon class="cls-1" points="200.2 86.9 200 86.5 200.2 86.5 200.2 86.9"/>
      <path class="cls-1" d="M198.7,80c0,0,0-.1,0-.2,0,0,.4,0,0,.2Z"/>
      <path class="cls-1" d="M185.8,45.1c-.2,0-.3,0-.4-.2l.4.2Z"/>
      <path class="cls-1" d="M197.5,77.5c0,0-.4-.5,0-.4.2,0,.1.4,0,.4,0,0-.1,0-.2,0Z"/>
      <path class="cls-1" d="M202.9,93.6s0-.3.2-.6c0,.3,0,.3-.2.6Z"/>
      <path class="cls-1" d="M190.8,48.9c-.2,0-.3,0-.4-.2.2,0,.4,0,.4.2Z"/>
      <path class="cls-1" d="M186.6,45.3c.9-.4.8.3,1.3.8.2-1.2.6-.4.6.4-.4,0-.3-.1-.6-.4,0,.3,0,.7,0,1-.4-.2-.2-.7-.6-.8-.4.3.6,1,.4,1.1-.9.4-.4-.9-.6-1.2s-.5,0-.6,0c0-.3,0-.6,0-1ZM187.3,45.5c-.2-.1-.6.1-.6.4.3.2.9-.2.6-.4Z"/>
      <path class="cls-1" d="M181.6,48.9c0,0-.1,1.2,1,1.1,0,.6.4,1.1.4,1.1s-1,.1-.4,1.2c-.5.2-.3-.7-.8-.4,0-.1,0-.4,0-.6.8.2.3-1.5,0-1s0,.7,0,1c-.2,0,0-2-.8-2.5.1,0,.5,0,.6,0Z"/>
      <path class="cls-1" d="M213.6,43.9c0,0,.1-.1.2-.2,0,.2-.2.2-.2.2Z"/>
      <path class="cls-1" d="M193.5,71.9c0,0,.7.4.6.6s-.5-.2-.6-.2c0-.1,0-.3,0-.4Z"/>
      <path class="cls-1" d="M193.5,71.5c0,.1,0,.3,0,.4-.2-.2-.4-.6-.4-.6.1,0,.3.2.4.2Z"/>
      <path class="cls-1" d="M193.5,71.1c0,0,.5,0,.6,0s-.2.4-.2.4c0,0-.3,0-.4,0,0-.1,0-.3,0-.4Z"/>
      <path class="cls-1" d="M193.1,71.3c0,0-.1-.1-.2-.2,0,0,.1.1.2.2Z"/>
      <path class="cls-1" d="M191.9,71c0,.3.1.6.4.9,0,.1-.3,0-.4,0s-.2-.1-.2-.2-.2-.4-.2-.4c0-.1,0-.4,0-.4,0,0,.3.2.4.2Z"/>
      <path class="cls-1" d="M190.8,48.9c0,0,.7-.8,1-.6-.6.4-.2,1.2-.2,1.9-.5,0,.2-.6-.6-.6,0-.3-.2-.7-.2-.8Z"/>
      <path class="cls-1" d="M202.7,70.6c-.4,1-.3.1-.4,0,0,0,.3,0,.4,0Z"/>
      <path class="cls-1" d="M202.3,70.6s-.4,0-.4,0,.3-.4.4-.5c0,0,0,.5,0,.6Z"/>
      <path class="cls-1" d="M191.9,64.4s.1.8.2,1c-.6,0-.5-.3-.6-.8s.1,0,.2-.2c0,0,.2,0,.2,0Z"/>
      <path class="cls-1" d="M199.4,49.7c-.1,0-.3.1-.4.2,0-.3,0-.6,0-1,.3,0,.4.6.4.8Z"/>
      <path class="cls-1" d="M200.2,94.7v-.2c.4,0,0,.2,0,.2Z"/>
      <path class="cls-1" d="M202.1,46.8c.4-.4.6-.5.4-.8.9-.3.4.7.6.8s1.1,0,1.3.2c1.2,1.1-2.2-.3-2.3-.2Z"/>
      <path class="cls-1" d="M222,49.3c-.1.1,0,.3-.4.2,0-.2.2-.2.4-.2Z"/>
      <path class="cls-1" d="M168.4,58.3c-.3,0-1.1,0-1.2,0s.1.8,0,.8-.7-1.9-1.8-1.1c-.2-.7.8-.2,1-.4s-.4-.7-.4-.8c.1-.1,2.5.4,1.7-1.5.7-.2.5.3.6.4-.6-.6-.2,1-.2,1.1-.2,0-.7,0-.8,0,0,0,.7,1.7.8,0,.2,0,.4.5.6.3-.3-.2-.3-1.4-.4-1.4.6.6.7,1.1.8,2.1-.4.3-.8-.7-.6.6Z"/>
      <path class="cls-1" d="M212.8,45.1s-.7-.2-1,0c-.2-.6.5-.3.6-.4,0-.3-.4-6.4,1-1.9.7-1.3,2.1.3,1.7-1.1s-.7-.3-.7-.6.4,0,.4-.1-.4-.8-.1-1.2,1.8,1.5,1.8,1.6c.1.3-.4.3-.3.4,0,.4-.4,5.7.5,4.5s-.5-3.4,1.3-1.9c0-2.9,2.2-.1.8.6v-1.5c-.7.1-.3,1.8,0,1.9.7.2.6-1.4,1.2-1.3-.6,1.4-.8,2-1,3.3-.5-.7.3-1-.8-1,0-.1.4-.4.4-.7,0-.5-.7,0-.8-.1,0,0,.3-.5.2-.6s-1.1.3-.2.6c0,.3-.3,1-.2,1.1s.4-.4.6-.4c0,.2,0,.6,0,.8-.9,0-.8.4-.2.8-.2.4-.4.6-.6,1,0-.3,0-.6,0-1-.3,0-.5.8-.7.8s.4-.9-.2-.8c-.4.3-.2.7-.5,1.1,0-.4,0-.9,0-1.3l-.6,1.3-1-.6c1.3.7-.7,1.1-.1,2.1s.5-.7.6-.8c.3,0-.2,1,.5.8-.3-1.7,0-.8.6-1.5,0,.5-.2,1-.2,1.5.2,0,.3-.2.4-.4-.4.8.3,1.1.4,1.1.7.8.6-.3.6-.4,0,0-.5.5-.6.4s0-1.9-.4-1.1c.2-.3.4-1.1.4-1.1.1-.2.7-.2.7-.2.1.7.2,1.2,0,1.9h.4c-.9.8.2.8.4,1,0,.3-.2,1.3.4,1.1.5-1-.3-1-.4-1.1,0-.4,0-.8,0-1.2.5.6.3-1,1.2-.3s.4,1.8.9.5c.6-1.7-1.3-.7-.9-2.3l.8.4c-.4-.5.9-2.7,1.3-2s.1.9.2,1.3.4.1.4.1c.1.5-.9.5-.9.9,0,.7.4.4.4.5,0,.7,0,1.4,0,2.1,1.3,0,.1.3.2,1-.3,0-.2-.7-.2-1-.2,0-.9,0-1,0-.1.1.1,2.6.2,2.9-.7-.7-.7.5-.8.6-.2.2-1.7.9-.7,1.5s.3-1.1.7-1.5,1.4,0,.8-.6c.2.8.3,1.6.8,2.1s.5.2.6-.6l-.6.6c-.4-.7.2-1.6.2-1.9,0,0,0,.6,0,.6.6.6.5-1.6,0-.6,0-1.1.5-.9-.4-1.7.3-.1.8.6,1,.4s-.2-.8.2-.8c.5,1.5.5,1.6-.2,3.3.5.1.3-.2.6-.4,0,0,0,.6,0,.6.6.6.4-1.5,0-.6,0,0-.1-.4,0-.4.7,0,.6.5.7.6s.5-.3.6-.2c.3.3-.3,2.2,1.3,1.7.2.7-.7.3-.8.4s0,1.4,0,1.5c-.6,0-1.4,0-1.5.7.3.3.6-.4.9-.3s.2.2.7.4.5,1,.6,0-.6,0-.6,0c0-.2,0-.5,0-.8.1,0,.3,0,.4,0,0,.2,0,.5,0,.6.8-1.1,0-.6,0-.6-.1-2.5.7-1,.9-1,1.2.1-.5-1.1.1-1.5-.5-.3-.3.5-.6.4s.1-.4-.1-.6-.6.3-.7.1.4-.4.3-.6c-.3-1.1-1.2-.7-.9-1.8l-.8.8c-.3-1,.3-1.5,1.1-.9s0,.7,0,.7c0,0,.5-.3.6-.2s-.2.2.4.8c1,.8,2-.7.2-.2-.2-1.8-.4-.4-.6-.8-.3-.5.7-1.3-1.7-.8-.1-.6.5-.3.6-.9s-.3-.4-.4-.5c.1-.3.2-.6.2-1-1.2.9-.2.9-.2,1-.1.4,0,.4-.6.6,0-.6.2-1-.4-.6.1-.9,1-1.1,0-2.1v1.1c-.5.5,0-.7-.7.2.2-.8.7-1.9-.2-2.1.1-.1,0-.7.6-.5s1.6,1.7,1.8,1.6.9-.8.7-1-1.5.4-1-.2c1.8-1.9.8,2.8,2.2.2.8,3.9,2.6-1.4.7,1.1v-1.5c.8-.1,0,.5.2.6.9.6-.1-1.5.1-2.1.6-1.3.8.5.9.5.4,0,0-1.1.7-1,.8,1.5-.9,2.2-1,3.7s.6.1.6.6-.9.9-.6,1.6c.5.2.4-.4.6-.5.7-.2.3,2.2-1.3,1.6l1.3.6c-2-.2-.5.4-1.1,1.5s-.7.1-.9.4,3.9,1.7,3.4-.6l-.6.6c.4-1.9,0-.5-.6-1.3,1.4-.9,1.3,1.2,1.4,1.1.3,0,.2-.8.5-1.1s1.1.4.6-.9c1.3,1,1.5,0,2.7-.2-.1.4-1,.4-1.1.9s.8.2.8.9l-1.3-.2c-.2.7.8.4,1,.6s-.4,1.9-1.3,1.1,0-.7,0-.7c-.1,0-1.6.4-1.5.9.1.7,1.3-.3,1,1l-.8-.6c0,.7.6,1.3-.4,1.1-.1.7.6.2.8.4.3.3-.6.8-.6.9,0,.2.8.9.6,1.1-.6.5-1.6-1.2-1.7,1.6s.6.3.6.3c0,1.5-2,.7-3.1,1.5,1.1-1.8-.4-1.6-.3-.4,0,1,1.8,1.3-1,1-.1-.9-.5,0-.4.2s.3-.2.4-.2c0,.7-.2,1.1-.4,1.7,1.1-2,1.1-.3,1.3-.6s0-.5,0-.5c1.4-.7,0,.4.2,1.1.4-.7,1.2-1.3,1.6-.3.9-.5-.3-1.2,0-1.4.6-.5.7.7.8.8.5.3.2-.9,1.2-.5,2.3.9,0,1.4-.6,1.9s1.4.4-.5,1c-.2,0,0-.4-.3-.4s.1.5,0,.6c-.8.1-1.4-.8-1.4-.8-.4.5.5,1.9-1.7,1,.3.4,1.2.6,1.1,1.3-.1,1.1-1-.3-1.3-.4-1.2-.6-2-1.2-3.1-1.3l1,.6c-1.4.6-1.6-.3-1-1.3-.5.5-.6.2-1.1,0,.3.4.9,1.5.3,1.8-.8.4-.5-1.2-.9-1.5s-.7.2-.8.1-.1-.4-.2-.4c-1.8,0-.6,1.1-.9,1.7-1.6-.9-1.7,1.4-2.1-1.3-.4,1-1.5,2.1-1.7,3.2s.6,1.4-.3,2.8c-.6.9-1.3.8-1.5.9-1,1-2.7,2.4-3.3,3.5-1,1.6-4.5,11.1-4.4,12.7s2.8,4.5,4.2,4.9,2.3-.8,1.6.8c-.1-.9-1.6-.7-1.6.2.2-1.9-2.3,1.3-1.2-1.2-.7.5-1.4,2.3-1.5.4,0,0,.8.1,0-.4v.4c-.6-1.1-1.9-.4-1.3-2.1-1.4,2.6-2.4,1.8-1.3-.8-.3,0-.2.2-.4.4,0-.2.1-1-.2-1l-.2,1.3c.3,0,.2-.2.4-.4-.1,1.8-.4.4-.7.6-.5.3-.2,1.2-.9,1.1-.5-1.6.7-1.1.8-1.1,0-.1.3-1.6.4-1.9.4-1,.2-.5.6,0l.2-1c-.6.4-.2,0-.5-.4l-.3.4-.5-1c.4,1.9-.5.2-.5-1.1,0,.7-1,4.3.6,3.6-.7,1.3-.9.8-1.3-.2-1.7,3.9-.1.2-.2,0-.1-.7-1.1,1.1-1.2,1.2s-.3.1-.4.3h.4c-.6,1.8-.4.2-.9.3s-2.3,2.1-2.5,2.5l-.8-1.1c.6,1.8-.1.5-.3.6s-1.1,2-.4,0c-1,.7-1.3,0-.4-.6-.4.3-1.5.1-1.8.2-.4.1-.2.6-.4.8s-.3-.7-1-.6-.3.8-.9.6-.2-1.5-.1-1.5c.4-.1.5.4.8.3.6,0,5-.7,5.1-.9s-.3-.9-.2-1c.2-.6,1.1-.8,1.2-.9,0-.1.4-2.8.4-3,0-1-1-2.1-1-2.9s.7-.7.8-1-.4-2.2-.4-2.8.5-1.2.4-2.1-.6-1-.6-1.5.7,0,.8-.1c.8-.8-.8-.8-.9-.9-3.6-2.6-3-.7-6.6-.5-1.2,0-3.4-.2-4.5-.6s-3.6-2.8-4.4-3.1-1.4.6-1.3-.2,1.3-.8-.1-1-1.2,1.7-1.7,1.5.3-.7,0-.8c-.8-.3-2.1,2-2.7.7-.4-.8.7-2,.5-2.1s-1.5,0-1.5-.5,2.9-.8,1.5-1.6-.7.5-.9.6c-.4,0-.6-.5-.7-.5-.3,0-1.1.8-1.4.5s0-.7,0-.8-.4.2-.6.1c-.3-.3-.5-1.2-.6-1.3-.2-.2-.3.6-.7.7s-2.1-.3-1.8-.7.5.2.6,0c1.1-.9-1-.3-1.5-1.8,0-.2,1-1,1.1-1s.2.6.5.8.8-.6,1,1.1c.6-.1-.3-1.1-.1-1.1s.8.8,1.2.6l-.6.6c.5,0,3-.6,3.1-.8.3-.5-.6-.3-.6-.4-.1-.3.6-1.1.3-1.5s-1.2-.4-1.3-.4c0,0,.1,2.1,0,2.5-.7-.3-.6-1.3-1.2-.4,0-.4.2-.8.4-1.1s1.2-.8.4-1.5.4,2.5-1.3.2c-.1.4,1.1,1.2,1,1.3s-1.3.4-1.3.4c-.2-.2.6-1,.4-1.1s-.6.2-.7.2c-.1,0,.1-.4.1-.4-.2,0-.7.1-1.1-.1-.9-.5.2-.6.2-.7-.4.4.4.9.8.6s-.4-.9-.8-.6c.4-.9-.7-1.8-1-1-2.1-.7-.8,1.2.2.6s-.2-.4-.2-.6c1.5.5-.1.8-.4,1.5.2-.9-1.2-.7-1.2-1.4,0-1.6,2.4-.2,2.5-.3.9-1.1-1.8-.6-1.9-1.2s.7-.5.8-.8-.3-.6-.3-.9.4-.6.3-.7-.7,0-.8-.3c-.2-.7.8-1,.8-1,0-.2-.3-.4-.4-.6.2,0,.7,0,.8,0s-.2-.4-.2-.6c.2-.1.4-4.1.4-1l.2-1c.5,0,1.1,1.1,1,1.5l-.6-.6.2,1.5-.8-.9c.1,1.5,1.1,1,1.1,1.1s-.6,2.1.2,2.5c-.4-4.1.6-1.5,1.1-1.5s.7-.6.6-.8-1-.3-1-.7.8-1.2.4-1.8-1.8,0-1.5-.9,1.9,0,2.1-.2.8-1.9.8-2.2c.4.6.5.1.6.2,0,.2.2,2,1.1,1.3-.6.2-1.1.5-.8,1.3-.2-.1-.4-.6-.5-.6-.6.1,0,.8,0,1-2.2-.5-.5,1,.2.6s-.2-.4-.2-.6c.4,0,2.9,1.6.6-.4.5,1.1.4-.8,1-.6,0,.3-.1,1.8.6,1.5s-.6-1.6-.6-1.7,1.4-.1,1.6-.4-.3-1.2.2-1.2.2,2.7,1.1.2c-1,.6,0-2.3-.4-3.5s-.7-.1-.8-.4.8-.5.8-.6c.1-.4-.3-1.4-.2-1.4.5-.5,1.9,1.1,1.5,1.9.6,0,.5-.8.8-1.1s.5.2.6.2c.2-.3-.4-.8-.3-1.2.2-1,1.3-1.5.9-2.9l-.4,1.5c-.9-.3-.1-2.1.3-2.1s1,2.1,1.2,2.5l.6-1c-.2.5.8,2.9,1.1,2.7s-.2-2.6-.2-3.1c0,0,0,.3,0,.4.6.1.3-.7,0-.4,0-.2,0-.4,0-.6.9.3.3-.4-.2-.8,0,.2.2.6.2.8-2.2-.7.3-.9.4-1,.1-.2-.9-1.8,0-2.1.2.8.1,2.4.3,3.1s1.7,1.6.5,1.5c0-.2,0-.7,0-.8-.3-.4-.8.7,0,.8.9,2,.6-.7,1.3-.2,0-.3-.2-.6-.2-1s.4,0,.4,0c-.1-.6-1.1-1.1-.8,0-.9-.4-.5-.3-1-1.5.7-.4.7,1,1,.8s-.6-.9.2-.8l.4.8.2-1c-.1.8.3,1.5.4,2.1-1.1.5-.1.8,0,1,0,.5,0,1.6,0,2.1-.1,0-.3-.3-.4-.2-.3.4.3,1.9.4.2.6,0,.8,0,1.1-1s.1-.2.2-.4c1.8,1.1,0-4.5,1.7-.6,0-.7.4-1.2.4-1.9-.1,0-.5.4-.6.4-.1-.2.4-.8,0-.8l-.6.8c.2-1.9-.5-1.2-.4.2l-.9-.8c-.3-.2-.3,1.4-.7.4s1.1-.5,1.1-.6c.1-.1-.2-.7-.2-.8.1-.1,1.2.7,1.3-.7s-.6.8-1,.5c-.5-.5,0-3.2.8-2.4s0,2.9.2,3c.2.2.8-1,.8.8.3-.1.9-.6,1.1-.6.2.1.4,1.3,1.1.9,1.2-.7-.1-.8-.2-.9-.4-.7.5-.5.6-.6,0,0-.6-1.5,1,.2-.2-.2-1.2,0-.8.6s1.1-.2.8-.6c1.1,1.2,0,.9-.3,1.5-.5.9.2.4.3.4-.4,1.3.3,1.5,1.3,1.1,0-.5-.6-.2-.7-.2-.6-.6.4-.5-.7-.9.6-1.9,1.8,1.5,1.3-1.3l.8,1c.1-.4-.2-1-.2-1.3.5.1,1.7.8,1.3-.5s-.7.2-.8,0,.8-2.6-.4-1c.2-.4,0-1.6.6-1.9.5,1.9.5,4,2.7,2.1-.2,1.2.9.2,1.3,1.7.6-.9-.4-1.7-.4-1.8,0-.6.5-.2.6-.3s-.6-1.9-.4-2.3c1.1.2.6,1.9,1.7.6.4.9-.2,1-.4,1.8,2-1.2,0,2.4.4,3.3-.9-.3.2-1.6,0-1.7s-1.2.4-1.3.4c-.7.8.9,1.7.3,2.6l-.6-.8c.1.4,0,.6-.2,1,.4-.4-.6-1-.8-.8s.4,1.1.8.8c-.2.4-.5.6-.4,1.1-1.3-2.2-.7-.3-.8-.2s-.5-.4-.7.1-.1,2.3,0,2.4c.2.2.6-.5,1-.8,0,.2-.1.6,0,.8.3-.2.3-.6.3-1,0,0,.7-.1.6,0-.1.4-.6,1.8-1,1.8,0-.1,0-.4,0-.6s-.4.4-.6-.2c0,.6-.2.9.6.8.1.3-.2,1,.3,1.3.6,0,0-.8,0-1.1s.4,0,.4,0c0,.4,0,.8.6.8v-1.3c-.2.1-.4.4-.6.6-.3-1.4.4-.6.6-1s-.5-.7-.4-.8,1.5.6,0-1.3l1.3,1.1c-.3-.6-.6-1.6-.4-2.2s.8,0,.9-.1,0-.5.2-.8c-.1.2.3,1,.2,1.1s-.5-.3-.6-.2c-.2.2.3,1.6-.6,0-.2,1.2,1,1.9,1.3.6.3.9-.3,2.1-1,1,.1.8.7.6,0,1,2.5.8,1.4-.4,1.5-.7.3-.5.8.4.6,1l.6-.4c-1,1.5.9,1.3,1,1,.2-.6-.4-.4-.4-.6,0-.6.4,0,.4,0,0-.6,0-1.3,0-1.9.5.3.3,3.7,1.1,1.9s-.6,0-.4-1,.7-1.7.7-1.8c0-.7-1.2.2-1.3.3.2-1.9-.4,0-1-1.1s0-.9-.2-1.1c.3.2,1.1,1.5,1.5.7s-.5-.2-.6-.3c-.5-.7.2-1.7-1-.6l-.4-.8c.2,1.9,0,0-.5.2s-.5,1.2-1.1.8.9-2.3-.2-.8c0-2.3,1.3,1.2,1.5-1.1l.6.4c.2-1.4-.3-.4-1-.8l1.3-.4c-1.6-1-.2-.7-.2-.8s-.2-.3-.2-.4c0,0,.5,0,.6,0s0-.8,1-1.1c.2.4-.8,1.3-.8,1.3.1.1.6-.2.7-.1,1.3.8-.3.7-.3.7s0,1.7-.2,2.1c.6,0,.7-1.3.8,0,.6-1.4.5.8,1.3-1,.4,4.7.4-.9,1.1-.8s1,1.6.7,2.1c2.1-1.3.9,0,1,0,.2.7,1.4,1.6-.6,1.9s0-.7-1.3-1.6c.6.8-.3,4.4-.2,4.6s1.5-1.2,1.1.6c-1.6-2.1-1.3,1.8-.2,1.1s0-.3.6-.9.5.1.6,0c.1-.2-.3-.8-.2-1s.5.3.6.2c.1-.1-.6-2.6,1.9-1.5,0,.4,0,.8.6.8.1-1.2-.2-.6-.6-.8,0-.3.2-.8.2-1.1l-.6.4c0-1.2,1.1-.7.8.4.5-.5,1.2.2,1.8-.2s1.1-4.1,0-1.5c.9-1.1-.6-2.4-.6-2.5.1-.6,1.9-.3,1.1-1.7-.8-.2-.2.9-.4,1.1s-.7,0-.8,0c.6-1.2-.2-.3-.6.2s-.4,0-.6.3.3.7.2.8ZM201.1,42c-.8-.1-.2,1-.2,1.3l.2-1.3ZM198.7,43.6s-.6-.2-.6-.2c-.6.5.7.8.6.2ZM197.9,43.6c-.5-.6-1.5,1.1-1.3,1.3.5.5,1.4-1.3,1.3-1.3ZM201,43.6s-.3,0-.4,0c-.1.6.7.3.4,0ZM199.6,43.9c-.4-.7-.4.8-.2,1.1.3,0,.2-1.1.2-1.1ZM199,45.3c0-.4.1-1-.4-1.1,0,.3,0,1.1.4,1.1ZM217.2,45.5c.1-.1.2-.9.2-1.1-.5,0-.7,1.7-.2,1.1ZM196.4,44.5c-.7-.1-.5.9-.6,1.3.7.1.5-.9.6-1.3ZM205,44.5c-.1-.2-.7.3-.6.4.2.2.7-.3.6-.4ZM215.7,44.9c-.4-.2-.8.9-.8,1,.2.2,1-.6.8-1ZM205.9,45.3c-.2,0-.5,0-.6,0-.3.3.4.7.6,0ZM197.6,45.5v.2h0c0,0,0-.2,0-.2ZM199.8,45.7c0,0-1.4,0-1.1.4.3.3,1.7,0,1.1-.4ZM206.5,45.9c-.9-.5-.2,1-.8,1.5,1.1-.7.9-.4,1.3.6.4-3.2-.3-1.5-.5-1.5-.2,0,0-.5,0-.6ZM217.6,45.9c-1.1-1-.8,2.9-.1,1.5s.2-1.4.1-1.5ZM181.2,46c0,.3,0,.4.3.6,0-.2,0-.7-.3-.6ZM184.3,47c.1-.1-.3-.9-.6-1-.2.3.3,1.3.6,1ZM215.9,46c-.4-.7-.6,1.1,0,1.1s.1-1.1,0-1.1ZM198.5,46.2c-1.3.2.6,1.9.6.2-.7.5-.5-.2-.6-.2ZM207.9,46.2c-.7-.2-.3,1.4,0,1.3s0-1.1,0-1.3ZM197.1,46.7c0,0-.5-.4-.7-.3s.9,2.1,1.3.8-.4-.2-.5-.2c-.2,0,0-.3-.2-.3ZM181.4,46.8c0,0-.7-.3-.7-.2-.5.5,1.9,1.9.7.2ZM190.4,48.7c-.2,0-.5.2-.6.2,0-.1.5-1.9.4-2.3-.8,0,0,1-1.1,1,1.2-.2-1.2,2.2.6,2.9,0,.5.3,1.9.6,2.2s.6-.2,1.2-.1c-.2-.2-.8.4-.6.6s.8-.4.6-.6c.4,0,1,0,1.1,0,0,.1,0,.4,0,.6.3.9,1.1-.5,0-.6,0-.1.2-.4.2-.5s-1.2-1.2-1.1-1.6c.8.6,2.1.6,2.1-.5s-.9-.6-.6-.9,2,.6.8-.8c1.1.2.7-.4.8-1.3-.6,0-.3.4-.8.8.2-.2.3-1.1-.6-.4-.1-.2.3-1-.4-.7l-.4,1.4c.6,0,.3-.4.8-.8,0,0,.2.9.6.4-.7.6-.9-.1-1,1.3-.3-.4-.2-.3-.6-.6,0,0,0,.6,0,.6-.4,0-.4-1,0-.6-.2-.2-.4-.7-1.1-.8s0,.3-.2.4c-.2,0-.9-.7-.7.6ZM192.5,46.6c-.2-.3-.6.3-.4.6.2,0,.5-.4.4-.6ZM216.7,46.6c-.2-.2-.8.4-.6.8s.9-.4.6-.8ZM182,47.3l-.2,1.4c.5.6,1.3-1.6.2-1.4ZM191,47c-.5-.5-.5,1.1,0,.6s0-.6,0-.6ZM191.9,47c-.6-.6-.3.9,0,.8s0-.7,0-.8ZM195.6,47.3c-.5-.9.2,1.5.5.8,0-.5,0-.9-.5-.8ZM185.8,49.9c0-.7.2-1.3-.4-2.2s-1.1-.6-1.2-.5c-.2.2.2,2,.3,2.1s.5.1.6.2,0,.5,0,.5c0,0,.4-.2.6-.2.2,1.3.6.2.4,0s-.3,0-.4,0ZM180.8,48.3c.1-.2,0-.9-.4-1-.1.3,0,1.5.4,1ZM183.1,48c-.5-.6-.5,1.4,0,.8s0-.7,0-.8ZM181,48.9c0,0-.5,0-.6,0s.1.5-.1.6.1-.8-.5-.6l-.2,2.1c-1.2-1.2-.5.5-.6,1.2s-.6-.1-.4.4c.5.2.3-.3.4-.4.2-.1.6.2.9-1-.1,1.6.6.6.9.8s0,.6.3.8.3-.6.7-.8c.3,1.6.6.5.8.4.5-.3.9.6.8-1.1l.6.6c-.3-1.1.3-.9.4-1,0,.1,0,.5,0,.7s.5,0,.6.1c.1.5,0,2.2.2,2.6s.4.1.4.1c-.2,1.3.8,1.4.5.4s-.5-.3-.5-.4c0-.1,0-.3,0-.4s.4,0,.6,0c.1.3,0,1,.4,1.1-.2-1.1.6-1.3-.4-1.1,0-.2-.1-.9-.2-1-.3-.2-.3.8-.6.8-.2-.5.3-2.7.2-2.9s-.5.3-.6.2c-.3-.4,0-1.2-.6-.4-.4-.9-1-.7-.8-1.9-1.1.2.4,1.1-1,1.1,0,0,.4-1.6-.2-1.1s.5.9,0,.8c0-.5-.6-.7-.7-.8s0-.9-.5-.8,0,.7,0,.8ZM207.7,48.9s-.4-.8-.6-.8c-.4.2,0,1.3.6.8ZM187.4,49.1s-.4-.1-.4.3c0,1.4,1.4.7,1,.1s-1.1.5-.6-.4,1.2,0,.6-.8-.5.7-.6.8ZM195.5,48.4c-.8,0-.7.5-.9,1.1.4-.1,2-1,.9-1.1ZM213.4,49.3s0-.5,0-.6c-.2-.3-.2.9,0,.6ZM214.2,48.7c-.5-.6-.5,1.4,0,.8s0-.7,0-.8ZM220.9,49.7c0-.3.2-.8-.2-.8,0,.3-.2.8.2.8ZM217.4,50.1c0,0,0-1,0-1-.5,0-.3,1.6,0,1ZM186.6,49.7v-.4h-.2v.4h.2ZM195.6,49.3c-.5-.6-.5,1.4,0,.8s0-.7,0-.8ZM207.5,50.5s.2-1,.2-1.1c-.7,0-.6,1.4-.2,1.1ZM222.7,49.3v.2h0c0,0,0-.2,0-.2ZM213.6,49.7c-.4-.4-.9.4-.3.6s.3-.6.3-.6ZM214.4,52.2c.2-1.1-.2-3.6-.7-1.4l.7,1.4ZM221.5,49.9c-.2-.2-.7.3-.6.6.3.3.9-.3.6-.6ZM219.3,50.8s0-.6,0-.6c-.4,0-.4,1,0,.6ZM186.5,51.2c0-.1.2-.8-.1-.7-.6.7-.6,1.9.1.7ZM213.2,50.5c-.3-.4-.7.8-.6,1,.2.3.8-.6.6-1ZM223.9,50.5s-.3,0-.4,0c-.1.6.7.3.4,0ZM225.3,50.5c-.2-.2-.8.4-.8.6.2.4,1.3,0,.8-.6ZM226.1,50.6c-.5-.9-.5,2,0,1.1s0-1.1,0-1.1ZM202.2,51.8c0-.2.2-.6.1-.9-1,.5-.8,1.9.4,1.9.2-.5-.5-.9-.5-1ZM203.1,51.8c0-.1,0-1.6-.4-1s.3.9.4,1c0,.3-.4.7,0,1,.8-1.6,0-.9,0-1ZM203.8,50.8c-.5-.5-.5,1.1,0,.6s0-.6,0-.6ZM215.7,50.8c-.5-.3-.5.7-.4.8.3.3.7-.6.4-.8ZM221.5,50.8s-.3,0-.4,0c-.1.6.7.3.4,0ZM214.6,52.9c1,0,.7-1.9.3-1.9s-.3,1.7-.3,1.9ZM219.2,52c.4-.1.4-.6.4-1-.4.1-.4.6-.4,1ZM220.7,51s-.4,0-.4,0c0,.4,0,.4.3,0,0,0,.1-.1,0-.2ZM213.8,51.2s-.3,0-.4,0c-.1.6.7.3.4,0ZM226.8,51.2c-.9,0-.4,1.4-.4,1.9l.4-1.9ZM186.8,52c.3.2.5-.6,0-.6s-.1.6,0,.6ZM224.9,51.4c-.3-.3-.8.7-.6,1s.8-.7.6-1ZM228.2,51.4c-.8,0-1.3,0-1.1,1l1.1-1ZM207.9,52.6c0-.3.3-.9.2-1-.3-.4-1.2.5-.2,1,.2,2.2.7,0,.6-.2s-.5.2-.6.2ZM213.4,52.8c-.8.2.2-1.1-.8-1l.2,2.3c.4-.2.5-1,.6-1.3.9-.3.2-1,0-.8s0,.6,0,.8ZM225.5,53.1c.2-.2.2-1.1,0-1.3,0,1.1-1,1-1.1,1.1,0,.2,1.1.3,1.1.3ZM183.9,53.3c-.3-.5-.4.4-.4.7s.4.3.4.3c0,.2-.1.7,0,.8.5,0,.2-.5.3-.8s.4.1.4-.3-.3-1.1-.2-1.6l-.6.6v-1c-.7.3-.2.8,0,1.3ZM209.2,53.1c0-.2-.1-1-.3-1-.4,0-.3,1.1.3,1ZM215.7,52.9c0-.3.2-.8-.2-.8,0,.3-.2.8.2.8ZM227.5,52.4v.3c0,0,.2,0,.2,0v-.2l-.2-.2ZM183.1,52.6c-.3-.2-.6,1.1,0,1.1s.2-1.1,0-1.1ZM185.8,52.6s-.4,0-.4,0c0,.4,0,.4.3,0,0,0,.1-.1,0-.2ZM196.5,53.1c0-.2-.7-.6-.8-.6-.4.3.2.8.8.6ZM214.4,52.6c-.8-.3.1,1.4.2,1.3.3-.2-.2-1.1-.2-1.3ZM193.7,53.3s0-.6,0-.6c-.4,0-.4,1,0,.6ZM194.4,53.3c0-.2.2-.5,0-.5l-1.2,1.3c.9.4,1,.1,1.3-.8ZM191.9,52.9c-.6-.2-.4,1.1-.4,1.1.4.5.7-.8.4-1.1ZM225.7,53.7c.1.1.5-.5.4-.8-.3,0-.4.7-.4.8ZM203.4,53.9c.2-.2-.4-.7-.6-.8-.2.4.3,1,.6.8ZM215.3,53.7s0-.5,0-.6c-.2-.3-.2.9,0,.6ZM205.4,54.3c0,0,.2-.8.2-1-.7,0-.7,1.4-.2,1ZM208.6,53.7s0-.4,0-.4c-.3,0-.3.7,0,.4ZM209.4,54.3c0,0,0-1,0-1-.5,0-.3,1.6,0,1ZM196.2,54.1c.3.2.5-.6,0-.6s-.1.6,0,.6ZM201.7,53.9c0,0-.1-.2-.2-.3-.5-.3-.1.7.2.3ZM202.3,53.5c-.4-.6-.6.9,0,1s.1-.9,0-1ZM206.3,54.5c0-.4.3-.6.3-1-.2.1-.8.8-.3,1ZM190.4,54.3c0-.3,0-.4-.3-.6,0,.2,0,.7.3.6ZM204.2,54.9c0-.3-.2-1-.6-1.1,0,.4,0,1.3.6,1.1ZM192.7,53.9c-.3-.4-.5.5-.4.8.3,0,.4-.7.4-.8ZM197.1,53.9c-.5-.5-.5,1.1,0,.6s0-.6,0-.6ZM208.8,54.7c0,0,0-1.3-.4-.8-.5.7.3.7.4.8,0,.2-.1.8,0,.8,1-.1,0-.7,0-.8ZM189.6,55.1c.1-.2,0-.7-.4-.8-.1.3,0,1.2.4.8ZM219.7,54.9c.3-.3-.6-.8-.6-.3s.5.4.6.3ZM184.1,56.2c.5.5,1-1.4.8-1.7-.2.1-1,1.5-.8,1.7ZM187.2,55.2c0-.2,0-.8-.4-.8,0,.2,0,.8.4.8ZM205.9,55.4c0,0,0-1,0-1-.5,0-.3,1.6,0,1ZM209.8,54.5c-.7-.2-.4,1.3,0,1.5v-1.5ZM190.2,54.7s-.3,0-.4,0c-.1.6.7.3.4,0ZM203.1,55.4c.1.1.6-.6.4-.8s-.6.6-.4.8ZM205.2,54.7c-.4-.4-.4.3-.2.6.3,0,.2-.6.2-.6ZM203.8,56s.1-1-.2-1c-.2.3-.2,1.6.2,1ZM172,55.6l-1.3-.2c0,.4,1.2.6,1.3.2ZM220.9,55.4s-.3,0-.4,0c-.1.6.7.3.4,0ZM179.1,56.2c.2-.2-.3-.7-.6-.6-.3.3.3.9.6.6ZM180.1,55.6c-.2-.3-.6.3-.4.6.2,0,.5-.4.4-.6ZM187,55.6c-.4-.7-.6,1.1,0,1.1s.1-1.1,0-1.1ZM186.2,56.6s0-.8,0-.8c-.4,0-.3,1.2,0,.8ZM224.1,55.8c-.2-.4-.7.6-.6.8.2.2.8-.4.6-.8ZM226.1,55.8s-.6,0-.6,0c-.5.5,1.1.5.6,0ZM227.2,55.8c-.4-.3-1.5.2-1,.6s1.5-.2,1-.6ZM220.5,56.4v-.4h-.2v.4h.2ZM221.1,56.4c-.5-.6-.5,1.4,0,.8s0-.7,0-.8ZM176.2,56.6c-.5-.6-.5,1.4,0,.8s0-.7,0-.8ZM192.3,57.7l.2-1.1c-.4,0-.6,1.1-.2,1.1ZM186.2,57.4c.3.2.5-.6,0-.6s-.1.6,0,.6ZM193.7,57.4c0-.2,0-.9-.4-.6s.4.5.4.6c0,0,0,1.8.4.3s-.4-.3-.4-.3ZM224.3,57.4s0-.5,0-.6c-.2-.3-.2.9,0,.6ZM173,57c-.1-.3-.6.7-1,.3.3.5,1.3.4,1-.3ZM175.7,57.7c.1-.2,0-.7-.4-.8-.1.3,0,1.2.4.8ZM189.8,57.9c0-.3-.5-1.2-.8-1s.6.9.8,1ZM210.1,59.1l.2-2.1c-.5.4-.9,1.8-.2,2.1ZM219.9,57.7s0-.6,0-.6c-.4,0-.4,1,0,.6ZM193.1,57.4c-.2-.2-.7.3-.6.6.3.3.9-.3.6-.6ZM220.7,57.4c-.6.6-1.1,1-1,1.7.7-.5,1.2-.8,1-1.7ZM221.1,58.3c.2.3,1.2-.8.5-1s-.6.8-.5,1ZM222.6,57.5c-.3-.3-.8.7-.6,1s.8-.7.6-1ZM215.5,58.3s0-.5,0-.6c-.2-.3-.2.9,0,.6ZM172.8,57.9s-.7,0-.8,0c-.6.5,1.4.5.8,0ZM183.3,58.7c.1-.2-.1-.6-.4-.6-.2.3.2.9.4.6ZM192.5,58.1s-.3,0-.4,0c-.1.6.7.3.4,0ZM223.8,58.7s0-.6,0-.6c-.4,0-.4,1,0,.6ZM224.5,58.1c-.6-.2-.6.8-.3.8s.3-.5.3-.8ZM205.6,58.5c-.2,0-.6-.2-.8-.1-.9.6.7,1.1.8.1ZM173.6,59.3l-.8-.8c0,.2,0,.7,0,.8s.6,0,.8,0ZM221.1,58.7c-.2-.2-1.2.5-.8.8s1-.5.8-.8ZM169.7,59.1c-1.4-.3-1.6,1.1-.2.4s.3,0,.2-.4ZM171.1,59.7s0-.5,0-.6c-.2-.3-.2.9,0,.6ZM176.4,59.1c-1.9.2-.4.8,0,1.9.1-.9-.4-1.1,0-1.9ZM173.9,60.2c0,0,1.3-.2.6-1s-.6.7-.6,1c0,0-.7-.5-.4.3.6,1.3.4-.2.4-.3ZM205.9,60.2c.2.2,1.8,1.7,1.9,1.5.8-1-1.5-1.3-1.9-1.5,0,0,.3-.3.1-.6-.3-.5-2.1-.5-.1.6ZM229.9,60.2c.2-.3-.5-1.2-.8-1s.4,1.5.8,1ZM170.1,59.7c-.4,0-1.3,1-1.3,1.2,0,.6.5,0,.6,0,.1.2-.5.9.1,1.1.9.5,0-.5,0-.6s.4,0,.5-.5-.5-.4,0-1.4ZM208.6,59.7s-.4,0-.4,0c0,.4,0,.4.3,0,0,0,.1-.1,0-.2ZM220.5,59.7c-.4-.4-.8.8-.3.8s.4-.6.3-.8ZM172.4,61.6c0-.2-.1-.6-.4-1s-.6-.1-.6-.1c0,0,.4-1.5-.4,0s.3.8.4.9c-.7-.4-.3,1.1.2.6s-.2-.6-.2-.6c.2.2.9.4,1,.4.2.3.1.8.8.8,0-.6-.5-.6-.8-.8ZM179.1,60.6c.2-.4-.6-.7-.8-.6-.4.4.6,1,.8.6ZM210.9,60.6c-.1,0-.5,0-.6,0-.2.3.5,2.3,1,1s-.6-.2-.6-.3c0-.3.4,0,.4-.3s-.2-.4-.2-.5c0,0,1.1,0,.6-.6s-.5.5-.6.6ZM223.2,60.8c0-.1,1.1.4.8-.8-.5,0-.6.6-.8.8s-1,1-.8,1.3c.5,1,.7-1.3.8-1.3ZM227.8,60.6c.1,0,.5-.4.4-.6s-.5.4-.4.6ZM209,60.2c-.4-.5-.5.8,0,.8s.1-.7,0-.8ZM224.5,60.8s0-.5,0-.6c-.2-.3-.2.9,0,.6ZM181.4,61.4c0-.3.2-1-.2-1,0,.3-.2,1,.2,1ZM208.2,61.2c0-.3.2-.8-.2-.8,0,.3-.2.8.2.8ZM229.1,60.4s-.6,0-.6,0c-.5.5,1.1.5.6,0ZM209.6,61.8c0,0,.1-1.2-.2-1.1-.2.3-.2,1.9.2,1.1ZM194.6,61.4c-.7-1.2-.5,1.4,0,.7s0-.6,0-.7ZM213.6,62s0-.6,0-.6c-.4,0-.4,1,0,.6ZM170.9,61.9c.2-.6-1.4-.3-.8.2s.8-.2.8-.2ZM212.8,61.6l-.6.6c.6,0,.6,0,.6-.6ZM208.8,62.3s-.4-1-.8-.5.9,2,1.5,1.3c1.1-1.1-.5-.7-.7-.8ZM173.4,62.9c-.1,0-.6-.6-.8-.4s.4,2,.8.4c1.6.2.3-1.1,0-.8s0,.6,0,.8ZM211.1,62.3s-.3,0-.4,0c-.1.6.7.3.4,0ZM210.8,62.9v.2h0c0,0,0-.2,0-.2ZM207.7,64.1c0,0,.2-.8.2-1-.5,0-.7,1.5-.2,1ZM215.1,63.3c-.3-.3-.9.9-.8,1.1.2,0,.9-1,.8-1.1ZM211.3,63.7c-.3-.4-1.2-.2-.6.8.5.2.6-.7.6-.8ZM171.3,64.3c0,0-2-.9-.8.4.4.5.7-.4.8-.4,0,0,1.4,0,.8-.6s-.7.6-.8.6ZM173,63.7s-.6,0-.6,0c0,.4.7.2.6,0ZM209,69.2c-.1,2.3-.4.6-1.4,2.3-1.6,2.6-2.8,6.3-3,9.3,0,.8.5,1.7,1.1.9s3.8-10.1,3.7-4.7c.7-.6.2.6.5.6s.8-1.5,1-1.8.7,0,.8,0c0,0-.2-.7,0-1.2s1.5-1.3,1.5-1.6-.9-.7-1.1-1.3.4-.2.4-.4c-.8-2.3-1.7,0-2.6-2.4-.6-1.6.7-4.6-1.8-5.1.4,1.2.9.6,1,.7.5.6-.2,1.4-.2,1.8,0,1,.3,2,.2,3,0-.3.1-.7-.4-.6l-.2,1c.2.2.6-.3.6-.4ZM216.3,64.1c.4-.4-.3-.4-.6-.2,0,.3.6.2.6.2ZM191.8,64.4c0,0-.2.2-.2.2-.3,0-.6-.2-.6.3.1,1.4,2.8,1.6,1-.5s0-.8-.2,0ZM215.3,64.1c-.2-.2-.8.4-.6.8.2,0,.7-.6.6-.8ZM195,64.3c-.2-.3-.6.3-.4.6.2,0,.5-.4.4-.6ZM208,65.2c0,0,0-1,0-1-.5,0-.3,1.6,0,1ZM173.4,65.2c.3.2,1-.4.8-.6s-1.2.3-.8.6ZM225.7,65.4c.2.2.6-.8,0-.8s-.1.7,0,.8ZM202.3,70c0,0,0-.3,0-.4-1.1.7,0-.5-1.5-.2,1.3-.3.4-.5.7-.8s.6.3.7.2,0-1.5,0-1.5c0,0-2.6-.2-1.5-1.1-1.1-.2-.3.9-.8,1.5s-.6-.1-.6-.1c0,.1.1,1.5-.7,1.7s-1.3-1.4-1.2-2,1.2,0,.9-.7-2.2-1.6-2.4-1.5c-1,0-1.2,5.7-1.4,5.9s-.9,0-1.1-.4c-.1.1.1.4,0,.6-.3-.3-1.1-1.4-1.3-.8.6,0,.7.7.8.8-.6-.4-.4-.2-1-.2,0-.2.1-1.2-.4-.8s0,.5,0,.6-.3-.3-.4,0c0,.2.3.4.4.5s.1.2.2.4.1.1.2.2c0,.1.2.7.2.8.1,0,.4-.4.5-.4.2,0,.4.9.7.6s-.7-.4.2-.4c.1.7.5.4.6.7.3.6-.7-.1-.6.3s1.9,1.6,2.3,1.5l-.8.2c.4.9.7,1.1,2.1,1.3,0,.4-.6.1-.6.2,0,.3.6.3.6.6-1.4-.1-.6.5.4.4.1,0,.1,0,.2,0,1.1,0,0-.3.8-.4.5,1.9-1.3,0,0,1.4l-.8-.2c.7.5.7.7,1,1.4v.2c.2,1.6.4,7.5.4,1.9l.4,1.5c.8-1.7-.2-3.3-.2-4.5s.6-.9.5-1.3-.7-1.3-.7-1.6c0-.6.7.1.6-.2-.2-.7-2-1.7-.8-1.8-.7.5-2-.7-2.6-.6s.1.8-.5.6c-.1-1.2-1.1-1.7-1.9-2.5,0,0,.5-.3.9-.1s1.5,1.7,1.6,1.8c.7.4,2.5-.5,3.7,1.2s1.1,7.7,1.1,10.4.9,1.7-.2,1.7c1.6,1.4.9-1.5,1.2-2.5.7-3.1,2.2-6.3,2.5-9.4,0,0-.4-.5-.4-1.1s.5-.3.5-.4c0-.6-1.5-1.9-1.3-2.8l-.2.8c0-.5-.5-.5-.6-.6.1-.4.3-.7.2-1.1-.5-.1-.4.3-.6.6ZM188.1,65.4c-1-.2.5.9-.2,1.4s-2.7,0-2.5.9.9.6,1.1.7c.7.2.1-.8.6-.4s.6,1.5.7,1.5c.2.1,3.7.2,4,0,2.7-.5,1.7-3.1-.1-3s-.2.5-.7.6c-1.1.2-1-.6-1.2-.6s-2.1,1.2-.9-.9c-.8.3-.7-.4-.8-.4ZM189.4,65.4l-.3.3h0c0,0,.2,0,.2,0v-.2ZM213,65.8c-1.1-.7-1.6,1.5-1.4,2.3s2.5,2.5,2.6,2.4,1.6-2.8,2.3-3c-.5-.3.2-2-1-1.8s-.5,2.3-2,1.8.3-1.3-.6-1.8ZM187.7,66c-.4-.4-.4.3-.2.6.3,0,.2-.6.2-.6ZM188.9,66.7c.1,0,.5-.4.4-.6s-.5.4-.4.6ZM205.6,67.1s-.6-.2-.8-.2c0,.5,1.3.8.8.2ZM198.3,68.8s0-.5,0-.6c-.2-.3-.2.9,0,.6ZM185.6,69.4c0-1.5-.8.2-.9.2-.4.3-.3-.5-.7-.4-.6.1-.9.6-1.2.6-.5,0-.3-.9-1.2-.4-.2.6.9.5,1,.9s-.6.5-.6,1,.8.1.6.9-.5.1-.6.6c-.2,2.8,4.2,3.9,6.4,3.6s1.5-.7,1.8-.8c1-.2.7,1.4,2-.9.2-.3,1.1-.3,0-1.6s-1.8.7-1.9-1c-.4,1.5-1.5.6-1.2.2s.8.5,1-.5-1.6-1-1.7-1c-.8,0-.5,1.2-.7,1.6s-.6.4-.7.6.9.8-.1.9,0-2.7-.3-2.9c-.7-.7-.9,2-1,2.1-.6.3-.7-.6-.8-.6-.2,0-.6.8-1,.2s.8-.9.9-1.3-.7-.7-.6-.8,1.7-.5,1.7-1.2ZM173,69c-.5-.7-.8.9-.4,1.3.5,0,.5-1.2.4-1.3ZM202.5,69c-.3-.1-.9,0-.6.4s.6-.2.6-.4ZM171.6,69.2c-.2,0-.7,0-.8,0s0,.6,0,.8l.8-.8ZM221.5,69.6c0,0-.1-.2-.2-.3-.5-.3-.1.7.2.3ZM185.6,70c.3.2.7-.4.6-.6s-1,.4-.6.6ZM205.2,72.7c1,.9,1.5-2.7,1-3.3-1.1.4-1.6,2.6-1,3.3ZM190.2,71c0-.3,0-.4-.3-.6,0,.2,0,.7.3.6ZM173.5,70.6v.2h0c0,0,0-.2,0-.2ZM177.8,70.6c-2.3,2,1.9,3.1.9,1.4s-1.1-.2-.9-1.4ZM180.3,70.6c-.1-.1-.7,0-.8.3,0,.6,1.1,0,.8-.3ZM190.6,70.6c0,.3,0,.4.3.6,0-.2,0-.7-.3-.6ZM192.7,75.9c-.7.2-1.8.4-2.3,1,.8,0,1.8-.3,2.3-1ZM190.4,76.3c-.3,0-.6,0-.8.3.2,0,.8,0,.8-.3ZM196.4,76.3s-.3,0-.4,0c-.1.6.7.3.4,0ZM209.4,77.9s0-.5,0-.6c-.2-.3-.2.9,0,.6ZM207.9,79.4l-.2,1.7c.4-.2,0-1.1.2-1.5s1.3-.1,0-.2ZM203.6,88.6v-2.7s.2,0,.2,0v2.9c1.1-.6.7-2.1,1-3s.5,0,.5,0c.1-.6,0-2.3,0-2.9-.3.7-1.1.6-1,1.5l-.4-.6.2,2.5-.4-1.9-.2,1.3-.4-.8.4,3.6ZM200,86.5c0,0-.5.3-.6.4v-1.7s-.2,1.1-.2,1.1l-.8-2.5.4,2.5-.6-.7.8,2.2c-.3,0-.3-.7-.6-.6s.2.6-.2.6l-.4-.7,1,3.5c.4,0,1.6-1.1,1.6-1.3.1-1.2-.3-.7-.7-1.5s.3-.7.4-1.1,0-.1,0-.4c-.2-1.2,0-.1-.2,0ZM203.3,89.2c0-.7,0-1.8-.8-2.1-.2,1.7,0,1.3.8,2.1,0,.7-.3.1-.4.6,1.2-.2.8-.2.4-.6ZM202.2,88.6v.2h0c0,0,0-.2,0-.2ZM202.1,90.3c0-.3.2-1.1-.2-1.1,0,.3-.2,1.1.2,1.1ZM200.6,89.9c-.4-.5-.8,1.3-.2.8s.2-.7.2-.8ZM201.7,92.4c.2-.6.2-1.3.2-1.9-.3.3-.6,1.7-.2,1.9ZM204.2,93.6s0-.5,0-.6c-.2-.3-.2.9,0,.6ZM197.7,95.3c-.1-.4.3-1.5-.2-1.7.1.4-.3,1.5.2,1.7ZM196.9,96.6s.2-.8.2-1c-.4,0-.7,1.3-.2,1Z"/>
      <path class="cls-1" d="M189.6,50.5c0,0,.6-.7.8-.8-.1.4-.4,1.4.4,1.3,0,2.4-.7-.6-1.1-.6Z"/>
      <path class="cls-1" d="M191,49.7c0,.6.7,1.2-.2,1.3,0-.8-.4-1.4.2-1.3Z"/>
      <path class="cls-1" d="M225.7,55.2c0-.2,0-.2.2-.2,0,.1,0,.2-.2.2Z"/>
      <path class="cls-1" d="M195.4,42.6c0,0,.2-.1.2-.2,0,0-.1.1-.2.2Z"/>
      <path class="cls-1" d="M173.7,53.1c-.2-.6.3-1-.6-1.5.7-.5,1.3,1.5,1.5.6s-2-2.8.5-1.7c0,0,0,.5,0,.5.7.4.7-.7.8-.8,1.7-.9.3,3.4-.8,2.2-.2.5.5,1.9.4,2s-.6,0-.8,0c.3-.2-.8-1.2-1.1-1.3ZM175.1,51.6c0-.6-.2-.9-.8-.8l.8.8ZM175.7,52s0-.6,0-.6c-.4,0-.4,1,0,.6ZM174.9,53.7c.3,0,0-1.4-.4-1s0,1,.4,1Z"/>
      <path class="cls-1" d="M183.9,53.3c0,0,.9.2.4,1s-.4,0-.4,0c0-.1,0-.8,0-1Z"/>
      <path class="cls-1" d="M219.2,47.2c.3,0,.7-.6,1-.3l-1,1.2c-.3-.6-.8-.3-1-.4.1-.3.1-.5.2-.8.1,0-.2.3.8.2Z"/>
      <path class="cls-1" d="M195.4,42.6c0,.2,0,.8,0,1.1-.1,0-.6.3-.8.2s-.8-1.2-.8-1.2c0-.7.9.4,1.5,0Z"/>
      <path class="cls-1" d="M225.7,45.1c.2.6-.6.3-.6.4,0,.6,1,2.2-.2,2.7l.2-1.3-.4.2v-.6c0,0-.6.4-.6.4-.1-1.4,0-2.2,1.5-1.7ZM224.6,45.9v.2h0c0,0,0-.2,0-.2Z"/>
      <path class="cls-1" d="M230.7,62.9c2.7-1.5.2,1.2,0,1.1-1.1-.1-.6-1-.4-1.7l.4.6Z"/>
      <path class="cls-1" d="M194.6,39.9c.3,0,.3,1.6.2,1.7s-1.3-.5-1.3-.6c-.6-.7.9-.1,1-.2.2-.2-.6-1.1.2-1Z"/>
      <path class="cls-1" d="M211.3,46.1c.2.2.2,1.7,1,.2.2,1.6-.5.6-.8.8-.5.4,0,1.2-.9.1.8-.1.8-.7.2-1.2.2,0,.5,0,.6,0Z"/>
      <path class="cls-1" d="M166.8,56.6c0,0-1.6-.6-1.5-1,.4.3.9-.4,1-.4s.6,1.3.6,1.3Z"/>
      <path class="cls-1" d="M171.6,50.5s0,.3.2.3.6-.3.7-.2c1.4,1.3-3.2,0-.8-.1Z"/>
      <path class="cls-1" d="M172.6,53.7c.1,0-.9,2.1-1.1.5s1-.6,1.1-.5Z"/>
      <path class="cls-1" d="M201.5,45.9s.5.7.4.8c-.5.3-1.2-.8-.4-.8Z"/>
      <path class="cls-1" d="M185,42.2c.4.3-.7.6-.8.6-.4-.3.4-.9.8-.6Z"/>
      <path class="cls-1" d="M173.2,52s0,.6,0,.8c-1.3-.6-.3-1,0-.8Z"/>
      <path class="cls-1" d="M171.4,50.3c-.2.2-.6-.8,0-.8s.1.7,0,.8Z"/>
      <path class="cls-1" d="M175.9,49.5s-.2,1-.4,1c-.2-.3.1-1.5.4-1Z"/>
      <path class="cls-1" d="M174.5,49.5c-.2,0-.8-.8-.6-1s.7.7.6,1Z"/>
      <path class="cls-1" d="M200.8,95.7c.3.4-.5.7-.4,0s.4-.1.4,0Z"/>
      <path class="cls-1" d="M202.9,96.6c-.3,0,0-1,.2-1,0,.3-.1.6-.2,1Z"/>
      <path class="cls-1" d="M201.1,45.5c-.3.4-.6-.6-.2-.3,0,0,.3.2.2.3Z"/>
      <path class="cls-1" d="M172,53.3c.3.2-.9.2-.6,0s.5,0,.6,0Z"/>
      <rect class="cls-1" x="182.9" y="42.6" width=".2" height=".4"/>
      <rect class="cls-1" x="172.4" y="53.1" width=".2" height=".4"/>
      <polygon class="cls-1" points="179.4 48 179.6 48.2 179.6 48.3 179.5 48.3 179.4 48"/>
      <polygon class="cls-1" points="172.3 51.6 172.4 51.7 172.3 51.8 172.3 51.6"/>
      <polygon class="cls-1" points="201.8 95.9 201.9 96 201.8 96.1 201.8 95.9"/>
      <path class="cls-1" d="M195.2,72.9c0,.4-1,0-1-.2.3,0,.6.2,1,.2Z"/>
      <rect class="cls-1" x="197.3" y="76.5" width=".4" height=".2"/>
      <polygon class="cls-1" points="198.6 74.8 198.7 74.9 198.6 75 198.6 74.8"/>
      <polygon class="cls-1" points="221 53.1 221.1 53.2 221 53.3 221 53.1"/>
      <path class="cls-1" d="M203.4,47.4c.5.3-.5.4-.8.3.1-.2.6-.4.8-.3Z"/>
      <path class="cls-1" d="M204.8,48.7c.3.4-.5.7-.4,0s.4-.1.4,0Z"/>
      <path class="cls-1" d="M202.7,50.3c-.2.3-.2-.9,0-.6s0,.5,0,.6Z"/>
      <rect class="cls-1" x="204.2" y="49.5" width=".4" height=".2"/>
      <polygon class="cls-1" points="204.7 49.9 204.9 50.1 204.9 50.3 204.8 50.2 204.7 49.9"/>
      <path class="cls-1" d="M192.5,49.3c0,.5-.5.3-.8.8,0-.6.2-.9.8-.8Z"/>
      <path class="cls-1" d="M180.6,50.5c0,.3,0,1.1-.4,1.1.3-.3-.3-1.3.4-1.1Z"/>
      <path class="cls-1" d="M181.2,51.6c-.4,0-.1-.9-.2-1.1.4,0,.1.9.2,1.1Z"/>
      <path class="cls-1" d="M181,49.7c.1.3,0,.7-.4.6s.1-1.1.4-.6Z"/>
      <path class="cls-1" d="M183.5,50.6c.3.4-.5.7-.4,0s.4-.1.4,0Z"/>
      <polygon class="cls-1" points="187.1 47.6 187.2 47.7 187.1 47.8 187.1 47.6"/>
    </g>
  </g>
</svg>