<svg viewBox="0 0 420.9 308.7" xmlns="http://www.w3.org/2000/svg"><g fill="#fff"><path d="m140.5 244.7v-7.9h1.2v3.4h3.9v-3.4h1.2v7.9h-1.2v-3.4h-3.9v3.4z"/><path d="m149.3 236.8v7.9h-1.2v-7.9z"/><path d="m153.9 244.8c-.7 0-1.3-.2-1.9-.5-.5-.3-1-.8-1.3-1.4s-.5-1.3-.5-2.2.2-1.6.5-2.2.7-1.1 1.3-1.4c.5-.3 1.1-.5 1.8-.5s.8 0 1.2.2c.4.1.7.3 1 .5s.5.5.7.8.3.7.4 1.1h-1.2c0-.2-.2-.4-.3-.6s-.3-.3-.4-.5c-.2-.1-.4-.2-.6-.3-.2 0-.5-.1-.7-.1-.4 0-.8.1-1.2.3s-.6.6-.8 1-.3 1-.3 1.6.1 1.2.3 1.6.5.8.9 1 .8.3 1.2.3.8 0 1.1-.3c.3-.2.6-.4.7-.7.2-.3.3-.7.3-1.1h.3-2.3v-1h3.1v.9c0 .7-.1 1.2-.4 1.7s-.7.9-1.2 1.1-1.1.4-1.7.4z"/><path d="m158.2 244.7v-7.9h1.2v3.4h3.9v-3.4h1.2v7.9h-1.2v-3.4h-3.9v3.4z"/><path d="m171.5 244.8c-.7 0-1.3-.2-1.8-.5s-1-.8-1.3-1.4-.5-1.3-.5-2.2.2-1.6.5-2.2.7-1.1 1.3-1.4 1.1-.5 1.8-.5.8 0 1.2.2c.4.1.7.3 1 .5s.5.5.7.8.3.7.4 1.1h-1.2c0-.3-.1-.5-.3-.7-.1-.2-.3-.4-.5-.5s-.4-.2-.6-.3c-.2 0-.5-.1-.7-.1-.5 0-.9.1-1.2.3-.4.2-.6.6-.9 1-.2.4-.3 1-.3 1.6s.1 1.2.3 1.6.5.8.9 1 .8.3 1.2.3.5 0 .7 0 .4-.2.6-.3.3-.3.5-.5c.1-.2.2-.4.3-.7h1.2c0 .4-.2.7-.4 1.1-.2.3-.4.6-.7.8s-.6.4-1 .5-.8.2-1.2.2z"/><path d="m175.7 244.7v-7.9h1.2v6.9h3.6v1z"/><path d="m182.4 244.7h-1.3l2.8-7.9h1.4l2.8 7.9h-1.3l-2.2-6.5zm.2-3.1h4.1v1h-4.1z"/><path d="m191.5 244.8c-.6 0-1.1 0-1.5-.3-.4-.2-.8-.5-1-.8s-.4-.8-.4-1.2h1.2c0 .3.1.5.3.7s.4.3.6.4.5.1.8.1.6 0 .9-.2c.3-.1.5-.3.6-.4.1-.2.2-.4.2-.7s0-.4-.2-.6c-.1-.1-.3-.3-.5-.4-.2 0-.5-.2-.8-.3l-.9-.3c-.6-.2-1.1-.4-1.5-.8-.4-.3-.6-.8-.6-1.3s.1-.9.4-1.2c.2-.3.6-.6 1-.8s.9-.3 1.4-.3 1 0 1.4.3c.4.2.7.4 1 .8.2.3.4.7.4 1.1h-1.2c0-.4-.2-.6-.5-.8s-.7-.3-1.1-.3-.6 0-.8.2-.4.2-.5.4-.2.4-.2.6 0 .4.2.6.3.3.6.4c.2 0 .4.2.6.2l.8.2c.2 0 .5.1.8.3.3.1.5.2.7.4s.4.4.5.6c.1.3.2.6.2.9s-.1.8-.3 1.2c-.2.3-.6.6-1 .8s-1 .3-1.6.3z"/><path d="m198 244.8c-.6 0-1.1 0-1.5-.3-.4-.2-.8-.5-1-.8s-.4-.8-.4-1.2h1.2c0 .3.1.5.3.7s.4.3.6.4c.3 0 .5.1.8.1s.6 0 .9-.2c.3-.1.5-.3.6-.4.2-.2.2-.4.2-.7s0-.4-.2-.6c-.1-.1-.3-.3-.5-.4-.2 0-.5-.2-.8-.3l-.9-.3c-.6-.2-1.1-.4-1.5-.8-.4-.3-.6-.8-.6-1.3s.1-.9.4-1.2c.2-.3.6-.6 1-.8s.9-.3 1.4-.3 1 0 1.4.3c.4.2.7.4 1 .8.2.3.4.7.4 1.1h-1.2c0-.4-.2-.6-.5-.8s-.7-.3-1.1-.3-.6 0-.8.2-.4.2-.5.4-.2.4-.2.6 0 .4.2.6.3.3.6.4.4.2.6.2l.8.2c.3 0 .5.1.8.3.3.1.5.2.7.4s.4.4.5.6.2.6.2.9-.1.8-.3 1.2-.6.6-1 .8-1 .3-1.6.3z"/><path d="m204.9 244.7h-1.3l2.8-7.9h1.4l2.8 7.9h-1.3l-2.2-6.5zm.2-3.1h4.1v1h-4.1z"/><path d="m211.4 244.7v-7.9h2.8c.6 0 1.1.1 1.5.3s.7.5.9.9.3.8.3 1.3-.1.9-.3 1.3-.5.7-.9.9-.9.3-1.5.3h-1.9v-1h1.8c.4 0 .7 0 .9-.2.2-.1.4-.3.5-.6.1-.2.2-.5.2-.8s0-.6-.2-.8c-.1-.2-.3-.4-.5-.5s-.6-.2-1-.2h-1.5v6.9h-1.2z"/><path d="m217.9 244.7v-7.9h2.8c.6 0 1.1.1 1.5.3s.7.5.9.9.3.8.3 1.3-.1.9-.3 1.3-.5.7-.9.9-.9.3-1.5.3h-1.9v-1h1.8c.4 0 .7 0 .9-.2.2-.1.4-.3.5-.6.1-.2.2-.5.2-.8s0-.6-.2-.8c-.1-.2-.3-.4-.5-.5s-.6-.2-1-.2h-1.5v6.9h-1.2z"/><path d="m224.2 244.7h-1.3l2.8-7.9h1.4l2.8 7.9h-1.3l-2.2-6.5zm.2-3.1h4.1v1h-4.1z"/><path d="m230.6 244.7v-7.9h2.8c.6 0 1.1.1 1.5.3s.7.5.9.9.3.8.3 1.3-.1.9-.3 1.3-.5.7-.9.9-.9.3-1.5.3h-2.1v-1h2c.4 0 .7 0 .9-.2.2-.1.4-.3.5-.5s.2-.5.2-.8 0-.6-.2-.8c-.1-.2-.3-.4-.5-.5s-.6-.2-1-.2h-1.5v6.9h-1.2zm4.5 0-1.9-3.6h1.3l1.9 3.6h-1.4z"/><path d="m236.8 237.8v-1h6.1v1h-2.5v6.9h-1.2v-6.9h-2.5z"/><path d="m243.7 236.8h1.4l2.5 6.1 2.5-6.1h1.5v7.9h-1.2v-5.7l-2.3 5.7h-.9l-2.3-5.7v5.7h-1.1v-7.9z"/><path d="m253 244.7v-7.9h4.9v1h-3.8v2.4h3.5v1h-3.5v2.5h3.8v1h-5z"/><path d="m265.5 236.8v7.9h-1.1l-4-5.8v5.8h-1.2v-7.9h1.1l4 5.8v-5.8z"/><path d="m266.4 237.8v-1h6.1v1h-2.5v6.9h-1.2v-6.9h-2.5z"/><path d="m276 244.8c-.6 0-1.1 0-1.5-.3-.4-.2-.8-.5-1-.8s-.4-.8-.4-1.2h1.2c0 .3.1.5.3.7s.4.3.6.4c.3 0 .5.1.8.1s.6 0 .9-.2c.3-.1.5-.3.6-.4.2-.2.2-.4.2-.7s0-.4-.2-.6c-.1-.1-.3-.3-.5-.4-.2 0-.5-.2-.8-.3l-.9-.3c-.6-.2-1.1-.4-1.5-.8s-.6-.8-.6-1.3.1-.9.4-1.2c.2-.3.6-.6 1-.8s.9-.3 1.4-.3 1 0 1.4.3c.4.2.7.4 1 .8.2.3.4.7.4 1.1h-1.2c0-.4-.2-.6-.5-.8s-.7-.3-1.1-.3-.6 0-.8.2-.4.2-.6.4c-.1.2-.2.4-.2.6s0 .4.2.6.3.3.6.4.4.2.6.2l.8.2c.3 0 .5.1.8.3.3.1.5.2.7.4s.4.4.6.6c.1.3.2.6.2.9s-.1.8-.3 1.2c-.2.3-.6.6-1 .8s-1 .3-1.6.3z"/><path d="m146 251.5v7.9h-1.2v-7.9z"/><path d="m153.7 251.5v7.9h-1.1l-4-5.8v5.8h-1.2v-7.9h1.1l4 5.8v-5.8z"/><path d="m157 252.5v-1h6.1v1h-2.5v6.9h-1.2v-6.9h-2.5z"/><path d="m164 259.4v-7.9h1.2v3.4h3.9v-3.4h1.2v7.9h-1.2v-3.4h-3.9v3.4z"/><path d="m171.5 259.4v-7.9h4.9v1h-3.8v2.4h3.5v1h-3.5v2.5h3.8v1h-5z"/><path d="m180 259.4v-7.9h2.8c.6 0 1.1.1 1.5.3s.7.5.9.9.3.8.3 1.3-.1.9-.3 1.3-.5.7-.9.9-.9.3-1.5.3h-1.9v-1h1.8c.4 0 .7 0 1-.2.2-.1.4-.3.5-.6.1-.2.2-.5.2-.8s0-.6-.2-.8c-.1-.2-.3-.4-.5-.5s-.6-.2-1-.2h-1.5v6.9h-1.2z"/><path d="m186.5 259.4v-7.9h4.9v1h-3.8v2.4h3.5v1h-3.5v2.5h3.8v1h-5z"/><path d="m192.6 259.4v-7.9h2.8c.6 0 1.1.1 1.5.3s.7.5.9.9.3.8.3 1.3-.1.9-.3 1.3-.5.7-.9.9-.9.3-1.5.3h-2.1v-1h2c.4 0 .7 0 .9-.2.2-.1.4-.3.5-.5s.2-.5.2-.8 0-.6-.2-.8c-.1-.2-.3-.4-.5-.5s-.6-.2-1-.2h-1.5v6.9h-1.2zm4.4 0-1.9-3.6h1.3l1.9 3.6h-1.4z"/><path d="m199.6 251.5 2.2 6.4 2.2-6.4h1.3l-2.8 7.9h-1.4l-2.8-7.9z"/><path d="m208.9 259.5c-.7 0-1.3-.2-1.8-.5s-1-.8-1.3-1.4-.5-1.3-.5-2.2.2-1.6.5-2.2.7-1.1 1.3-1.4 1.1-.5 1.8-.5 1.3.2 1.8.5 1 .8 1.3 1.4.5 1.3.5 2.2-.2 1.6-.5 2.2-.7 1.1-1.3 1.4c-.5.3-1.1.5-1.8.5zm0-1.1c.5 0 .9-.1 1.2-.3.4-.2.6-.6.8-1s.3-1 .3-1.6-.1-1.2-.3-1.6-.5-.8-.8-1c-.4-.2-.8-.3-1.2-.3s-.9.1-1.2.3c-.4.2-.6.6-.8 1s-.3 1-.3 1.6.1 1.2.3 1.6.5.8.8 1c.4.2.8.3 1.2.3z"/><path d="m213.5 259.4v-7.9h1.2v6.9h3.6v1z"/><path d="m220.4 251.5v7.9h-1.2v-7.9z"/><path d="m222.3 259.4h-1.3l2.8-7.9h1.4l2.8 7.9h-1.3l-2.2-6.5zm.2-3.1h4.1v1h-4.1z"/><path d="m228.5 261.3.5-3.1h1.2l-.9 3.1z"/><path d="m237.3 259.5c-.7 0-1.3-.2-1.8-.5s-1-.8-1.3-1.4-.5-1.3-.5-2.2.2-1.6.5-2.2.7-1.1 1.3-1.4 1.1-.5 1.8-.5.8 0 1.2.2c.4.1.7.3 1 .5s.5.5.7.8.3.7.4 1.1h-1.2c0-.3-.1-.5-.3-.7-.1-.2-.3-.4-.5-.5s-.4-.2-.6-.3c-.2 0-.5-.1-.7-.1-.5 0-.9.1-1.2.3-.4.2-.6.6-.9 1-.2.4-.3 1-.3 1.6s.1 1.2.3 1.6.5.8.9 1 .8.3 1.2.3.5 0 .7 0 .4-.2.6-.3.3-.3.5-.5c.1-.2.2-.4.3-.7h1.2c0 .4-.2.7-.4 1.1-.2.3-.4.6-.7.8s-.6.4-1 .5-.8.2-1.2.2z"/><path d="m240.9 251.5h1.3l2.1 3.6 2.1-3.6h1.4l-2.9 4.8v3.1h-1.2v-3.1l-2.9-4.8z"/><path d="m248.5 259.4v-7.9h2.8c.6 0 1.1.1 1.5.3s.7.5.9.9.3.8.3 1.3-.1.9-.3 1.3-.5.7-.9.9-.9.3-1.5.3h-1.9v-1h1.8c.4 0 .7 0 .9-.2.2-.1.4-.3.5-.6.1-.2.2-.5.2-.8s0-.6-.2-.8c-.1-.2-.3-.4-.5-.5s-.6-.2-1-.2h-1.5v6.9h-1.2z"/><path d="m255 259.4v-7.9h2.8c.6 0 1.1.1 1.5.3s.7.5.9.9.3.8.3 1.3-.1.9-.3 1.3-.5.7-.9.9-.9.3-1.5.3h-2.1v-1h2c.4 0 .7 0 .9-.2.2-.1.4-.3.5-.5s.2-.5.2-.8 0-.6-.2-.8c-.1-.2-.3-.4-.5-.5s-.6-.2-1-.2h-1.5v6.9h-1.2zm4.4 0-1.9-3.6h1.3l1.9 3.6h-1.4z"/><path d="m266.6 251.5h1.2v5.2c0 .6-.1 1-.4 1.5-.3.4-.6.8-1.1 1s-1 .4-1.7.4-1.2-.1-1.6-.4c-.5-.2-.8-.6-1.1-1s-.4-.9-.4-1.5v-5.2h1.2v5.1c0 .4 0 .7.2.9.2.3.4.5.7.7s.6.2 1 .2.7 0 1-.2.5-.4.7-.7.2-.6.2-.9v-5.1z"/><path d="m271.7 259.5c-.6 0-1.1 0-1.5-.3-.4-.2-.8-.5-1-.8s-.4-.8-.4-1.2h1.2c0 .3.1.5.3.7s.4.3.6.4.5.1.8.1.6 0 .9-.2c.3-.1.5-.3.6-.4.1-.2.2-.4.2-.7s0-.4-.2-.6c-.1-.1-.3-.3-.5-.4-.2 0-.5-.2-.8-.3l-.9-.3c-.6-.2-1.1-.4-1.5-.8s-.6-.8-.6-1.3.1-.9.4-1.2c.2-.3.6-.6 1-.8s.9-.3 1.4-.3 1 0 1.4.3c.4.2.7.4 1 .8.2.3.4.7.4 1.1h-1.2c0-.4-.2-.6-.5-.8s-.7-.3-1.1-.3-.6 0-.8.2-.4.2-.6.4c-.1.2-.2.4-.2.6s0 .4.2.6.3.3.6.4c.2 0 .4.2.6.2l.8.2c.2 0 .5.1.8.3.3.1.5.2.7.4s.4.4.6.6c.1.3.2.6.2.9s-.1.8-.3 1.2-.6.6-1 .8-1 .3-1.6.3z"/><path d="m53 195.6h-10.9v-2.4h1.9c.9 0 1.7-.6 1.9-1.5l9.6-41.9h3.6l8.8 41.9c.2.9 1 1.6 1.9 1.6h2.2v2.4h-12.3v-2.4h3.1c.6 0 1.1-.6.9-1.1l-2.2-11h-10.2l-2.4 10.9c-.1.6.3 1.2.9 1.2h3.1v2.4zm3.8-38.9-4.7 21.4h8.9z"/><path d="m117.3 195.6h-12.4v-2.4h2.7c.9 0 1.5-.7 1.5-1.5v-37.7c0-1-.8-1.7-1.7-1.7h-2.2v-2.4h12.4v2.4h-2.5c-1 0-1.7.8-1.7 1.7v17.8c2.5-.1 4-1.3 5.2-3.8l6.8-14.9c.2-.4-.1-.9-.6-.9h-2v-2.4h10.4v2.4h-2.4c-1.1 0-2 .6-2.5 1.6l-8.4 17.7 9.1 19.7c.6 1.2 1.8 2 3.1 2h1.8v2.4h-7.3c-3.4-7.2-6.8-14.3-10.2-21.5l-3.3-.3v17.8c0 .9.7 1.5 1.5 1.5h2.4v2.4z"/><path d="m219.1 193.3c3-2.9 3-7.1 3-8.2 0-5-2.2-9-7.2-14.3-4.8-5.2-7.2-8.7-7.2-12.7s2-6.4 5.5-6.4 4 1.5 4.5 4.3l1.4 8.1h2v-14.1c0-.7-.1-1.1-.9-1.1h-.9l-.9 2.2c-.9-1.3-2.7-2-5.4-2-5.8 0-9.3 3.6-9.3 9.6s2.8 9.8 7.5 14.8c4.7 5.1 7 8.5 7 12.5s-2.4 7.5-6.5 7.5 0 0 0 0c-3-.3-6-2.7-6.2-8.1l-.6-6.6h-2v16.4c0 .9.2 1.4 1.1 1.4h.5c.1-.3.3-.5.3-.7.3-.7.4-.9.6-1 .2 0 .3-.1.4-.1.3 0 .6 0 .9.2 0 0 .2.1.3.2h.1c.2.2.6.3 1 .5 1.1.4 2.5.7 4.2.7s.5 0 .8 0c3.1-.3 5.2-2.3 5.6-2.6z"/><path d="m395.1 193.3c3-2.9 3-7.1 3-8.2 0-5-2.2-9-7.2-14.3-4.8-5.2-7.2-8.7-7.2-12.7s2-6.4 5.5-6.4 4 1.5 4.5 4.3l1.4 8.1h2v-14.1c0-.7-.1-1.1-.9-1.1h-.9l-.9 2.2c-.9-1.3-2.7-2-5.4-2-5.8 0-9.3 3.6-9.3 9.6s2.8 9.8 7.5 14.8c4.7 5.1 7 8.5 7 12.5s-2.4 7.5-6.5 7.5 0 0 0 0c-3-.3-6-2.7-6.2-8.1l-.6-6.6h-2v16.4c0 .9.2 1.4 1.1 1.4h.5c.1-.3.3-.5.3-.7.3-.7.4-.9.6-1 .2 0 .3-.1.4-.1.3 0 .6 0 .9.2 0 0 .2.1.3.2h.1c.2.2.6.3 1 .5 1.1.4 2.5.7 4.2.7s.5 0 .8 0c3.1-.3 5.2-2.3 5.6-2.6z"/><path d="m340.4 196c-8 0-11.7-6.9-11.7-22.6s3.8-24.5 11.8-24.5 4 .7 5 2l1-2h.8c.7 0 .9.3.9 1.1v13.8h-2.1l-1.3-7.2c-.5-3.5-1.7-5-4.3-5-5.1 0-7.4 6.7-7.4 21.9s2.4 19.5 7.8 19.5 4.5-1.5 5.4-5l2.5.7c-1.1 5.1-3.7 7.5-8.5 7.5z"/><path d="m193.3 152.5c1 0 1.7.7 1.9 1.6s.5 1.8.6 2.7c.4 2.1.4 1.9.8 4.2h1.6v-11.3h-22.4v2.4h2.6c.9 0 1.5.7 1.5 1.5v35.8 2.1c0 .9-.7 1.5-1.5 1.5h-2.6v2.4h22.4v-11.5h-1.6c0 .3-.1.8-.2 1.4-.2 1.1-.3 1.6-.4 2.4-.5 2.9-.7 3.1-.7 3.3-.1.9-1 1.6-1.9 1.6h-9.2v-19.5h3.8c1.2 0 2.3.8 2.6 2 .2.9.5 1.9.7 2.8l1.7-.3v-11.7l-1.7-.3c-.2.9-.5 1.9-.7 2.8-.3 1.2-1.3 2-2.6 2h-3.8v-18.2h9.2z"/><path d="m287.1 152.5c1 0 1.7.7 1.9 1.6s.5 1.8.6 2.7c.4 2.1.4 1.9.8 4.2h1.6v-11.3h-22.4v2.4h2.6c.9 0 1.5.7 1.5 1.5v35.8 2.1c0 .9-.7 1.5-1.5 1.5h-2.6v2.4h22.4v-11.5h-1.6c0 .3-.1.8-.2 1.4-.2 1.1-.3 1.6-.4 2.4-.5 2.9-.7 3.1-.7 3.3-.1.9-1 1.6-1.9 1.6h-9.2v-19.5h3.8c1.2 0 2.3.8 2.6 2 .2.9.5 1.9.7 2.8l1.7-.3v-11.7l-1.7-.3c-.2.9-.5 1.9-.7 2.8-.3 1.2-1.3 2-2.6 2h-3.8v-18.2h9.2z"/><path d="m252.6 149.7h-10.5v2.4h2.6c.9 0 1.5.7 1.5 1.5v.5 36.8.5c0 .9-.7 1.5-1.5 1.5h-2.6v2.4h10.5c10.1 0 14.7-7.4 14.7-23.9s-4.6-21.9-14.7-21.9zm0 43.1h-2.2v-40.3h2.2c7.2 0 10.3 5.9 10.3 19.2s-3.1 21.1-10.3 21.1z"/><path d="m235.7 193.1c-.9 0-1.5-.7-1.5-1.5v-2.1-28-7.7c0-.9.7-1.6 1.6-1.6h2.3s.3 0 .3 0v-2.4h-12.6v2.4h.3s2.3 0 2.3 0c.9 0 1.6.7 1.6 1.6v35.7 2.1c0 .9-.7 1.5-1.5 1.5h-2.6v.8s0 0 0 0v1.6h12.6v-2.4h-2.7z"/><path d="m170.9 193.3c-1.1-.3-1.9-1.1-2.3-2.1l-4.4-12.8c-.7-1.8-1.2-2.9-1.7-3.8 4.2-2 7.3-5.6 7.3-12.5s-3.5-12.5-12.9-12.5h-10.3v2.4h2.3c.9 0 1.5.7 1.5 1.5v.5 35.2 2.1c0 .9-.7 1.5-1.5 1.5h-2.3v2.4h11.9v-2.4h-2.4c-.9 0-1.5-.7-1.5-1.5v-2.1-14h4.6l6.5 20.1h7.3l.4-1.6-2.5-.6zm-13.2-20.5h-3v-20.3h2.5c6.2 0 8.5 2.8 8.5 9.8s-2.5 10.6-8 10.6z"/><path d="m99.3 193.3c-1.1-.3-1.9-1.1-2.3-2.1l-4.4-12.8c-.7-1.8-1.2-2.9-1.7-3.8 4.2-2 7.3-5.6 7.3-12.5s-3.5-12.5-12.9-12.5h-10.3v2.4h2.3c.9 0 1.5.7 1.5 1.5v.5 35.2 2.1c0 .9-.7 1.5-1.5 1.5h-2.3v2.4h11.9v-2.4h-2.4c-.9 0-1.5-.7-1.5-1.5v-2.1-14h4.6l6.5 20.1h7.3l.4-1.6-2.5-.6zm-13.2-20.5h-3v-20.3h2.5c6.2 0 8.5 2.8 8.5 9.8s-2.5 10.6-8 10.6z"/><path d="m321.9 155.8v-2.1c0-.9.7-1.5 1.5-1.5h2.6v-2.4h-11.3v2.4h2.7c.9 0 1.5.7 1.5 1.5v2.1 30.4c-.3-1.9-.8-3.7-1.1-4.8l-9.3-30.2c-.4-1-1-1.5-2.1-1.5h-8.9v2.4h2.7c.9 0 1.5.7 1.5 1.5v2.1 33.7 2.1c0 .9-.7 1.5-1.5 1.5h-2.7v2.4h.2s6.9 0 6.9 0h4.1v-2.4h-2.6c-.9 0-1.5-.7-1.5-1.5v1.3-39.2h.4l13.5 41.8h3.5v-39.7z"/><path d="m356 149.7h-4.2v2.4h2.6c.8 0 1.5.7 1.5 1.5v35.8 2.1c0 .9-.7 1.5-1.5 1.5h-2.6v2.4h22.4v-11.5h-1.6c0 .3-.1.8-.2 1.4-.2 1.1-.3 1.6-.4 2.4-.5 2.9-.7 3.1-.7 3.3-.1.9-1 1.6-1.9 1.6h-9.2v-19.5h3.8c1.2 0 2.3.8 2.6 2 .2.9.5 1.9.7 2.8l1.7-.3v-11.7l-1.7-.3c-.2.9-.5 1.9-.7 2.8-.3 1.2-1.3 2-2.6 2h-3.8v-18.2h9.2c1 0 1.7.7 1.9 1.6.1.6.5 1.8.6 2.7.4 2.1.4 1.9.8 4.2h1.6v-11.3h-18.2z"/><path d="m30.8 191.2v-13.7c.8.2 1.7.3 2.8.3 8 0 12-4.9 12-14.8s-3.1-12.7-10.6-13.2c-.1 0-.2 0-.3 0s-.3 0-.4 0c-.4 0-.7 0-1.1 0h-10.3v2.4h2.3c.9 0 1.5.7 1.5 1.5v.5 33.5 1.7 1.6s0 0 0 0v.5c0 .9-.7 1.5-1.5 1.5h-2.3v2.4h11.9v-2.4h-2.4c-.9 0-1.5-.7-1.5-1.5v-.4s0 0 0 0zm2.1-38.7c5.9 0 8.3 2.9 8.3 10.6s-2.5 11.9-7.8 11.9-2 0-2.7-.2v-16.9-5.5h2.2z"/><path d="m213.8 107.6s-.2 0-.2 0c.4-1.7.4-.5.2 0z"/><path d="m225.7 50.8c-.3.4.8 2.9.4 3.3l-.4-.9c-.9-.1 0 1.7-1.1.5-.3-.3 0-1.1.2-1.6s.4-1.1.4-1.3.4 0 .4 0zm0 1.6s-.6 0-.7 0c-.6.6 1.3.6.7 0z"/><path d="m210.2 100.5-.2-.5h.2z"/><path d="m208.5 92.5s0-.1 0-.2c0 0 .5.1 0 .2z"/><path d="m193.6 52.2c-.3 0-.4 0-.4-.2z"/><path d="m207.1 89.6s-.5-.6.1-.4c.2 0 .1.4.1.4s-.1 0-.2 0z"/><path d="m213.3 108.2s0-.4.2-.7c0 .3 0 .4-.2.7z"/><path d="m199.4 56.6c-.2 0-.4 0-.4-.2.2 0 .4 0 .4.2z"/><path d="m194.5 52.4c1-.5.9.3 1.6.9.3-1.4.7-.4.7.4-.5.1-.4-.2-.7-.4v1.1c-.4-.3-.3-.8-.7-.9-.5.3.7 1.2.4 1.3-1.1.5-.5-1.1-.7-1.3s-.6 0-.7 0c0-.4 0-.7 0-1.1zm.9.2c-.2-.1-.6.2-.7.4.4.2 1-.2.7-.4z"/><path d="m188.7 56.6c.1.1-.1 1.4 1.1 1.3 0 .7.5 1.3.4 1.3s-1.2.1-.4 1.3c-.6.3-.3-.8-.9-.4 0-.2 0-.5 0-.7.9.3.4-1.7 0-1.1s0 .8 0 1.1c-.3 0 0-2.4-.9-2.9h.7z"/><path d="m225.7 50.8s.1-.1.2-.2c0 .2-.2.2-.2.2z"/><path d="m202.5 83.2c0 .1.8.5.7.7s-.6-.2-.7-.2c0-.1 0-.3 0-.4z"/><path d="m202.5 82.7v.4c-.2-.2-.4-.6-.4-.7.1 0 .3.2.4.2z"/><path d="m202.5 82.3h.7s-.2.4-.2.4c-.1 0-.3 0-.4 0 0-.1 0-.3 0-.4z"/><path d="m202 82.5s-.1-.2-.2-.2c0 0 .1.2.2.2z"/><path d="m200.7 82.1c.1.4.1.7.4 1 0 .2-.3 0-.4-.1s-.2-.2-.2-.2-.2-.4-.2-.4c0-.1 0-.4 0-.4s.4.2.4.2z"/><path d="m199.4 56.6s.9-.9 1.1-.7c-.7.5-.2 1.4-.2 2.2-.5 0 .2-.6-.7-.7 0-.3-.2-.8-.2-.9z"/><path d="m213.1 81.6c-.4 1.1-.3.2-.4 0z"/><path d="m212.7 81.6s-.5.1-.4-.1.4-.4.4-.6z"/><path d="m200.7 74.5s.2.9.2 1.1c-.7 0-.6-.4-.7-.9s.1 0 .2-.2h.2z"/><path d="m209.3 57.5c-.1 0-.3.1-.4.2 0-.4 0-.7 0-1.1.3 0 .4.7.4.9z"/><path d="m210.2 109.6v-.2c.5.1 0 .2 0 .2z"/><path d="m212.4 54.2c.5-.5.7-.5.4-.9 1.1-.3.5.8.7.9s1.3 0 1.5.2c1.4 1.3-2.6-.4-2.7-.2z"/><path d="m235.5 57c-.1.1 0 .3-.4.2 0-.3.3-.3.4-.2z"/><path d="m173.4 67.4c-.3 0-1.2 0-1.3 0s.2.9-.1.9-.8-2.2-2.1-1.3c-.2-.8.9-.3 1.1-.4s-.5-.8-.4-.9 2.9.4 2-1.8c.9-.2.6.4.7.4-.7-.7-.2 1.2-.2 1.3-.2 0-.8 0-.9 0-.1.1.8 2 .9 0 .2 0 .4.5.7.3-.3-.2-.4-1.6-.4-1.7.7.7.9 1.3.9 2.4-.4.4-1-.8-.7.7z"/><path d="m224.9 52.2s-.8-.2-1.1 0c-.2-.7.6-.4.7-.4.1-.3-.5-7.4 1.1-2.2.8-1.5 2.4.4 1.9-1.3 0-.2-.8-.4-.8-.7s.4 0 .5-.1-.5-.9-.1-1.4 2 1.7 2.1 1.9c.2.4-.4.3-.4.4 0 .5-.4 6.6.6 5.2.1-.2-.6-4 1.6-2.2 0-3.3 2.5-.1.9.7v-1.8c-.8.1-.3 2.1.1 2.2.8.2.7-1.6 1.4-1.5-.7 1.6-.9 2.3-1.1 3.8-.6-.8.3-1.1-.9-1.1 0-.2.5-.5.4-.8-.1-.5-.8 0-.9-.1 0 0 .4-.5.2-.7s-1.3.3-.2.7c0 .3-.4 1.1-.2 1.3s.5-.4.7-.4v.9c-1.1 0-1 .5-.2.9-.2.4-.4.7-.7 1.1 0-.4 0-.7 0-1.1-.3 0-.6.9-.8.9s.5-1-.2-.9c-.5.4-.2.8-.6 1.3 0-.5 0-1 0-1.6l-.7 1.5-1.1-.7c1.5.8-.8 1.3-.1 2.4s.5-.9.7-.9c.3 0-.2 1.1.6.9-.4-1.9 0-.9.7-1.8 0 .6-.2 1.2-.2 1.8.2 0 .3-.3.4-.4-.5.9.3 1.2.4 1.3.8.9.7-.4.7-.4-.1-.1-.6.6-.7.4s0-2.2-.4-1.3c.3-.4.4-1.2.5-1.3.2-.2.8-.2.8-.3.1.8.3 1.4 0 2.2h.4c-1 .9.3.9.4 1.1 0 .4-.3 1.5.4 1.3.6-1.2-.3-1.2-.4-1.3 0-.4 0-.9 0-1.3.6.7.3-1.2 1.3-.3s.4 2.1 1 .6c.7-1.9-1.5-.8-1-2.7l.9.4c-.5-.6 1.1-3.2 1.6-2.3s.1 1.1.2 1.5.4.1.4.2c.1.6-1.1.6-1.1 1 0 .8.4.5.4.5v2.4c1.5 0 .1.3.2 1.1-.4 0-.2-.8-.2-1.1-.2 0-1.1 0-1.1 0-.2.1.2 3 .2 3.3-.9-.8-.8.6-.9.7-.2.2-2 1.1-.8 1.8s.3-1.3.8-1.8 1.7 0 .9-.7c.2 1 .4 1.9.9 2.4s.6.3.7-.7l-.7.7c-.4-.8.2-1.9.2-2.2v.7c.7.7.6-1.9 0-.7.1-1.2.6-1-.4-2 .3-.2.9.7 1.1.4s-.2-.9.2-.9c.6 1.8.6 1.9-.2 3.8.6.1.3-.2.7-.4v.7c.7.7.4-1.8 0-.7 0 0-.1-.4.1-.4.8 0 .7.6.8.6s.6-.3.6-.2c.3.4-.3 2.5 1.6 2 .2.8-.8.3-.9.4s0 1.6 0 1.8c-.6 0-1.7 0-1.8.8.3.4.7-.4 1-.3s.3.2.8.5.6 1.2.7.1-.6 0-.7-.1c0-.2 0-.6 0-.9h.4c0 .2-.1.6.1.7.9-1.3 0-.6-.1-.7-.2-2.9.8-1.1 1-1.1 1.4.2-.6-1.2.1-1.8-.6-.3-.3.6-.7.4s.1-.5-.1-.7-.7.3-.8.1.4-.4.3-.7c-.3-1.3-1.3-.8-1-2.1l-.9.9c-.4-1.2.3-1.7 1.3-1.1s0 .8 0 .9c.1 0 .6-.3.7-.2s-.3.3.4.9c1.1 1 2.3-.8.2-.2-.2-2.1-.4-.5-.7-.9-.4-.6.8-1.5-2-.9-.2-.7.6-.3.7-1s-.4-.5-.4-.6c.1-.3.2-.7.2-1.1-1.4 1-.3 1-.2 1.1-.2.4 0 .5-.7.7 0-.7.2-1.1-.4-.7.2-1 1.2-1.3.1-2.4v1.3c-.6.6 0-.9-.8.2.2-.9.8-2.2-.2-2.4.2-.2 0-.8.7-.6s1.9 2 2.1 1.9 1-.9.8-1.1-1.8.5-1.1-.2c2-2.2.9 3.3 2.5.2.9 4.5 3-1.6.8 1.3v-1.8c.9-.2 0 .6.2.7 1 .7-.2-1.7.1-2.4.6-1.5 1 .6 1.1.6.5 0 0-1.3.8-1.1 1 1.7-1 2.6-1.1 4.3s.7.1.7.7-1.1 1.1-.7 1.9c.6.2.5-.5.7-.6.8-.2.3 2.5-1.5 1.9l1.5.7c-2.3-.3-.6.5-1.3 1.7s-.8.2-1.1.5 4.5 1.9 3.9-.7l-.7.7c.5-2.2 0-.5-.7-1.5 1.6-1 1.5 1.3 1.7 1.3.3 0 .3-.9.5-1.2s1.3.5.7-1c1.5 1.1 1.7 0 3.1-.2-.2.4-1.2.5-1.3 1s.9.3.9 1l-1.5-.2c-.2.8.9.5 1.1.7s-.5 2.2-1.5 1.3 0-.8 0-.8c-.1-.1-1.9.5-1.8 1 .2.8 1.5-.4 1.1 1.2l-.9-.7c-.1.8.7 1.5-.4 1.3-.2.8.7.3.9.4.4.4-.7.9-.7 1 0 .2.9 1 .7 1.2-.7.6-1.8-1.4-2 1.9 0 .2.7.3.7.3 0 1.7-2.4.8-3.5 1.8 1.2-2.1-.4-1.8-.4-.5s2.1 1.5-1.2 1.2c-.1-1-.5 0-.4.2s.4-.2.4-.2c.1.8-.3 1.3-.4 2 1.3-2.4 1.3-.4 1.5-.7s0-.6 0-.6c1.6-.8 0 .4.3 1.3.5-.9 1.4-1.5 1.9-.3 1-.6-.3-1.4 0-1.7.6-.6.8.8.9.9.5.4.3-1.1 1.4-.6 2.6 1 0 1.7-.7 2.2s1.6.5-.5 1.1 0-.5-.3-.5.1.6-.1.7c-.9.1-1.6-1-1.7-.9-.5.6.5 2.2-2 1.1.3.4 1.4.7 1.3 1.5-.1 1.3-1.2-.3-1.5-.5-1.4-.7-2.4-1.3-3.5-1.5l1.1.7c-1.6.7-1.8-.4-1.1-1.5-.6.6-.7.3-1.3.1.3.5 1 1.8.3 2.1s-.5-1.4-1-1.7-.8.2-1 .1-.1-.5-.3-.5c-2.1 0-.7 1.3-1 2-1.8-1-2 1.7-2.4-1.5-.4 1.2-1.7 2.5-2 3.7s.7 1.6-.3 3.2-1.5.9-1.7 1.1c-1.1 1.1-3.1 2.7-3.9 4-1.2 1.9-5.2 12.9-5 14.7s3.2 5.2 4.8 5.6c1 .3 2.6-1 1.8.9-.2-1-1.9-.8-1.9.2.2-2.2-2.7 1.5-1.4-1.3-.8.6-1.6 2.7-1.8.4s1 .1 0-.4v.4c-.7-1.3-2.2-.5-1.6-2.4-1.7 3-2.7 2-1.6-.9-.3 0-.2.3-.4.4 0-.2.2-1.1-.2-1.1l-.2 1.5c.3 0 .2-.3.4-.4-.1 2.1-.5.5-.8.7-.6.4-.2 1.4-1 1.3-.6-1.9.8-1.2.9-1.3.1-.2.3-1.9.4-2.2.4-1.2.2-.6.7 0l.2-1.1c-.7.4-.3 0-.6-.4l-.3.4-.6-1.1c.5 2.2-.6.2-.5-1.3 0 .8-1.2 5 .7 4.2-.8 1.5-1 .9-1.5-.2-1.9 4.5-.1.2-.2-.1-.2-.8-1.2 1.3-1.3 1.4s-.4.2-.4.3h.4c-.7 2.1-.5.3-1 .3s-2.7 2.4-2.9 2.9l-.9-1.3c.7 2-.1.5-.3.7s-1.3 2.3-.4 0c-1.1.8-1.5 0-.4-.7-.5.4-1.8.1-2.1.2-.5.1-.2.7-.5.9s-.3-.8-1.1-.7-.4.9-1.1.7-.2-1.7-.1-1.8c.4-.1.6.5 1 .4.7-.1 5.7-.8 5.9-1.1s-.3-1-.2-1.2c.3-.6 1.3-1 1.3-1 0-.2.5-3.2.5-3.4 0-1.1-1.2-2.4-1.1-3.3s.8-.8.9-1.1-.5-2.5-.5-3.3.5-1.4.5-2.5-.7-1.2-.7-1.8.8 0 .9-.1c.9-.9-.9-.9-1.1-1-4.2-3-3.5-.9-7.7-.5-1.4.1-3.9-.2-5.3-.7s-4.2-3.2-5.1-3.5-1.6.7-1.5-.3 1.5-.9-.2-1.2c-1.2-.2-1.4 2-1.9 1.7s.3-.8 0-.9c-.9-.3-2.4 2.3-3.2.9s.8-2.3.6-2.4-1.8.1-1.8-.6 3.4-.9 1.8-1.9-.8.6-1 .6c-.4 0-.7-.6-.9-.6-.3 0-1.3 1-1.7.6s0-.8 0-.9-.5.3-.7.1c-.4-.4-.6-1.4-.7-1.5-.2-.2-.3.7-.8.9s-2.4-.3-2.1-.9.5.2.7.1c1.3-1-1.2-.4-1.7-2s1.1-1.1 1.3-1.2.3.6.6.9.9-.7 1.2 1.3c.7-.1-.4-1.3-.1-1.3s.9.9 1.4.7l-.7.7c.6 0 3.4-.7 3.5-.9.4-.6-.6-.4-.7-.4-.1-.4.7-1.3.4-1.8s-1.4-.5-1.5-.4c0 .1.2 2.5-.1 2.9-.9-.3-.7-1.5-1.4-.4 0-.5.3-.9.4-1.3s1.4-.9.4-1.8.4 2.9-1.5.2c-.2.5 1.2 1.3 1.1 1.6s-1.5.5-1.6.4c-.3-.3.6-1.2.4-1.3s-.7.2-.8.2.1-.4.1-.4c-.2-.1-.9.1-1.3-.1-1-.5.2-.7.2-.8-.5.4.5 1 .9.7s-.5-1-.9-.7c.4-1-.8-2.1-1.1-1.1-2.4-.8-.9 1.4.2.7s-.3-.5-.2-.7c1.7.6-.1.9-.4 1.8.2-1-1.4-.8-1.3-1.7 0-1.8 2.8-.2 2.9-.3 1-1.2-2.1-.7-2.2-1.4s.8-.6.9-.9-.4-.6-.4-1.1.5-.7.4-.8-.8 0-.9-.4c-.2-.8.9-1.1.9-1.2 0-.2-.4-.4-.4-.7h.9s-.2-.5-.2-.7c.2-.2.4-4.7.4-1.1l.2-1.1c.6 0 1.3 1.3 1.1 1.8l-.7-.7.2 1.8-.9-1c.2 1.8 1.3 1.1 1.3 1.2s-.7 2.5.2 2.9c-.4-4.8.7-1.7 1.3-1.8s.8-.7.7-.9-1.1-.4-1.1-.8 1-1.4.4-2.1-2.1 0-1.8-1c.3-.9 2.1 0 2.5-.2s.9-2.2.9-2.6c.4.7.6.2.7.2 0 .3.3 2.3 1.3 1.6-.7.3-1.3.6-.9 1.6-.2-.2-.5-.7-.6-.7-.6.2-.1.9-.1 1.1-2.6-.5-.5 1.2.2.7s-.2-.5-.2-.7c.5 0 3.4 1.8.7-.4.6 1.2.5-1 1.1-.7 0 .3-.1 2.1.7 1.8s-.7-1.9-.7-2 1.7-.1 1.9-.4-.3-1.4.2-1.3.2 3.1 1.2.2c-1.2.7 0-2.7-.4-4.1s-.8-.1-.9-.5.9-.6.9-.7c.1-.4-.3-1.6-.2-1.6.6-.6 2.2 1.3 1.8 2.2.7 0 .6-.9.9-1.3s.6.3.6.2c.2-.3-.4-1-.3-1.4.2-1.2 1.5-1.8 1-3.3l-.4 1.8c-1.1-.4-.1-2.4.3-2.4s1.1 2.5 1.4 2.9l.7-1.1c-.3.6.9 3.3 1.3 3.1s-.2-3-.2-3.5c0 0 0 .4.1.4.7.2.3-.8-.1-.4 0-.2 0-.4 0-.7 1.1.4.3-.5-.2-.9 0 .3.2.7.2.9-2.6-.9.4-1 .4-1.1.1-.2-1-2 0-2.4.2.9.1 2.8.3 3.6s1.9 1.8.6 1.8c0-.2 0-.8 0-.9-.3-.4-.9.8 0 .9 1 2.3.7-.8 1.5-.2 0-.4-.2-.7-.2-1.1s.5 0 .4-.1c-.2-.7-1.2-1.2-.9-.1-1-.5-.5-.4-1.1-1.8.8-.5.8 1.1 1.1.9s-.7-1.1.2-.9l.4.9.2-1.1c-.2.9.4 1.7.4 2.4-1.2.6-.2.9 0 1.1v2.4c-.1 0-.4-.3-.4-.2-.3.5.3 2.3.4.2.7 0 1 0 1.3-1.1s.2-.3.2-.4c2.1 1.3 0-5.2 2-.7 0-.8.4-1.4.4-2.2-.2 0-.6.5-.7.4-.2-.2.5-.9 0-.9l-.7.9c.2-2.2-.6-1.3-.4.2l-1-.9c-.4-.2-.3 1.7-.8.4s1.3-.6 1.3-.7c.1-.1-.3-.8-.2-.9s1.4.8 1.6-.8-.7.9-1.1.6c-.6-.6 0-3.7.9-2.8 1.1 1.1 0 3.3.2 3.5.3.2.9-1.2.9.9.4-.2 1.1-.7 1.2-.7.3.2.4 1.5 1.2 1 1.4-.9-.2-.9-.2-1-.5-.8.6-.6.7-.7 0 0-.6-1.7 1.1.2-.2-.2-1.3 0-.9.7s1.3-.2.9-.7c1.2 1.4 0 1.1-.3 1.8-.6 1 .3.4.3.4-.5 1.5.3 1.8 1.6 1.3 0-.6-.7-.2-.8-.3-.7-.8.5-.5-.8-1.1.7-2.1 2 1.7 1.6-1.5l.9 1.1c.2-.5-.2-1.2-.2-1.6.6.2 2 .9 1.5-.6s-.8.2-.9.1.9-3-.4-1.1c.2-.4 0-1.9.7-2.2.6 2.2.5 4.6 3.1 2.4-.2 1.3 1 .2 1.5 2 .7-1-.5-2-.4-2.1 0-.7.6-.2.7-.3s-.6-2.2-.4-2.7c1.2.2.7 2.2 2 .7.4 1-.2 1.1-.4 2.1 2.3-1.4 0 2.7.4 3.9-1-.3.2-1.9 0-2s-1.4.4-1.5.5c-.8.9 1 2 .4 3l-.7-.9c.1.5 0 .7-.2 1.1.4-.4-.7-1.1-.9-.9s.5 1.3.9.9c-.2.5-.6.7-.4 1.3-1.5-2.5-.8-.3-.9-.2s-.6-.5-.8.1-.1 2.6 0 2.7c.2.2.7-.6 1.1-.9 0 .3-.1.7.1.9.4-.3.3-.7.3-1.1 0 0 .8-.1.7 0-.2.4-.7 2-1.1 2.1 0-.2 0-.5 0-.7s-.4.4-.7-.2c0 .7-.2 1 .7.9.1.4-.3 1.2.3 1.5.7 0 0-.9.1-1.3s.4 0 .4 0c0 .4 0 .9.7.9v-1.5c-.2.1-.5.5-.7.7-.4-1.6.5-.7.7-1.1s-.5-.8-.4-.9 1.8.7 0-1.6l1.5 1.3c-.3-.6-.7-1.8-.4-2.5s.9 0 1.1-.1 0-.6.2-.9c-.1.3.4 1.1.2 1.3s-.6-.3-.7-.2c-.2.2.4 1.8-.7 0-.2 1.4 1.1 2.2 1.5.7.4 1-.4 2.4-1.1 1.1.1.9.8.6 0 1.2 2.9.9 1.6-.5 1.8-.8.4-.5.9.5.7 1.1l.7-.4c-1.1 1.8 1 1.5 1.1 1.2.2-.6-.5-.5-.4-.7.1-.6.4 0 .4-.1 0-.7 0-1.5 0-2.2.5.3.3 4.3 1.3 2.2s-.7 0-.4-1.2.9-1.9.9-2c0-.9-1.4.3-1.5.3.2-2.2-.4 0-1.1-1.3s0-1-.2-1.3c.3.2 1.3 1.8 1.8.8s-.6-.3-.7-.3c-.6-.8.2-2-1.1-.7l-.4-.9c.3 2.2 0 0-.6.2s-.6 1.4-1.2.9 1.1-2.7-.2-.9c0-2.7 1.6 1.4 1.8-1.3l.7.4c.2-1.6-.4-.4-1.1-.9l1.5-.4c-1.8-1.1-.3-.8-.2-.9s-.3-.4-.2-.4h.6s0-.9 1.1-1.3c.2.4-1 1.5-.9 1.5.2.1.7-.2.8-.2 1.5.9-.3.8-.4.8s0 2-.2 2.4c.7 0 .9-1.5.9 0 .7-1.7.6.9 1.5-1.1.4 5.5.4-1 1.2-.9s1.2 1.9.8 2.4c2.4-1.5 1.1 0 1.1.1.2.8 1.6 1.8-.7 2.2-2.1.4-.1-.8-1.6-1.9.7.9-.4 5.1-.2 5.3s1.8-1.4 1.3.7c-1.9-2.4-1.4 2.1-.2 1.3s0-.4.7-1 .6.2.6.1c.1-.2-.3-1-.2-1.1s.6.3.7.2c.1-.2-.6-3 2.2-1.8 0 .5 0 .9.7.9.2-1.4-.2-.7-.7-.9 0-.4.3-.9.2-1.3l-.7.4c0-1.4 1.2-.8.9.4.6-.6 1.3.3 2-.2s1.3-4.7 0-1.8c1-1.3-.7-2.7-.7-2.9.2-.6 2.2-.3 1.3-2-.9-.2-.2 1.1-.4 1.3s-.8 0-.9 0c.7-1.4-.3-.4-.7.2s-.5 0-.7.4.3.8.2 1zm-13.6-3.6c-.9-.2-.3 1.1-.2 1.5zm-2.8 1.8s-.6-.2-.7-.2c-.6.6.8.9.7.2zm-.9 0c-.5-.7-1.8 1.3-1.6 1.5.6.5 1.6-1.4 1.6-1.5zm3.5 0s-.4 0-.4.1c-.1.7.8.3.4-.1zm-1.5.4c-.4-.8-.5 1-.2 1.3.4 0 .3-1.3.2-1.3zm-.7 1.6c0-.5.1-1.2-.4-1.3 0 .4 0 1.2.4 1.3zm21.1.2c.1-.2.2-1 .2-1.3-.6 0-.8 2-.2 1.3zm-24.2-1.1c-.8-.1-.6 1.1-.7 1.5.8.1.6-1.1.7-1.5zm10 0c-.2-.2-.8.3-.7.4.2.2.8-.3.7-.4zm12.4.4c-.5-.2-1 1-.9 1.1.3.3 1.1-.7.9-1.1zm-11.3.5c-.2 0-.6 0-.7 0-.4.4.4.8.7 0zm-9.7.2v.2h.1c0-.1-.1-.2-.1-.2zm2.6.2s-1.6 0-1.3.4 1.9 0 1.3-.4zm7.7.2c-1.1-.5-.2 1.2-.9 1.8 1.2-.8 1-.4 1.5.7.5-3.7-.4-1.7-.6-1.8-.3 0 0-.6-.1-.7zm12.9 0c-1.3-1.1-.9 3.3-.2 1.7s.2-1.7.2-1.7zm-42.1.3c0 .3 0 .5.3.7 0-.2 0-.8-.3-.7zm3.5 1.1c.1-.2-.3-1.1-.7-1.1-.2.3.3 1.5.7 1.1zm36.6-1.1c-.4-.8-.7 1.3-.1 1.3s.2-1.2.1-1.3zm-20.2.2c-1.5.2.7 2.2.7.2-.8.5-.6-.2-.7-.2zm10.9 0c-.8-.2-.3 1.6-.1 1.5s0-1.3.1-1.5zm-12.5.5s-.6-.5-.8-.3 1 2.4 1.6.9-.5-.3-.6-.3c-.2 0 0-.3-.2-.4zm-18.1.2c0-.1-.8-.3-.8-.3-.6.6 2.2 2.2.8.3zm10.4 2.2c-.2 0-.6.3-.7.2 0-.1.6-2.2.4-2.7-.9 0 0 1.2-1.3 1.1 1.3-.2-1.3 2.5.7 3.3 0 .6.3 2.2.7 2.6s.7-.2 1.3-.1c-.2-.2-.9.4-.7.7s.9-.4.7-.7h1.3v.7c.4 1.1 1.3-.5 0-.7 0-.1.2-.5.2-.6s-1.4-1.4-1.3-1.8c.9.7 2.4.7 2.4-.6s-1.1-.6-.7-1 2.3.7.9-.9c1.3.2.8-.5.9-1.6-.7 0-.4.5-.9.9.2-.2.3-1.3-.7-.4-.1-.2.3-1.2-.4-.8l-.4 1.7c.7 0 .4-.5.9-.9 0 0 .2 1 .7.4-.8.7-1-.1-1.1 1.5-.3-.5-.3-.4-.7-.7 0 0 0 .7-.1.7-.4 0-.4-1.1.1-.7-.2-.2-.5-.8-1.2-.9s0 .4-.2.4c-.3 0-1-.9-.8.7zm2.5-2.5c-.2-.4-.6.3-.4.7.3 0 .6-.5.4-.7zm27.9 0c-.2-.3-1 .5-.7.9s1-.5.7-.9zm-40.1.8-.3 1.6c.6.7 1.5-1.9.3-1.6zm10.4-.3c-.6-.6-.6 1.3 0 .7s0-.6 0-.7zm1.1 0c-.7-.7-.3 1 .1.9s0-.9-.1-.9zm4.3.3c-.6-1.1.2 1.8.6 1 0-.6 0-1.1-.6-1zm-11.4 3c0-.8.3-1.5-.4-2.5s-1.3-.6-1.3-.6c-.2.2.2 2.3.3 2.5s.6.1.7.3 0 .6 0 .6.5-.3.7-.2c.2 1.5.7.2.4 0s-.3 0-.4 0zm-5.8-1.8c.1-.2 0-1.1-.4-1.1-.1.4 0 1.7.4 1.1zm2.7-.4c-.6-.7-.6 1.6 0 .9s0-.8 0-.9zm-2.4 1.1s-.5 0-.6 0 .1.6-.1.6.1-1-.6-.7l-.2 2.4c-1.4-1.4-.6.6-.7 1.3s-.7-.2-.4.4c.6.3.4-.4.4-.4.2-.2.7.3 1-1.1-.2 1.9.7.7 1 .9s0 .7.3.9.4-.7.8-.9c.4 1.8.7.5.9.4.6-.3 1.1.7.9-1.3l.7.7c-.3-1.3.4-1 .4-1.1v.9s.6 0 .6.1c.2.5 0 2.6.2 3s.4.1.4.2c-.3 1.5 1 1.7.6.4s-.6-.4-.6-.4c0-.1 0-.4 0-.4s.5 0 .7 0c.1.4 0 1.2.4 1.3-.2-1.2.7-1.6-.4-1.3 0-.2-.2-1.1-.2-1.1-.4-.2-.3 1-.7.9-.3-.6.4-3.1.2-3.3s-.6.3-.7.2c-.4-.4.1-1.4-.7-.4-.5-1.1-1.1-.8-.9-2.2-1.2.3.4 1.2-1.1 1.3 0 0 .4-1.9-.2-1.3s.6 1-.1.9c0-.6-.7-.8-.8-.9s0-1-.6-.9 0 .8-.1.9zm30.8 0s-.5-1-.7-.9c-.5.2-.1 1.5.7.9zm-23.5.2s-.5-.1-.5.3c0 1.6 1.7.8 1.1.1s-1.3.6-.7-.4 1.4 0 .7-.9c-.6-.8-.6.8-.7.9zm9.5-.8c-1-.1-.8.6-1.1 1.3.5-.1 2.4-1.1 1.1-1.3zm20.6 1s0-.6 0-.7c-.3-.4-.3 1.1 0 .7zm.9-.6c-.6-.7-.6 1.6 0 .9s0-.8 0-.9zm7.8 1.1c0-.3.2-1-.2-.9 0 .3-.2 1 .2.9zm-4 .4s0-1.1-.1-1.1c-.6 0-.3 1.8.1 1.1zm-35.7-.4v-.4h-.2v.4zm10.4-.5c-.6-.7-.6 1.6 0 .9s0-.8 0-.9zm13.7 1.4s.2-1.1.2-1.3c-.8.1-.6 1.6-.2 1.3zm17.7-1.4v.2h.1c0-.1-.1-.2-.1-.2zm-10.6.5c-.5-.4-1 .4-.3.7.5.2.4-.6.3-.7zm.9 2.9c.2-1.2-.3-4.2-.8-1.7zm8.2-2.7c-.3-.2-.9.4-.7.7.3.4 1.1-.4.7-.7zm-2.4 1.1s0-.7-.1-.7c-.4 0-.4 1.1.1.7zm-38 .4c0-.1.2-.9-.2-.8-.7.8-.7 2.2.2.8zm30.9-.8c-.3-.5-.8.9-.7 1.1.3.3.9-.7.7-1.1zm12.4 0s-.4 0-.4.1c-.1.7.8.3.4-.1zm1.6 0c-.2-.2-1 .5-.9.7.2.5 1.5 0 .9-.7zm.8.2c-.6-1-.6 2.3 0 1.3s0-1.3 0-1.3zm-27.6 1.3c0-.2.3-.7.2-1.1-1.1.5-.9 2.2.4 2.2.2-.6-.6-1.1-.6-1.2zm1.1 0c0-.1 0-1.9-.4-1.1s.4 1.1.4 1.1c0 .3-.5.8.1 1.1 1-1.9 0-1-.1-1.1zm.8-1.1c-.6-.6-.6 1.3 0 .7s0-.6 0-.7zm13.8 0c-.6-.3-.5.8-.4.9.3.4.9-.6.4-.9zm6.6 0s-.4 0-.4.1c-.1.7.8.3.4-.1zm-7.9 2.4c1.1 0 .8-2.2.3-2.2s-.4 1.9-.3 2.2zm5.3-1.1c.5-.1.5-.7.4-1.1-.5.1-.5.7-.4 1.1zm1.7-1.1s-.5 0-.4.1c0 .4 0 .4.3.1 0 0 .2-.1.1-.2zm-7.9.3s-.4 0-.4.1c-.1.7.8.3.4-.1zm15 0c-1.1 0-.5 1.6-.4 2.2zm-46.3.8c.3.2.5-.7.1-.7s-.1.6-.1.7zm44.1-.6c-.3-.4-.9.8-.7 1.1s.9-.8.7-1.1zm3.8 0c-1-.1-1.5 0-1.3 1.1zm-23.5 1.3c0-.3.3-1 .2-1.1-.4-.5-1.4.6-.2 1.1.2 2.5.8 0 .7-.2s-.6.2-.7.2zm6.4.2c-.9.3.3-1.3-.9-1.1l.2 2.7c.4-.2.5-1.1.7-1.6 1-.3.3-1.2 0-.9s0 .7 0 .9zm14 .4c.3-.3.3-1.2 0-1.5 0 1.3-1.2 1.1-1.2 1.2 0 .3 1.2.4 1.3.3zm-48.1.3c-.3-.6-.5.4-.5.8s.5.3.5.3c0 .2-.2.8.1.9.6.1.2-.6.3-.9s.4.1.5-.3-.4-1.3-.3-1.9l-.7.7v-1.1c-.9.3-.2.9 0 1.6zm29.2-.2c0-.2-.1-1.1-.3-1.1-.4 0-.4 1.3.3 1.1zm7.6-.3c0-.3.2-1-.2-.9 0 .3-.2 1 .2.9zm13.6-.6v.3c.1 0 .2.1.2.1v-.2zm-51.3.2c-.4-.2-.7 1.3-.1 1.3s.2-1.3.1-1.3zm3.1 0s-.5 0-.4.1c0 .4 0 .4.3.1 0 0 .2-.1.1-.2zm12.4.7c0-.3-.8-.7-.9-.7-.4.3.2 1 .9.7zm20.6-.7c-.9-.3.1 1.6.2 1.5.4-.2-.3-1.3-.2-1.5zm-23.9.9s0-.7-.1-.7c-.4 0-.4 1.1.1.7zm.8-.1c0-.2.2-.5 0-.6l-1.4 1.5c1.1.5 1.2.1 1.5-.9zm-2.8-.4c-.7-.3-.5 1.3-.4 1.3.4.6.8-1 .4-1.3zm39 .9c.2.2.6-.6.4-.9-.3 0-.5.8-.4.9zm-25.7.3c.2-.2-.4-.9-.7-.9-.2.4.4 1.2.7.9zm13.7-.3s0-.6 0-.7c-.3-.4-.3 1.1 0 .7zm-11.5.7s.2-.9.2-1.1c-.8 0-.8 1.7-.2 1.1zm3.8-.7s0-.4-.1-.4c-.4 0-.4.8.1.4zm.9.7s0-1.1-.1-1.1c-.6 0-.3 1.8.1 1.1zm-15.3-.2c.3.2.5-.7.1-.7s-.1.6-.1.7zm6.4-.3s-.1-.2-.2-.3c-.5-.3-.1.8.2.3zm.7-.4c-.4-.7-.7 1.1-.1 1.1s.2-1 .1-1.1zm4.6 1.1c0-.4.4-.7.3-1.1-.3.2-.9 1-.3 1.1zm-18.4-.2c0-.3 0-.5-.3-.7 0 .2 0 .8.3.7zm16 .7c0-.4-.3-1.2-.7-1.3 0 .5 0 1.5.7 1.3zm-13.3-1.1c-.3-.5-.6.5-.4.9.3 0 .5-.8.4-.9zm5.1 0c-.6-.6-.6 1.3 0 .7s0-.6 0-.7zm13.5.8c0-.1 0-1.5-.4-.9s.4.8.4.9c0 .2-.1.9.1.9 1.2-.1 0-.8-.1-.9zm-22.2.5c.1-.2 0-.8-.4-.9-.2.3.1 1.4.4.9zm34.8-.2c.3-.3-.7-.9-.7-.3s.5.5.7.3zm-41.2 1.5c.6.6 1.2-1.6.9-2-.2.2-1.1 1.8-.9 2zm3.6-1.1c0-.3 0-.9-.4-.9 0 .3 0 .9.4.9zm21.7.2s0-1.1-.1-1.1c-.6 0-.3 1.8.1 1.1zm4.4-1.1c-.8-.2-.5 1.5-.1 1.8v-1.8zm-22.6.2s-.4 0-.4.1c-.1.7.8.3.4-.1zm14.9.9c.2.2.7-.6.4-.9s-.7.6-.4.9zm2.4-.9c-.5-.5-.4.3-.2.7.4.1.2-.6.2-.7zm-1.6 1.6s.2-1.2-.2-1.1c-.3.4-.2 1.8.2 1.1zm-36.8-.4-1.5-.2c0 .5 1.4.7 1.5.2zm56.6-.3s-.4 0-.4.1c-.1.7.8.3.4-.1zm-48.4.9c.2-.3-.4-.9-.7-.7-.4.3.4 1.1.7.7zm1.2-.7c-.2-.4-.6.3-.4.7.3 0 .6-.5.4-.7zm7.9 0c-.4-.8-.7 1.3-.1 1.3s.2-1.2.1-1.3zm-.9 1.2s0-.9-.1-.9c-.5 0-.4 1.4.1.9zm43.9-.9c-.3-.4-.8.7-.7.9.2.3.9-.5.7-.9zm2.2 0s-.6 0-.7 0c-.6.6 1.3.6.7 0zm1.4 0c-.4-.3-1.7.2-1.1.7s1.7-.2 1.1-.7zm-7.8.6v-.4h-.2v.4zm.7 0c-.6-.7-.6 1.6 0 .9s0-.8 0-.9zm-51.9.3c-.6-.7-.6 1.6 0 .9 0 0 0-.8 0-.9zm18.6 1.3.2-1.3c-.4 0-.7 1.2-.2 1.3zm-7-.5c.3.2.5-.7.1-.7s-.1.6-.1.7zm8.6 0c0-.3 0-1.1-.4-.7s.4.6.4.7c0 0 0 2.1.4.3.1-.5-.4-.3-.4-.3zm35.5 0s0-.6 0-.7c-.3-.4-.3 1.1 0 .7zm-59.4-.4c-.2-.3-.7.8-1.1.3.4.6 1.5.4 1.1-.3zm3.1.9c.1-.2 0-.8-.4-.9-.2.3.1 1.4.4.9zm16.4.2c.1-.3-.6-1.4-.9-1.1s.7 1 .9 1.1zm23.5 1.3.2-2.4c-.6.4-1 2-.2 2.4zm11.3-1.5s0-.7-.1-.7c-.4 0-.4 1.1.1.7zm-31.1-.5c-.3-.2-.9.4-.7.7.3.4 1.1-.4.7-.7zm31.9 0c-.7.7-1.3 1.1-1.1 2 .8-.5 1.4-.9 1.1-2zm.5 1.1c.3.3 1.4-.9.5-1.1s-.7.9-.5 1.1zm1.8-.8c-.3-.4-.9.8-.7 1.1s.9-.8.7-1.1zm-8.2.8s0-.6 0-.7c-.3-.4-.3 1.1 0 .7zm-49.5-.4s-.8 0-.9 0c-.7.6 1.6.6.9 0zm12.2.9c.1-.2-.2-.6-.4-.7-.2.4.2 1 .4.7zm10.7-.7s-.4 0-.4.1c-.1.7.8.3.4-.1zm36.1.7s0-.7-.1-.7c-.4 0-.4 1.1.1.7zm.9-.7c-.7-.2-.7.9-.3.9s.4-.6.3-.9zm-22 .5c-.2 0-.7-.2-.9-.1-1 .7.8 1.3.9.1zm-37 .9-.9-.9v.9s.7 0 .9 0zm55-.7c-.2-.3-1.3.5-.9.9s1.2-.6.9-.9zm-59.4.4c-1.6-.3-1.8 1.3-.3.5s.3 0 .3-.5zm1.5.7s0-.6 0-.7c-.3-.4-.3 1.1 0 .7zm6.2-.7c-2.2.2-.4.9-.1 2.2.2-1.1-.5-1.3.1-2.2zm-2.8 1.4s1.4-.2.7-1.1c-1-1.1-.6.8-.7 1.1 0 0-.8-.6-.4.3.7 1.5.4-.2.4-.3zm37 0c.2.2 2.1 1.9 2.2 1.8 1-1.2-1.7-1.5-2.2-1.8 0 0 .3-.4.1-.7-.4-.6-2.4-.5-.1.7zm27.7 0c.2-.3-.6-1.4-.9-1.1s.5 1.7.9 1.1zm-69.2-.7c-.5 0-1.5 1.2-1.5 1.4-.1.7.6 0 .7.1.2.3-.5 1 .1 1.3 1.1.5 0-.6.1-.7s.5 0 .6-.6-.6-.5 0-1.6zm44.6 0s-.5 0-.4.1c0 .4 0 .4.3.1 0 0 .2-.1.1-.2zm13.7 0c-.4-.4-1 .9-.3.9s.5-.7.3-.9zm-55.6 2.2c-.1-.2-.2-.7-.4-1.2s-.6-.1-.7-.1c0 0 .5-1.7-.4-.1 0 0 .4 1 .4 1-.8-.4-.4 1.3.2.7s-.2-.6-.2-.7c.3.3 1.1.4 1.1.4.2.3.2 1 .9.9 0-.7-.6-.7-.9-.9zm7.7-1.1c.2-.5-.7-.9-.9-.7-.5.5.7 1.2.9.7zm36.8 0c-.1 0-.6 0-.7 0-.3.3.6 2.6 1.1 1.2s-.7-.3-.7-.3c0-.4.5 0 .5-.3s-.2-.5-.2-.5 1.3 0 .7-.7-.6.5-.7.7zm14.2.2c0-.1 1.3.5.9-.9-.6 0-.7.7-.9.9s-1.1 1.1-.9 1.5c.6 1.1.8-1.5.9-1.5zm5.3-.2c.1.1.6-.5.4-.7s-.6.5-.4.7zm-21.7-.4c-.5-.6-.6.9-.1.9s.1-.9.1-.9zm18 .6s0-.6 0-.7c-.3-.4-.3 1.1 0 .7zm-49.9.7c0-.4.2-1.2-.2-1.1 0 .3-.2 1.1.2 1.1zm31-.2c0-.3.2-1-.2-.9 0 .3-.2 1 .2.9zm24.2-.9s-.6 0-.7 0c-.6.6 1.3.6.7 0zm-22.6 1.5s.2-1.4-.2-1.3c-.2.3-.2 2.1.2 1.3zm-17.3-.4c-.8-1.4-.6 1.6 0 .8s0-.7 0-.8zm21.9.7s0-.7-.1-.7c-.4 0-.4 1.1.1.7zm-49.4 0c.2-.7-1.7-.4-.9.2s.9-.2.9-.2zm48.6-.5-.7.7c.7 0 .7 0 .7-.7zm-4.7.9s-.5-1.1-.9-.6 1 2.3 1.8 1.5c1.3-1.3-.6-.8-.8-.9zm-41 .7c-.2 0-.7-.7-.9-.4s.5 2.3.9.4c1.9.2.4-1.3 0-.9s0 .7 0 .9zm43.7-.7s-.4 0-.4.1c-.1.7.8.3.4-.1zm-.4.7v.2h.1c0-.1-.1-.2-.1-.2zm-3.6 1.3s.2-.9.2-1.1c-.6 0-.8 1.7-.2 1.1zm8.6-.9c-.4-.4-1.1 1-.9 1.3.3 0 1-1.2.9-1.3zm-4.4.5c-.3-.5-1.4-.3-.7.9.5.2.7-.8.7-.9zm-46.3.6s-2.3-1.1-.9.4c.5.6.8-.4.9-.4 0 0 1.6 0 .9-.7s-.8.6-.9.7zm2-.6s-.6 0-.7.1c0 .4.8.2.7-.1zm41.6 6.4c-.1 2.7-.4.7-1.6 2.7-1.9 3-3.2 7.3-3.5 10.7 0 .9.5 2 1.3 1.1s4.4-11.7 4.2-5.4c.8-.6.2.7.6.7s1-1.8 1.2-2.1.9 0 .9 0-.2-.8 0-1.4 1.7-1.5 1.7-1.9-1.1-.8-1.3-1.5.5-.2.4-.4c-1-2.7-2-.1-3-2.7-.7-1.8.8-5.4-2.1-5.9.4 1.4 1 .7 1.1.8.6.7-.3 1.6-.2 2.1 0 1.2.3 2.3.2 3.4 0-.4.1-.8-.4-.7l-.2 1.1c.3.2.7-.4.7-.4zm8.4-6c.5-.5-.3-.4-.7-.2-.1.4.6.2.7.2zm-28.3.4s-.2.2-.2.2c-.3 0-.7-.3-.7.3.1 1.7 3.3 1.8 1.1-.5s0-1-.2 0zm27.2-.4c-.3-.3-.9.5-.7.9.3 0 .9-.7.7-.9zm-23.5.2c-.2-.4-.6.3-.4.7.3 0 .6-.5.4-.7zm15.1 1.1s0-1.1-.1-1.1c-.6 0-.3 1.8.1 1.1zm-40.1 0c.4.3 1.1-.4.9-.7s-1.3.3-.9.7zm60.5.3c.2.3.7-.9.1-.9s-.1.9-.1.9zm-27 5.3s0-.3 0-.4c-1.3.8 0-.6-1.8-.2 1.5-.3.5-.6.8-.9s.6.4.8.2 0-1.7 0-1.8c-.1-.1-3-.3-1.8-1.3-1.2-.3-.3 1-.9 1.7s-.7-.2-.7-.1.1 1.7-.8 2-1.5-1.7-1.4-2.3 1.4 0 1.1-.8-2.6-1.8-2.8-1.8c-1.2 0-1.4 6.6-1.7 6.9s-1.1-.1-1.2-.4c-.1.2.1.4.1.7-.4-.4-1.3-1.6-1.5-.9.7 0 .8.8.9.9-.7-.4-.4-.3-1.1-.2 0-.2.2-1.4-.4-.9s0 .6 0 .7-.3-.3-.4-.1c0 .2.4.4.4.6s.1.3.2.4.2.1.2.2c.1.1.2.9.2.9.2 0 .5-.5.6-.4.2 0 .4 1.1.8.7s-.8-.4.2-.4c.1.8.5.5.7.8.3.7-.9-.2-.7.3s2.2 1.8 2.7 1.8l-.9.2c.5 1.1.8 1.3 2.4 1.6 0 .4-.6.1-.7.2-.1.3.7.3.7.7-1.6-.1-.7.6.4.4h.2c1.3 0 0-.4.9-.4.5 2.2-1.5 0 0 1.7l-.9-.2c.8.6.8.8 1.1 1.7v.2c.3 1.8.5 8.7.4 2.2l.4 1.8c.9-1.9-.2-3.8-.2-5.2s.6-1 .6-1.5-.8-1.5-.8-1.8c-.1-.7.8.1.7-.2-.2-.8-2.4-1.9-.9-2.1-.8.6-2.3-.8-3-.7s.2.9-.6.7c-.1-1.3-1.3-2-2.2-2.9.1 0 .6-.3 1.1-.1s1.7 2 1.8 2.1c.8.5 2.9-.6 4.2 1.4 1.8 2.6 1.2 8.9 1.3 12 0 1.1 1 1.9-.2 2 1.9 1.7 1.1-1.7 1.3-2.9.8-3.6 2.6-7.3 2.9-10.9 0 0-.5-.5-.4-1.3s.6-.3.6-.5c.1-.7-1.8-2.2-1.5-3.2l-.2.9c0-.6-.6-.6-.7-.7.2-.4.3-.8.2-1.3-.5-.1-.5.3-.7.7zm-16.4-5.3c-1.1-.3.6 1.1-.2 1.7s-3.2 0-2.9 1.1 1 .7 1.2.8c.9.2.1-.9.7-.4s.7 1.7.8 1.8c.2.1 4.2.2 4.7.1 3.2-.6 2-3.5-.1-3.4-.5 0-.3.6-.9.7-1.3.2-1.1-.6-1.3-.7s-2.4 1.4-1-1.1c-.9.3-.8-.4-.9-.4zm1.4 0-.3.3h.1c0 .1.2-.1.2-.1zm27.3.5c-1.2-.8-1.9 1.8-1.7 2.6s2.9 2.9 3.1 2.8 1.9-3.2 2.7-3.4c-.6-.4.3-2.3-1.2-2.1-1.7.3-.5 2.7-2.3 2.1s.3-1.5-.6-2.1zm-29.2.1c-.5-.5-.4.3-.2.7.4.1.2-.6.2-.7zm1.4.9c.1.1.6-.5.4-.7s-.6.5-.4.7zm19.2.4s-.7-.2-.9-.2c0 .6 1.5.9.9.2zm-8.4 2s0-.6 0-.7c-.3-.4-.3 1.1 0 .7zm-14.7.7c0-1.7-1 .2-1.1.3-.5.3-.4-.5-.8-.5-.7.1-1 .7-1.3.7-.6 0-.3-1-1.4-.5-.2.7 1 .5 1.1 1s-.7.6-.7 1.1.9.2.7 1.1c0 .2-.6.2-.7.7-.3 3.3 4.8 4.5 7.3 4.2s1.7-.9 2.1-1c1.1-.3.8 1.7 2.3-1s1.3-.4-.1-1.8-2.1.8-2.2-1.1c-.5 1.7-1.7.7-1.4.2s.9.6 1.1-.5-1.8-1.2-1.9-1.2c-1 0-.6 1.4-.8 1.8s-.8.5-.8.7 1.1.9-.1 1-.1-3.1-.3-3.3c-.8-.8-1 2.4-1.1 2.4-.7.4-.8-.7-.9-.7-.2 0-.7.9-1.2.2s.9-1.1 1-1.5-.9-.8-.7-1 2-.5 1.9-1.4zm-14.5-.4c-.6-.8-.9 1.1-.4 1.6.5 0 .5-1.4.4-1.6zm34.1 0c-.4-.1-1 0-.7.4s.7-.2.7-.4zm-35.7.2c-.2 0-.8 0-.9 0s0 .7 0 .9zm57.6.4s-.1-.2-.2-.3c-.5-.3-.1.8.2.3zm-41.4.5c.3.2.8-.4.7-.7s-1.1.4-.7.7zm22.6 3.1c1.2 1.1 1.7-3.1 1.1-3.8-1.3.4-1.9 3-1.1 3.8zm-17.3-2c0-.3 0-.5-.3-.7 0 .2 0 .8.3.7zm-19.4-.5v.2h.1c0-.1-.1-.2-.1-.2zm5 0c-2.7 2.3 2.2 3.6 1.1 1.6 0-.1-1.3-.3-1.1-1.6zm2.9 0c-.1-.1-.9 0-.9.3 0 .7 1.3 0 .9-.3zm11.9 0c0 .3 0 .5.3.7 0-.2 0-.8-.3-.7zm2.5 6.2c-.8.2-2.1.4-2.7 1.1.9 0 2.1-.3 2.7-1.1zm-2.7.5c-.4 0-.7 0-.9.3.2 0 .9 0 .9-.3zm6.9 0s-.4 0-.4.1c-.1.7.8.3.4-.1zm15.1 1.8s0-.6 0-.7c-.3-.4-.3 1.1 0 .7zm-1.8 1.7-.2 2c.5-.3 0-1.3.2-1.8s1.4-.1 0-.3zm-4.9 10.7v-3.1s.2 0 .2 0v3.3c1.3-.7.8-2.4 1.1-3.5s.6 0 .6 0c.2-.7 0-2.6 0-3.3-.4.8-1.3.7-1.1 1.8l-.4-.7.2 2.9-.4-2.2-.2 1.5-.4-.9zm-4.2-2.5s-.5.3-.7.4v-2s-.2 1.3-.2 1.3l-.9-2.9.4 2.9-.7-.8.9 2.5c-.4 0-.3-.8-.7-.7s.2.7-.2.7l-.4-.8 1.1 4.1c.4 0 1.9-1.2 1.9-1.5.2-1.3-.3-.8-.8-1.7s.4-.8.4-1.2 0-.1 0-.4c-.2-1.4-.1-.1-.2 0zm3.8 3.1c0-.8 0-2-.9-2.4-.2 2 0 1.6.9 2.4 0 .8-.4.2-.4.7 1.4-.2.9-.3.4-.7zm-1.2-.6v.2h.1c0-.1-.1-.2-.1-.2zm-.2 2c0-.3.3-1.3-.2-1.3 0 .3-.3 1.3.2 1.3zm-1.7-.5c-.4-.6-.9 1.5-.2.9s.3-.8.2-.9zm1.3 2.9c.2-.7.3-1.5.2-2.2-.4.3-.7 1.9-.2 2.2zm2.9 1.3s0-.6 0-.7c-.3-.4-.3 1.1 0 .7zm-7.6 2c-.1-.5.3-1.7-.2-2 .1.5-.3 1.7.2 2zm-.8 1.6s.2-.9.2-1.1c-.4 0-.8 1.5-.2 1.1z"/><path d="m198 58.4s.7-.8.9-.9c-.2.4-.4 1.7.4 1.5 0 2.8-.8-.7-1.3-.7z"/><path d="m199.6 57.5c0 .7.8 1.4-.2 1.6 0-1-.5-1.6.2-1.6z"/><path d="m239.7 63.9c0-.2 0-.2.2-.2 0 .2 0 .2-.2.2z"/><path d="m204.7 49.3c0-.1.2-.2.2-.2s-.1.2-.2.2z"/><path d="m179.6 61.5c-.2-.7.4-1.2-.7-1.8.8-.6 1.5 1.7 1.8.7s-2.3-3.2.6-1.9c.1 0 0 .6 0 .6.8.5.8-.8.9-.9 1.9-1 .4 3.9-.9 2.5-.2.6.5 2.2.4 2.3s-.7 0-.9 0c.3-.2-.9-1.3-1.3-1.6zm1.6-1.8c.1-.7-.2-1-.9-.9zm.7.4s0-.7-.1-.7c-.4 0-.4 1.1.1.7zm-.9 2c.4-.1 0-1.6-.4-1.1s0 1.2.4 1.1z"/><path d="m191.4 61.7s1 .2.4 1.1-.4 0-.4 0c0-.2 0-.9 0-1.1z"/><path d="m232.2 54.6c.4 0 .9-.6 1.1-.3l-1.1 1.4c-.4-.7-.9-.3-1.1-.4.1-.4.1-.5.2-.9.1 0-.2.3.9.2z"/><path d="m204.7 49.3v1.3c-.2 0-.7.3-.9.2s-.9-1.4-.9-1.4c0-.9 1 .5 1.8-.1z"/><path d="m239.7 52.2c.3.7-.7.4-.7.4 0 .7 1.1 2.6-.2 3.1l.2-1.6-.4.2v-.7c-.1 0-.7.4-.7.4-.2-1.6 0-2.5 1.8-2zm-1.2.8v.2h.1c0-.1-.1-.2-.1-.2z"/><path d="m245.5 72.8c3.1-1.8.2 1.3 0 1.3-1.3-.1-.7-1.2-.4-2z"/><path d="m203.8 46.2c.4 0 .4 1.8.2 2s-1.5-.6-1.5-.7c-.7-.8 1.1-.2 1.1-.2.3-.3-.7-1.2.2-1.1z"/><path d="m223.1 53.3c.3.2.2 2 1.1.2.3 1.8-.6.7-.9 1-.6.5 0 1.4-1.1.1.9-.2.9-.9.2-1.3h.6z"/><path d="m171.7 65.5s-1.9-.8-1.8-1.1c.4.4 1.1-.5 1.1-.4s.7 1.5.7 1.5z"/><path d="m177.1 58.4s0 .3.2.4.7-.3.8-.2c1.6 1.4-3.7 0-.9-.1z"/><path d="m178.3 62.1c.1.1-1.1 2.4-1.3.6 0 0 1.2-.6 1.3-.6z"/><path d="m211.8 53s.6.8.4.9c-.5.4-1.4-.9-.4-.9z"/><path d="m192.7 48.8c.4.3-.8.7-.9.7-.5-.4.4-1 .9-.7z"/><path d="m179 60.1v.9c-1.5-.7-.3-1.2 0-.9z"/><path d="m177 58.1c-.2.3-.7-.9-.1-.9s.1.9.1.9z"/><path d="m182.1 57.3s-.2 1.1-.4 1.1c-.2-.4.1-1.7.4-1.1z"/><path d="m180.5 57.3c-.3 0-.9-.9-.7-1.1s.8.8.7 1.1z"/><path d="m210.9 110.7c.3.4-.6.8-.4.1s.4-.1.4-.1z"/><path d="m213.3 111.8c-.4 0 0-1.2.2-1.1 0 .4-.2.7-.2 1.1z"/><path d="m211.3 52.6c-.4.4-.7-.7-.2-.3 0 0 .3.2.2.3z"/><path d="m177.6 61.7c.4.3-1.1.3-.7 0s.6 0 .7 0z"/><path d="m190.3 49.3h.2v.4h-.2z"/><path d="m178.1 61.5h.2v.4h-.2z"/><path d="m186.2 55.5.2.2v.2l-.1-.1z"/><path d="m178 59.7.1.1-.1.1z"/><path d="m212.1 110.9.1.1-.1.1z"/><path d="m204.5 84.3c0 .5-1.2.1-1.1-.2.4 0 .7.2 1.1.2z"/><path d="m206.9 88.5h.4v.2h-.4z"/><path d="m208.3 86.5.2.1-.2.1z"/><path d="m234.3 61.5.1.1-.1.1z"/><path d="m214 54.8c.6.4-.6.5-.9.3.2-.3.6-.5.9-.3z"/><path d="m215.5 56.4c.3.4-.6.8-.4.1s.4-.1.4-.1z"/><path d="m213.1 58.1c-.3.4-.3-1.1 0-.7s0 .6 0 .7z"/><path d="m214.9 57.3h.4v.2h-.4z"/><path d="m215.4 57.7.3.2v.2l-.2-.1z"/><path d="m201.4 57c.1.6-.6.4-.9.9-.1-.7.2-1 .9-.9z"/><path d="m187.6 58.4c0 .4 0 1.2-.4 1.3.3-.4-.4-1.5.4-1.3z"/><path d="m188.3 59.7c-.5 0-.1-1-.2-1.3.5 0 .1 1 .2 1.3z"/><path d="m188.1 57.5c.2.4 0 .8-.4.7s.2-1.3.4-.7z"/><path d="m190.9 58.6c.3.4-.6.8-.4.1 0-.2.4-.1.4-.1z"/><path d="m195 55 .2.1-.2.2z"/></g></svg>