<svg viewBox="0 0 400.8 209.2" xmlns="http://www.w3.org/2000/svg"><g fill="#fff"><path d="m64.2 169.1h-9.4v-2.1h1.7c.8 0 1.5-.5 1.7-1.3l8.3-36.2h3.1l7.6 36.2c.2.8.9 1.4 1.7 1.4h1.9v2.1h-10.6v-2.1h2.7c.5 0 .9-.5.8-1l-1.9-9.5h-8.8l-2.1 9.5c-.1.5.3 1 .8 1h2.7v2.1zm3.3-33.6-4.1 18.5h7.7z"/><path d="m119.8 169.1h-10.7v-2.1h2.3c.7 0 1.3-.6 1.3-1.3v-32.6c0-.8-.7-1.5-1.5-1.5h-1.9v-2.1h10.7v2.1h-2.2c-.8 0-1.5.7-1.5 1.5v15.4c2.2-.1 3.4-1.1 4.5-3.3l5.9-12.9c.2-.4 0-.8-.5-.8h-1.7v-2.1h9v2.1h-2.1c-.9 0-1.8.5-2.1 1.4l-7.3 15.3 7.9 17c.5 1.1 1.5 1.7 2.7 1.7h1.6v2.1h-6.3c-2.9-6.2-5.9-12.4-8.8-18.6l-2.8-.3v15.4c0 .7.6 1.3 1.3 1.3h2.1v2.1z"/><path d="m207.8 167.1c2.6-2.5 2.6-6.1 2.6-7.1 0-4.3-1.9-7.8-6.3-12.4-4.1-4.5-6.2-7.5-6.2-11s1.8-5.6 4.8-5.6 3.4 1.3 3.9 3.7l1.2 7h1.8v-12.2c0-.6-.1-.9-.8-.9h-.8l-.8 1.9c-.8-1.1-2.3-1.8-4.6-1.8-5 0-8.1 3.1-8.1 8.3s2.4 8.4 6.5 12.8 6.1 7.3 6.1 10.8-2.1 6.4-5.6 6.4 0 0 0 0c-2.6-.2-5.2-2.3-5.3-7l-.5-5.7h-1.7v14.1c0 .8.2 1.2 1 1.2h.5c.1-.3.2-.5.3-.6.3-.6.3-.8.6-.9.1 0 .3-.1.3-.1.3 0 .6 0 .8.2 0 0 .2.1.3.2.2.2.5.3.9.4 1 .4 2.2.6 3.6.6s.5 0 .7 0c2.7-.3 4.5-2 4.8-2.3z"/><path d="m360 167.1c2.6-2.5 2.6-6.1 2.6-7.1 0-4.3-1.9-7.8-6.3-12.4-4.1-4.5-6.2-7.5-6.2-11s1.8-5.6 4.8-5.6 3.4 1.3 3.9 3.7l1.2 7h1.8v-12.2c0-.6-.1-.9-.8-.9h-.8l-.8 1.9c-.8-1.1-2.3-1.8-4.6-1.8-5 0-8.1 3.1-8.1 8.3s2.4 8.4 6.5 12.8 6.1 7.3 6.1 10.8-2.1 6.4-5.6 6.4 0 0 0 0c-2.6-.2-5.2-2.3-5.3-7l-.5-5.7h-1.7v14.1c0 .8.2 1.2 1 1.2h.5c.1-.3.2-.5.3-.6.3-.6.3-.8.6-.9.1 0 .3-.1.3-.1.3 0 .6 0 .8.2 0 0 .2.1.3.2.2.2.5.3.9.4 1 .4 2.2.6 3.6.6s.5 0 .7 0c2.7-.3 4.5-2 4.8-2.3z"/><path d="m312.7 169.4c-6.9 0-10.1-5.9-10.1-19.5s3.3-21.2 10.2-21.2 3.4.6 4.3 1.8l.9-1.8h.7c.6 0 .8.3.8.9v12h-1.8l-1.1-6.3c-.4-3.1-1.4-4.3-3.8-4.3-4.4 0-6.4 5.8-6.4 18.9s2.1 16.8 6.8 16.8 3.9-1.3 4.7-4.3l2.2.6c-.9 4.4-3.2 6.4-7.4 6.4z"/><path d="m185.6 131.8c.8 0 1.5.6 1.6 1.4s.4 1.5.6 2.3c.4 1.8.3 1.7.7 3.7h1.4v-9.7h-19.4v2.1h2.3c.7 0 1.3.6 1.3 1.3v30.9 1.8c0 .7-.6 1.3-1.3 1.3h-2.3v2.1h19.4v-10h-1.4c0 .3-.1.7-.2 1.2-.2 1-.2 1.4-.4 2.1-.4 2.5-.6 2.6-.6 2.9-.1.8-.8 1.4-1.6 1.4h-8v-16.9h3.3c1.1 0 2 .7 2.2 1.7.2.8.4 1.6.6 2.4l1.5-.2v-10.1l-1.5-.2c-.2.8-.4 1.6-.6 2.4-.3 1-1.2 1.7-2.2 1.7h-3.3v-15.7h8z"/><path d="m266.6 131.8c.8 0 1.5.6 1.6 1.4.1.5.4 1.5.6 2.3.4 1.8.3 1.7.7 3.7h1.4v-9.7h-19.4v2.1h2.3c.7 0 1.3.6 1.3 1.3v30.9 1.8c0 .7-.6 1.3-1.3 1.3h-2.3v2.1h19.4v-10h-1.4c0 .3-.1.7-.2 1.2-.2 1-.2 1.4-.4 2.1-.4 2.5-.6 2.6-.6 2.9-.1.8-.8 1.4-1.6 1.4h-8v-16.9h3.3c1.1 0 2 .7 2.2 1.7.2.8.4 1.6.6 2.4l1.5-.2v-10.1l-1.5-.2c-.2.8-.4 1.6-.6 2.4-.3 1-1.2 1.7-2.2 1.7h-3.3v-15.7h8z"/><path d="m236.9 129.4h-9.1v2.1h2.3c.7 0 1.3.6 1.3 1.3v.4 31.8.4c0 .7-.6 1.3-1.3 1.3h-2.3v2.1h9.1c8.8 0 12.7-6.4 12.7-20.7s-3.9-19-12.7-19zm0 37.3h-1.9v-34.9h1.9c6.2 0 8.9 5.1 8.9 16.6s-2.7 18.3-8.9 18.3z"/><path d="m222.2 167c-.7 0-1.3-.6-1.3-1.3v-1.8-24.2-6.7c0-.8.6-1.4 1.4-1.4h2s.2 0 .2 0v-2h-10.9v2h.3s1.9 0 1.9 0c.8 0 1.4.6 1.4 1.4v30.9 1.8c0 .7-.6 1.3-1.3 1.3h-2.3v.7s0 0 0 0v1.4h10.9v-2.1z"/><path d="m166.2 167.1c-.9-.2-1.6-.9-2-1.8l-3.8-11c-.6-1.6-1-2.5-1.4-3.3 3.6-1.7 6.3-4.9 6.3-10.8s-3-10.8-11.1-10.8h-8.9v2.1h2c.7 0 1.3.6 1.3 1.3v.4 30.5 1.8c0 .7-.6 1.3-1.3 1.3h-2v2.1h10.3v-2.1h-2.1c-.7 0-1.3-.6-1.3-1.3v-1.8-12.1h3.9l5.6 17.4h6.3l.3-1.4-2.2-.6zm-11.4-17.7h-2.6v-17.6h2.1c5.3 0 7.4 2.4 7.4 8.4s-2.2 9.1-6.9 9.1z"/><path d="m104.3 167.1c-.9-.2-1.6-.9-2-1.8l-3.8-11c-.6-1.6-1-2.5-1.4-3.3 3.6-1.7 6.3-4.9 6.3-10.8s-3-10.8-11.1-10.8h-8.9v2.1h2c.7 0 1.3.6 1.3 1.3v.4 30.5 1.8c0 .7-.6 1.3-1.3 1.3h-2v2.1h10.3v-2.1h-2.1c-.7 0-1.3-.6-1.3-1.3v-1.8-12.1h3.9l5.6 17.4h6.3l.3-1.4-2.2-.6zm-11.4-17.7h-2.6v-17.6h2.1c5.3 0 7.4 2.4 7.4 8.4s-2.2 9.1-6.9 9.1z"/><path d="m296.8 134.7v-1.8c0-.7.6-1.3 1.3-1.3h2.3v-2.1h-9.8v2.1h2.3c.7 0 1.3.6 1.3 1.3v1.8 26.3c-.3-1.6-.7-3.2-.9-4.1l-8.1-26.1c-.3-.9-.9-1.3-1.8-1.3h-7.7v2.1h2.3c.7 0 1.3.6 1.3 1.3v1.8 29.1 1.8c0 .7-.6 1.3-1.3 1.3h-2.3v2.1h.2s5.9 0 5.9 0h3.6v-2.1h-2.2c-.7 0-1.3-.6-1.3-1.3v1.1-33.9h.3l11.6 36.2h3v-34.4z"/><path d="m326.2 129.4h-3.6v2.1h2.3c.7 0 1.3.6 1.3 1.3v30.9 1.8c0 .7-.6 1.3-1.3 1.3h-2.3v2.1h19.4v-10h-1.4c0 .3-.1.7-.2 1.2-.2 1-.2 1.4-.4 2.1-.4 2.5-.6 2.6-.6 2.9-.1.8-.8 1.4-1.6 1.4h-8v-16.9h3.3c1.1 0 2 .7 2.2 1.7.2.8.4 1.6.6 2.4l1.5-.2v-10.1l-1.5-.2c-.2.8-.4 1.6-.6 2.4-.3 1-1.2 1.7-2.2 1.7h-3.3v-15.7h8c.8 0 1.5.6 1.6 1.4.1.5.4 1.5.6 2.3.4 1.8.3 1.7.7 3.7h1.4v-9.7h-15.8z"/><path d="m45 165.3v-11.8c.7.2 1.4.2 2.4.2 6.9 0 10.4-4.3 10.4-12.8s-2.7-11-9.2-11.4-.2 0-.3 0-.2 0-.3 0c-.3 0-.6 0-1 0h-8.9v2.1h2c.7 0 1.3.6 1.3 1.3v.4 29 1.5 1.4s0 0 0 0v.5c0 .7-.6 1.3-1.3 1.3h-2v2.1h10.3v-2.1h-2.1c-.7 0-1.3-.6-1.3-1.3v-.3s0 0 0 0zm1.9-33.5c5.1 0 7.2 2.5 7.2 9.2s-2.1 10.3-6.8 10.3-1.7 0-2.3-.2v-14.6-4.8h1.9z"/><path d="m203.3 93s-.2 0-.2 0c.4-1.5.4-.5.2 0z"/><path d="m213.6 43.9c-.3.3.7 2.5.4 2.9l-.4-.8c-.8 0 0 1.5-.9.5s0-1 .2-1.4.3-1 .4-1.1.4 0 .4 0zm0 1.4s-.6 0-.6 0c-.5.5 1.1.5.6 0z"/><path d="m200.2 86.9-.2-.4h.2z"/><path d="m198.7 80s0-.1 0-.2c0 0 .4 0 0 .2z"/><path d="m185.8 45.1c-.2 0-.3 0-.4-.2z"/><path d="m197.5 77.5s-.4-.5 0-.4c.2 0 .1.4 0 .4 0 0-.1 0-.2 0z"/><path d="m202.9 93.6s0-.3.2-.6c0 .3 0 .3-.2.6z"/><path d="m190.8 48.9c-.2 0-.3 0-.4-.2.2 0 .4 0 .4.2z"/><path d="m186.6 45.3c.9-.4.8.3 1.3.8.2-1.2.6-.4.6.4-.4 0-.3-.1-.6-.4v1c-.4-.2-.2-.7-.6-.8-.4.3.6 1 .4 1.1-.9.4-.4-.9-.6-1.2s-.5 0-.6 0c0-.3 0-.6 0-1zm.7.2c-.2-.1-.6.1-.6.4.3.2.9-.2.6-.4z"/><path d="m181.6 48.9s-.1 1.2 1 1.1c0 .6.4 1.1.4 1.1s-1 .1-.4 1.2c-.5.2-.3-.7-.8-.4 0-.1 0-.4 0-.6.8.2.3-1.5 0-1s0 .7 0 1c-.2 0 0-2-.8-2.5h.6z"/><path d="m213.6 43.9s.1-.1.2-.2c0 .2-.2.2-.2.2z"/><path d="m193.5 71.9s.7.4.6.6-.5-.2-.6-.2c0-.1 0-.3 0-.4z"/><path d="m193.5 71.5v.4c-.2-.2-.4-.6-.4-.6.1 0 .3.2.4.2z"/><path d="m193.5 71.1h.6s-.2.4-.2.4-.3 0-.4 0c0-.1 0-.3 0-.4z"/><path d="m193.1 71.3s-.1-.1-.2-.2c0 0 .1.1.2.2z"/><path d="m191.9 71c0 .3.1.6.4.9 0 .1-.3 0-.4 0s-.2-.1-.2-.2-.2-.4-.2-.4c0-.1 0-.4 0-.4s.3.2.4.2z"/><path d="m190.8 48.9s.7-.8 1-.6c-.6.4-.2 1.2-.2 1.9-.5 0 .2-.6-.6-.6 0-.3-.2-.7-.2-.8z"/><path d="m202.7 70.6c-.4 1-.3.1-.4 0z"/><path d="m202.3 70.6s-.4 0-.4 0 .3-.4.4-.5v.6z"/><path d="m191.9 64.4s.1.8.2 1c-.6 0-.5-.3-.6-.8s.1 0 .2-.2z"/><path d="m199.4 49.7c-.1 0-.3.1-.4.2 0-.3 0-.6 0-1 .3 0 .4.6.4.8z"/><path d="m200.2 94.7v-.2c.4 0 0 .2 0 .2z"/><path d="m202.1 46.8c.4-.4.6-.5.4-.8.9-.3.4.7.6.8s1.1 0 1.3.2c1.2 1.1-2.2-.3-2.3-.2z"/><path d="m222 49.3c-.1.1 0 .3-.4.2 0-.2.2-.2.4-.2z"/><path d="m168.4 58.3c-.3 0-1.1 0-1.2 0s.1.8 0 .8-.7-1.9-1.8-1.1c-.2-.7.8-.2 1-.4s-.4-.7-.4-.8c.1-.1 2.5.4 1.7-1.5.7-.2.5.3.6.4-.6-.6-.2 1-.2 1.1-.2 0-.7 0-.8 0 0 0 .7 1.7.8 0 .2 0 .4.5.6.3-.3-.2-.3-1.4-.4-1.4.6.6.7 1.1.8 2.1-.4.3-.8-.7-.6.6z"/><path d="m212.8 45.1s-.7-.2-1 0c-.2-.6.5-.3.6-.4 0-.3-.4-6.4 1-1.9.7-1.3 2.1.3 1.7-1.1s-.7-.3-.7-.6.4 0 .4-.1-.4-.8-.1-1.2 1.8 1.5 1.8 1.6c.1.3-.4.3-.3.4 0 .4-.4 5.7.5 4.5s-.5-3.4 1.3-1.9c0-2.9 2.2-.1.8.6v-1.5c-.7.1-.3 1.8 0 1.9.7.2.6-1.4 1.2-1.3-.6 1.4-.8 2-1 3.3-.5-.7.3-1-.8-1 0-.1.4-.4.4-.7 0-.5-.7 0-.8-.1 0 0 .3-.5.2-.6s-1.1.3-.2.6c0 .3-.3 1-.2 1.1s.4-.4.6-.4v.8c-.9 0-.8.4-.2.8-.2.4-.4.6-.6 1 0-.3 0-.6 0-1-.3 0-.5.8-.7.8s.4-.9-.2-.8c-.4.3-.2.7-.5 1.1 0-.4 0-.9 0-1.3l-.6 1.3-1-.6c1.3.7-.7 1.1-.1 2.1s.5-.7.6-.8c.3 0-.2 1 .5.8-.3-1.7 0-.8.6-1.5 0 .5-.2 1-.2 1.5.2 0 .3-.2.4-.4-.4.8.3 1.1.4 1.1.7.8.6-.3.6-.4 0 0-.5.5-.6.4s0-1.9-.4-1.1c.2-.3.4-1.1.4-1.1.1-.2.7-.2.7-.2.1.7.2 1.2 0 1.9h.4c-.9.8.2.8.4 1 0 .3-.2 1.3.4 1.1.5-1-.3-1-.4-1.1 0-.4 0-.8 0-1.2.5.6.3-1 1.2-.3s.4 1.8.9.5c.6-1.7-1.3-.7-.9-2.3l.8.4c-.4-.5.9-2.7 1.3-2s.1.9.2 1.3.4.1.4.1c.1.5-.9.5-.9.9 0 .7.4.4.4.5v2.1c1.3 0 .1.3.2 1-.3 0-.2-.7-.2-1-.2 0-.9 0-1 0-.1.1.1 2.6.2 2.9-.7-.7-.7.5-.8.6-.2.2-1.7.9-.7 1.5s.3-1.1.7-1.5 1.4 0 .8-.6c.2.8.3 1.6.8 2.1s.5.2.6-.6l-.6.6c-.4-.7.2-1.6.2-1.9v.6c.6.6.5-1.6 0-.6 0-1.1.5-.9-.4-1.7.3-.1.8.6 1 .4s-.2-.8.2-.8c.5 1.5.5 1.6-.2 3.3.5.1.3-.2.6-.4v.6c.6.6.4-1.5 0-.6 0 0-.1-.4 0-.4.7 0 .6.5.7.6s.5-.3.6-.2c.3.3-.3 2.2 1.3 1.7.2.7-.7.3-.8.4s0 1.4 0 1.5c-.6 0-1.4 0-1.5.7.3.3.6-.4.9-.3s.2.2.7.4.5 1 .6 0-.6 0-.6 0c0-.2 0-.5 0-.8h.4v.6c.8-1.1 0-.6 0-.6-.1-2.5.7-1 .9-1 1.2.1-.5-1.1.1-1.5-.5-.3-.3.5-.6.4s.1-.4-.1-.6-.6.3-.7.1.4-.4.3-.6c-.3-1.1-1.2-.7-.9-1.8l-.8.8c-.3-1 .3-1.5 1.1-.9s0 .7 0 .7.5-.3.6-.2-.2.2.4.8c1 .8 2-.7.2-.2-.2-1.8-.4-.4-.6-.8-.3-.5.7-1.3-1.7-.8-.1-.6.5-.3.6-.9s-.3-.4-.4-.5c.1-.3.2-.6.2-1-1.2.9-.2.9-.2 1-.1.4 0 .4-.6.6 0-.6.2-1-.4-.6.1-.9 1-1.1 0-2.1v1.1c-.5.5 0-.7-.7.2.2-.8.7-1.9-.2-2.1.1-.1 0-.7.6-.5s1.6 1.7 1.8 1.6.9-.8.7-1-1.5.4-1-.2c1.8-1.9.8 2.8 2.2.2.8 3.9 2.6-1.4.7 1.1v-1.5c.8-.1 0 .5.2.6.9.6-.1-1.5.1-2.1.6-1.3.8.5.9.5.4 0 0-1.1.7-1 .8 1.5-.9 2.2-1 3.7s.6.1.6.6-.9.9-.6 1.6c.5.2.4-.4.6-.5.7-.2.3 2.2-1.3 1.6l1.3.6c-2-.2-.5.4-1.1 1.5s-.7.1-.9.4 3.9 1.7 3.4-.6l-.6.6c.4-1.9 0-.5-.6-1.3 1.4-.9 1.3 1.2 1.4 1.1.3 0 .2-.8.5-1.1s1.1.4.6-.9c1.3 1 1.5 0 2.7-.2-.1.4-1 .4-1.1.9s.8.2.8.9l-1.3-.2c-.2.7.8.4 1 .6s-.4 1.9-1.3 1.1 0-.7 0-.7c-.1 0-1.6.4-1.5.9.1.7 1.3-.3 1 1l-.8-.6c0 .7.6 1.3-.4 1.1-.1.7.6.2.8.4.3.3-.6.8-.6.9 0 .2.8.9.6 1.1-.6.5-1.6-1.2-1.7 1.6s.6.3.6.3c0 1.5-2 .7-3.1 1.5 1.1-1.8-.4-1.6-.3-.4 0 1 1.8 1.3-1 1-.1-.9-.5 0-.4.2s.3-.2.4-.2c0 .7-.2 1.1-.4 1.7 1.1-2 1.1-.3 1.3-.6s0-.5 0-.5c1.4-.7 0 .4.2 1.1.4-.7 1.2-1.3 1.6-.3.9-.5-.3-1.2 0-1.4.6-.5.7.7.8.8.5.3.2-.9 1.2-.5 2.3.9 0 1.4-.6 1.9s1.4.4-.5 1c-.2 0 0-.4-.3-.4s.1.5 0 .6c-.8.1-1.4-.8-1.4-.8-.4.5.5 1.9-1.7 1 .3.4 1.2.6 1.1 1.3-.1 1.1-1-.3-1.3-.4-1.2-.6-2-1.2-3.1-1.3l1 .6c-1.4.6-1.6-.3-1-1.3-.5.5-.6.2-1.1 0 .3.4.9 1.5.3 1.8-.8.4-.5-1.2-.9-1.5s-.7.2-.8.1-.1-.4-.2-.4c-1.8 0-.6 1.1-.9 1.7-1.6-.9-1.7 1.4-2.1-1.3-.4 1-1.5 2.1-1.7 3.2s.6 1.4-.3 2.8c-.6.9-1.3.8-1.5.9-1 1-2.7 2.4-3.3 3.5-1 1.6-4.5 11.1-4.4 12.7s2.8 4.5 4.2 4.9 2.3-.8 1.6.8c-.1-.9-1.6-.7-1.6.2.2-1.9-2.3 1.3-1.2-1.2-.7.5-1.4 2.3-1.5.4 0 0 .8.1 0-.4v.4c-.6-1.1-1.9-.4-1.3-2.1-1.4 2.6-2.4 1.8-1.3-.8-.3 0-.2.2-.4.4 0-.2.1-1-.2-1l-.2 1.3c.3 0 .2-.2.4-.4-.1 1.8-.4.4-.7.6-.5.3-.2 1.2-.9 1.1-.5-1.6.7-1.1.8-1.1 0-.1.3-1.6.4-1.9.4-1 .2-.5.6 0l.2-1c-.6.4-.2 0-.5-.4l-.3.4-.5-1c.4 1.9-.5.2-.5-1.1 0 .7-1 4.3.6 3.6-.7 1.3-.9.8-1.3-.2-1.7 3.9-.1.2-.2 0-.1-.7-1.1 1.1-1.2 1.2s-.3.1-.4.3h.4c-.6 1.8-.4.2-.9.3s-2.3 2.1-2.5 2.5l-.8-1.1c.6 1.8-.1.5-.3.6s-1.1 2-.4 0c-1 .7-1.3 0-.4-.6-.4.3-1.5.1-1.8.2-.4.1-.2.6-.4.8s-.3-.7-1-.6-.3.8-.9.6-.2-1.5-.1-1.5c.4-.1.5.4.8.3.6 0 5-.7 5.1-.9s-.3-.9-.2-1c.2-.6 1.1-.8 1.2-.9 0-.1.4-2.8.4-3 0-1-1-2.1-1-2.9s.7-.7.8-1-.4-2.2-.4-2.8.5-1.2.4-2.1-.6-1-.6-1.5.7 0 .8-.1c.8-.8-.8-.8-.9-.9-3.6-2.6-3-.7-6.6-.5-1.2 0-3.4-.2-4.5-.6s-3.6-2.8-4.4-3.1-1.4.6-1.3-.2 1.3-.8-.1-1-1.2 1.7-1.7 1.5.3-.7 0-.8c-.8-.3-2.1 2-2.7.7-.4-.8.7-2 .5-2.1s-1.5 0-1.5-.5 2.9-.8 1.5-1.6-.7.5-.9.6c-.4 0-.6-.5-.7-.5-.3 0-1.1.8-1.4.5s0-.7 0-.8-.4.2-.6.1c-.3-.3-.5-1.2-.6-1.3-.2-.2-.3.6-.7.7s-2.1-.3-1.8-.7.5.2.6 0c1.1-.9-1-.3-1.5-1.8 0-.2 1-1 1.1-1s.2.6.5.8.8-.6 1 1.1c.6-.1-.3-1.1-.1-1.1s.8.8 1.2.6l-.6.6c.5 0 3-.6 3.1-.8.3-.5-.6-.3-.6-.4-.1-.3.6-1.1.3-1.5s-1.2-.4-1.3-.4c0 0 .1 2.1 0 2.5-.7-.3-.6-1.3-1.2-.4 0-.4.2-.8.4-1.1s1.2-.8.4-1.5.4 2.5-1.3.2c-.1.4 1.1 1.2 1 1.3s-1.3.4-1.3.4c-.2-.2.6-1 .4-1.1s-.6.2-.7.2.1-.4.1-.4c-.2 0-.7.1-1.1-.1-.9-.5.2-.6.2-.7-.4.4.4.9.8.6s-.4-.9-.8-.6c.4-.9-.7-1.8-1-1-2.1-.7-.8 1.2.2.6s-.2-.4-.2-.6c1.5.5-.1.8-.4 1.5.2-.9-1.2-.7-1.2-1.4 0-1.6 2.4-.2 2.5-.3.9-1.1-1.8-.6-1.9-1.2s.7-.5.8-.8-.3-.6-.3-.9.4-.6.3-.7-.7 0-.8-.3c-.2-.7.8-1 .8-1 0-.2-.3-.4-.4-.6h.8s-.2-.4-.2-.6c.2-.1.4-4.1.4-1l.2-1c.5 0 1.1 1.1 1 1.5l-.6-.6.2 1.5-.8-.9c.1 1.5 1.1 1 1.1 1.1s-.6 2.1.2 2.5c-.4-4.1.6-1.5 1.1-1.5s.7-.6.6-.8-1-.3-1-.7.8-1.2.4-1.8-1.8 0-1.5-.9 1.9 0 2.1-.2.8-1.9.8-2.2c.4.6.5.1.6.2 0 .2.2 2 1.1 1.3-.6.2-1.1.5-.8 1.3-.2-.1-.4-.6-.5-.6-.6.1 0 .8 0 1-2.2-.5-.5 1 .2.6s-.2-.4-.2-.6c.4 0 2.9 1.6.6-.4.5 1.1.4-.8 1-.6 0 .3-.1 1.8.6 1.5s-.6-1.6-.6-1.7 1.4-.1 1.6-.4-.3-1.2.2-1.2.2 2.7 1.1.2c-1 .6 0-2.3-.4-3.5s-.7-.1-.8-.4.8-.5.8-.6c.1-.4-.3-1.4-.2-1.4.5-.5 1.9 1.1 1.5 1.9.6 0 .5-.8.8-1.1s.5.2.6.2c.2-.3-.4-.8-.3-1.2.2-1 1.3-1.5.9-2.9l-.4 1.5c-.9-.3-.1-2.1.3-2.1s1 2.1 1.2 2.5l.6-1c-.2.5.8 2.9 1.1 2.7s-.2-2.6-.2-3.1v.4c.6.1.3-.7 0-.4 0-.2 0-.4 0-.6.9.3.3-.4-.2-.8 0 .2.2.6.2.8-2.2-.7.3-.9.4-1 .1-.2-.9-1.8 0-2.1.2.8.1 2.4.3 3.1s1.7 1.6.5 1.5c0-.2 0-.7 0-.8-.3-.4-.8.7 0 .8.9 2 .6-.7 1.3-.2 0-.3-.2-.6-.2-1s.4 0 .4 0c-.1-.6-1.1-1.1-.8 0-.9-.4-.5-.3-1-1.5.7-.4.7 1 1 .8s-.6-.9.2-.8l.4.8.2-1c-.1.8.3 1.5.4 2.1-1.1.5-.1.8 0 1v2.1c-.1 0-.3-.3-.4-.2-.3.4.3 1.9.4.2.6 0 .8 0 1.1-1s.1-.2.2-.4c1.8 1.1 0-4.5 1.7-.6 0-.7.4-1.2.4-1.9-.1 0-.5.4-.6.4-.1-.2.4-.8 0-.8l-.6.8c.2-1.9-.5-1.2-.4.2l-.9-.8c-.3-.2-.3 1.4-.7.4s1.1-.5 1.1-.6c.1-.1-.2-.7-.2-.8.1-.1 1.2.7 1.3-.7s-.6.8-1 .5c-.5-.5 0-3.2.8-2.4s0 2.9.2 3c.2.2.8-1 .8.8.3-.1.9-.6 1.1-.6.2.1.4 1.3 1.1.9 1.2-.7-.1-.8-.2-.9-.4-.7.5-.5.6-.6 0 0-.6-1.5 1 .2-.2-.2-1.2 0-.8.6s1.1-.2.8-.6c1.1 1.2 0 .9-.3 1.5-.5.9.2.4.3.4-.4 1.3.3 1.5 1.3 1.1 0-.5-.6-.2-.7-.2-.6-.6.4-.5-.7-.9.6-1.9 1.8 1.5 1.3-1.3l.8 1c.1-.4-.2-1-.2-1.3.5.1 1.7.8 1.3-.5s-.7.2-.8 0 .8-2.6-.4-1c.2-.4 0-1.6.6-1.9.5 1.9.5 4 2.7 2.1-.2 1.2.9.2 1.3 1.7.6-.9-.4-1.7-.4-1.8 0-.6.5-.2.6-.3s-.6-1.9-.4-2.3c1.1.2.6 1.9 1.7.6.4.9-.2 1-.4 1.8 2-1.2 0 2.4.4 3.3-.9-.3.2-1.6 0-1.7s-1.2.4-1.3.4c-.7.8.9 1.7.3 2.6l-.6-.8c.1.4 0 .6-.2 1 .4-.4-.6-1-.8-.8s.4 1.1.8.8c-.2.4-.5.6-.4 1.1-1.3-2.2-.7-.3-.8-.2s-.5-.4-.7.1-.1 2.3 0 2.4c.2.2.6-.5 1-.8 0 .2-.1.6 0 .8.3-.2.3-.6.3-1 0 0 .7-.1.6 0-.1.4-.6 1.8-1 1.8 0-.1 0-.4 0-.6s-.4.4-.6-.2c0 .6-.2.9.6.8.1.3-.2 1 .3 1.3.6 0 0-.8 0-1.1s.4 0 .4 0c0 .4 0 .8.6.8v-1.3c-.2.1-.4.4-.6.6-.3-1.4.4-.6.6-1s-.5-.7-.4-.8 1.5.6 0-1.3l1.3 1.1c-.3-.6-.6-1.6-.4-2.2s.8 0 .9-.1 0-.5.2-.8c-.1.2.3 1 .2 1.1s-.5-.3-.6-.2c-.2.2.3 1.6-.6 0-.2 1.2 1 1.9 1.3.6.3.9-.3 2.1-1 1 .1.8.7.6 0 1 2.5.8 1.4-.4 1.5-.7.3-.5.8.4.6 1l.6-.4c-1 1.5.9 1.3 1 1 .2-.6-.4-.4-.4-.6 0-.6.4 0 .4 0 0-.6 0-1.3 0-1.9.5.3.3 3.7 1.1 1.9s-.6 0-.4-1 .7-1.7.7-1.8c0-.7-1.2.2-1.3.3.2-1.9-.4 0-1-1.1s0-.9-.2-1.1c.3.2 1.1 1.5 1.5.7s-.5-.2-.6-.3c-.5-.7.2-1.7-1-.6l-.4-.8c.2 1.9 0 0-.5.2s-.5 1.2-1.1.8.9-2.3-.2-.8c0-2.3 1.3 1.2 1.5-1.1l.6.4c.2-1.4-.3-.4-1-.8l1.3-.4c-1.6-1-.2-.7-.2-.8s-.2-.3-.2-.4h.6s0-.8 1-1.1c.2.4-.8 1.3-.8 1.3.1.1.6-.2.7-.1 1.3.8-.3.7-.3.7s0 1.7-.2 2.1c.6 0 .7-1.3.8 0 .6-1.4.5.8 1.3-1 .4 4.7.4-.9 1.1-.8s1 1.6.7 2.1c2.1-1.3.9 0 1 0 .2.7 1.4 1.6-.6 1.9s0-.7-1.3-1.6c.6.8-.3 4.4-.2 4.6s1.5-1.2 1.1.6c-1.6-2.1-1.3 1.8-.2 1.1s0-.3.6-.9.5.1.6 0c.1-.2-.3-.8-.2-1s.5.3.6.2-.6-2.6 1.9-1.5c0 .4 0 .8.6.8.1-1.2-.2-.6-.6-.8 0-.3.2-.8.2-1.1l-.6.4c0-1.2 1.1-.7.8.4.5-.5 1.2.2 1.8-.2s1.1-4.1 0-1.5c.9-1.1-.6-2.4-.6-2.5.1-.6 1.9-.3 1.1-1.7-.8-.2-.2.9-.4 1.1s-.7 0-.8 0c.6-1.2-.2-.3-.6.2s-.4 0-.6.3.3.7.2.8zm-11.7-3.1c-.8-.1-.2 1-.2 1.3zm-2.4 1.6s-.6-.2-.6-.2c-.6.5.7.8.6.2zm-.8 0c-.5-.6-1.5 1.1-1.3 1.3.5.5 1.4-1.3 1.3-1.3zm3.1 0s-.3 0-.4 0c-.1.6.7.3.4 0zm-1.4.3c-.4-.7-.4.8-.2 1.1.3 0 .2-1.1.2-1.1zm-.6 1.4c0-.4.1-1-.4-1.1 0 .3 0 1.1.4 1.1zm18.2.2c.1-.1.2-.9.2-1.1-.5 0-.7 1.7-.2 1.1zm-20.8-1c-.7-.1-.5.9-.6 1.3.7.1.5-.9.6-1.3zm8.6 0c-.1-.2-.7.3-.6.4.2.2.7-.3.6-.4zm10.7.4c-.4-.2-.8.9-.8 1 .2.2 1-.6.8-1zm-9.8.4c-.2 0-.5 0-.6 0-.3.3.4.7.6 0zm-8.3.2v.2zm2.2.2s-1.4 0-1.1.4c.3.3 1.7 0 1.1-.4zm6.7.2c-.9-.5-.2 1-.8 1.5 1.1-.7.9-.4 1.3.6.4-3.2-.3-1.5-.5-1.5s0-.5 0-.6zm11.1 0c-1.1-1-.8 2.9-.1 1.5s.2-1.4.1-1.5zm-36.4.1c0 .3 0 .4.3.6 0-.2 0-.7-.3-.6zm3.1 1c.1-.1-.3-.9-.6-1-.2.3.3 1.3.6 1zm31.6-1c-.4-.7-.6 1.1 0 1.1s.1-1.1 0-1.1zm-17.4.2c-1.3.2.6 1.9.6.2-.7.5-.5-.2-.6-.2zm9.4 0c-.7-.2-.3 1.4 0 1.3s0-1.1 0-1.3zm-10.8.5s-.5-.4-.7-.3.9 2.1 1.3.8-.4-.2-.5-.2c-.2 0 0-.3-.2-.3zm-15.7.1s-.7-.3-.7-.2c-.5.5 1.9 1.9.7.2zm9 1.9c-.2 0-.5.2-.6.2 0-.1.5-1.9.4-2.3-.8 0 0 1-1.1 1 1.2-.2-1.2 2.2.6 2.9 0 .5.3 1.9.6 2.2s.6-.2 1.2-.1c-.2-.2-.8.4-.6.6s.8-.4.6-.6h1.1v.6c.3.9 1.1-.5 0-.6 0-.1.2-.4.2-.5s-1.2-1.2-1.1-1.6c.8.6 2.1.6 2.1-.5s-.9-.6-.6-.9 2 .6.8-.8c1.1.2.7-.4.8-1.3-.6 0-.3.4-.8.8.2-.2.3-1.1-.6-.4-.1-.2.3-1-.4-.7l-.4 1.4c.6 0 .3-.4.8-.8 0 0 .2.9.6.4-.7.6-.9-.1-1 1.3-.3-.4-.2-.3-.6-.6v.6c-.4 0-.4-1 0-.6-.2-.2-.4-.7-1.1-.8s0 .3-.2.4c-.2 0-.9-.7-.7.6zm2.1-2.1c-.2-.3-.6.3-.4.6.2 0 .5-.4.4-.6zm24.2 0c-.2-.2-.8.4-.6.8s.9-.4.6-.8zm-34.7.7-.2 1.4c.5.6 1.3-1.6.2-1.4zm9-.3c-.5-.5-.5 1.1 0 .6s0-.6 0-.6zm.9 0c-.6-.6-.3.9 0 .8s0-.7 0-.8zm3.7.3c-.5-.9.2 1.5.5.8 0-.5 0-.9-.5-.8zm-9.8 2.6c0-.7.2-1.3-.4-2.2s-1.1-.6-1.2-.5c-.2.2.2 2 .3 2.1s.5.1.6.2 0 .5 0 .5.4-.2.6-.2c.2 1.3.6.2.4 0s-.3 0-.4 0zm-5-1.6c.1-.2 0-.9-.4-1-.1.3 0 1.5.4 1zm2.3-.3c-.5-.6-.5 1.4 0 .8s0-.7 0-.8zm-2.1.9s-.5 0-.6 0 .1.5-.1.6.1-.8-.5-.6l-.2 2.1c-1.2-1.2-.5.5-.6 1.2s-.6-.1-.4.4c.5.2.3-.3.4-.4.2-.1.6.2.9-1-.1 1.6.6.6.9.8s0 .6.3.8.3-.6.7-.8c.3 1.6.6.5.8.4.5-.3.9.6.8-1.1l.6.6c-.3-1.1.3-.9.4-1v.7s.5 0 .6.1c.1.5 0 2.2.2 2.6s.4.1.4.1c-.2 1.3.8 1.4.5.4s-.5-.3-.5-.4 0-.3 0-.4.4 0 .6 0c.1.3 0 1 .4 1.1-.2-1.1.6-1.3-.4-1.1 0-.2-.1-.9-.2-1-.3-.2-.3.8-.6.8-.2-.5.3-2.7.2-2.9s-.5.3-.6.2c-.3-.4 0-1.2-.6-.4-.4-.9-1-.7-.8-1.9-1.1.2.4 1.1-1 1.1 0 0 .4-1.6-.2-1.1s.5.9 0 .8c0-.5-.6-.7-.7-.8s0-.9-.5-.8 0 .7 0 .8zm26.7 0s-.4-.8-.6-.8c-.4.2 0 1.3.6.8zm-20.3.2s-.4-.1-.4.3c0 1.4 1.4.7 1 .1s-1.1.5-.6-.4 1.2 0 .6-.8-.5.7-.6.8zm8.1-.7c-.8 0-.7.5-.9 1.1.4-.1 2-1 .9-1.1zm17.9.9s0-.5 0-.6c-.2-.3-.2.9 0 .6zm.8-.6c-.5-.6-.5 1.4 0 .8s0-.7 0-.8zm6.7 1c0-.3.2-.8-.2-.8 0 .3-.2.8.2.8zm-3.5.4v-1c-.5 0-.3 1.6 0 1zm-30.8-.4v-.4h-.2v.4zm9-.4c-.5-.6-.5 1.4 0 .8s0-.7 0-.8zm11.9 1.2s.2-1 .2-1.1c-.7 0-.6 1.4-.2 1.1zm15.2-1.2v.2zm-9.1.4c-.4-.4-.9.4-.3.6s.3-.6.3-.6zm.8 2.5c.2-1.1-.2-3.6-.7-1.4zm7.1-2.3c-.2-.2-.7.3-.6.6.3.3.9-.3.6-.6zm-2.2.9s0-.6 0-.6c-.4 0-.4 1 0 .6zm-32.8.4c0-.1.2-.8-.1-.7-.6.7-.6 1.9.1.7zm26.7-.7c-.3-.4-.7.8-.6 1 .2.3.8-.6.6-1zm10.7 0s-.3 0-.4 0c-.1.6.7.3.4 0zm1.4 0c-.2-.2-.8.4-.8.6.2.4 1.3 0 .8-.6zm.8.1c-.5-.9-.5 2 0 1.1s0-1.1 0-1.1zm-23.9 1.2c0-.2.2-.6.1-.9-1 .5-.8 1.9.4 1.9.2-.5-.5-.9-.5-1zm.9 0c0-.1 0-1.6-.4-1s.3.9.4 1c0 .3-.4.7 0 1 .8-1.6 0-.9 0-1zm.7-1c-.5-.5-.5 1.1 0 .6s0-.6 0-.6zm11.9 0c-.5-.3-.5.7-.4.8.3.3.7-.6.4-.8zm5.8 0s-.3 0-.4 0c-.1.6.7.3.4 0zm-6.9 2.1c1 0 .7-1.9.3-1.9s-.3 1.7-.3 1.9zm4.6-.9c.4-.1.4-.6.4-1-.4.1-.4.6-.4 1zm1.5-1s-.4 0-.4 0c0 .4 0 .4.3 0 0 0 .1-.1 0-.2zm-6.9.2s-.3 0-.4 0c-.1.6.7.3.4 0zm13 0c-.9 0-.4 1.4-.4 1.9zm-40 .8c.3.2.5-.6 0-.6s-.1.6 0 .6zm38.1-.6c-.3-.3-.8.7-.6 1s.8-.7.6-1zm3.3 0c-.8 0-1.3 0-1.1 1zm-20.3 1.2c0-.3.3-.9.2-1-.3-.4-1.2.5-.2 1 .2 2.2.7 0 .6-.2s-.5.2-.6.2zm5.5.2c-.8.2.2-1.1-.8-1l.2 2.3c.4-.2.5-1 .6-1.3.9-.3.2-1 0-.8s0 .6 0 .8zm12.1.3c.2-.2.2-1.1 0-1.3 0 1.1-1 1-1.1 1.1 0 .2 1.1.3 1.1.3zm-41.6.2c-.3-.5-.4.4-.4.7s.4.3.4.3c0 .2-.1.7 0 .8.5 0 .2-.5.3-.8s.4.1.4-.3-.3-1.1-.2-1.6l-.6.6v-1c-.7.3-.2.8 0 1.3zm25.3-.2c0-.2-.1-1-.3-1-.4 0-.3 1.1.3 1zm6.5-.2c0-.3.2-.8-.2-.8 0 .3-.2.8.2.8zm11.8-.5v.3h.2v-.2l-.2-.2zm-44.4.2c-.3-.2-.6 1.1 0 1.1s.2-1.1 0-1.1zm2.7 0s-.4 0-.4 0c0 .4 0 .4.3 0 0 0 .1-.1 0-.2zm10.7.5c0-.2-.7-.6-.8-.6-.4.3.2.8.8.6zm17.9-.5c-.8-.3.1 1.4.2 1.3.3-.2-.2-1.1-.2-1.3zm-20.7.7s0-.6 0-.6c-.4 0-.4 1 0 .6zm.7 0c0-.2.2-.5 0-.5l-1.2 1.3c.9.4 1 .1 1.3-.8zm-2.5-.4c-.6-.2-.4 1.1-.4 1.1.4.5.7-.8.4-1.1zm33.8.8c.1.1.5-.5.4-.8-.3 0-.4.7-.4.8zm-22.3.2c.2-.2-.4-.7-.6-.8-.2.4.3 1 .6.8zm11.9-.2s0-.5 0-.6c-.2-.3-.2.9 0 .6zm-9.9.6s.2-.8.2-1c-.7 0-.7 1.4-.2 1zm3.2-.6s0-.4 0-.4c-.3 0-.3.7 0 .4zm.8.6v-1c-.5 0-.3 1.6 0 1zm-13.2-.2c.3.2.5-.6 0-.6s-.1.6 0 .6zm5.5-.2s-.1-.2-.2-.3c-.5-.3-.1.7.2.3zm.6-.4c-.4-.6-.6.9 0 1s.1-.9 0-1zm4 1c0-.4.3-.6.3-1-.2.1-.8.8-.3 1zm-15.9-.2c0-.3 0-.4-.3-.6 0 .2 0 .7.3.6zm13.8.6c0-.3-.2-1-.6-1.1 0 .4 0 1.3.6 1.1zm-11.5-1c-.3-.4-.5.5-.4.8.3 0 .4-.7.4-.8zm4.4 0c-.5-.5-.5 1.1 0 .6s0-.6 0-.6zm11.7.8s0-1.3-.4-.8c-.5.7.3.7.4.8 0 .2-.1.8 0 .8 1-.1 0-.7 0-.8zm-19.2.4c.1-.2 0-.7-.4-.8-.1.3 0 1.2.4.8zm30.1-.2c.3-.3-.6-.8-.6-.3s.5.4.6.3zm-35.6 1.3c.5.5 1-1.4.8-1.7-.2.1-1 1.5-.8 1.7zm3.1-1c0-.2 0-.8-.4-.8 0 .2 0 .8.4.8zm18.7.2v-1c-.5 0-.3 1.6 0 1zm3.9-.9c-.7-.2-.4 1.3 0 1.5zm-19.6.2s-.3 0-.4 0c-.1.6.7.3.4 0zm12.9.7c.1.1.6-.6.4-.8s-.6.6-.4.8zm2.1-.7c-.4-.4-.4.3-.2.6.3 0 .2-.6.2-.6zm-1.4 1.3s.1-1-.2-1c-.2.3-.2 1.6.2 1zm-31.8-.4-1.3-.2c0 .4 1.2.6 1.3.2zm48.9-.2s-.3 0-.4 0c-.1.6.7.3.4 0zm-41.8.8c.2-.2-.3-.7-.6-.6-.3.3.3.9.6.6zm1-.6c-.2-.3-.6.3-.4.6.2 0 .5-.4.4-.6zm6.9 0c-.4-.7-.6 1.1 0 1.1s.1-1.1 0-1.1zm-.8 1s0-.8 0-.8c-.4 0-.3 1.2 0 .8zm37.9-.8c-.2-.4-.7.6-.6.8.2.2.8-.4.6-.8zm2 0s-.6 0-.6 0c-.5.5 1.1.5.6 0zm1.1 0c-.4-.3-1.5.2-1 .6s1.5-.2 1-.6zm-6.7.6v-.4h-.2v.4zm.6 0c-.5-.6-.5 1.4 0 .8s0-.7 0-.8zm-44.9.2c-.5-.6-.5 1.4 0 .8s0-.7 0-.8zm16.1 1.1.2-1.1c-.4 0-.6 1.1-.2 1.1zm-6.1-.3c.3.2.5-.6 0-.6s-.1.6 0 .6zm7.5 0c0-.2 0-.9-.4-.6s.4.5.4.6c0 0 0 1.8.4.3s-.4-.3-.4-.3zm30.6 0s0-.5 0-.6c-.2-.3-.2.9 0 .6zm-51.3-.4c-.1-.3-.6.7-1 .3.3.5 1.3.4 1-.3zm2.7.7c.1-.2 0-.7-.4-.8-.1.3 0 1.2.4.8zm14.1.2c0-.3-.5-1.2-.8-1s.6.9.8 1zm20.3 1.2.2-2.1c-.5.4-.9 1.8-.2 2.1zm9.8-1.4s0-.6 0-.6c-.4 0-.4 1 0 .6zm-26.8-.3c-.2-.2-.7.3-.6.6.3.3.9-.3.6-.6zm27.6 0c-.6.6-1.1 1-1 1.7.7-.5 1.2-.8 1-1.7zm.4.9c.2.3 1.2-.8.5-1s-.6.8-.5 1zm1.5-.8c-.3-.3-.8.7-.6 1s.8-.7.6-1zm-7.1.8s0-.5 0-.6c-.2-.3-.2.9 0 .6zm-42.7-.4s-.7 0-.8 0c-.6.5 1.4.5.8 0zm10.5.8c.1-.2-.1-.6-.4-.6-.2.3.2.9.4.6zm9.2-.6s-.3 0-.4 0c-.1.6.7.3.4 0zm31.3.6s0-.6 0-.6c-.4 0-.4 1 0 .6zm.7-.6c-.6-.2-.6.8-.3.8s.3-.5.3-.8zm-18.9.4c-.2 0-.6-.2-.8-.1-.9.6.7 1.1.8.1zm-32 .8-.8-.8v.8s.6 0 .8 0zm47.5-.6c-.2-.2-1.2.5-.8.8s1-.5.8-.8zm-51.4.4c-1.4-.3-1.6 1.1-.2.4s.3 0 .2-.4zm1.4.6s0-.5 0-.6c-.2-.3-.2.9 0 .6zm5.3-.6c-1.9.2-.4.8 0 1.9.1-.9-.4-1.1 0-1.9zm-2.5 1.1s1.3-.2.6-1-.6.7-.6 1c0 0-.7-.5-.4.3.6 1.3.4-.2.4-.3zm32 0c.2.2 1.8 1.7 1.9 1.5.8-1-1.5-1.3-1.9-1.5 0 0 .3-.3.1-.6-.3-.5-2.1-.5-.1.6zm24 0c.2-.3-.5-1.2-.8-1s.4 1.5.8 1zm-59.8-.5c-.4 0-1.3 1-1.3 1.2 0 .6.5 0 .6 0 .1.2-.5.9.1 1.1.9.5 0-.5 0-.6s.4 0 .5-.5-.5-.4 0-1.4zm38.5 0s-.4 0-.4 0c0 .4 0 .4.3 0 0 0 .1-.1 0-.2zm11.9 0c-.4-.4-.8.8-.3.8s.4-.6.3-.8zm-48.1 1.9c0-.2-.1-.6-.4-1s-.6-.1-.6-.1.4-1.5-.4 0 .3.8.4.9c-.7-.4-.3 1.1.2.6s-.2-.6-.2-.6c.2.2.9.4 1 .4.2.3.1.8.8.8 0-.6-.5-.6-.8-.8zm6.7-1c.2-.4-.6-.7-.8-.6-.4.4.6 1 .8.6zm31.8 0c-.1 0-.5 0-.6 0-.2.3.5 2.3 1 1s-.6-.2-.6-.3c0-.3.4 0 .4-.3s-.2-.4-.2-.5c0 0 1.1 0 .6-.6s-.5.5-.6.6zm12.3.2c0-.1 1.1.4.8-.8-.5 0-.6.6-.8.8s-1 1-.8 1.3c.5 1 .7-1.3.8-1.3zm4.6-.2c.1 0 .5-.4.4-.6s-.5.4-.4.6zm-18.8-.4c-.4-.5-.5.8 0 .8s.1-.7 0-.8zm15.5.6s0-.5 0-.6c-.2-.3-.2.9 0 .6zm-43.1.6c0-.3.2-1-.2-1 0 .3-.2 1 .2 1zm26.8-.2c0-.3.2-.8-.2-.8 0 .3-.2.8.2.8zm20.9-.8s-.6 0-.6 0c-.5.5 1.1.5.6 0zm-19.5 1.4s.1-1.2-.2-1.1c-.2.3-.2 1.9.2 1.1zm-15-.4c-.7-1.2-.5 1.4 0 .7s0-.6 0-.7zm19 .6s0-.6 0-.6c-.4 0-.4 1 0 .6zm-42.7-.1c.2-.6-1.4-.3-.8.2s.8-.2.8-.2zm41.9-.3-.6.6c.6 0 .6 0 .6-.6zm-4 .7s-.4-1-.8-.5.9 2 1.5 1.3c1.1-1.1-.5-.7-.7-.8zm-35.4.6c-.1 0-.6-.6-.8-.4s.4 2 .8.4c1.6.2.3-1.1 0-.8s0 .6 0 .8zm37.7-.6s-.3 0-.4 0c-.1.6.7.3.4 0zm-.3.6v.2zm-3.1 1.2s.2-.8.2-1c-.5 0-.7 1.5-.2 1zm7.4-.8c-.3-.3-.9.9-.8 1.1.2 0 .9-1 .8-1.1zm-3.8.4c-.3-.4-1.2-.2-.6.8.5.2.6-.7.6-.8zm-40 .6s-2-.9-.8.4c.4.5.7-.4.8-.4 0 0 1.4 0 .8-.6s-.7.6-.8.6zm1.7-.6s-.6 0-.6 0c0 .4.7.2.6 0zm36 5.5c-.1 2.3-.4.6-1.4 2.3-1.6 2.6-2.8 6.3-3 9.3 0 .8.5 1.7 1.1.9s3.8-10.1 3.7-4.7c.7-.6.2.6.5.6s.8-1.5 1-1.8.7 0 .8 0c0 0-.2-.7 0-1.2s1.5-1.3 1.5-1.6-.9-.7-1.1-1.3.4-.2.4-.4c-.8-2.3-1.7 0-2.6-2.4-.6-1.6.7-4.6-1.8-5.1.4 1.2.9.6 1 .7.5.6-.2 1.4-.2 1.8 0 1 .3 2 .2 3 0-.3.1-.7-.4-.6l-.2 1c.2.2.6-.3.6-.4zm7.3-5.1c.4-.4-.3-.4-.6-.2 0 .3.6.2.6.2zm-24.5.3s-.2.2-.2.2c-.3 0-.6-.2-.6.3.1 1.4 2.8 1.6 1-.5s0-.8-.2 0zm23.5-.3c-.2-.2-.8.4-.6.8.2 0 .7-.6.6-.8zm-20.3.2c-.2-.3-.6.3-.4.6.2 0 .5-.4.4-.6zm13 .9v-1c-.5 0-.3 1.6 0 1zm-34.6 0c.3.2 1-.4.8-.6s-1.2.3-.8.6zm52.3.2c.2.2.6-.8 0-.8s-.1.7 0 .8zm-23.4 4.6s0-.3 0-.4c-1.1.7 0-.5-1.5-.2 1.3-.3.4-.5.7-.8s.6.3.7.2 0-1.5 0-1.5-2.6-.2-1.5-1.1c-1.1-.2-.3.9-.8 1.5s-.6-.1-.6-.1c0 .1.1 1.5-.7 1.7s-1.3-1.4-1.2-2 1.2 0 .9-.7-2.2-1.6-2.4-1.5c-1 0-1.2 5.7-1.4 5.9s-.9 0-1.1-.4c-.1.1.1.4 0 .6-.3-.3-1.1-1.4-1.3-.8.6 0 .7.7.8.8-.6-.4-.4-.2-1-.2 0-.2.1-1.2-.4-.8s0 .5 0 .6-.3-.3-.4 0c0 .2.3.4.4.5s.1.2.2.4.1.1.2.2c0 .1.2.7.2.8.1 0 .4-.4.5-.4.2 0 .4.9.7.6s-.7-.4.2-.4c.1.7.5.4.6.7.3.6-.7-.1-.6.3s1.9 1.6 2.3 1.5l-.8.2c.4.9.7 1.1 2.1 1.3 0 .4-.6.1-.6.2 0 .3.6.3.6.6-1.4-.1-.6.5.4.4h.2c1.1 0 0-.3.8-.4.5 1.9-1.3 0 0 1.4l-.8-.2c.7.5.7.7 1 1.4v.2c.2 1.6.4 7.5.4 1.9l.4 1.5c.8-1.7-.2-3.3-.2-4.5s.6-.9.5-1.3-.7-1.3-.7-1.6c0-.6.7.1.6-.2-.2-.7-2-1.7-.8-1.8-.7.5-2-.7-2.6-.6s.1.8-.5.6c-.1-1.2-1.1-1.7-1.9-2.5 0 0 .5-.3.9-.1s1.5 1.7 1.6 1.8c.7.4 2.5-.5 3.7 1.2s1.1 7.7 1.1 10.4.9 1.7-.2 1.7c1.6 1.4.9-1.5 1.2-2.5.7-3.1 2.2-6.3 2.5-9.4 0 0-.4-.5-.4-1.1s.5-.3.5-.4c0-.6-1.5-1.9-1.3-2.8l-.2.8c0-.5-.5-.5-.6-.6.1-.4.3-.7.2-1.1-.5-.1-.4.3-.6.6zm-14.2-4.6c-1-.2.5.9-.2 1.4s-2.7 0-2.5.9.9.6 1.1.7c.7.2.1-.8.6-.4s.6 1.5.7 1.5c.2.1 3.7.2 4 0 2.7-.5 1.7-3.1-.1-3s-.2.5-.7.6c-1.1.2-1-.6-1.2-.6s-2.1 1.2-.9-.9c-.8.3-.7-.4-.8-.4zm1.3 0-.3.3h.2v-.2zm23.6.4c-1.1-.7-1.6 1.5-1.4 2.3s2.5 2.5 2.6 2.4 1.6-2.8 2.3-3c-.5-.3.2-2-1-1.8s-.5 2.3-2 1.8.3-1.3-.6-1.8zm-25.3.2c-.4-.4-.4.3-.2.6.3 0 .2-.6.2-.6zm1.2.7c.1 0 .5-.4.4-.6s-.5.4-.4.6zm16.7.4s-.6-.2-.8-.2c0 .5 1.3.8.8.2zm-7.3 1.7s0-.5 0-.6c-.2-.3-.2.9 0 .6zm-12.7.6c0-1.5-.8.2-.9.2-.4.3-.3-.5-.7-.4-.6.1-.9.6-1.2.6-.5 0-.3-.9-1.2-.4-.2.6.9.5 1 .9s-.6.5-.6 1 .8.1.6.9-.5.1-.6.6c-.2 2.8 4.2 3.9 6.4 3.6s1.5-.7 1.8-.8c1-.2.7 1.4 2-.9.2-.3 1.1-.3 0-1.6s-1.8.7-1.9-1c-.4 1.5-1.5.6-1.2.2s.8.5 1-.5-1.6-1-1.7-1c-.8 0-.5 1.2-.7 1.6s-.6.4-.7.6.9.8-.1.9 0-2.7-.3-2.9c-.7-.7-.9 2-1 2.1-.6.3-.7-.6-.8-.6-.2 0-.6.8-1 .2s.8-.9.9-1.3-.7-.7-.6-.8 1.7-.5 1.7-1.2zm-12.6-.4c-.5-.7-.8.9-.4 1.3.5 0 .5-1.2.4-1.3zm29.5 0c-.3-.1-.9 0-.6.4s.6-.2.6-.4zm-30.9.2c-.2 0-.7 0-.8 0s0 .6 0 .8zm49.9.4s-.1-.2-.2-.3c-.5-.3-.1.7.2.3zm-35.9.4c.3.2.7-.4.6-.6s-1 .4-.6.6zm19.6 2.7c1 .9 1.5-2.7 1-3.3-1.1.4-1.6 2.6-1 3.3zm-15-1.7c0-.3 0-.4-.3-.6 0 .2 0 .7.3.6zm-16.7-.4v.2zm4.3 0c-2.3 2 1.9 3.1.9 1.4s-1.1-.2-.9-1.4zm2.5 0c-.1-.1-.7 0-.8.3 0 .6 1.1 0 .8-.3zm10.3 0c0 .3 0 .4.3.6 0-.2 0-.7-.3-.6zm2.1 5.3c-.7.2-1.8.4-2.3 1 .8 0 1.8-.3 2.3-1zm-2.3.4c-.3 0-.6 0-.8.3.2 0 .8 0 .8-.3zm6 0s-.3 0-.4 0c-.1.6.7.3.4 0zm13 1.6s0-.5 0-.6c-.2-.3-.2.9 0 .6zm-1.5 1.5-.2 1.7c.4-.2 0-1.1.2-1.5s1.3-.1 0-.2zm-4.3 9.2v-2.7s.2 0 .2 0v2.9c1.1-.6.7-2.1 1-3s.5 0 .5 0c.1-.6 0-2.3 0-2.9-.3.7-1.1.6-1 1.5l-.4-.6.2 2.5-.4-1.9-.2 1.3-.4-.8.4 3.6zm-3.6-2.1s-.5.3-.6.4v-1.7s-.2 1.1-.2 1.1l-.8-2.5.4 2.5-.6-.7.8 2.2c-.3 0-.3-.7-.6-.6s.2.6-.2.6l-.4-.7 1 3.5c.4 0 1.6-1.1 1.6-1.3.1-1.2-.3-.7-.7-1.5s.3-.7.4-1.1 0-.1 0-.4c-.2-1.2 0-.1-.2 0zm3.3 2.7c0-.7 0-1.8-.8-2.1-.2 1.7 0 1.3.8 2.1 0 .7-.3.1-.4.6 1.2-.2.8-.2.4-.6zm-1.1-.6v.2zm-.1 1.7c0-.3.2-1.1-.2-1.1 0 .3-.2 1.1.2 1.1zm-1.5-.4c-.4-.5-.8 1.3-.2.8s.2-.7.2-.8zm1.1 2.5c.2-.6.2-1.3.2-1.9-.3.3-.6 1.7-.2 1.9zm2.5 1.2s0-.5 0-.6c-.2-.3-.2.9 0 .6zm-6.5 1.7c-.1-.4.3-1.5-.2-1.7.1.4-.3 1.5.2 1.7zm-.8 1.3s.2-.8.2-1c-.4 0-.7 1.3-.2 1z"/><path d="m189.6 50.5s.6-.7.8-.8c-.1.4-.4 1.4.4 1.3 0 2.4-.7-.6-1.1-.6z"/><path d="m191 49.7c0 .6.7 1.2-.2 1.3 0-.8-.4-1.4.2-1.3z"/><path d="m225.7 55.2c0-.2 0-.2.2-.2 0 .1 0 .2-.2.2z"/><path d="m195.4 42.6s.2-.1.2-.2c0 0-.1.1-.2.2z"/><path d="m173.7 53.1c-.2-.6.3-1-.6-1.5.7-.5 1.3 1.5 1.5.6s-2-2.8.5-1.7v.5c.7.4.7-.7.8-.8 1.7-.9.3 3.4-.8 2.2-.2.5.5 1.9.4 2s-.6 0-.8 0c.3-.2-.8-1.2-1.1-1.3zm1.4-1.5c0-.6-.2-.9-.8-.8zm.6.4s0-.6 0-.6c-.4 0-.4 1 0 .6zm-.8 1.7c.3 0 0-1.4-.4-1s0 1 .4 1z"/><path d="m183.9 53.3s.9.2.4 1-.4 0-.4 0c0-.1 0-.8 0-1z"/><path d="m219.2 47.2c.3 0 .7-.6 1-.3l-1 1.2c-.3-.6-.8-.3-1-.4.1-.3.1-.5.2-.8.1 0-.2.3.8.2z"/><path d="m195.4 42.6v1.1c-.1 0-.6.3-.8.2s-.8-1.2-.8-1.2c0-.7.9.4 1.5 0z"/><path d="m225.7 45.1c.2.6-.6.3-.6.4 0 .6 1 2.2-.2 2.7l.2-1.3-.4.2v-.6s-.6.4-.6.4c-.1-1.4 0-2.2 1.5-1.7zm-1.1.8v.2z"/><path d="m230.7 62.9c2.7-1.5.2 1.2 0 1.1-1.1-.1-.6-1-.4-1.7z"/><path d="m194.6 39.9c.3 0 .3 1.6.2 1.7s-1.3-.5-1.3-.6c-.6-.7.9-.1 1-.2.2-.2-.6-1.1.2-1z"/><path d="m211.3 46.1c.2.2.2 1.7 1 .2.2 1.6-.5.6-.8.8-.5.4 0 1.2-.9.1.8-.1.8-.7.2-1.2h.6z"/><path d="m166.8 56.6s-1.6-.6-1.5-1c.4.3.9-.4 1-.4s.6 1.3.6 1.3z"/><path d="m171.6 50.5s0 .3.2.3.6-.3.7-.2c1.4 1.3-3.2 0-.8-.1z"/><path d="m172.6 53.7c.1 0-.9 2.1-1.1.5s1-.6 1.1-.5z"/><path d="m201.5 45.9s.5.7.4.8c-.5.3-1.2-.8-.4-.8z"/><path d="m185 42.2c.4.3-.7.6-.8.6-.4-.3.4-.9.8-.6z"/><path d="m173.2 52s0 .6 0 .8c-1.3-.6-.3-1 0-.8z"/><path d="m171.4 50.3c-.2.2-.6-.8 0-.8s.1.7 0 .8z"/><path d="m175.9 49.5s-.2 1-.4 1c-.2-.3.1-1.5.4-1z"/><path d="m174.5 49.5c-.2 0-.8-.8-.6-1s.7.7.6 1z"/><path d="m200.8 95.7c.3.4-.5.7-.4 0s.4-.1.4 0z"/><path d="m202.9 96.6c-.3 0 0-1 .2-1 0 .3-.1.6-.2 1z"/><path d="m201.1 45.5c-.3.4-.6-.6-.2-.3 0 0 .3.2.2.3z"/><path d="m172 53.3c.3.2-.9.2-.6 0s.5 0 .6 0z"/><path d="m182.9 42.6h.2v.4h-.2z"/><path d="m172.4 53.1h.2v.4h-.2z"/><path d="m179.4 48 .2.2v.1h-.1z"/><path d="m172.3 51.6.1.1-.1.1z"/><path d="m201.8 95.9.1.1-.1.1z"/><path d="m195.2 72.9c0 .4-1 0-1-.2.3 0 .6.2 1 .2z"/><path d="m197.3 76.5h.4v.2h-.4z"/><path d="m198.6 74.8.1.1-.1.1z"/><path d="m221 53.1.1.1-.1.1z"/><path d="m203.4 47.4c.5.3-.5.4-.8.3.1-.2.6-.4.8-.3z"/><path d="m204.8 48.7c.3.4-.5.7-.4 0s.4-.1.4 0z"/><path d="m202.7 50.3c-.2.3-.2-.9 0-.6s0 .5 0 .6z"/><path d="m204.2 49.5h.4v.2h-.4z"/><path d="m204.7 49.9.2.2v.2l-.1-.1z"/><path d="m192.5 49.3c0 .5-.5.3-.8.8 0-.6.2-.9.8-.8z"/><path d="m180.6 50.5c0 .3 0 1.1-.4 1.1.3-.3-.3-1.3.4-1.1z"/><path d="m181.2 51.6c-.4 0-.1-.9-.2-1.1.4 0 .1.9.2 1.1z"/><path d="m181 49.7c.1.3 0 .7-.4.6s.1-1.1.4-.6z"/><path d="m183.5 50.6c.3.4-.5.7-.4 0s.4-.1.4 0z"/><path d="m187.1 47.6.1.1-.1.1z"/></g></svg>