<svg fill="none" height="39" viewBox="0 0 39 39" width="39" xmlns="http://www.w3.org/2000/svg"><g fill="#090909"><path d="m13.7739 22.6901c.0816.0815.1921.1272.3074.1272.1152 0 .2258-.0457.3073-.1272l4.0371-4.0371c.0409-.0408.0733-.0893.0955-.1426.0221-.0534.0335-.1105.0335-.1683.0001-.0577-.0113-.1149-.0333-.1683-.0221-.0534-.0545-.1019-.0953-.1427-.0408-.0409-.0893-.0733-.1426-.0955-.0533-.0221-.1105-.0335-.1683-.0335-.0577-.0001-.1149.0113-.1683.0333-.0534.0221-.1019.0545-.1427.0953l-3.2853 3.2853v-5.0845c.5538-.5568 2.5289-2.5274 2.5289-2.5274l-.62-.6223s-2.4315 2.4268-2.6615 2.6614c-.08.0814-.125.1907-.1257.3047v6.3269c.001.1141.0464.2233.1265.3046v.0039z"/><path d="m9.3401 13.0818-.62003.6223s1.97513 1.9713 2.52733 2.5274v5.086l-3.28372-3.2845c-.04016-.0433-.08862-.078-.14249-.1021-.05386-.0241-.11203-.0371-.17103-.0382-.059-.0012-.11763.0096-.17238.0316-.05476.022-.10452.0548-.14633.0964-.0418.0417-.07479.0913-.097.146-.0222.0547-.03317.1133-.03225.1723.00093.059.01372.1172.03763.1711.02391.054.05844.1026.10152.1429l4.03715 4.0371c.0406.0411.089.0738.1423.096.0534.0222.1106.0336.1684.0335.1159-.0004.227-.0463.3093-.128.0409-.0407.0733-.0892.0954-.1425s.0334-.1105.0333-.1683v-6.3298c-.0006-.1138-.0451-.2229-.1241-.3047-.2308-.2362-2.663-2.6645-2.663-2.6645z"/><path d="m17.0512 10.1065c-.0826-.0823-.1945-.12847-.3111-.12847-.1167 0-.2285.04617-.3112.12847l-3.5443 3.5451-3.54349-3.5451c-.08236-.0823-.19404-.12865-.31051-.12872s-.22821.04612-.31067.12832c-.08246.0823-.12889.1939-.12911.3104-.00021.1165.04581.2283.12797.3108l3.85431 3.8551c.0408.0409.0893.0734.1427.0955.0534.0222.1106.0336.1684.0336.0579 0 .1151-.0114.1685-.0336.0534-.0221.1019-.0546.1427-.0955l3.8558-3.8558c.0814-.0827.1271-.1941.1271-.3101s-.0457-.2273-.1271-.31z"/><path d="m33.02 27.4584c.946-.0014 1.8528-.3779 2.5216-1.0469.6689-.6689 1.0451-1.5758 1.0463-2.5218v-6.9316c-.0012-.946-.3774-1.8529-1.0463-2.5218-.6688-.669-1.5756-1.0455-2.5216-1.0469h-6.9316c-.512.0019-1.0175.1146-1.4818.3304-.4642.2157-.8763.5295-1.2078.9196v-3.8307c-.0016-1.38089-.5509-2.70479-1.5274-3.68125-.9764-.97646-2.3003-1.52574-3.6813-1.52735h-10.57338c-1.38039.00242-2.70351.55206-3.67931 1.52843s-1.52467 2.29981-1.52628 3.68017v10.5681c.00182 1.3802.55079 2.7034 1.52659 3.6795.9758.976 2.29881 1.5254 3.679 1.5276h2.94328v5.9414h-7.52578c-.05921-.0024-.1183.0071-.17373.0281-.05543.0209-.10605.0529-.14881.0939s-.07679.0902-.10004.1448c-.02324.0545-.03523.1131-.03523.1724 0 .0592.01199.1179.03523.1724.02325.0545.05728.1037.10004.1447.04276.0411.09338.073.14881.094.05543.0209.11452.0305.17373.028h32.93058c.0593.0025.1183-.0071.1738-.028.0554-.021.106-.0529.1488-.094.0427-.041.0768-.0902.1-.1447.0233-.0545.0352-.1132.0352-.1724 0-.0593-.0119-.1179-.0352-.1724-.0232-.0546-.0573-.1038-.1-.1448-.0428-.041-.0934-.073-.1488-.0939-.0555-.021-.1145-.0305-.1738-.0281h-4.7843v-5.0669zm-21.5795-2.6752c.0002-.0579-.0111-.1153-.0334-.1688-.0222-.0535-.0549-.102-.096-.1427l-4.36926-4.3677c-.04087-.0407-.08935-.073-.14268-.095-.05333-.0219-.11047-.0332-.16815-.0331s-.11478.0116-.16803.0338c-.05325.0221-.10161.0546-.14233.0954-.04071.0409-.07297.0894-.09495.1427-.02197.0533-.03323.1105-.03313.1682.00011.0576.01158.1147.03375.168.02217.0532.05461.1016.09548.1423l4.2397 4.2382v.7427h-2.94478c-1.14805-.0012-2.24871-.4579-3.06043-1.2697-.81172-.8119-1.26817-1.9126-1.26918-3.0607v-10.5681c.00101-1.14801.45746-2.24876 1.26918-3.06062s1.91238-1.26851 3.06043-1.26972h10.57038c1.1481.00121 2.2488.45783 3.0607 1.26967.8118.81184 1.2685 1.91259 1.2697 3.06067v10.5681c-.0012 1.1481-.4579 2.2489-1.2697 3.0607-.8119.8119-1.9126 1.2685-3.0607 1.2697h-2.9806v-.7427l4.2397-4.2382c.0432-.0402.078-.0886.1021-.1425.0241-.0538.0371-.112.0382-.171.0012-.059-.0096-.1176-.0316-.1724-.022-.0547-.0548-.1045-.0965-.1463-.0416-.0418-.0913-.0748-.1459-.097-.0547-.0222-.1133-.0332-.1723-.0323-.059.001-.1172.0138-.1712.0377-.0539.0239-.1025.0584-.1428.1015l-4.3685 4.3677c-.0412.0407-.0738.0892-.0961.1427-.0222.0535-.0335.1109-.0334.1688v7.7421h-2.8877zm16.377 7.7421h-12.611v-5.9414h2.9806c.8673-.0015 1.7204-.2198 2.4818-.6352.7614-.4153 1.4068-1.0144 1.8775-1.7429.077.8857.4825 1.7106 1.1368 2.3124.6543.6019 1.5101.9372 2.3991.9402h1.7352zm.8783 0v-8.0247c0-.1166-.046-.2286-.128-.3115l-1.8441-1.8434c-.0834-.0782-.194-.1209-.3083-.1191s-.2234.048-.3043.1289c-.0808.0808-.1271.19-.1289.3043s.0409.2249.1191.3082l1.7162 1.7116v1.9043h-1.7321c-.7133-.0008-1.397-.2845-1.9013-.7889-.5042-.5044-.7878-1.1882-.7884-1.9015v-6.9316c.0006-.7132.2842-1.3971.7884-1.9015.5043-.5044 1.188-.7881 1.9013-.7889h6.9316c.7132.0008 1.397.2845 1.9012.7889.5043.5044.7878 1.1883.7884 1.9015v6.9316c-.0006.7127-.2837 1.3961-.7873 1.9004s-1.1866.7884-1.8993.79h-1.512l1.5143-1.5135c.0783-.0834.121-.1939.1192-.3083-.0019-.1143-.0481-.2234-.1289-.3043-.0809-.0808-.19-.127-.3043-.1289-.1144-.0018-.2249.0409-.3083.1192l-1.9698 1.966c-.0822.0825-.1282.1943-.128.3107v5.8005z"/><path d="m28.4 16.5956c-.1164 0-.2281.0462-.3105.1284-.0824.0823-.1288.1939-.129.3103v4.1072l-1.2363-1.2378c-.0403-.043-.0889-.0775-.1429-.1013-.0539-.0239-.1121-.0367-.1711-.0377-.059-.0009-.1176.01-.1723.0322-.0547.0221-.1043.055-.1461.0967-.0417.0418-.0746.0914-.0967.1461-.0222.0547-.0331.1133-.0322.1723.001.059.0138.1172.0376.1711.0239.054.0584.1026.1014.143l1.9866 1.9865c.083.0819.1949.1279.3115.128.0577-.0004.1148-.0115.1684-.0328.08-.0335.1483-.09.1964-.1622s.0738-.157.074-.2438v-5.1675c0-.1163-.0462-.2279-.1285-.3102s-.1939-.1285-.3103-.1285z"/><path d="m30.5573 24.9082c.0533.0214.1102.0325.1676.0328.1166 0 .2286-.046.3115-.128l1.9866-1.9866c.0782-.0834.1209-.1939.1191-.3082-.0018-.1144-.048-.2235-.1289-.3043-.0808-.0809-.19-.1271-.3043-.1289s-.2249.0409-.3082.1191l-1.2363 1.2378v-6.4061c-.0047-.1133-.0531-.2203-.1349-.2988s-.1908-.1224-.3042-.1224-.2224.0439-.3043.1224c-.0818.0785-.1301.1855-.1349.2988v7.4649c-.0001.0871.0256.1723.0739.2448s.1169.1292.1973.1627z"/></g></svg>