<svg fill="none" height="70" viewBox="0 0 70 70" width="70" xmlns="http://www.w3.org/2000/svg"><g fill="#090909"><path d="m63.29 58.6863c-.0561.0465-5.5645 4.6485-14.1641 4.6485-7.0246 0-11.04-2.9053-12.9691-4.3012l-1.0418-.7397c-1.9948-1.4191-6.6637-4.7441-14.2407-4.7441-9.3857 0-15.24546 4.9219-15.49018 5.1365-.20074.1774-.32375.4265-.34254.6937s.06816.5311.2421.7348c.17394.2038.42095.331.6878.3543.26686.0233.53218-.0592.73881-.2296.05605-.0479 5.56441-4.6485 14.16401-4.6485 6.9235 0 11.0661 2.949 13.0567 4.3654l1.0295.7315c2.1027 1.5217 6.4791 4.6881 14.1654 4.6881 9.3858 0 15.2455-4.9287 15.4902-5.1379.1948-.179.3125-.4265.3284-.6905s-.0713-.5239-.2431-.7249c-.1718-.2011-.4149-.3277-.6782-.3531-.2632-.0254-.5261.0523-.7332.2167z"/><path d="m63.2903 48.9012c-.0561.0465-5.5645 4.6484-14.1641 4.6484-7.0232 0-11.0386-2.9053-12.9677-4.2998l-1.0405-.7383c-1.9947-1.4205-6.6636-4.7469-14.2433-4.7469-9.3858 0-15.24554 4.9288-15.49027 5.1379-.18295.1818-.29034.4261-.30061.6838s.07735.5098.24525.7056c.16791.1957.40366.3207.65993.3498.25626.0292.51405-.0398.7216-.1929.05606-.0465 5.5645-4.6484 14.1641-4.6484 6.9261 0 11.0742 2.9518 13.058 4.3682l1.0295.73c2.1041 1.5217 6.4804 4.6868 14.164 4.6868 9.3858 0 15.2455-4.9219 15.4903-5.1366.2007-.1773.3237-.4265.3425-.6937s-.0682-.5311-.2421-.7348-.421-.3309-.6878-.3542c-.2669-.0233-.5322.0591-.7388.2296z"/><path d="m63.2897 39.117c-.056.0465-5.5644 4.6484-14.164 4.6484-7.0219 0-11.0373-2.9039-12.9678-4.2998l-1.0404-.7383c-1.9948-1.4205-6.6637-4.7468-14.2434-4.7468-9.3857 0-15.2455 4.9218-15.49022 5.1379-.19472.1789-.31242.4265-.32832.6905s.07123.5238.24306.7249c.17182.2011.41495.3276.6782.353.26325.0255.5261-.0522.73323-.2167.05605-.0465 5.56445-4.6484 14.16405-4.6484 6.9262 0 11.0742 2.9504 13.058 4.3681l1.0295.7301c2.1041 1.5217 6.4805 4.6867 14.1641 4.6867 9.3898-.0054 15.2455-4.9273 15.4902-5.1378.1947-.179.3124-.4266.3283-.6906s-.0712-.5238-.243-.7249c-.1719-.201-.415-.3276-.6782-.353-.2633-.0254-.5261.0522-.7333.2167z"/><path d="m63.29 29.3316c-.0561.0465-5.5645 4.6485-14.1641 4.6485-7.0246 0-11.04-2.9053-12.9691-4.3012l-1.0391-.7369c-1.9947-1.4205-6.6637-4.7428-14.2434-4.7428-9.3898 0-15.24546 4.9219-15.49018 5.1324-.20074.1774-.32375.4265-.34254.6937-.01879.2673.06816.5311.2421.7349.17394.2037.42095.3309.6878.3542.26686.0233.53218-.0592.73881-.2296.05605-.0479 5.56441-4.6485 14.16401-4.6485 6.9262 0 11.0743 2.9504 13.0581 4.3682l1.0281.7287c2.1027 1.5217 6.4791 4.6881 14.1654 4.6881 9.3858 0 15.2455-4.9287 15.4902-5.1379.1948-.179.3125-.4265.3284-.6905s-.0713-.5239-.2431-.7249c-.1718-.2011-.4149-.3277-.6782-.3531-.2632-.0254-.5261.0523-.7332.2167z"/><path d="m63.2897 19.5506c-.056.0478-5.5644 4.6484-14.164 4.6484-7.0246 0-11.0401-2.9039-12.9692-4.2998l-1.039-.7383c-1.9948-1.4205-6.6637-4.7468-14.2434-4.7468-9.3898-.0055-15.2455 4.9232-15.49022 5.1365-.19472.179-.31242.4265-.32832.6905s.07123.5239.24306.7249c.17182.2011.41495.3276.6782.3531.26325.0254.5261-.0523.73323-.2168.05605-.0464 5.56445-4.6484 14.16405-4.6484 6.9262 0 11.0742 2.9518 13.058 4.375l1.0281.7287c2.1028 1.5203 6.4791 4.6881 14.1655 4.6881 9.3857 0 15.2455-4.9287 15.4902-5.1379.2007-.1773.3238-.4265.3425-.6937.0188-.2672-.0681-.5311-.2421-.7348-.1739-.2037-.4209-.3309-.6878-.3542-.2668-.0233-.5321.0591-.7388.2296z"/><path d="m6.71005 11.3137c.05605-.0465 5.56445-4.64847 14.16405-4.64847 6.9234 0 11.066 2.9504 13.0567 4.36677l1.0294.726c2.1028 1.5217 6.4791 4.6881 14.1655 4.6881 9.3857 0 15.2455-4.9219 15.4902-5.1365.2007-.1774.3238-.4265.3425-.6937.0188-.2672-.0681-.5311-.2421-.73484-.1739-.20371-.4209-.33093-.6878-.35424-.2668-.02331-.5321.05916-.7388.22963-.056.04785-5.5644 4.64845-14.164 4.64845-7.0246 0-11.0401-2.9039-12.9692-4.2998l-1.0418-.73967c-1.9947-1.41641-6.6636-4.74141-14.2406-4.74141-9.3898 0-15.2455 4.92871-15.49022 5.13789-.19472.17898-.31242.42649-.32832.69049s.07123.5239.24306.7249c.17182.2011.41495.3277.6782.3531s.5261-.0523.73323-.2167z"/></g></svg>