<svg width="512" height="512" viewBox="0 0 512 512" fill="none" xmlns="http://www.w3.org/2000/svg">
<path d="M56.5 159.5L257 49L464 159.5V196.5L382.5 239.612V415.5L329.5 452.5L257 462L172.5 441L126.5 406.5V234.446L50 192.5L56.5 159.5Z" fill="#B3A57D"/>
<path d="M461.12 139.04L285.12 40.9596C276.718 35.1023 266.722 31.9619 256.48 31.9619C246.238 31.9619 236.242 35.1023 227.84 40.9596L51.84 139.04C45.9912 143.266 41.229 148.82 37.9448 155.245C34.6605 161.671 32.948 168.784 32.948 176C32.948 183.216 34.6605 190.329 37.9448 196.754C41.229 203.179 45.9912 208.733 51.84 212.96L53.6 214.08L112 247.04V400C112 425.12 148.16 480 256 480C363.84 480 400 425.12 400 400V247.04L448 220.32V400C448 404.243 449.686 408.313 452.686 411.313C455.687 414.314 459.756 416 464 416C468.243 416 472.313 414.314 475.314 411.313C478.314 408.313 480 404.243 480 400V176C479.976 168.789 478.254 161.686 474.974 155.265C471.694 148.844 466.948 143.285 461.12 139.04ZM368 400C368 406.24 345.44 448 256 448C166.56 448 144 406.24 144 400V264.8L227.2 311.04C235.668 316.881 245.712 320.009 256 320.009C266.287 320.009 276.332 316.881 284.8 311.04L368 264.8V400ZM442.72 186.72L266.72 284.64C263.635 286.83 259.944 288.007 256.16 288.007C252.376 288.007 248.685 286.83 245.6 284.64L69.6 186.72C67.9708 185.448 66.6529 183.821 65.7465 181.964C64.8402 180.106 64.3691 178.066 64.3691 176C64.3691 173.933 64.8402 171.893 65.7465 170.036C66.6529 168.178 67.9708 166.552 69.6 165.28C69.6 165.28 245.6 67.8396 245.6 67.3596C248.743 65.1638 252.485 63.9863 256.32 63.9863C260.154 63.9863 263.896 65.1638 267.04 67.3596L443.04 165.28C444.669 166.552 445.987 168.178 446.893 170.036C447.8 171.893 448.271 173.933 448.271 176C448.271 178.066 447.8 180.106 446.893 181.964C445.987 183.821 444.669 185.448 443.04 186.72H442.72Z" fill="#404231"/>
</svg>
