<svg fill="none" height="33" viewBox="0 0 31 33" width="31" xmlns="http://www.w3.org/2000/svg"><g stroke="#090909" stroke-linecap="round" stroke-linejoin="round"><path d="m24.5417 15.125h-18.08337c-1.42673 0-2.58333 1.2312-2.58333 2.75v9.625c0 1.5188 1.1566 2.75 2.58333 2.75h18.08337c1.4267 0 2.5833-1.2312 2.5833-2.75v-9.625c0-1.5188-1.1566-2.75-2.5833-2.75z"/><path d="m9.04199 15.125v-5.5c0-1.82336.68043-3.57205 1.89161-4.86136 1.2112-1.28931 2.8539-2.01364 4.5667-2.01364 1.7129 0 3.3556.72433 4.5668 2.01364 1.2111 1.28931 1.8916 3.038 1.8916 4.86136v5.5"/></g></svg>