<svg width="31" height="33" viewBox="0 0 31 33" fill="none" xmlns="http://www.w3.org/2000/svg">
<path d="M24.5417 15.125H6.45833C5.0316 15.125 3.875 16.3562 3.875 17.875V27.5C3.875 29.0188 5.0316 30.25 6.45833 30.25H24.5417C25.9684 30.25 27.125 29.0188 27.125 27.5V17.875C27.125 16.3562 25.9684 15.125 24.5417 15.125Z" stroke="#090909" stroke-width = "1"  stroke-linecap="round" stroke-linejoin="round"/>
<path d="M9.04199 15.125V9.625C9.04199 7.80164 9.72242 6.05295 10.9336 4.76364C12.1448 3.47433 13.7875 2.75 15.5003 2.75C17.2132 2.75 18.8559 3.47433 20.0671 4.76364C21.2782 6.05295 21.9587 7.80164 21.9587 9.625V15.125" stroke="#090909" stroke-width = "1" stroke-linecap="round" stroke-linejoin="round"/>
</svg>
