<svg width="512" height="512" viewBox="0 0 512 512" fill="none" xmlns="http://www.w3.org/2000/svg">
<g clip-path="url(#clip0_756_15)">
<path d="M376 151.5H109L116 430H376V151.5Z" fill="#B3A57D"/>
<path d="M372.83 449.999H111.83C107.852 449.999 104.037 448.419 101.223 445.606C98.4104 442.793 96.8301 438.978 96.8301 434.999V150.569C96.8301 146.591 98.4104 142.776 101.223 139.963C104.037 137.15 107.852 135.569 111.83 135.569H372.83C376.808 135.569 380.624 137.15 383.437 139.963C386.25 142.776 387.83 146.591 387.83 150.569V434.999C387.83 438.978 386.25 442.793 383.437 445.606C380.624 448.419 376.808 449.999 372.83 449.999ZM126.83 419.999H357.83V165.569H126.83V419.999Z" fill="#404231"/>
<path d="M300.82 218C296.842 218 293.027 216.419 290.213 213.606C287.4 210.793 285.82 206.978 285.82 203V121.5C285.576 110.124 280.886 99.297 272.755 91.3382C264.623 83.3794 253.698 78.9225 242.32 78.9225C230.942 78.9225 220.017 83.3794 211.885 91.3382C203.754 99.297 199.064 110.124 198.82 121.5V203C198.82 206.978 197.24 210.793 194.427 213.606C191.614 216.419 187.798 218 183.82 218C179.842 218 176.027 216.419 173.213 213.606C170.4 210.793 168.82 206.978 168.82 203V121.5C169.138 102.216 177.022 83.8302 190.771 70.3058C204.52 56.7814 223.034 49.2021 242.32 49.2021C261.606 49.2021 280.12 56.7814 293.869 70.3058C307.618 83.8302 315.502 102.216 315.82 121.5V203C315.82 206.978 314.24 210.793 311.427 213.606C308.614 216.419 304.798 218 300.82 218Z" fill="#404231"/>
</g>
<defs>
<clipPath id="clip0_756_15">
<rect width="512" height="512" fill="white"/>
</clipPath>
</defs>
</svg>
