<svg width="132" height="136" viewBox="0 0 132 136" fill="none" xmlns="http://www.w3.org/2000/svg">
<g clip-path="url(#clip0_747_968)">
<mask id="mask0_747_968" style="mask-type:luminance" maskUnits="userSpaceOnUse" x="-27" y="-28" width="186" height="193">
<path d="M-26.5 164.141H158.847V-27.5004H-26.5V164.141Z" fill="white"/>
</mask>
<g mask="url(#mask0_747_968)">
<path d="M72.4334 109.872C72.4182 109.915 72.1342 109.829 72.1045 109.872C72.7271 107.285 72.7154 109.088 72.4334 109.872Z" fill="#40422F"/>
<path d="M90.1775 28.0451C90.1425 28.0101 89.2305 28.0101 89.1955 28.0451C88.3215 28.9171 91.0515 28.9171 90.1775 28.0451ZM90.1795 25.7421C89.6895 26.3171 91.4155 29.9691 90.8355 30.6691L90.1775 29.3561C88.7945 29.1971 90.1715 31.8511 88.5875 30.1301C88.1805 29.6881 88.6055 28.4771 88.8655 27.7141C89.0495 27.1741 89.3955 26.0561 89.5225 25.7421C89.5415 25.6951 90.1605 25.7921 90.1795 25.7421Z" fill="#40422F"/>
<path d="M67.1756 99.3555L66.8467 98.6985H67.1756" fill="#40422F"/>
<path d="M64.5468 87.5254C64.5319 87.4183 64.5577 87.3054 64.5468 87.1965C64.5519 87.2125 65.2288 87.3664 64.5468 87.5254Z" fill="#40422F"/>
<path d="M42.5291 27.7157C42.142 27.7637 42.001 27.7907 41.8721 27.3867Z" fill="#40422F"/>
<path d="M62.5751 83.254C62.4661 83.186 61.8923 82.3841 62.7353 82.595C63.0271 82.5649 62.9353 83.2399 62.904 83.254C62.8314 83.2852 62.6923 83.2423 62.5751 83.254Z" fill="#40422F"/>
<path d="M71.7764 110.857C71.8244 110.838 71.8174 110.3 72.1057 109.871C71.9955 110.327 72.0217 110.396 71.7764 110.857Z" fill="#40422F"/>
<path d="M51.0731 34.2875C50.7543 34.3105 50.4793 34.4085 50.416 33.9585C50.6922 34.0085 51.0832 33.8145 51.0731 34.2875Z" fill="#40422F"/>
<path d="M45.1555 28.3751C44.8484 28.1761 44.2094 28.6161 44.1715 29.0261C44.7234 29.3251 45.7145 28.7381 45.1555 28.3751ZM43.8434 28.0441C45.3832 27.2921 45.2152 28.4821 46.1434 29.3591C46.5293 27.2741 47.1715 28.7291 47.1273 30.0141C46.3602 30.1791 46.5863 29.7771 46.1434 29.3591C46.0543 29.8411 46.2602 30.5861 46.1434 31.0021C45.5145 30.6291 45.7723 29.7481 45.1613 29.6891C44.4574 30.1861 46.1902 31.4851 45.8145 31.6591C44.1941 32.4131 45.0954 30.0501 44.8294 29.6851C44.7653 29.5971 43.9254 29.7751 43.8434 29.6871C43.8242 29.1451 43.8902 28.5831 43.8434 28.0441Z" fill="#40422F"/>
<path d="M35.2994 34.2876C35.4694 34.4386 35.1002 36.3776 36.9424 36.2596C37.0463 37.2366 37.6111 38.1196 37.5994 38.2226C37.5842 38.3506 35.8182 38.4136 36.9424 40.2026C36.0041 40.5886 36.5123 39.0556 35.6283 39.5456C35.5744 39.3056 35.6154 38.8476 35.6283 38.5596C36.9514 38.9516 36.2174 36.0146 35.6303 36.9186C35.5451 37.0496 35.6451 38.1676 35.6283 38.5596C35.2522 38.4486 35.4861 35.0486 34.3135 34.2876C34.5592 34.3406 35.2123 34.2096 35.2994 34.2876Z" fill="#40422F"/>
<path d="M90.1787 25.7441C90.2947 25.6091 90.3767 25.5321 90.5087 25.4151C90.3707 25.7021 90.1877 25.7221 90.1787 25.7441Z" fill="#40422F"/>
<path d="M55.6731 73.723C55.8052 73.8898 56.8583 74.4468 56.6591 74.7051C56.4661 74.9539 55.736 74.3789 55.6731 74.3801C55.6411 74.1699 55.7071 73.9332 55.6731 73.723Z" fill="#40422F"/>
<path d="M55.6736 73.0657C55.6846 73.279 55.6397 73.5157 55.6736 73.7227C55.3908 73.3637 55.0615 72.7747 55.0166 72.7368C55.1955 72.8419 55.5018 73.0227 55.6736 73.0657Z" fill="#40422F"/>
<path d="M55.6734 72.408C55.7715 72.4998 56.5625 72.3158 56.6586 72.4119C56.7684 72.522 56.2953 73.0298 56.3305 73.065C56.1676 73.0068 55.8684 73.1138 55.6734 73.065C55.6625 72.849 55.6676 72.6248 55.6734 72.408Z" fill="#40422F"/>
<path d="M55.0168 72.7383C54.8809 72.6594 54.8035 72.5012 54.6875 72.4094C54.8168 72.4953 54.9008 72.6422 55.0168 72.7383Z" fill="#40422F"/>
<path d="M53.0443 72.0808C53.2154 72.603 53.2361 73.1647 53.6932 73.564C53.5662 73.8038 53.2373 73.514 53.0443 73.396C52.9611 73.344 52.7713 73.1519 52.7154 73.0671C52.6674 72.9929 52.3893 72.446 52.3873 72.4101C52.3771 72.2171 52.3611 71.778 52.3873 71.7519C52.5154 71.6229 52.9252 72.0909 53.0443 72.0808Z" fill="#40422F"/>
<path d="M51.0726 34.2879C51.0905 34.1939 52.3437 32.9829 52.7136 33.3059C51.6198 33.9819 52.4038 35.4249 52.3839 36.5859C51.5769 36.4819 52.7077 35.6409 51.4019 35.6019C51.4218 35.1399 51.0597 34.3579 51.0726 34.2879Z" fill="#40422F"/>
<path d="M71.4481 71.4228C70.7988 73.0986 70.9699 71.6498 70.791 71.4228C70.852 71.4939 71.384 71.3478 71.4481 71.4228Z" fill="#40422F"/>
<path d="M70.79 71.4226C70.7322 71.3484 70.1162 71.5797 70.1311 71.2636C70.1373 71.1527 70.6662 70.6508 70.79 70.4367C70.8893 70.5797 70.6963 71.3125 70.79 71.4226Z" fill="#40422F"/>
<path d="M53.0447 60.9071C53.1018 60.9691 53.2838 62.2391 53.3717 62.5481C52.3197 62.5981 52.4607 61.9511 52.3877 61.2361C52.3846 61.2131 52.6088 61.2621 52.7158 60.9071C52.8178 60.9501 52.9979 60.8561 53.0447 60.9071Z" fill="#40422F"/>
<path d="M65.8612 35.6026C65.6401 35.6956 65.4112 35.8096 65.2042 35.9316C65.1581 35.3926 65.2304 34.8296 65.2081 34.2886C65.6722 34.2206 65.8562 35.3406 65.8612 35.6026Z" fill="#40422F"/>
<path d="M67.1758 112.83V112.501C67.8578 112.661 67.1809 112.814 67.1758 112.83Z" fill="#40422F"/>
<path d="M70.4619 30.6738C71.2131 29.9178 71.5729 29.8808 71.1182 29.3628C72.7139 28.8738 71.8721 30.5178 72.108 30.6698C72.2772 30.7788 74.0562 30.6808 74.4062 31.0028C76.4662 32.8998 70.574 30.4528 70.4619 30.6738Z" fill="#40422F"/>
<path d="M104.639 34.9446C104.447 35.1336 104.58 35.4216 103.982 35.2736C103.959 34.8906 104.354 34.8836 104.639 34.9446Z" fill="#40422F"/>
<path d="M12.6235 50.3918C12.1665 50.4658 10.7915 50.2778 10.6493 50.3888C10.5087 50.4988 10.8794 51.6758 10.4896 51.7048C10.0376 51.7378 9.25873 48.3858 7.36773 49.7328C7.08763 48.4788 8.68643 49.3368 9.00873 49.0728C9.11263 48.9878 8.25053 47.8598 8.35173 47.7668C8.54543 47.5878 12.6325 48.4238 11.3106 45.1328C12.5774 44.8338 12.1556 45.6638 12.2946 45.7908C11.2474 44.7138 11.9755 47.5268 11.9665 47.7628C11.6653 47.7588 10.7064 47.7158 10.6536 47.7648C10.4915 47.9168 11.8454 50.6978 11.9665 47.7628C12.2345 47.7658 12.6255 48.5428 12.9435 48.2608C12.4595 47.8958 12.4165 45.9158 12.2946 45.7908C13.3634 46.7718 13.5564 47.7138 13.6095 49.4058C12.9435 49.9598 12.1954 48.2808 12.6235 50.3918Z" fill="#40422F"/>
<path d="M61.5836 116.115C61.6594 116.054 61.9312 114.78 61.9133 114.475C61.2625 114.579 60.7773 116.766 61.5836 116.115ZM62.8984 113.814C62.7094 113.053 63.3324 111.292 62.5785 110.86C62.7695 111.619 62.1426 113.354 62.8984 113.814ZM74.0726 110.856C74.1106 110.797 74.1046 109.919 74.0726 109.874C73.6456 109.29 73.6866 111.443 74.0726 110.856ZM69.7984 108.883C70.1684 107.82 70.1965 106.718 70.1285 105.602C69.5973 106.035 69.0973 108.455 69.7984 108.883ZM67.8305 104.617C67.2074 103.75 66.4312 106.88 67.4973 105.926C67.5535 105.877 67.8875 104.695 67.8305 104.617ZM70.4574 105.269C70.3203 104.769 70.8285 103.335 70.1363 103.302C70.2746 103.802 69.7652 105.236 70.4574 105.269ZM70.6254 102.314V102.642L70.7902 102.478L70.6254 102.314ZM72.4336 103.3C72.4023 102.067 72.3723 100.291 71.1223 99.685C70.7883 102.637 71.0543 101.992 72.4336 103.3C72.4625 104.488 71.8586 103.552 71.7773 104.281C73.8306 103.947 73.0723 103.906 72.4336 103.3ZM66.8465 98.6991C66.7344 98.8182 66.0336 99.146 65.8633 99.353L65.8555 96.4011L65.5375 98.3671L64.2215 94.1003L64.8703 98.3682L63.8855 97.2229L65.1992 100.997C64.6684 101.095 64.7234 99.8612 64.2215 100.013C64.1074 100.048 64.5223 101.115 63.8934 100.997L63.2402 99.844L64.8766 105.927C65.4805 105.803 67.6445 104.116 67.6996 103.657C67.9363 101.682 67.2074 102.528 66.5176 101.163C66.4742 101.078 67.1016 99.9581 67.1754 99.3561C67.2324 98.8932 67.2336 99.1663 67.1754 98.6991C66.9105 96.5901 67.0152 98.521 66.8465 98.6991ZM73.0902 102.314V97.7132C73.0902 97.6971 73.4195 97.6971 73.4195 97.7132V102.642C75.2936 101.663 74.6016 99.1253 75.1176 97.4182C75.1586 97.2831 76.0376 97.4272 76.0486 97.3819C76.2876 96.3991 75.9476 93.5093 76.0446 92.4569C75.5066 93.6721 74.1876 93.528 74.4006 95.0811L73.7516 94.1003L74.0726 98.3682L73.4144 95.0862L73.0863 97.3819L72.4375 96.0721L73.0902 102.314ZM80.3416 86.505L79.9956 89.4952C80.7446 89.1069 80.1156 87.6163 80.3636 86.8909C80.4676 86.5862 82.5116 86.6721 80.3416 86.505ZM82.9456 83.9093C82.9836 83.8503 82.9776 82.9721 82.9456 82.9272C82.5186 82.3432 82.5596 84.4952 82.9456 83.9093ZM60.6004 81.2843C60.5703 81.2479 60.0113 81.146 59.9434 81.4503C59.7234 82.4261 61.1152 81.8952 60.6004 81.2843ZM50.4133 81.2862C49.8203 81.203 49.4496 81.2651 49.1086 81.7792C49.4355 81.7882 50.5133 81.7511 50.4133 81.2862ZM54.3586 80.628C53.1234 80.9042 51.2496 81.2511 50.4176 82.2632C51.7496 82.2452 53.5312 81.753 54.3586 80.628ZM50.7473 71.4253C50.6383 71.9093 50.8945 72.121 51.2402 72.4011C51.3055 72.1022 51.1074 71.2729 50.7473 71.4253ZM32.9953 71.4253C32.7894 71.2311 31.7105 71.5561 31.6914 71.9159C31.6414 72.8811 33.6344 72.0253 32.9953 71.4253ZM28.7203 71.4241C24.7223 74.9069 32.0285 76.8163 30.3203 73.771C30.2344 73.6163 28.3746 73.346 28.7203 71.4241ZM21.3312 71.4229V71.7511L21.4953 71.587L21.3312 71.4229ZM50.0824 72.078C50.1926 71.594 49.9363 71.3811 49.5894 71.1022C49.5254 71.4011 49.7223 72.23 50.0824 72.078ZM75.7216 75.0389C77.5016 76.646 78.2126 70.371 77.3586 69.453C75.4506 70.1069 74.5336 73.9663 75.7216 75.0389ZM42.2016 70.435C42.7094 70.6971 43.4535 69.794 43.1812 69.4511C43.1094 69.36 41.5465 70.0971 42.2016 70.435ZM103.653 69.7761C103.76 69.6479 103.46 69.4221 103.325 69.285C102.55 68.7729 103.123 70.4081 103.653 69.7761ZM18.2074 69.1253C17.8902 69.1702 16.9785 69.0432 16.8973 69.1241C16.8152 69.2061 16.9426 70.1182 16.8973 70.435L18.2074 69.1253ZM71.1164 68.7979C70.5883 68.6069 69.6336 68.894 70.1363 69.4511C70.1766 69.4952 71.2336 69.1503 71.1164 68.7979ZM20.5086 68.7921C19.6496 67.61 19.1992 70.3862 19.8574 71.0932C20.6613 70.9979 20.6426 68.9772 20.5086 68.7921ZM42.1144 69.38C42.0742 66.8612 40.6664 69.7069 40.5496 69.7761C39.8152 70.2132 40.0113 68.9819 39.4176 69.085C38.3746 69.2651 37.9293 70.1241 37.4312 70.1311C36.5855 70.1421 36.9723 68.6163 35.2973 69.455C35.0215 70.5061 36.7965 70.2382 36.9426 70.9382C37.0742 71.5671 35.9055 71.8721 35.9496 72.5702C35.9644 72.8229 37.2793 72.8093 36.9586 74.1632C36.8754 74.5151 36.0254 74.41 35.9586 75.171C35.5336 80.0011 43.1484 81.819 46.8496 81.421C48.3133 81.2632 49.3996 80.1479 49.9953 80.0022C51.6293 79.6042 51.1234 82.4792 53.3523 78.4569C53.6555 77.9093 55.2223 77.919 53.1844 75.7182C51.2223 73.5979 50.1344 76.9401 49.9184 74.0491C49.2152 76.619 47.3945 75.028 47.7894 74.3811C47.8465 74.287 49.1445 75.2042 49.4426 73.5671C49.4723 73.4022 46.7543 71.7952 46.5863 71.7831C45.1633 71.6792 45.6734 73.9069 45.4273 74.487C45.1754 75.0819 44.3152 75.1952 44.1723 75.5319C44.1312 75.628 45.7605 76.9272 43.9996 77.0069C42.4113 77.0792 43.8383 72.4432 43.5125 72.0819C42.3926 70.8471 42.0465 75.5882 41.8652 75.694C40.8394 76.2921 40.6285 74.7221 40.5473 74.7093C40.2254 74.66 39.4473 76.01 38.7465 75.0401C38.1844 74.2612 40.0496 73.4511 40.2144 72.8831C40.3414 72.4452 38.9402 71.7081 39.2414 71.4272C39.3793 71.2979 42.1355 70.6311 42.1144 69.38ZM63.8844 68.4632C63.9234 68.4042 63.9176 67.5261 63.8844 67.4811C63.4586 66.8971 63.4992 69.0503 63.8844 68.4632ZM76.3746 65.5139C76.3196 65.4503 75.3206 65.21 75.0646 65.1819C75.0546 66.0221 77.2416 66.521 76.3746 65.5139ZM47.7902 64.8503C47.9754 65.0151 48.7023 64.1379 48.4394 63.8649C48.2633 63.6819 47.5184 64.6069 47.7902 64.8503ZM45.8125 63.5379C45.1402 62.8549 45.1613 63.9699 45.4902 64.519C46.0215 64.6729 45.8484 63.5749 45.8125 63.5379ZM89.0816 63.3199C87.2426 62.1229 86.3006 65.9421 86.6276 67.2389C86.7666 67.7909 90.8696 71.5253 91.1596 71.4221C91.4636 71.3139 93.9296 66.6581 95.1056 66.3229C94.2546 65.7389 95.5166 62.8669 93.3916 63.2689C90.8736 63.7469 92.5826 67.2272 90.0416 66.4311C87.8966 65.7581 90.5526 64.278 89.0816 63.3199ZM48.6113 62.5579L48.1223 63.0469L48.2754 63.1989L48.6113 62.8779V62.5579ZM46.4652 62.5579C44.7773 62.1339 47.2953 64.1522 46.1535 65.037C45.6215 65.4491 41.4605 65.0253 41.8543 66.6182C41.8996 66.7979 43.3586 67.7042 43.6953 67.7932C44.9773 68.1311 43.8773 66.453 44.6594 67.153C45.6023 67.996 45.6996 69.6979 45.8176 69.78C46.1023 69.9772 52.1043 70.062 52.7312 69.9401C57.4383 69.0261 55.6844 64.7011 52.5223 64.837C51.7844 64.8682 52.1062 65.7011 51.2414 65.8503C49.3805 66.171 49.5562 64.905 49.2586 64.8382C49.0152 64.785 45.7125 66.9753 47.7863 63.2109C46.4445 63.6969 46.5375 62.5749 46.4652 62.5579ZM70.7902 70.437C70.7254 70.344 70.8324 69.9792 70.7875 69.7831C68.8324 71.0389 70.7855 68.9151 68.1633 69.4471C70.3664 69.0022 68.8965 68.5139 69.3062 68.1452C69.3504 68.105 70.2652 68.6932 70.4586 68.4632C70.5434 68.3632 70.5586 65.9253 70.4633 65.8343C70.2945 65.6729 65.9883 65.4093 67.8305 63.8679C65.9984 63.4639 67.3973 65.3362 66.5242 66.3561C66.3246 66.5913 65.5605 66.1202 65.5344 66.1632C65.4215 66.3491 65.7203 68.6819 64.3004 69.105C62.7586 69.5651 62.0344 66.6272 62.2684 65.7139C62.4684 64.9331 64.2723 65.769 63.8695 64.5452C63.7934 64.3139 60.0242 61.8849 59.7812 61.8989C57.9934 62.0059 57.6652 71.6819 57.3144 72.0811C57.1004 72.3241 55.7453 71.9093 55.5043 71.4311C55.2984 71.6862 55.6824 72.06 55.6734 72.4093C55.0844 71.855 53.7855 70.0229 53.3754 71.0889C54.4086 70.9471 54.5812 72.3253 54.6875 72.4093C53.7195 71.762 54.0324 71.9979 53.0445 72.08C52.9414 71.7671 53.2734 70.0522 52.3883 70.7663C52.2844 70.8503 52.4793 71.621 52.3863 71.7511C52.3625 71.7862 51.9223 71.255 51.7383 71.5831C51.8664 71.8503 52.3125 72.2093 52.3863 72.4093C52.4855 72.6761 52.5773 72.828 52.7152 73.0663C52.7914 73.1971 52.9586 73.2772 53.0445 73.3952C53.1945 73.6003 53.3176 74.678 53.3773 74.7081C53.6094 74.8241 54.1055 74.021 54.1945 74.0581C54.4625 74.1702 54.8023 75.6479 55.3445 75.0343C55.8574 74.4522 54.1363 74.421 55.6734 74.38C55.8465 75.5132 56.4676 75.1311 56.6613 75.535C57.1242 76.4991 55.3984 75.2909 55.6773 76.019C55.7613 76.2401 58.9812 78.6921 59.6144 78.6569L58.3043 78.985C58.9836 80.5932 59.5355 80.8401 61.9144 81.287C62.0336 81.9151 60.9652 81.5003 60.9312 81.6139C60.7793 82.1163 62.0125 82.062 61.9152 82.5921C59.4824 82.4132 60.9164 83.4272 62.5742 83.253C62.7945 83.3889 62.8164 83.2593 62.9023 83.253C64.8144 83.13 62.7875 82.6632 64.2164 82.5991C65.0164 85.905 61.9992 82.5471 64.2094 85.0651L62.9043 84.73C64.0223 85.5753 64.1152 85.971 64.5465 87.1971V87.5253C64.9176 90.2331 65.3062 100.372 65.2074 90.8139L65.8562 93.4389C67.1723 90.594 65.5773 87.7331 65.5152 85.685C65.5113 85.5663 66.4715 84.1753 66.4176 83.478C66.3465 82.546 65.2625 81.2503 65.1965 80.7932C65.0453 79.7311 66.3293 81.0112 66.1875 80.462C65.8676 79.2292 62.6824 77.5952 64.8723 77.3421C63.7176 78.18 61.3965 76.2261 60.4434 76.346C60.0324 76.3979 60.6766 77.7221 59.6223 77.337C59.4086 75.3421 57.6984 74.4311 56.3305 73.0663C56.4836 73.1202 57.2062 72.6069 57.9555 72.8921C58.9723 73.2792 60.4734 75.887 60.6504 75.9913C61.9016 76.7229 64.9664 75.1593 66.9176 78.0889C69.5133 81.9901 68.7273 91.244 68.8074 95.919C68.8355 97.5139 70.3305 98.7889 68.4914 98.8612C71.3144 101.337 70.0883 96.36 70.4793 94.6093C71.6785 89.237 74.3076 83.8171 74.7356 78.496C74.7436 78.3952 74.0676 77.7022 74.1096 76.5632C74.1216 76.2182 74.9746 76.094 75.0086 75.8511C75.1606 74.7632 72.3894 72.628 72.7574 71.096L72.4293 72.4069C72.3723 71.5042 71.4926 71.4753 71.4473 71.4229C71.7035 70.762 71.8914 70.1772 71.7734 69.453C70.9664 69.2542 71.1035 69.8979 70.7902 70.437ZM110.887 62.5499C111.23 62.9569 111.915 61.1729 111.045 61.2369C110.765 61.2579 110.844 62.4989 110.887 62.5499ZM21.1695 62.2189C21.7605 62.6329 22.8715 61.5829 22.4773 61.2349C22.4023 61.1689 20.4883 61.7429 21.1695 62.2189ZM80.6466 62.2189C80.7136 62.1039 80.7426 60.5769 80.4866 60.5799C79.6236 60.5919 80.0406 63.2639 80.6466 62.2189ZM58.3004 60.5799C57.9375 60.0209 57.3504 61.0129 57.6492 61.5639C58.0594 61.5269 58.4984 60.8869 58.3004 60.5799ZM93.1346 60.2519C92.7386 59.8479 91.8156 60.9559 92.1546 61.5639C92.5316 61.5299 93.4216 60.5449 93.1346 60.2519ZM52.7152 60.9069C52.6113 60.8629 52.4266 61.2229 52.3863 61.2349C51.9242 61.3769 51.3293 60.8449 51.4062 61.7199C51.6266 64.1952 56.2414 64.3882 53.0445 60.9069C52.8914 60.7399 53.1562 59.4489 52.7152 60.9069ZM94.7776 60.2469C95.4606 59.5759 94.3456 59.5969 93.7966 59.9259C93.6426 60.4569 94.7406 60.2839 94.7776 60.2469ZM82.2916 69.1221C82.0996 73.0913 81.6756 70.2042 79.8686 73.1011C77.0716 77.5889 75.1176 83.9772 74.7056 88.9991C74.5926 90.38 75.4836 91.896 76.6656 90.6061C77.6836 89.496 83.1506 73.321 82.9526 82.5979C84.1406 81.646 83.3086 83.612 83.7686 83.58C83.9506 83.5671 85.1906 80.9382 85.5526 80.4151C86.0356 79.7202 86.8356 80.3671 86.8896 80.2952C86.9966 80.153 86.5216 79.0612 86.9636 78.2581C87.4976 77.2909 89.4686 75.9843 89.4656 75.4663C89.4636 74.8702 87.8386 74.2991 87.5656 73.2022C87.4016 72.5382 88.3156 72.86 88.2126 72.571C86.7956 68.5932 85.3166 72.4171 83.7016 68.537C82.5926 65.8721 84.9556 60.5629 80.6566 59.7529C81.2876 61.8019 82.2076 60.7969 82.2896 60.9029C83.1196 61.9769 81.9176 63.3459 81.9286 64.0279C81.9586 65.7491 82.3756 67.396 82.2916 69.1221C82.3826 68.5343 82.4946 67.9432 81.6376 68.135L81.3066 69.7761C81.7256 70.0819 82.2746 69.2331 82.2916 69.1221ZM20.5094 59.5959C20.4844 59.5529 19.5492 59.4689 19.5266 59.7549C19.4723 60.4049 20.7773 60.0539 20.5094 59.5959ZM17.5523 60.5779C17.4203 60.6209 14.1844 58.9689 16.2394 61.2339C17.0055 62.0769 17.4863 60.6099 17.5523 60.5779C17.6555 60.5269 19.9324 60.6029 18.8644 59.5939C17.6184 58.4159 17.6574 60.5439 17.5523 60.5779ZM86.2376 59.5969C85.7626 58.8309 84.1686 59.2169 85.2556 60.9049C86.0566 61.2619 86.3166 59.7249 86.2376 59.5969ZM92.8056 58.9369C92.2686 58.3969 91.2046 60.4289 91.4976 60.9049C91.8766 60.8199 92.9916 59.1239 92.8056 58.9369ZM79.9856 60.2479C80.1216 60.1039 80.3336 58.9369 80.3166 58.6059C79.4426 58.7499 79.1156 61.1699 79.9856 60.2479ZM85.4136 58.2779V58.6059L85.5786 58.4419L85.4136 58.2779ZM85.9046 57.2939C85.8746 57.2589 85.3156 57.1559 85.2476 57.4599C85.0276 58.4369 86.4196 57.9049 85.9046 57.2939ZM21.1676 58.2779C20.9195 58.2519 20.1652 57.2869 19.8555 57.6219C19.7344 57.7529 20.5684 61.1059 21.1676 58.2779C23.9195 58.5629 21.6984 56.3369 21.1695 56.9629C21.0695 57.0799 21.2383 57.9429 21.1676 58.2779ZM82.0196 57.2469C81.9406 57.2209 81.3016 55.5949 80.6506 56.3089C79.8726 57.1609 82.1526 59.6989 83.2706 58.6059C85.2266 56.6929 82.3516 57.3579 82.0196 57.2469ZM88.8626 55.9789L87.8786 56.9589C88.9436 57.0699 88.9706 57.0439 88.8626 55.9789ZM16.8945 56.6299C17.2594 55.5559 14.4144 56.0729 15.5824 56.9609C15.6676 57.0259 16.8723 56.6939 16.8945 56.6299ZM90.1766 56.6319C90.2146 56.5999 90.3016 55.6529 90.0166 55.6509C89.3806 55.6449 89.3776 57.3089 90.1766 56.6319ZM57.5773 55.7169C56.3984 53.5969 56.7074 58.0669 57.6426 56.9609C57.7016 56.8919 57.7023 55.9419 57.5773 55.7169ZM83.2756 56.3039C83.3216 56.2149 83.5126 54.2799 82.9536 54.3359C82.6646 54.8029 82.6466 57.5109 83.2756 56.3039ZM116.796 54.0079C116.761 53.9729 115.849 53.9729 115.815 54.0079C114.941 54.8779 117.67 54.8779 116.796 54.0079ZM80.9736 55.3179C80.9066 54.8289 81.2556 53.9089 80.6526 54.0079C80.7206 54.4969 80.3706 55.4169 80.9736 55.3179ZM34.9652 55.6469C34.8684 55.1169 35.2855 53.9359 34.6453 54.0079C34.7562 54.4549 34.3035 55.6789 34.9652 55.6469ZM108.907 54.6609C108.946 54.6019 108.94 53.7239 108.907 53.6789C108.481 53.0949 108.522 55.2479 108.907 54.6609ZM82.2896 53.6789C81.5546 52.8569 81.3736 54.9969 82.1296 54.9889C82.4066 54.9869 82.3336 53.7279 82.2896 53.6789ZM114.502 54.3339C114.687 54.4989 115.414 53.6219 115.151 53.3479C114.975 53.1659 114.23 54.0909 114.502 54.3339ZM106.611 54.6629C106.743 54.4569 108.483 55.3419 107.921 53.3479C107.035 53.4589 106.889 54.3329 106.611 54.6629C106.281 55.0539 104.932 56.2979 105.297 56.9589C106.197 58.5929 106.526 54.7939 106.611 54.6629ZM85.5786 54.3339C85.4046 54.4279 84.6696 54.2439 84.5946 54.3359C84.1956 54.8289 85.4336 58.2399 86.2316 56.1349C86.5326 55.3419 85.2566 55.7129 85.2516 55.6449C85.2096 55.0479 85.9226 55.5149 85.9276 55.1289C85.9306 54.8319 85.5576 54.3949 85.5786 54.3339C85.6646 54.2869 87.4746 54.2899 86.5626 53.3499C85.6626 52.4239 85.6426 54.1449 85.5786 54.3339ZM31.0234 54.3309C31.3434 53.6089 30.0234 53.0479 29.7133 53.3499C29.0285 54.0189 30.6973 55.0679 31.0234 54.3309ZM19.5246 55.9769C19.3652 55.7069 19.2953 54.8819 18.8875 54.2219C18.6703 53.8719 17.9254 54.0489 17.8793 54.0019C17.7973 53.9209 18.5785 51.4769 17.2254 53.8429C17.1855 53.9139 17.8223 55.2639 17.8812 55.3199C16.6234 54.7029 17.3055 57.2549 18.2094 56.3019C18.2453 56.2639 17.9273 55.3429 17.8812 55.3199C18.2805 55.6999 19.4414 55.9259 19.5246 55.9769C19.8234 56.4869 19.7754 57.4119 20.8363 57.2899C20.9723 56.2199 19.9965 56.2719 19.5246 55.9769ZM102.008 52.6929C101.408 52.0549 100.552 54.0469 101.517 53.9969C101.877 53.9789 102.202 52.8999 102.008 52.6929ZM81.6346 52.6949C81.6166 52.6669 80.9426 52.5629 80.9756 52.8589C80.9086 53.5119 81.0536 53.4979 81.4726 53.0199C81.5936 52.9419 81.7036 52.8009 81.6346 52.6949ZM15.5785 52.6929C14.8836 52.6899 13.3445 54.4399 13.2855 54.8349C13.1273 55.9089 14.1586 54.8079 14.2625 54.9919C14.4902 55.3939 13.4824 56.4799 14.4344 56.9589C16.0324 57.7629 14.5633 56.0779 14.5984 55.9849C14.6215 55.9239 15.3684 56.1299 15.5273 55.0849C15.6484 54.2889 14.6523 54.3869 15.5785 52.6929ZM118.111 53.6749C118.398 53.2179 117.173 51.5929 116.8 52.0359C116.521 52.3669 117.532 54.5929 118.111 53.6749ZM77.0336 53.6769C77.3066 54.0289 80.1046 56.5579 80.3166 56.3059C81.7486 54.5979 77.7436 54.0539 77.0336 53.6769C77.0026 53.6369 77.5236 53.1419 77.2316 52.6809C76.7116 51.8639 73.6646 51.8869 77.0336 53.6769ZM22.1535 53.6769C22.2684 53.6139 24.3016 53.3919 23.1375 52.0319C21.6894 50.3409 22.1902 53.1759 22.1535 53.6769C22.0855 53.7139 20.8945 52.8479 21.5016 54.1639C22.5164 56.3669 22.1445 53.7949 22.1535 53.6769ZM26.4223 51.7069C23.1586 52.0759 25.7723 53.0689 26.2633 54.9889C26.4984 53.4009 25.4973 53.1239 26.4223 51.7069ZM17.2195 52.6889C17.2586 52.6299 17.2523 51.7519 17.2195 51.7069C16.7934 51.1229 16.8344 53.2759 17.2195 52.6889ZM14.9215 51.7069C12.4824 51.2689 12.2574 53.5659 14.5152 52.4509C14.9465 52.2379 15.0336 52.3919 14.9215 51.7069ZM102.994 51.0499C102.628 50.6789 101.008 51.8289 101.684 52.3599C102.334 52.8719 103.481 51.5439 102.994 51.0499ZM21.4934 52.0319L20.1836 50.7209C20.2293 51.0389 20.1016 51.9499 20.1836 52.0319C20.2652 52.1129 21.1766 51.9859 21.4934 52.0319ZM76.3776 50.7229C76.0066 50.8339 75.3216 50.3579 75.0576 50.5359C73.5396 51.5589 76.2556 52.4889 76.3776 50.7229ZM108.909 50.0639C107.83 49.7669 107.916 51.4549 108.418 51.3679C108.831 51.2979 109.017 50.4739 108.909 50.0639ZM107.595 51.0459C107.633 51.0139 107.719 50.0669 107.434 50.0639C106.798 50.0579 106.796 51.7229 107.595 51.0459ZM54.0273 50.0639C53.9984 50.0289 53.4394 49.9259 53.3703 50.2299C53.1516 51.2069 54.5434 50.6749 54.0273 50.0639ZM38.2535 51.0459C38.4523 50.7389 38.0133 50.0989 37.6023 50.0619C37.3035 50.6129 37.8914 51.6049 38.2535 51.0459ZM20.1793 49.7359C20.1293 49.6929 18.9195 49.6929 18.8695 49.7359C17.8242 50.6119 21.2242 50.6119 20.1793 49.7359ZM93.4616 50.3889C93.4996 50.3299 93.4936 49.4519 93.4616 49.4069C93.0346 48.8229 93.0756 50.9749 93.4616 50.3889ZM105.623 49.0779C105.159 48.5269 104.22 50.2159 104.641 50.7169C105.105 51.2689 106.044 49.5799 105.623 49.0779ZM102.998 50.3889C103.425 50.8729 105.067 49.0129 103.812 48.7499C103.004 48.5799 102.792 50.1549 102.998 50.3889ZM102.337 48.7499C101.337 49.7679 100.402 50.3999 100.698 51.7029C101.921 50.9129 102.721 50.3109 102.337 48.7499ZM55.0133 48.7499C54.6285 48.4509 53.7336 49.3459 54.0324 49.7309C54.4785 50.3069 55.5894 49.1959 55.0133 48.7499ZM101.022 49.4029C101.06 49.3709 101.147 48.4239 100.862 48.4209C100.226 48.4149 100.223 50.0789 101.022 49.4029ZM84.2606 51.7019L84.5886 48.0919C83.7536 48.7369 83.1166 51.0949 84.2606 51.7019ZM49.4254 49.7309C49.5953 49.2499 48.5824 47.6409 48.1164 48.0919C47.8504 48.3509 49.1414 49.5949 49.4254 49.7309ZM25.1086 49.4029C25.3246 49.0849 25.0293 48.1469 24.4574 48.0899C24.2152 48.5839 24.6062 50.1429 25.1086 49.4029ZM20.5074 48.0919C20.2516 47.6549 19.4723 49.2469 18.8754 48.5789C19.4664 49.4859 21.1652 49.2159 20.5074 48.0919ZM108.579 48.7459C108.617 48.6859 108.611 47.8089 108.579 47.7639C108.152 47.1799 108.193 49.3319 108.579 48.7459ZM56.0016 48.7479C55.9426 48.3729 56.1176 47.1419 55.3465 47.7639C54.5504 48.4059 55.9676 48.6999 56.0016 48.7479C56.0215 48.8699 55.9195 51.9129 56.6562 49.2339C56.8473 48.5379 56.0383 48.7979 56.0016 48.7479ZM43.1894 48.7469C43.6465 49.0149 43.9984 47.7099 43.3473 47.7639C43.0613 47.7869 43.1465 48.7219 43.1894 48.7469ZM53.6965 49.4019L54.0254 47.4329C53.3812 47.4699 52.9516 49.2769 53.6965 49.4019ZM26.0945 47.4349C25.2184 46.3899 25.2184 49.7899 26.0945 48.7449C26.1363 48.6949 26.1363 47.4849 26.0945 47.4349ZM102.994 47.1059C102.117 46.0619 102.117 49.4619 102.994 48.4169C103.036 48.3669 103.036 47.1569 102.994 47.1059ZM102.006 46.4489H101.686V47.1019H102.006V46.4489ZM113.514 46.1199C112.897 45.6459 111.007 46.4419 111.867 47.1029C112.484 47.5769 114.374 46.7809 113.514 46.1199ZM111.538 46.1209C111.503 46.0859 110.591 46.0859 110.556 46.1209C109.682 46.9909 112.412 46.9909 111.538 46.1209ZM108.252 46.1209C107.85 45.4879 107.021 47.1729 107.27 47.4309C107.635 47.8079 108.645 46.7389 108.252 46.1209ZM43.1836 47.4309C43.2273 47.3819 43.2996 46.1229 43.0234 46.1209C42.2664 46.1129 42.4484 48.2529 43.1836 47.4309ZM44.4973 45.7919C43.8434 44.6669 43.4805 47.7319 44.3375 47.7599C44.5855 47.7679 44.5695 45.9149 44.4973 45.7919ZM32.6676 45.7919C32.3043 45.2329 31.7176 46.2239 32.0164 46.7759C32.4266 46.7379 32.8664 46.0989 32.6676 45.7919ZM31.0246 46.7739C31.3223 46.3889 30.4273 45.4929 30.0426 45.7919C29.4664 46.2389 30.5773 47.3489 31.0246 46.7739ZM102.665 45.4629C102.635 45.4279 102.076 45.3249 102.008 45.6299C101.788 46.6059 103.18 46.0739 102.665 45.4629ZM18.8633 45.7949L16.5664 45.4649C16.6625 46.1879 18.6766 46.5169 18.8633 45.7949ZM73.4164 46.4449C73.4586 46.3719 73.6486 44.6989 73.0953 44.8069C72.7113 45.3519 72.8223 47.4869 73.4164 46.4449ZM75.7176 44.1489C75.0456 43.4659 75.0666 44.5809 75.3956 45.1299C75.9266 45.2839 75.7536 44.1859 75.7176 44.1489ZM72.1086 45.4609C72.3363 45.7029 73.0953 44.5039 72.7574 44.1469C72.5293 43.9049 71.7715 45.1039 72.1086 45.4609ZM50.0844 44.1489C50.0543 44.1139 49.4953 44.0109 49.4273 44.3149C49.2074 45.2919 50.5992 44.7599 50.0844 44.1489ZM83.6056 43.8209C82.3736 43.5449 82.8966 46.0889 83.4446 46.4449L83.6056 43.8209ZM77.0316 45.4589C77.0986 45.3439 77.1276 43.8169 76.8716 43.8199C76.0086 43.8319 76.4256 46.5039 77.0316 45.4589ZM44.8254 45.1299C44.7465 44.7079 44.6875 43.7609 44.1746 43.8209C44.2516 44.2119 44.2934 45.1709 44.8254 45.1299ZM39.5723 46.7739C40.4074 47.5989 41.3625 44.3829 40.8805 43.8199C40.5562 44.0579 39.2176 46.4219 39.5723 46.7739ZM100.694 44.4729C101.209 43.9579 99.6666 43.0839 99.7176 43.9819C99.7306 44.2069 100.502 44.6649 100.694 44.4729ZM49.0984 44.8019C49.3133 44.4849 49.0184 43.5459 48.4473 43.4899C48.2055 43.9839 48.5953 45.5419 49.0984 44.8019ZM81.9636 44.1469C81.9176 43.9869 82.0706 41.8729 81.3086 42.8339C80.4146 43.9619 81.9076 44.0659 81.9636 44.1469C82.0496 44.4459 81.7776 45.4979 82.1256 45.4589C83.9146 45.2609 82.0216 44.2309 81.9636 44.1469ZM61.9144 42.8339C61.0445 41.9599 61.0445 44.6899 61.9144 43.8159C61.9492 43.7809 61.9492 42.8689 61.9144 42.8339ZM54.3562 42.8349C53.8894 42.0799 53.4402 43.6489 53.7055 44.1449C54.1996 44.2269 54.4254 42.9459 54.3562 42.8349ZM74.0746 44.4729C73.9636 43.9349 73.6766 42.6879 73.0945 42.5059C73.1465 43.1889 73.0164 44.7149 74.0746 44.4729ZM50.4113 43.4869C50.5203 43.0029 50.2644 42.7909 49.9184 42.5119C49.8535 42.8109 50.0516 43.6389 50.4113 43.4869ZM77.6866 43.8159C77.5536 43.1759 78.2426 42.7079 78.1886 42.1829C77.7896 42.4139 76.7836 43.6399 77.6866 43.8159ZM70.7875 42.1769C70.1812 41.1329 69.7652 43.8049 70.6273 43.8159C70.8844 43.8189 70.8543 42.2919 70.7875 42.1769ZM69.8035 42.8279C69.9113 42.6999 69.6113 42.4749 69.4754 42.3369C68.7004 41.8249 69.2734 43.4609 69.8035 42.8279ZM60.2785 43.1609C60.7355 43.4289 61.0875 42.1229 60.4363 42.1769C60.1504 42.2009 60.2355 43.1359 60.2785 43.1609ZM82.9476 43.4869C83.0136 43.3719 83.0436 41.8449 82.7866 41.8479C81.9246 41.8599 82.3406 44.5319 82.9476 43.4869ZM81.6326 42.5009C81.6596 42.4809 81.7616 41.8359 81.4726 41.8479C80.8996 41.8739 80.8756 43.0759 81.6326 42.5009ZM76.0426 43.4879C76.1516 43.3879 76.4036 42.1579 76.3726 41.8459C75.2376 41.9179 75.1576 44.2959 76.0426 43.4879ZM93.1326 42.5019C93.1716 42.4429 93.1656 41.5649 93.1326 41.5199C92.7056 40.9359 92.7476 43.0879 93.1326 42.5019ZM72.7594 42.8299C73.0473 42.5369 72.1574 41.5509 71.7793 41.5179C71.4402 42.1259 72.3633 43.2339 72.7594 42.8299ZM110.887 42.5029C111.11 42.7289 111.8 41.6559 111.536 41.1909C111.056 41.0909 110.782 42.3969 110.887 42.5029ZM53.0394 41.1889C52.0023 40.8179 52.3254 43.0769 52.3894 43.1589C53.0375 43.9859 53.5465 41.7419 53.0394 41.1889ZM57.1965 41.7539C57.2695 41.4939 57.5414 40.9639 57.1535 40.8619L55.0176 43.1549C56.5875 43.8879 56.7492 43.3389 57.1965 41.7539ZM55.9992 41.8439C56.0375 41.8119 56.1242 40.8649 55.8394 40.8619C55.2035 40.8569 55.2004 42.5209 55.9992 41.8439ZM91.4876 40.5329C90.1276 40.0319 91.6896 42.8899 91.8166 42.8289C92.3826 42.5619 91.4156 40.9289 91.4876 40.5329ZM60.9312 41.5139C60.9305 41.1009 59.6863 40.4829 59.6203 40.5319C59.0144 40.9789 59.9863 41.9689 60.9312 41.5139ZM42.5273 40.5359C42.5094 40.5069 41.8363 40.4039 41.8684 40.6999C41.8023 41.3529 41.9473 41.3389 42.3652 40.8599C42.4875 40.7829 42.5965 40.6419 42.5273 40.5359ZM37.9223 40.5329C37.3223 40.2319 36.9062 42.4359 37.7633 42.4949C38.4844 42.5449 38.0644 40.6039 37.9223 40.5329ZM114.001 40.2109L114.169 40.6999L114.338 40.8519V40.5319L114.001 40.2109ZM93.7896 41.1869C93.7226 40.6979 94.0716 39.7779 93.4696 39.8769C93.5366 40.3659 93.1876 41.2859 93.7896 41.1869ZM82.6186 41.5149C82.6576 41.1809 82.3976 39.8579 82.1296 39.8769C81.5236 39.9179 81.5396 41.8299 82.6186 41.5149ZM39.2414 41.8459C38.7496 41.0119 38.4984 42.4529 38.5562 43.0179C38.6266 43.7119 39.2246 43.4519 39.2414 43.4889C39.3684 43.7699 39.0023 44.6089 39.4105 44.8069C40.3223 44.9639 39.7394 43.8939 39.8996 43.4889C39.9144 43.4499 40.5414 43.7109 40.5973 43.0119C40.6625 42.2049 40.0414 41.1159 40.2234 40.2049L39.2434 41.1869L39.2375 39.5459C37.9633 40.0629 38.9723 40.9289 39.2414 41.8459ZM110.505 41.4909C110.917 41.1059 110.914 39.6489 110.392 39.2189C110.257 41.1049 108.618 40.8759 108.585 41.0229C108.499 41.3999 110.433 41.5579 110.505 41.4909ZM89.8506 40.8599C88.5226 41.2659 90.2676 38.9869 88.5386 39.2189L88.8686 43.1589C89.5306 42.8489 89.6636 41.5109 89.8506 40.8599C91.4016 40.3859 90.2356 39.0789 89.8526 39.5469C89.7436 39.6799 89.9426 40.5419 89.8506 40.8599ZM80.3206 40.5319C80.2796 40.0839 80.7546 39.0239 80.6476 38.8909C80.1036 38.2169 78.6136 39.8349 80.3206 40.5319C80.6566 44.2579 81.4636 40.4219 81.3036 40.2049C81.1606 40.0109 80.3686 40.5509 80.3206 40.5319ZM115.155 38.5639C113.719 38.4159 112.946 38.5719 113.188 40.2009L115.155 38.5639ZM109.566 38.5619C109.103 38.0109 108.163 39.6999 108.585 40.2009C109.048 40.7529 109.988 39.0639 109.566 38.5619ZM44.1754 39.5459C44.6324 39.8139 44.9844 38.5079 44.3336 38.5619C44.0473 38.5859 44.1324 39.5209 44.1754 39.5459ZM112.853 38.2339C111.246 38.2799 112.106 40.6759 112.202 41.5169L112.853 38.2339ZM90.5056 38.2339C90.4756 38.1979 89.9166 38.0959 89.8486 38.3999C89.6286 39.3759 91.0206 38.8439 90.5056 38.2339ZM102.339 37.9069C102.32 37.8779 101.647 37.7749 101.679 38.0709C101.613 38.7239 101.758 38.7099 102.176 38.2309C102.298 38.1539 102.407 38.0129 102.339 37.9069ZM99.7136 39.5459C100.467 39.3379 100.389 38.4939 100.363 37.9029C99.6216 38.0979 99.6826 38.9409 99.7136 39.5459ZM91.8246 41.1869C93.5076 41.2919 93.0606 37.9329 92.3136 37.9049C92.1436 37.8979 91.7796 40.7669 91.8246 41.1869ZM103.651 37.5759C103.621 37.5409 103.062 37.4379 102.994 37.7429C102.774 38.7189 104.166 38.1869 103.651 37.5759ZM93.7906 37.5769C92.9586 37.0909 92.9786 38.6949 93.1386 38.8869C93.6286 39.4719 94.4096 37.9389 93.7906 37.5769ZM73.4164 37.5759C72.5465 36.7019 72.5465 39.4319 73.4164 38.5579C73.4516 38.5229 73.4516 37.6109 73.4164 37.5759ZM72.1043 39.2169C72.0754 39.0069 72.1543 36.3889 71.4496 37.5759C70.6184 38.9769 72.0203 39.1389 72.1043 39.2169C72.1684 39.6769 71.3523 40.3359 72.2684 40.8519C73.6936 38.0829 72.2055 39.3109 72.1043 39.2169ZM70.5523 39.1519C70.4484 38.8339 70.9644 38.0709 70.7855 37.5739C69.1164 38.3549 69.4812 40.7759 71.4453 40.8579C71.7644 40.0039 70.5824 39.2439 70.5523 39.1519ZM111.538 37.2479C110.676 35.7699 110.676 40.6919 111.538 39.2149C111.588 39.1299 111.588 37.3329 111.538 37.2479ZM110.224 36.9189C109.962 36.6119 108.799 37.6509 108.912 37.8979C109.245 38.6239 111.158 38.0159 110.224 36.9189ZM107.923 36.9189C107.893 36.8839 107.334 36.7809 107.266 37.0849C107.046 38.0619 108.438 37.5299 107.923 36.9189ZM89.5196 36.9189C89.0376 36.1749 88.2746 38.2489 88.5376 38.5579C88.9666 39.0609 89.9386 37.5659 89.5196 36.9189ZM43.7605 38.1569C43.8945 37.9469 44.1023 36.8249 43.5176 36.9189C42.4195 38.1699 42.4293 40.2529 43.7605 38.1569ZM100.036 37.5719C100.074 37.5399 100.161 36.5929 99.8756 36.5899C99.2396 36.5839 99.2366 38.2489 100.036 37.5719ZM103.651 35.9329C103.266 35.6339 102.371 36.5299 102.669 36.9149C103.116 37.4909 104.227 36.3799 103.651 35.9329ZM91.4916 39.8729C91.8406 38.0459 91.1026 33.6259 90.2386 37.4209L91.4916 39.8729ZM90.1766 35.6049C89.4236 34.9999 88.6356 36.2409 89.6926 36.5839C90.4456 36.8289 90.2196 35.6389 90.1766 35.6049ZM105.789 34.9449V35.2739L105.954 35.1089L105.789 34.9449ZM79.6586 36.9159C79.7376 36.8559 79.9506 35.2749 79.9876 34.9449C78.8226 35.0949 79.0416 37.3879 79.6586 36.9159ZM59.2855 34.9469C58.4094 33.9019 58.4094 37.3019 59.2855 36.2579C59.3285 36.2069 59.3285 34.9969 59.2855 34.9469ZM43.8383 34.9469H43.5184V35.5999H43.8383V34.9469ZM96.7496 36.2579C96.8166 36.1419 96.8456 34.6149 96.5896 34.6189C95.7266 34.6299 96.1436 37.3019 96.7496 36.2579ZM102.663 35.5999C102.596 35.1109 102.945 34.1909 102.343 34.2899C102.41 34.7789 102.061 35.6989 102.663 35.5999ZM91.1626 33.9609C90.2866 32.9169 90.2866 36.3159 91.1626 35.2719C91.2046 35.2219 91.2046 34.0119 91.1626 33.9609ZM89.8466 34.9429C89.8856 34.8839 89.8796 34.0059 89.8466 33.9609C89.4196 33.3779 89.4606 35.5299 89.8466 34.9429ZM59.2043 33.3799C57.7914 33.2129 58.0094 34.3019 57.6453 35.2699C58.4023 35.0889 61.1383 33.6089 59.2043 33.3799ZM45.1574 34.6169C45.1402 34.6539 44.4492 34.3999 44.4793 35.0819C44.5836 37.4549 46.9363 36.2899 46.1394 35.2739C46.0773 35.1949 44.2133 36.1619 45.1574 34.6169C45.2144 34.5229 47.2875 34.6759 46.1402 33.3039C45.1793 32.1529 45.2023 34.5109 45.1574 34.6169ZM79.9916 34.2839C80.0536 34.2309 79.3196 32.8519 79.0106 32.9739C78.3206 33.2489 78.8496 35.2499 79.9916 34.2839ZM34.3125 34.2879C34.2176 34.3759 33.5164 34.1429 33.3555 34.3199C33.1695 34.5239 33.5375 35.1869 33.1625 35.2779C32.8086 35.3629 33.3703 33.8599 32.3426 34.2899L32.0074 37.9009C29.9996 35.8759 31.0684 38.7179 31.0266 39.8749C31.0246 39.9209 30.0215 39.6259 30.3715 40.5299C31.2523 40.9119 30.9434 39.9409 31.0266 39.8749C31.3414 39.6219 32.0586 40.2969 32.5094 38.2399C32.2824 40.9839 33.5293 39.2879 33.9793 39.5439C34.0402 39.5789 33.9426 40.6089 34.4824 40.8569C35.1293 41.1539 35.0555 39.8629 35.6266 39.5459C36.2234 42.2439 36.6914 40.3279 36.9414 40.2029C37.8234 39.7639 38.5543 41.2409 38.2605 38.2329L39.2394 39.2149C38.8074 37.2529 39.8285 37.6629 39.8996 37.5739C39.9996 37.8099 39.7883 38.4089 39.9473 38.8579C39.9926 38.9849 40.8043 38.7129 40.9094 39.0699C41.1434 39.8639 40.8945 42.8549 41.2164 43.5899C41.3785 43.9589 41.8555 43.7869 41.8703 43.8179C41.4734 46.0839 43.3234 46.2899 42.7293 44.4499C42.4746 43.6599 41.8934 43.8659 41.8703 43.8179C41.9074 43.6099 41.8184 43.2209 41.8734 43.1629C41.9402 43.0909 42.5926 43.2119 42.8562 43.1609C43.0523 43.7449 42.9555 44.9599 43.5094 45.1309C43.1953 43.3149 44.6035 42.8249 42.8562 43.1609C42.7644 42.8849 42.6336 41.5739 42.5234 41.5189C41.9414 41.2289 42.0902 42.9399 41.5465 42.8299C41.1613 41.9619 42.1035 38.2479 41.8676 37.9029C41.7934 37.7959 41.0105 38.3779 40.8894 38.2349C40.3355 37.5839 41.0555 36.1189 39.8996 37.5739C39.2273 35.9919 38.2504 36.4329 38.5824 34.2889C36.7664 34.6929 39.2254 36.1129 36.9414 36.2599C36.9293 36.1479 37.5644 33.4589 36.6164 34.2879C36.2773 34.5849 37.4902 35.7969 36.4543 35.5989C36.4023 34.6849 35.3543 34.3549 35.2984 34.2879C35.2434 34.2219 35.3523 32.7509 34.4805 32.9689C34.0703 33.0719 34.4562 34.1539 34.3125 34.2879ZM37.9254 32.6469C37.0484 31.6019 37.0484 35.0019 37.9254 33.9569C37.9676 33.9069 37.9676 32.6969 37.9254 32.6469ZM33.9812 33.2999C34.1613 33.0189 33.9805 31.7289 33.3305 31.6589C33.1152 32.2449 33.4305 34.1599 33.9812 33.2999ZM42.5285 35.9309C42.3863 34.6729 42.9562 33.6549 41.9043 32.1999C41.8402 32.1109 39.9805 31.2549 39.9035 31.3319C39.5426 31.6979 40.2203 34.6779 40.3805 34.9659C40.5363 35.2449 41.2453 35.1449 41.4703 35.3649C41.6695 35.5599 41.4965 36.2289 41.5453 36.2609C41.6695 36.3389 42.3062 35.8319 42.5285 35.9309C42.7863 38.2249 43.4996 36.2729 43.1836 35.9329C43.1152 35.8609 42.6812 35.9999 42.5285 35.9309ZM59.3523 31.5349C58.4652 29.9379 59.6965 34.1639 60.2715 32.9709C60.3273 32.0309 60.4176 31.3739 59.3523 31.5349ZM53.0414 30.9999C52.0426 29.9839 52.5523 32.5079 53.2125 32.3079C53.2754 32.2889 53.0875 31.0469 53.0414 30.9999ZM51.3984 31.0039C50.5285 30.1299 50.5285 32.8589 51.3984 31.9849C51.4336 31.9509 51.4336 31.0389 51.3984 31.0039ZM36.0223 31.5329L35.6285 33.9579C36.4594 35.0119 37.8125 31.1729 36.0223 31.5329ZM95.4346 30.3459C95.0916 29.9369 94.0226 31.1149 94.4536 31.6569C95.0076 32.3549 95.9526 30.9619 95.4346 30.3459ZM54.0273 30.3469C53.6652 29.7869 53.0785 30.7789 53.3766 31.3299C53.7875 31.2929 54.2266 30.6529 54.0273 30.3469ZM50.4152 33.9589C50.1273 33.9069 49.4863 34.3699 49.4324 34.2869C49.2953 34.0739 50.2664 31.0229 50.0844 30.3469C48.7555 30.3959 50.1215 32.1389 48.1176 31.9929C50.1004 31.6609 46.1434 35.7069 49.1004 36.9169C48.9703 37.7859 49.5484 40.1239 50.0785 40.7039C50.1453 40.7769 51.1266 40.4259 52.0586 40.5319C51.7254 40.2019 50.7344 41.1789 51.0746 41.5159C51.4176 41.8549 52.3883 40.8589 52.0586 40.5319C52.7035 40.6049 53.8312 40.5009 54.0305 40.5319C54.1023 40.7709 53.9484 41.2239 54.0902 41.6079C54.6844 43.2179 55.9644 40.8289 54.0305 40.5319C53.9723 40.3419 54.3875 39.8149 54.3035 39.5909C54.2453 39.4369 52.2844 37.5349 52.3914 36.9169C53.7152 37.8969 55.9344 37.9829 56.0004 36.0909C56.0035 36.0019 54.4043 35.1319 55.0184 34.6179C55.1543 34.5039 58.4805 35.6509 56.3324 33.3059C58.2973 33.6589 57.5394 32.5649 57.6426 31.0039C56.6594 30.8599 57.0684 31.6839 56.3305 32.3159C56.5945 32.0159 56.8394 30.4129 55.3445 31.6589C55.1453 31.2889 55.8414 29.8799 54.6805 30.5009L54.0312 32.9699C55.0383 33.1179 54.5812 32.2949 55.3445 31.6589C55.3836 31.7309 55.6062 33.1389 56.3305 32.3159C55.1676 33.3129 54.8113 32.1289 54.6824 34.6139C54.2195 33.8939 54.2863 34.0769 53.7016 33.6309C53.7394 33.6629 53.8215 34.6119 53.5394 34.6149C52.8973 34.6199 52.9043 32.9559 53.7016 33.6309C53.3363 33.3529 53.0144 32.4159 51.8965 32.3019C51.7055 32.2819 51.7586 32.8889 51.5894 32.9459C51.1953 33.0809 50.0914 31.6669 50.4152 33.9589ZM34.9113 30.7329C34.8105 30.5829 33.7766 30.2279 33.6574 30.3459C32.8184 31.1829 36.8863 33.6669 34.9113 30.7329ZM61.7992 30.4789C61.6824 30.4689 60.9773 29.7459 60.6043 30.0179C60.2312 30.2899 62.1004 33.5799 62.9043 31.4239C63.6644 29.3889 62.1742 31.0479 62.0793 31.0009C61.8086 30.8669 61.9336 30.4909 61.7992 30.4789ZM80.3186 29.6889C79.1846 29.3339 79.8076 32.0179 80.1576 31.9859C80.5146 31.9519 80.2376 30.0979 80.3186 29.6889ZM64.2133 29.6949C62.0516 29.9599 65.3004 32.9739 65.2004 30.0169C63.9844 30.8039 64.2652 29.6879 64.2133 29.6949ZM94.1206 29.3609C93.4666 28.2359 93.1036 31.3009 93.9606 31.3279C94.2086 31.3359 94.1926 29.4839 94.1206 29.3609ZM39.8973 30.9999C40.1086 30.7729 39.4144 29.4149 38.9176 29.3589C38.5703 29.8089 39.3664 31.5669 39.8973 30.9999ZM34.6453 29.3609C34.5355 29.8449 34.7914 30.0569 35.1375 30.3359C35.2023 30.0369 35.0043 29.2089 34.6453 29.3609ZM97.0796 29.0329C95.1946 27.3609 95.7556 33.9239 96.8496 31.5699C96.9026 31.4539 97.1746 29.1169 97.0796 29.0329ZM78.0186 29.0279C76.4036 28.2369 77.7236 30.7659 76.7096 31.6589C78.5596 30.5119 78.2456 31.0329 79.0006 32.6419C79.7676 27.1239 78.4236 30.0709 78.1846 30.0199C77.8096 29.9399 78.1426 29.0879 78.0186 29.0279ZM66.5144 28.7019C66.4266 28.6479 64.1715 28.6099 64.5473 29.3529C64.9805 29.9179 67.3992 29.2489 66.5144 28.7019ZM62.7383 28.3729V28.7009L62.9023 28.5369L62.7383 28.3729ZM77.0336 28.0479C76.7696 28.0769 76.1156 27.9799 76.0506 28.0459C75.5006 28.5999 76.7106 29.1789 77.0336 28.0479ZM93.7916 27.3889C93.0756 27.0449 92.3516 28.8929 92.4816 29.0279C92.8746 29.4349 94.1526 28.0459 93.7916 27.3889ZM75.3906 26.7329C75.1406 26.4649 74.2276 27.2019 74.4056 27.3829C74.6666 27.6479 75.5616 26.9169 75.3906 26.7329ZM60.6004 26.7319C59.4383 26.5249 59.6625 28.3479 59.6184 29.0279C60.7805 29.2339 60.5562 27.4109 60.6004 26.7319ZM96.4176 28.3709C96.6206 28.1399 96.7596 26.8199 96.7476 26.4009C95.8226 26.3879 95.5246 29.3849 96.4176 28.3709ZM65.1992 28.0419C65.2152 27.3569 65.3883 26.3349 64.5504 26.0719C64.5754 26.6049 64.5086 27.9239 65.1992 28.0419ZM66.1875 25.7459C65.5355 24.6249 65.4785 27.1789 65.8652 27.7129C66.4215 27.7669 66.2375 25.8319 66.1875 25.7459ZM68.4875 25.0889C68.4574 25.0529 67.8984 24.9509 67.8305 25.2549C67.6105 26.2309 69.0023 25.6989 68.4875 25.0889ZM63.2312 25.0899C62.4355 24.0799 60.5914 27.0539 60.9336 27.3849C61.7594 28.1819 63.3453 25.2349 63.2312 25.0899ZM64.5453 25.0899C64.5324 25.0399 63.6023 24.7229 63.5644 24.7579C62.6125 25.6379 64.8195 26.1419 64.5453 25.0899ZM68.8164 22.4589C67.4953 22.2139 68.4074 24.1069 68.4945 24.7549L68.8164 22.4589ZM88.8646 27.7149C88.8226 27.7859 87.6086 27.4329 87.2246 27.7139C86.8876 26.6619 88.1626 27.1769 88.2086 27.0559C88.3766 26.6099 87.4976 16.0269 89.8546 23.7719C90.9706 21.4799 93.4246 24.3419 92.6996 21.8929C92.6236 21.6359 91.5796 21.3129 91.4976 20.8199C91.4916 20.7849 92.1266 20.9339 92.1676 20.6329C92.2256 20.2089 91.4456 19.3429 91.9756 18.5069C92.6276 17.4779 94.9946 21.0269 95.1056 21.3129C95.3336 21.9009 94.4986 21.7809 94.5116 21.9609C94.5636 22.6579 93.8466 31.7799 95.4346 29.6869C95.6126 29.4529 94.5336 23.7889 97.7336 26.3989C97.6196 21.4879 101.48 26.1919 99.0546 27.3849L99.0476 24.7579C97.8286 24.9689 98.6136 27.8879 99.2216 28.0429C100.455 28.3569 100.236 25.6249 101.351 25.7459C100.251 28.1319 99.9736 29.1149 99.7096 31.3299C98.8016 30.1609 100.219 29.6629 98.3946 29.6869C98.4186 29.4429 99.1376 28.9959 99.0536 28.5459C98.9026 27.7349 97.8916 28.4189 97.7376 28.3729C97.7476 28.2609 98.3016 27.5809 98.0646 27.3889C97.8666 27.2289 96.1536 27.8969 97.7376 28.3729C97.6966 28.8379 97.1906 30.0219 97.4126 30.3439C97.5226 30.5039 98.1716 29.6899 98.3946 29.6869C98.3536 30.1019 98.4756 30.6419 98.3946 31.0019C96.8096 30.9269 96.9826 31.6739 98.0666 32.3159C97.8056 32.9719 97.4466 33.3959 97.0806 33.9589C97.0046 33.4309 97.1386 32.8499 97.0766 32.3159C96.5586 32.3279 96.2056 33.6609 95.9266 33.6229C95.5866 33.5759 96.6926 32.1529 95.6076 32.3199C94.9406 32.8959 95.2986 33.5289 94.7796 34.2879C94.7656 33.5239 94.7926 32.7529 94.7776 31.9899L93.7896 34.2859L92.1516 33.3059C94.4086 34.4229 91.0086 35.2339 91.9756 36.9239C92.9226 38.5779 92.7656 35.6439 92.9726 35.5979C93.4166 35.4989 92.6036 37.2759 93.7916 36.9149C93.2366 34.0709 93.8956 35.5809 94.7796 34.2879C94.7966 35.1839 94.4136 36.0179 94.4556 36.9149C94.7856 36.9719 94.8966 36.5369 95.1086 36.2599C94.3366 37.5879 95.6206 38.0679 95.7656 38.2309C96.9786 39.5929 96.8226 37.6559 96.7476 37.5739C96.5986 37.4109 95.8956 38.4149 95.7656 38.2309C95.6906 38.1239 95.8856 34.9219 95.1086 36.2599C95.5116 35.7319 95.7636 34.4389 95.8276 34.3599C96.0786 34.0509 97.0016 34.0809 97.0806 33.9589C97.2566 35.1869 97.4826 35.9729 97.0836 37.2479L97.7286 37.0769C96.2676 38.6489 98.1126 38.5469 98.3946 38.8889C98.3906 39.4369 97.9796 41.1249 99.0466 40.8589C99.8986 39.0849 98.5926 39.1279 98.3946 38.8889C98.4006 38.2319 98.3866 37.5709 98.3976 36.9149C99.2966 37.9079 98.8546 35.1599 100.39 36.3999C100.524 36.5079 101.024 39.4789 101.852 37.2389C102.905 34.3909 99.5836 35.9799 100.369 33.3039L101.68 33.9579C101.007 33.0789 103.288 29.2479 103.978 30.5589C104.049 30.6919 104.166 32.1639 104.324 32.7309C104.404 33.0139 104.952 32.9469 104.959 32.9799C105.16 33.8349 103.364 33.9139 103.331 34.4949C103.267 35.6379 103.98 35.2229 103.982 35.2739C104.026 36.4859 103.956 37.7079 103.982 38.8889C106.144 38.8809 104.18 39.3919 104.306 40.5289C103.715 40.5479 103.991 39.3019 103.982 38.8889C103.63 38.8899 102.403 38.8329 102.34 38.8909C102.097 39.1129 102.579 43.3499 102.667 43.8179C101.387 42.6779 101.438 44.7269 101.353 44.8039C100.993 45.1279 98.4536 46.3679 100.207 47.4289C101.019 47.9219 100.723 45.5649 101.353 44.8039C101.426 44.7149 103.815 44.8399 102.667 43.8179C102.939 45.2639 103.222 46.6149 103.982 47.4329C105.053 48.5869 104.841 47.8129 104.964 46.4469L103.982 47.4329C103.372 46.2989 104.261 44.6859 104.31 44.1469C104.268 44.2289 104.28 45.0939 104.313 45.1309C105.283 46.2339 105.243 42.3149 104.31 44.1469C104.477 42.3289 105.194 42.6869 103.656 41.1909C104.125 40.9449 104.995 42.2019 105.294 41.8439C105.466 41.6389 104.934 40.4609 105.621 40.5339C106.532 43.1899 106.537 43.3369 105.298 46.1159C106.15 46.3319 105.796 45.7549 106.282 45.4609C106.235 45.5789 106.248 46.4119 106.284 46.4449C107.358 47.4269 106.942 43.8309 106.282 45.4609C106.363 45.4119 106.105 44.8169 106.448 44.7989C107.685 44.7339 107.42 45.6459 107.631 45.7569C107.773 45.8329 108.47 45.3269 108.579 45.4589C109.028 45.9989 108.07 49.2209 110.881 48.4209C111.178 49.6059 109.675 48.8779 109.564 49.0799C109.5 49.1949 109.539 51.4119 109.569 51.7049C108.619 51.7259 107.086 51.6269 106.936 52.8509C107.424 53.4489 107.947 52.2159 108.415 52.3489C108.479 52.3669 108.811 52.7039 109.569 53.0199C109.649 53.0529 110.389 54.7909 110.552 53.1819C110.588 52.8329 109.59 53.1079 109.569 53.0199C109.484 52.6759 109.61 52.1149 109.569 51.7049C109.784 51.6999 110.012 51.6889 110.226 51.7049C110.243 52.0049 110.067 52.6109 110.388 52.6889C111.785 50.7399 110.501 51.7259 110.226 51.7049C109.97 47.3599 111.403 50.0119 111.687 50.0469C113.769 50.2989 110.751 48.2289 111.868 47.4359C110.967 46.9989 111.401 48.3129 110.887 48.0879C110.8 48.0499 111.075 47.4039 110.709 47.0939C110.531 46.9429 109.722 47.5459 109.577 47.2729C109.551 47.2249 110.187 46.6549 110.095 46.2979C109.602 44.4029 108.108 45.1629 108.581 43.1629L107.272 44.4729C106.74 42.7189 107.743 41.9209 109.201 42.8739C109.383 42.9929 109.153 44.0639 109.243 44.1459C109.397 44.2859 110.101 43.7049 110.222 43.8179C110.332 43.9219 109.795 44.1909 110.883 45.1329C112.516 46.5469 114.357 43.9859 111.212 44.8039C110.884 41.7069 110.605 44.0359 110.229 43.4889C109.645 42.6359 111.427 41.1999 107.272 42.1749C107.026 41.1539 108.134 41.6879 108.264 40.7049C108.436 39.3959 107.665 39.9959 107.597 39.8749C107.798 39.3739 107.923 38.7769 107.921 38.2319C105.79 39.7459 107.54 39.7719 107.597 39.8749C107.346 40.4969 107.573 40.6149 106.615 40.8599C106.566 39.8539 106.938 39.2189 105.957 39.8759C106.188 38.3679 107.717 37.9139 106.116 36.2619L106.128 38.2339C105.179 39.1259 106.055 36.9569 104.971 38.5569C105.328 37.2479 106.128 35.2719 104.639 34.9449C104.884 34.7059 104.503 33.8129 105.644 34.0899C106.071 34.1939 108.393 37.0039 108.741 36.9139C108.967 36.8549 110.203 35.5469 109.895 35.2759C109.793 35.1859 107.256 36.0119 108.255 34.9509C111.261 31.7579 109.664 39.8369 112.031 35.2759C113.43 41.9599 116.495 32.9369 113.188 37.2439L113.186 34.6179C114.488 34.3779 113.301 35.4559 113.513 35.5989C115.026 36.6169 113.281 33.0939 113.725 32.0619C114.682 29.8379 115.172 32.9899 115.317 32.9709C116.041 32.8799 115.327 31.0079 116.468 31.3279C117.889 33.8809 114.912 35.1139 114.803 37.7169C114.79 38.0279 115.829 37.9219 115.835 38.7219C115.839 39.2939 114.252 40.3029 114.829 41.5159C115.687 41.8579 115.579 40.7529 115.806 40.6899C116.947 40.3719 116.276 44.4029 113.513 43.4939L115.81 44.4709C112.339 44.0519 114.989 45.2329 113.954 47.0419C113.546 47.7549 112.718 47.2699 112.357 47.7609C112.127 48.0729 119.1 50.6429 118.109 46.7759L117.131 47.7599C117.819 44.4409 117.13 46.9779 116.143 45.4669C118.465 43.9199 118.406 47.4469 118.604 47.4309C119.033 47.3949 119.03 46.0659 119.414 45.6079C119.852 45.0859 121.339 46.2829 120.414 44.1499C122.678 45.8159 122.971 44.0989 125.012 43.8219C124.771 44.4719 123.289 44.5329 123.046 45.3029C122.835 45.9689 124.44 45.6969 124.357 46.7719L122.059 46.4489C121.783 47.5939 123.382 47.1969 123.699 47.4369C123.86 47.5579 123.003 50.7519 121.449 49.3479C121.248 49.1669 121.487 48.1619 121.397 48.0889C121.213 47.9409 118.616 48.7799 118.778 49.5759C119.033 50.8269 120.956 49.0329 120.409 51.3759L119.101 50.3929C118.941 51.5709 120.204 52.6289 118.442 52.3639C118.189 53.5969 119.534 52.7839 119.756 53.0219C120.308 53.6149 118.766 54.4049 118.771 54.4929C118.785 54.7549 120.119 56.0219 119.754 56.3039C118.67 57.1399 117.024 54.2619 116.806 59.0999C116.793 59.4029 117.786 59.5469 117.783 59.6019C117.66 62.0949 114.297 60.7809 112.528 62.2189C114.33 59.1149 111.871 59.5189 111.948 61.4579C112.02 63.2499 115.081 63.6859 110.226 63.2069C110.048 61.7449 109.43 63.2919 109.572 63.5379C109.63 63.6369 110.13 63.1979 110.226 63.2069C110.375 64.437 109.84 65.0843 109.572 66.162C111.497 62.6479 111.459 65.5632 111.865 65.1772C111.931 65.1151 111.758 64.36 111.931 64.2741C114.325 63.0839 111.817 64.9311 112.36 66.1632C113.086 64.9022 114.403 63.9739 115.157 65.6753C116.62 64.846 114.714 63.6299 115.157 63.2089C116.101 62.3129 116.401 64.4671 116.476 64.5221C117.249 65.0921 116.849 62.9619 118.481 63.5869C122.342 65.0682 118.513 66.0362 117.456 66.8261C116.616 67.4542 119.892 67.587 116.653 68.4819C116.344 68.5682 116.707 67.7511 116.145 67.81C116.064 67.819 116.325 68.7401 115.985 68.787C114.614 68.9753 113.602 67.369 113.516 67.4792C112.816 68.3792 114.29 70.7921 110.554 69.1261C111.06 69.7272 112.597 70.2132 112.471 71.3241C112.253 73.2581 110.728 70.862 110.206 70.621C108.078 69.6389 106.703 68.6421 104.97 68.4671L106.608 69.446C104.22 70.494 103.899 68.9022 104.964 67.1511C104.076 67.9882 103.992 67.5561 103.005 67.31C103.497 68.0171 104.524 69.9241 103.485 70.4331C102.181 71.0721 102.689 68.387 102.025 67.9389C101.602 67.653 100.901 68.2542 100.573 68.155C100.346 68.0862 100.351 67.4651 100.177 67.4702C97.0196 67.553 99.1626 69.4331 98.7186 70.4343C96.0146 68.9542 95.8186 72.885 95.1136 68.1401C94.4666 69.885 92.5866 71.8221 92.2086 73.644C91.8816 75.2241 93.1946 76.0511 91.7646 78.4311C90.7866 80.0593 89.5666 79.7389 89.2576 80.0511C87.6276 81.6979 84.6936 84.0889 83.5366 85.9772C81.8086 88.7952 75.8386 105.079 76.0586 107.73C76.2736 110.327 80.8206 115.408 83.1986 116.055C84.6126 116.44 87.1226 114.6 85.9016 117.427C85.6646 115.955 83.1406 116.299 83.1136 117.763C83.4656 114.543 79.1106 119.937 80.9756 115.789C79.8366 116.725 78.5316 119.758 78.3486 116.445C78.3446 116.37 79.7976 116.656 78.3526 115.788L78.3486 116.445C77.2956 114.509 75.0666 115.69 76.0436 112.832C73.5846 117.26 71.9934 115.862 73.7436 111.517C73.2945 111.443 73.4664 111.901 73.0902 112.173C73.1144 111.82 73.3293 110.489 72.7664 110.532L72.4375 112.828C72.8863 112.902 72.7144 112.444 73.0902 112.173C72.8785 115.229 72.3754 112.877 71.9465 113.162C71.1125 113.715 71.6414 115.274 70.4664 115.129C69.5605 112.315 71.6836 113.303 71.7734 113.164C71.9242 112.931 72.2594 110.369 72.4336 109.872C73.0484 108.11 72.7914 108.991 73.4133 109.869L73.7446 108.227C72.6902 108.865 73.3453 108.319 72.9266 107.568L72.4375 108.227L71.6094 106.588C72.3043 109.889 70.7445 106.852 70.7945 104.616C70.9223 105.868 69.0383 111.992 71.7754 110.858C70.5625 113.141 70.2945 112.148 69.4805 110.532C66.5926 117.254 69.2586 110.883 69.1516 110.368C68.9094 109.216 67.3144 112.278 67.1754 112.501C67.0992 112.623 66.6254 112.742 66.5266 112.998L67.1754 112.83C66.1203 116.088 66.4734 113.382 65.7016 113.49C65.4023 113.532 61.6984 117.039 61.4184 117.756L60.1074 115.789C61.2094 118.802 59.9344 116.591 59.6203 116.774C59.4844 116.853 57.6535 120.211 58.9594 116.777C57.3273 117.983 56.7633 116.901 58.3023 115.791C57.5336 116.321 55.6613 116.001 55.2293 116.14C54.5574 116.357 54.8965 117.172 54.5223 117.435C54.4434 117.491 54.0926 116.185 52.8703 116.416C52.0133 116.579 52.2875 117.738 51.2644 117.408C50.0223 117.007 50.9305 114.846 51.0754 114.803C51.6926 114.618 51.9695 115.472 52.4902 115.4C53.5734 115.251 61.0105 114.182 61.2605 113.813C61.4633 113.514 60.7914 112.333 60.9105 112.067C61.3383 111.116 62.8555 110.64 62.8965 110.521C62.9785 110.279 63.5836 105.708 63.5742 105.452C63.5184 103.792 61.8062 101.92 61.8992 100.493C61.9945 99.028 63.1125 99.2663 63.2465 98.7882C63.3742 98.3343 62.5742 95.0639 62.5684 93.9471C62.5633 92.8362 63.3492 91.819 63.2633 90.3061C63.1875 88.9382 62.1562 88.5362 62.2324 87.6979C62.3394 86.519 63.3684 87.703 63.5562 87.5253C64.9223 86.228 62.1734 86.2132 61.9285 86.0382C55.7266 81.6081 56.7734 84.755 50.5812 85.2511C48.4715 85.4202 44.7613 84.912 42.7883 84.1432C40.3285 83.185 36.5723 79.3511 35.1973 78.8831C34.3246 78.5862 32.8484 79.9581 32.9973 78.4921C33.0125 78.3511 35.2004 77.162 32.7625 76.719C30.9133 76.3831 30.7113 79.6542 29.8734 79.3069C29.3625 79.0952 30.3684 78.171 29.8715 77.9901C28.5035 77.4921 26.3473 81.4319 25.1723 79.253C24.4465 77.9061 26.2973 75.7772 26.0945 75.6971C25.8125 75.5862 23.4664 75.8682 23.4754 74.8729C23.4805 74.3069 28.4453 73.5202 26.0926 72.0819C25.5293 71.7382 24.9594 73.005 24.5715 73.0421C23.9644 73.0991 23.6055 72.13 23.3062 72.1561C22.8766 72.1932 21.4336 73.5991 20.8402 73.069C20.7355 72.9753 20.9324 71.8229 20.8363 71.7491C20.7863 71.7112 20.0855 72.1671 19.8562 71.9421C19.3023 71.4003 18.9555 69.855 18.8613 69.7831C18.5113 69.512 18.3555 70.8811 17.6465 71.0593C17.2875 71.1491 14.1094 70.5479 14.5973 69.7811C14.6633 69.6772 15.3914 70.0932 15.5926 69.9311C17.4703 68.4081 13.7953 69.396 13.0144 66.9229C12.9242 66.6389 14.7043 65.2221 14.9164 65.1831C14.9945 65.1682 15.3242 66.1362 15.8055 66.505C15.9945 66.6503 17.1875 65.43 17.5574 68.462C18.5402 68.2772 17.0152 66.5401 17.3844 66.5011C17.5016 66.4889 18.7574 67.81 19.5246 67.4843L18.5402 68.4632C19.4223 68.485 23.6086 67.4581 23.7926 67.1432C24.3184 66.246 22.8305 66.5471 22.8105 66.4921C22.6086 65.93 23.8473 64.5741 23.3336 63.8489C23.1644 63.6119 21.2473 63.1259 21.1703 63.2079C21.0246 63.3639 21.4144 66.8651 21.0062 67.469C19.7402 67.0401 19.9523 65.2112 18.8715 66.8202C18.8504 66.0979 19.2703 65.4882 19.5246 64.8503C19.5805 64.7093 21.6184 63.5109 20.1754 62.2229C18.9324 61.1129 20.7902 66.544 17.8855 62.5519C17.6324 63.2949 19.7035 64.535 19.5246 64.8503C19.4652 64.9542 17.3113 65.5889 17.2254 65.505C16.8152 65.1022 18.1773 63.7969 17.8785 63.5379C17.6266 63.3179 16.7734 63.8809 16.7195 63.8559C16.5273 63.7679 16.9254 63.2229 16.8945 63.2099C16.5394 63.0579 15.6324 63.3879 14.9312 63.0339C13.3805 62.2499 15.2133 61.9859 15.2523 61.8929C14.5543 62.5059 15.9992 63.3739 16.5652 62.8759C17.2676 62.2589 15.8094 61.4019 15.2523 61.8929C15.8945 60.3529 14.1152 58.7669 13.6086 60.2489C9.97854 59.0089 12.2992 62.3099 13.9375 61.2319C14.0684 61.1449 13.5176 60.5169 13.6086 60.2489C16.1465 61.1169 13.4043 61.5999 12.9465 62.8749C13.2973 61.4109 10.9254 61.7109 10.9633 60.4099C11.0434 57.7019 15.0934 60.1089 15.2484 59.9209C16.7305 58.1199 12.1926 58.8359 11.9676 57.7789C11.8164 57.0709 13.1324 56.9439 13.2574 56.4379C13.3445 56.0849 12.7305 55.4909 12.6875 54.8779C12.6613 54.4969 13.3766 53.8859 13.2793 53.6819C13.2445 53.6099 12.0586 53.5489 11.9473 53.1589C11.6113 51.9749 13.2574 51.4789 13.2766 51.3689C13.3254 51.0869 12.6863 50.7049 12.6234 50.3909C12.9594 50.3359 13.8336 50.4769 13.9375 50.3869C13.9973 50.3339 13.6184 49.7129 13.6086 49.4049C13.9023 49.1599 14.2152 42.4359 14.2703 47.7619L14.5953 46.1219C15.4863 46.2129 16.4664 48.0769 16.2336 48.7459L15.2562 47.7619L15.5766 50.3879L14.2723 48.9049C14.5184 51.5209 16.1543 50.5819 16.2344 50.7199C16.3445 50.9109 15.2605 54.3619 16.5613 54.9879C15.9555 47.9069 17.6695 52.4629 18.5273 52.3499C18.6086 52.3389 19.6465 51.2439 19.5223 51.0499C19.4684 50.9649 17.8836 50.5209 17.8742 49.8959C17.8723 49.7279 19.2844 47.7969 18.5184 46.7939C18.4164 46.6599 15.3535 46.7779 15.9113 45.2999C16.4273 43.9339 19.0863 45.3249 19.5445 44.9969C19.7473 44.8519 20.8394 41.7759 20.8434 41.1919C21.4742 42.2979 21.6676 41.4339 21.8242 41.5179C21.9414 41.9139 22.2344 44.9709 23.7965 43.8179C22.6965 44.2179 21.8484 44.7249 22.4812 46.1179C22.2074 45.8879 21.7223 45.1249 21.6605 45.1399C20.7113 45.3729 21.4926 46.5289 21.4953 46.7759C17.7105 45.9919 20.7113 48.5409 21.8242 47.7579C21.8664 47.7279 21.5004 47.0839 21.4953 46.7759C22.2062 46.9229 26.5016 49.5029 22.4812 46.1179C23.3195 47.9609 23.1934 44.6909 24.1223 45.1349C24.0426 45.6489 23.9324 48.2309 25.1074 47.7589C25.9824 47.4079 24.0324 44.9329 24.1254 44.8079C24.2355 44.6619 26.5844 44.6319 26.9504 44.1619C27.1152 43.9499 26.4914 42.1039 27.2484 42.1769C27.5043 42.2019 27.6016 46.8309 29.0516 42.5049C27.2883 43.5909 29.0266 38.5239 28.4074 36.4809C28.2824 36.0669 27.2902 36.2799 27.0902 35.7679C26.8516 35.1559 28.3953 34.8569 28.4215 34.7619C28.6035 34.0999 27.9742 32.4099 28.0703 32.3179C28.9684 31.4679 31.3914 34.1919 30.6996 35.6019C31.6863 35.7469 31.5902 34.2109 32.0504 33.6419C32.1766 33.4869 32.9234 34.0679 32.9945 33.9589C33.2855 33.5069 32.3844 32.5249 32.4965 31.9519C32.8383 30.2039 34.6914 29.3129 33.9793 27.0599L33.3223 29.6849C31.7055 29.1609 33.1434 26.0929 33.8195 26.0799C34.1375 26.0739 35.5074 29.7579 35.9605 30.3429L36.9363 28.7039C36.5223 29.5239 38.3234 33.6329 38.9086 33.3009C39.1375 33.1709 38.5723 28.8779 38.5844 28.0439C38.5562 28.0679 38.4484 28.6329 38.7535 28.7029C39.7285 28.9279 39.1965 27.5279 38.5844 28.0439C38.5894 27.7179 38.5574 27.3809 38.5844 27.0579C40.1445 27.5819 39.0344 26.2909 38.2594 25.7459C38.2074 26.1559 38.6125 26.7239 38.5844 27.0579C34.7773 25.7799 39.1375 25.5759 39.2394 25.4139C39.4516 25.0739 37.7234 22.4079 39.2375 21.8019C39.5742 23.1689 39.4246 25.9159 39.7133 27.0859C39.7934 27.4089 42.5965 29.7959 40.5562 29.6869C40.4426 29.4179 40.6812 28.5369 40.5543 28.3699C40.0535 27.7119 39.1605 29.6129 40.5562 29.6869C42.0184 33.1429 41.5574 28.4409 42.8535 29.3599C42.9562 28.7799 42.5125 28.2709 42.5285 27.7149C42.5293 27.6809 43.2394 27.8009 43.1894 27.5579C42.9586 26.4459 41.3465 25.7459 41.8703 27.3869C40.3594 26.6309 41.0824 26.7919 40.2293 24.7599C41.3715 24.0889 41.4574 26.4579 41.8664 26.0719C42.2203 25.7379 40.8613 24.4949 42.1973 24.7549L42.8543 26.0699L43.1812 24.4309C42.9465 25.7289 43.7434 26.9239 43.8426 28.0439C42.0035 28.9419 43.5863 29.4169 43.8426 29.6869C43.8746 30.6059 43.8965 32.4269 43.8426 33.3019C43.6562 33.3039 43.2652 32.8399 43.1894 32.9739C42.7562 33.7359 43.6555 36.3129 43.8426 33.3019C44.8934 33.2919 45.2535 33.2799 45.8144 31.6589C45.8785 31.4729 46.0644 31.2789 46.1434 31.0019C49.2836 32.8649 46.1953 23.3539 49.0965 30.0149C49.2184 28.8329 49.7473 27.9729 49.7574 26.7299C49.5043 26.8429 48.8652 27.4989 48.7754 27.3859C48.5336 27.0809 49.5402 26.0469 48.7773 26.0759L47.7902 27.3849C48.0586 24.1549 46.9445 25.4029 47.1246 27.7149L45.6445 26.4039C45.0953 26.1029 45.1914 28.8689 44.5016 27.0559C44.0344 25.8249 46.3805 26.1539 46.4734 26.0699C46.6754 25.8889 46.0855 24.8159 46.1434 24.7609C46.3453 24.5699 48.1894 25.8979 48.4484 23.6109C48.6254 22.0539 47.3375 24.9329 46.8055 24.4269C45.8984 23.5629 46.8125 18.9819 48.1363 20.2989C49.7926 21.9449 48.2473 25.2329 48.4473 25.4149C48.8355 25.7659 49.7836 23.6179 49.7574 26.7299C50.3215 26.4759 51.3664 25.6329 51.5644 25.7449C51.9785 25.9769 52.2004 27.9339 53.3676 27.2409C55.4902 25.9799 53.1125 25.8549 53.0453 25.7429C52.3043 24.5059 53.9734 24.8349 54.0312 24.7549C54.1305 24.6169 53.0875 22.1899 55.6734 25.0859C55.3894 24.7919 53.6953 25.0559 54.3605 26.0669C54.8535 26.8169 56.2836 25.7199 55.6734 25.0859C57.4773 27.1069 55.7644 26.6729 55.1875 27.7229C54.3535 29.2419 55.5934 28.3399 55.6734 28.3729C54.9215 30.5559 56.1375 31.0029 57.9734 30.3399C57.8812 29.5129 56.8664 29.9849 56.8254 29.9399C55.7883 28.8279 57.5453 29.1349 55.6734 28.3729C56.7664 25.1969 58.6754 30.9499 57.9773 26.0749L59.2836 27.7129C59.5215 26.9679 58.9426 25.9929 58.9594 25.4149C59.8586 25.6409 61.9273 26.7429 61.2535 24.5869C61.1074 24.1199 60.1184 24.9319 59.9484 24.7569C59.8144 24.6179 61.3465 20.2569 59.2883 23.1149C59.6562 22.4779 59.3125 20.3239 60.2695 19.8299C61.1824 23.0459 61.0586 26.7119 64.8723 23.4439C64.5426 25.4249 66.3355 23.7559 67.1703 26.3989C68.1625 24.8489 66.5023 23.4459 66.5152 23.2749C66.5875 22.3079 67.4344 22.9869 67.5035 22.7849C67.5684 22.5959 66.5555 19.5869 66.8484 18.8449C68.7004 19.1259 67.8965 22.0899 69.7992 19.8309C70.4605 21.3299 69.5215 21.5229 69.1562 22.9549C72.5676 20.8439 69.0934 27.0069 69.8004 28.6989C68.2453 28.2279 70.0855 25.8899 69.8016 25.7449C69.6805 25.6839 67.6695 26.4009 67.5926 26.4879C66.3695 27.8559 69.0984 29.4019 68.1562 30.9999L67.1773 29.6879C67.3625 30.4389 67.1453 30.7119 66.8465 31.3299C67.4883 30.6889 65.8652 29.6859 65.5344 30.0179C65.2023 30.3499 66.2043 31.9719 66.8465 31.3299C66.5094 32.0279 65.9625 32.3949 66.1855 33.3019C63.9824 29.5639 64.9863 32.8029 64.8715 32.9719C64.8043 33.0709 63.9402 32.2609 63.6113 33.1939C63.5445 33.3849 63.4324 37.0879 63.5625 37.2439C63.8473 37.5859 64.5633 36.3059 65.2035 35.9309C65.2355 36.3169 65.0273 37.0379 65.3652 37.2439C65.9394 36.8209 65.8734 36.2139 65.8605 35.6019C65.9062 35.5829 67.0676 35.3949 66.8355 35.7489C66.5863 36.3879 65.8273 38.7709 65.2035 38.8889C65.1223 38.6419 65.2785 38.1829 65.1992 37.9019C65.1855 37.8519 64.5773 38.5099 64.2215 37.5759C64.1812 38.6429 63.9266 39.1299 65.2035 38.8889C65.3902 39.4609 64.8266 40.6309 65.7023 41.1849C66.7445 41.2379 65.6203 39.8669 65.8625 39.2179C65.8863 39.1509 66.4766 39.2739 66.5176 39.2169C66.6644 39.8299 66.4144 40.6139 67.5023 40.5289L67.4992 38.2319C67.1723 38.4499 66.7375 38.9159 66.5176 39.2169C65.9473 36.8259 67.1855 38.1289 67.5023 37.5689C67.7723 37.0919 66.6953 36.4249 66.8473 36.2629C66.9894 36.1119 69.4664 37.2349 66.8484 33.9609L69.1465 35.9269C68.6773 34.9789 68.1375 33.1959 68.5445 32.2059C68.9664 31.1779 69.8965 32.1549 70.1305 31.9919C70.1863 31.9529 70.0215 31.1159 70.4613 30.6729C70.2644 31.0609 71.0035 32.3229 70.7863 32.6439C70.7055 32.7639 69.9473 32.1789 69.8074 32.3169C69.5113 32.6079 70.4035 35.0589 68.8223 32.3179C68.5062 34.4219 70.5055 35.6409 71.1144 33.3019C71.6773 34.8289 70.5754 36.8279 69.4793 34.9479C69.6812 36.2649 70.7355 35.9009 69.4793 36.7459C73.8496 38.1239 71.8305 35.9839 72.1055 35.6049C72.6973 34.7929 73.4902 36.3479 73.0926 37.2439L74.0736 36.5909C72.4223 39.2169 75.5526 38.8369 75.7156 38.3919C76.0666 37.4289 75.0166 37.6369 75.0556 37.4089C75.2176 36.4549 75.7036 37.3849 75.7166 37.2479C75.8206 36.1719 75.6446 35.0419 75.7236 33.9609C76.5086 34.4479 76.2156 40.3129 77.6886 37.2399C77.8416 36.9189 76.7226 37.1169 77.0646 35.4809C77.2556 34.5659 78.3386 32.6339 78.3406 32.4699C78.3616 31.1869 76.2856 32.8609 76.0526 32.9709C76.3416 29.7519 75.4136 33.0849 74.4046 31.0019C74.2726 30.7279 74.3466 29.5069 74.0796 29.0329C74.5846 29.3409 76.0416 31.6659 76.7016 30.1759C77.3086 28.8059 75.7756 29.7649 75.7226 29.6889C74.8676 28.4549 76.0326 26.6909 74.0806 28.6989L73.4215 27.3889C73.8236 30.7229 73.3426 27.5069 72.6016 27.7119C72.4766 27.7469 71.7094 29.7609 70.7934 29.0299C70.6473 28.9119 72.3625 25.0889 70.4652 27.7129C70.5402 23.6849 72.7684 29.7909 73.0926 25.7429L74.0726 26.3989C74.3746 24.0749 73.5266 25.7349 72.4363 25.0919L74.7316 24.4249C72.0504 22.7379 74.3296 23.2289 74.4096 23.1119C74.4456 23.0599 74.0316 22.5169 74.0756 22.4619C74.1426 22.3799 74.8806 22.5859 75.0266 22.4349C75.1736 22.2839 74.8796 21.0769 76.7016 20.4879C76.9926 21.1429 75.2676 22.6819 75.3916 22.7819C75.6356 22.9809 76.4386 22.4259 76.6406 22.5489C78.8876 23.9219 76.1456 23.6799 76.0466 23.7749C75.9156 23.8999 76.1926 26.7349 75.7216 27.3849C76.8236 27.5089 76.9966 25.1839 77.0386 27.3849C78.0336 24.9239 77.9526 28.6889 79.3296 25.7469C79.9926 33.8339 79.9946 24.2559 81.1446 24.4229C82.2666 24.5859 82.9226 27.1849 82.2956 28.0409C85.8366 25.8259 83.8836 28.0349 83.9346 28.2049C84.2986 29.4009 86.3206 30.9469 82.9656 31.5069C79.8446 32.0279 82.7966 30.3329 80.6506 28.7039C81.7466 30.0279 80.0596 36.2899 80.3246 36.5879C80.4486 36.7279 82.9396 34.4599 82.2876 37.5719C79.4956 34.0469 80.1426 40.6359 81.9606 39.5429C82.0366 39.4969 81.9206 38.9819 82.9746 38.0789C83.2326 37.8579 83.8886 38.3069 83.9316 38.2309C84.1396 37.8659 83.4136 36.8159 83.6096 36.5889C83.7066 36.4769 84.4736 37.0639 84.5896 36.9159C84.7736 36.6789 83.6346 32.5069 87.8786 34.2879C87.9586 34.9749 87.8526 35.6709 88.8626 35.5999C89.0846 33.5919 88.5736 34.5799 87.8786 34.2879C87.8116 33.7059 88.2816 32.9509 88.2056 32.3179L87.2246 32.9699C87.0936 30.8379 89.0346 31.7339 88.5386 33.6289C89.4606 32.6969 90.5366 34.0349 91.5636 33.2929C92.4966 32.6179 93.4296 26.3399 91.4976 30.6709C93.0066 28.7069 90.4536 26.6339 90.5126 26.3929C90.7436 25.4389 93.8136 25.9359 92.4736 23.4449C91.1806 23.1819 92.1026 25.0699 91.8236 25.4169C91.7386 25.5229 90.6266 25.3089 90.5076 25.4149C91.5156 23.3039 90.1176 24.8469 89.5216 25.7439C89.4896 25.7929 88.8466 25.7419 88.5546 26.2689C88.3836 26.5769 88.9936 27.4979 88.8646 27.7149Z" fill="#40422F"/>
<path d="M49.1016 36.9176C49.1152 36.8256 50.1293 35.7336 50.4125 35.6056C50.1742 36.2076 49.8082 38.0925 51.0734 37.9035C50.9594 42.0285 49.8184 36.9046 49.1016 36.9176Z" fill="#40422F"/>
<path d="M51.402 35.6023C51.3559 36.6693 52.5547 37.6813 51.0727 37.9023C51.1129 36.4793 50.3567 35.5703 51.402 35.6023Z" fill="#40422F"/>
<path d="M110.883 45.1323C110.849 44.8173 111.003 44.8583 111.212 44.8033C111.237 45.0483 111.128 45.1613 110.883 45.1323Z" fill="#40422F"/>
<path d="M58.96 23.4434C59.0111 23.2914 59.2182 23.2134 59.2889 23.1144C59.2061 23.2574 59.0889 23.3474 58.96 23.4434Z" fill="#40422F"/>
<path d="M23.792 42.5034C24.3478 42.3364 23.8197 40.0754 23.142 40.8634C22.9307 41.1084 23.2768 42.6584 23.792 42.5034ZM25.1088 39.5444C25.1467 39.5124 25.2338 38.5654 24.9486 38.5624C24.3127 38.5564 24.31 40.2214 25.1088 39.5444ZM24.1228 38.8874C24.2748 37.8694 23.81 37.4254 22.8127 37.5774L24.1228 38.8874ZM21.8248 41.5184C21.5326 40.5284 22.367 39.7904 20.8408 38.8934C22.0236 37.9604 23.001 41.4364 23.4678 39.8704C23.5478 39.6004 20.0307 35.1044 24.4049 36.9884C24.5627 37.0564 24.41 37.8684 24.4568 37.8984C25.6217 38.6234 25.6549 36.6664 25.785 36.5974C28.6217 35.0814 26.3146 42.3574 24.4627 40.3634C24.151 41.2034 25.242 43.6984 25.1107 43.8144C24.9807 43.9304 24.0857 43.7134 23.7967 43.8184C24.2877 43.4564 22.4197 41.8364 21.8248 41.5184Z" fill="#40422F"/>
<path d="M39.2428 41.845C39.2729 41.947 40.7389 42.131 39.8998 43.488C39.8826 43.517 39.26 43.517 39.2428 43.488C39.0986 43.247 39.3869 42.09 39.2428 41.845Z" fill="#40422F"/>
<path d="M99.7104 31.3297C100.273 31.2907 100.991 30.3817 101.357 30.8367L99.7054 32.9707C99.1624 31.9497 98.3554 32.4867 98.0674 32.3157C98.2824 31.7727 98.2824 31.5047 98.3954 31.0017C98.5894 31.0107 98.0774 31.4457 99.7104 31.3297Z" fill="#40422F"/>
<path d="M58.9597 23.4427C58.8437 23.7867 58.9749 24.8947 58.9597 25.4147C58.7358 25.3587 57.9519 25.8647 57.6487 25.7427C57.5315 25.6957 56.3327 23.7357 56.3257 23.6107C56.2538 22.3407 57.7968 24.3087 58.9597 23.4427Z" fill="#40422F"/>
<path d="M109.075 29.0297V29.3587L109.239 29.1937L109.075 29.0297ZM110.882 27.7187C111.261 28.7097 109.9 28.3067 109.895 28.3757C109.813 29.4247 111.554 32.1937 109.572 32.9727L109.893 30.6697L109.243 31.0027L109.077 30.0097L108.256 30.6707C108.024 28.3177 108.252 26.9717 110.882 27.7187Z" fill="#40422F"/>
<path d="M119.428 58.275C124.005 55.618 119.722 60.275 119.419 60.246C117.486 60.062 118.411 58.461 118.774 57.293" fill="#40422F"/>
<path d="M57.6369 18.8526C58.2037 18.9186 58.158 21.5506 57.9721 21.7996C57.8971 21.8996 55.76 20.9016 55.674 20.8106C54.5709 19.6346 57.2408 20.5576 57.3131 20.4866C57.7158 20.0866 56.2029 18.6856 57.6369 18.8526Z" fill="#40422F"/>
<path d="M86.2058 29.3897C86.5868 29.7077 86.5248 32.3187 87.8748 29.6897C88.2968 32.4317 86.9928 30.7807 86.5438 31.1367C85.6768 31.8247 86.6518 33.2177 84.9238 31.3357C86.2658 31.0907 86.2708 30.0727 85.2518 29.3637C85.5338 29.3957 86.0578 29.2657 86.2058 29.3897Z" fill="#40422F"/>
<path d="M9.99397 47.4289C9.88187 47.5359 7.24597 46.3169 7.36317 45.7909C7.99207 46.3899 8.95027 45.0649 9.00417 45.1349C9.07917 45.2349 10.0843 47.3429 9.99397 47.4289Z" fill="#40422F"/>
<path d="M18.1168 37.045C18.1527 37.044 18.1938 37.504 18.3949 37.585C18.5551 37.649 19.3641 37.101 19.5219 37.245C21.852 39.392 14.0008 37.206 18.1168 37.045Z" fill="#40422F"/>
<path d="M19.8509 42.5054C20.072 42.6554 18.2517 46.0263 17.8829 43.3223C17.8688 43.2173 19.6446 42.3664 19.8509 42.5054Z" fill="#40422F"/>
<path d="M69.4686 29.0394C69.5416 29.0444 70.2975 30.2224 70.1315 30.3424C69.3377 30.9174 67.9904 28.9364 69.4686 29.0394Z" fill="#40422F"/>
<path d="M41.2115 22.7886C41.8404 23.2926 39.9826 23.8336 39.9037 23.7726C39.2186 23.2456 40.5486 22.2586 41.2115 22.7886Z" fill="#40422F"/>
<path d="M20.8372 39.5474C20.9149 39.6204 20.7962 40.5424 20.8353 40.8574C18.572 39.8784 20.404 39.1414 20.8372 39.5474Z" fill="#40422F"/>
<path d="M17.8774 36.5877C17.5345 36.9957 16.8493 35.2107 17.7196 35.2767C17.9993 35.2957 17.9204 36.5367 17.8774 36.5877Z" fill="#40422F"/>
<path d="M25.4399 35.2776C25.4809 35.3556 25.1231 36.9696 24.7867 36.9146C24.5277 36.3166 24.9598 34.3766 25.4399 35.2776Z" fill="#40422F"/>
<path d="M23.1362 35.2715C22.7191 35.2505 21.789 33.8775 22.1581 33.6305C22.4433 33.4415 23.2792 34.8615 23.1362 35.2715Z" fill="#40422F"/>
<path d="M68.1595 114.476C68.6743 115.087 67.2821 115.619 67.5024 114.642C67.5704 114.338 68.1294 114.441 68.1595 114.476Z" fill="#40422F"/>
<path d="M71.7708 116.114C71.1747 116.25 71.6946 114.338 72.1009 114.476C72.154 115.051 71.8727 115.567 71.7708 116.114Z" fill="#40422F"/>
<path d="M68.8181 28.3697C68.2884 29.0027 67.7153 27.3667 68.4903 27.8787C68.6251 28.0167 68.9251 28.2417 68.8181 28.3697Z" fill="#40422F"/>
<path d="M18.8657 41.8515C19.4528 42.2365 17.2997 42.2785 17.8837 41.8515C17.9286 41.8185 18.8068 41.8125 18.8657 41.8515Z" fill="#40422F"/>
<path d="M37.6045 24.0996H37.9244V23.4469H37.6045V24.0996Z" fill="#40422F"/>
<path d="M19.5293 42.1738H19.8492V41.5207H19.5293V42.1738Z" fill="#40422F"/>
<path d="M31.5156 32.652L31.8523 32.973V33.293L31.6836 33.141L31.5156 32.652Z" fill="#40422F"/>
<path d="M19.3604 38.8897L19.5244 39.0537L19.3604 39.2188" fill="#40422F"/>
<path d="M69.9688 114.802L70.1328 114.966L69.9688 115.131" fill="#40422F"/>
<path d="M58.6283 75.3714C58.7154 76.0433 56.8885 75.5304 56.9904 75.0413C57.5443 75.0995 58.0635 75.3725 58.6283 75.3714Z" fill="#40422F"/>
<path d="M62.248 81.9355H62.9012V81.6152H62.248V81.9355Z" fill="#40422F"/>
<path d="M64.3818 78.6535L64.5459 78.8176L64.3818 78.9824" fill="#40422F"/>
<path d="M102.832 41.5187L102.995 41.6827L102.832 41.8477" fill="#40422F"/>
<path d="M72.76 31.6616C73.6808 32.1946 71.9131 32.3947 71.4561 32.1567C71.683 31.7367 72.3998 31.4536 72.76 31.6616Z" fill="#40422F"/>
<path d="M75.0607 33.9624C75.5747 34.5734 74.1837 35.1054 74.4037 34.1284C74.4707 33.8244 75.0297 33.9274 75.0607 33.9624Z" fill="#40422F"/>
<path d="M71.4433 36.585C71.0585 37.172 71.0163 35.02 71.4433 35.604C71.4765 35.649 71.4823 36.526 71.4433 36.585Z" fill="#40422F"/>
<path d="M74.0791 35.5996H74.7322V35.2797H74.0791V35.5996Z" fill="#40422F"/>
<path d="M74.8945 35.9391L75.2315 36.2611V36.5801L75.0625 36.4281L74.8945 35.9391Z" fill="#40422F"/>
<path d="M54.0285 34.9488C54.1875 35.8438 53.1578 35.5008 52.7207 36.2578C52.5688 35.2618 53.0078 34.7938 54.0285 34.9488Z" fill="#40422F"/>
<path d="M33.6529 36.9188C33.6271 37.4538 33.7002 38.7688 33.001 38.8848C33.4322 38.3658 32.424 36.6638 33.6529 36.9188Z" fill="#40422F"/>
<path d="M34.6369 38.8867C33.9451 38.8537 34.4541 37.4197 34.317 36.9187C35.0092 36.9517 34.5002 38.3857 34.6369 38.8867Z" fill="#40422F"/>
<path d="M34.3105 35.6045C34.5465 36.1725 34.3484 36.8635 33.6555 36.5845C33.5805 36.5525 33.8984 34.6135 34.3105 35.6045Z" fill="#40422F"/>
<path d="M38.5831 37.2475C39.098 37.8585 37.7062 38.3905 37.9261 37.4135C37.9941 37.1095 38.553 37.2125 38.5831 37.2475Z" fill="#40422F"/>
<path d="M44.665 31.9874L44.829 32.1514L44.665 32.3164" fill="#40422F"/>
</g>
</g>
<defs>
<clipPath id="clip0_747_968">
<rect width="132" height="136" fill="white"/>
</clipPath>
</defs>
</svg>
