<svg viewBox="0 0 185.3 191.6" xmlns="http://www.w3.org/2000/svg"><g fill="#404231"><path d="m98.9 137.4h-.3c.6-2.6.6-.8.3 0z"/><path d="m116.7 53.2c-.5.6 1.2 4.2.7 4.9l-.7-1.3c-1.4-.2 0 2.5-1.6.8-.4-.4 0-1.7.3-2.4s.5-1.7.7-2 .6 0 .7 0zm0 2.3h-1c-.9.9 1.9.9 1 0z"/><path d="m93.7 126.9-.4-.7h.4z"/><path d="m91 115v-.3s.7.2 0 .3z"/><path d="m69 55.2c-.4 0-.5 0-.7-.3z"/><path d="m89.1 110.8s-.7-.9.2-.7c.3 0 .2.6.2.7z"/><path d="m98.3 138.4s0-.6.3-1c0 .5 0 .5-.3 1z"/><path d="m77.6 61.8c-.3 0-.6 0-.7-.3.3 0 .7 0 .7.3z"/><path d="m70.3 55.5c1.5-.8 1.4.4 2.3 1.3.4-2.1 1-.6 1 .7-.8.2-.5-.2-1-.7v1.6c-.6-.4-.4-1.3-1-1.3-.7.5 1 1.8.7 2-1.6.8-.7-1.6-1-2s-.9 0-1 0zm1.4.4c-.3-.2-.9.2-1 .7.6.3 1.5-.3 1-.7z"/><path d="m61.8 61.8c.2.2-.2 2.1 1.6 2 0 1 .7 1.9.7 2s-1.8.2-.7 2c-.9.4-.4-1.1-1.3-.7v-1c1.3.4.6-2.5 0-1.6s0 1.2 0 1.6c-.4 0 0-3.5-1.3-4.3z"/><path d="m116.7 53.2s.2-.2.3-.3c0 .3-.3.3-.3.3z"/><path d="m82.2 101.2c0 .2 1.2.7 1 1s-.9-.3-1-.3z"/><path d="m82.2 100.6v.7c-.3-.4-.6-.9-.7-1 .2 0 .5.3.7.3z"/><path d="m82.2 99.9h1s-.4.6-.3.7h-.7z"/><path d="m81.5 100.2s-.2-.2-.3-.3c0 0 .2.2.3.3z"/><path d="m79.5 99.6c.2.5.2 1.1.6 1.5 0 .2-.5 0-.6-.2s-.3-.2-.3-.3-.3-.6-.3-.7v-.7s.5.3.7.3z"/><path d="m77.6 61.8s1.3-1.3 1.6-1c-1.1.7-.3 2.1-.3 3.3-.8 0 .3-.9-1-1 0-.5-.3-1.2-.3-1.3z"/><path d="m97.9 98.9c-.6 1.7-.5.2-.7 0z"/><path d="m97.3 98.9s-.7.2-.7-.2.5-.6.7-.8z"/><path d="m79.5 88.4s.2 1.3.3 1.6c-1.1 0-.9-.6-1-1.3s.2 0 .3-.3z"/><path d="m92.4 63.1c-.2 0-.5.2-.7.3v-1.6c.5 0 .6 1.1.7 1.3z"/><path d="m93.7 140.3v-.3c.7.2 0 .3 0 .3z"/><path d="m97 58.2c.8-.8 1.1-.8.7-1.3 1.6-.5.8 1.2 1 1.3s1.9 0 2.3.3c2.1 1.9-3.8-.6-3.9-.3z"/><path d="m131.1 62.4c-.2.2 0 .5-.7.3 0-.4.4-.4.7-.3z"/><path d="m39.1 77.9c-.5 0-1.8 0-2 0s.2 1.3-.2 1.3-1.2-3.3-3.1-2c-.3-1.3 1.3-.4 1.6-.7s-.8-1.2-.7-1.3c.2-.2 4.3.7 3-2.6 1.3-.3.8.5 1 .7-1-1.1-.3 1.7-.3 2h-1.3c-.2.2 1.2 2.9 1.3 0 .3 0 .7.8 1 .5-.5-.4-.5-2.3-.6-2.5 1.1 1 1.3 1.9 1.3 3.6-.7.6-1.4-1.1-1 1z"/><path d="m115.4 55.2s-1.3-.3-1.6 0c-.3-1.1.9-.5 1-.7.2-.4-.7-11 1.6-3.3 1.1-2.3 3.6.6 2.8-1.9s-1.1-.6-1.2-1.1.6 0 .7-.2-.7-1.3-.2-2.1 3 2.5 3.1 2.8c.2.6-.6.5-.6.6 0 .7-.7 9.8.9 7.7.2-.2-.9-5.9 2.3-3.3 0-4.9 3.7-.2 1.3 1v-2.6c-1.2.2-.4 3.1.2 3.3 1.2.3 1-2.4 2.1-2.3-1.1 2.4-1.4 3.4-1.6 5.6-.9-1.2.5-1.7-1.3-1.6 0-.2.7-.7.7-1.1-.2-.8-1.2 0-1.3-.2 0 0 .6-.8.3-1s-1.9.5-.3 1c0 .5-.5 1.6-.3 2s.8-.7 1-.7v1.3c-1.6 0-1.4.7-.3 1.3-.3.7-.6 1.1-1 1.6v-1.6c-.5 0-.9 1.3-1.2 1.3s.8-1.5-.3-1.3c-.7.6-.3 1.2-.8 2v-2.3l-1 2.3-1.6-1c2.3 1.1-1.1 1.9-.2 3.6s.8-1.3 1-1.3c.4 0-.4 1.7.8 1.3-.6-2.8 0-1.3 1-2.6 0 .9-.4 1.7-.3 2.6.3 0 .4-.4.7-.7-.8 1.3.5 1.8.7 2 1.2 1.4 1.1-.6 1-.7 0-.2-.9.8-1 .7s0-3.3-.7-2c.4-.5.7-1.8.7-1.9.3-.3 1.2-.3 1.3-.4.2 1.2.4 2 0 3.3l.6-.2c-1.5 1.6.4 1.5.7 1.8 0 .5-.4 2.2.7 2 .9-1.8-.5-1.7-.7-2v-2c.9 1 .5-1.8 2-.5 0 0 .6 3.1 1.5.8 1.1-2.8-2.3-1.3-1.5-3.9l1.3.7c-.7-.9 1.6-4.7 2.3-3.4 0 0 .2 1.6.3 2.2s.6.2.6.2c.2.9-1.6.9-1.6 1.5 0 1.1.6.7.7.8v3.6c2.2 0 .2.5.3 1.6-.6 0-.3-1.2-.3-1.6h-1.6c-.2.2.2 4.5.3 4.9-1.3-1.1-1.2.9-1.3 1-.4.3-2.9 1.6-1.1 2.6.8.5.5-1.9 1.1-2.6s2.5 0 1.3-1c.3 1.4.6 2.8 1.3 3.6s.9.4 1-1l-1 1c-.6-1.1.3-2.7.3-3.3v1c1 1.1.9-2.8 0-1 .2-1.8.9-1.5-.7-3 .5-.2 1.3 1 1.6.7s-.4-1.4.3-1.3c.9 2.7.9 2.8-.3 5.6.9.2.5-.4 1-.7v1c1.1 1 .7-2.6 0-1 0 0-.2-.6.2-.7 1.2 0 1 .8 1.2 1s.8-.4.9-.3c.4.5-.5 3.8 2.3 3 .3 1.2-1.2.5-1.3.7s0 2.3 0 2.6c-.9 0-2.5 0-2.6 1.1.5.6 1-.6 1.5-.5s.4.4 1.2.7.8 1.8 1 .2-1 0-1-.2v-1.3h.7c0 .3-.2.9.2 1 1.4-1.9.1-1-.2-1-.3-4.3 1.2-1.7 1.5-1.7 2.1.3-.9-1.8.2-2.6-.9-.4-.5.9-1 .7s.2-.7-.2-1-1 .5-1.1.2.6-.6.5-1c-.5-1.9-2-1.1-1.5-3.1l-1.3 1.3c-.5-1.8.5-2.6 1.9-1.6.2 0 0 1.2 0 1.3.2 0 .9-.4 1-.3s-.4.4.7 1.3c1.6 1.4 3.5-1.1.3-.3-.3-3.1-.6-.8-1-1.3-.6-.9 1.2-2.3-3-1.3-.2-1 .9-.5 1-1.5s-.6-.7-.7-.8c.2-.5.3-1.1.3-1.6-2.1 1.5-.4 1.5-.3 1.6-.3.6 0 .7-1 1 0-1 .3-1.6-.7-1 .2-1.5 1.8-2 .2-3.6v2c-.9.9 0-1.3-1.1.3.4-1.3 1.2-3.3-.3-3.6.2-.2-.1-1.1 1-.9.4 0 2.7 2.9 3.1 2.8s1.5-1.4 1.2-1.6-2.6.7-1.6-.3c3-3.2 1.4 4.9 3.8.3 1.4 6.7 4.5-2.3 1.2 2v-2.6c1.3-.2.1.8.3 1 1.5 1-.2-2.5.2-3.5 1-2.2 1.4.9 1.6.9.7 0 0-2 1.2-1.6 1.4 2.6-1.6 3.8-1.7 6.4 0 2.6 1 .2 1 1s-1.6 1.6-1 2.8c.9.3.8-.8 1-.8 1.1-.3.5 3.7-2.3 2.8l2.3 1c-3.5-.4-.8.8-1.9 2.6-.4.7-1.2.2-1.6.7s6.7 2.9 5.8-1l-1 1c.7-3.3 0-.8-1-2.3 2.3-1.5 2.3 2 2.5 2 .4 0 .4-1.4.8-1.8s1.9.7 1-1.5c2.3 1.7 2.6 0 4.6-.3-.2.6-1.7.7-2 1.5s1.4.4 1.3 1.5l-2.3-.3c-.3 1.1 1.3.7 1.6 1s-.7 3.3-2.3 1.9 0-1.2 0-1.3c-.2 0-2.8.7-2.6 1.5.3 1.3 2.2-.5 1.6 1.8l-1.3-1c-.2 1.2 1.1 2.2-.7 2-.3 1.2 1.1.4 1.3.7.6.6-1 1.4-1 1.5 0 .3 1.3 1.5 1 1.8-1.1.8-2.7-2-2.9 2.8 0 .3 1 .4 1 .5-.1 2.5-3.5 1.2-5.3 2.6 1.8-3.1-.7-2.7-.6-.8 0 1.8 3.1 2.2-1.7 1.7-.2-1.5-.8 0-.7.3s.6-.3.7-.3c.1 1.2-.4 1.9-.7 3 1.9-3.5 1.9-.6 2.3-1s-.1-.8 0-.9c2.4-1.2-.1.7.4 1.9.7-1.3 2-2.2 2.8-.5 1.5-.8-.4-2 0-2.5.9-.9 1.2 1.3 1.3 1.3.8.6.4-1.6 2-.9 3.9 1.5 0 2.4-1 3.2-.8.6 2.4.8-.8 1.7-.3 0 0-.7-.5-.7s.2.9-.2 1c-1.4.2-2.4-1.4-2.5-1.3-.7.9.8 3.3-3 1.6.5.6 2 1.1 1.9 2.2-.2 1.9-1.7-.5-2.3-.7-2.1-1-3.5-2-5.2-2.2l1.6 1c-2.4 1-2.7-.5-1.6-2.3-.9.8-1 .4-2 .2.5.7 1.5 2.6.5 3.1-1.3.6-.8-2-1.5-2.5-.4-.3-1.1.3-1.5.2s-.2-.7-.4-.7c-3.2 0-1 2-1.5 3-2.7-1.5-2.9 2.5-3.6-2.3-.6 1.7-2.5 3.7-2.9 5.5s1 2.4-.4 4.8c-1 1.6-2.2 1.3-2.5 1.6-1.6 1.6-4.6 4-5.7 5.9-1.7 2.8-7.7 19.1-7.5 21.8.2 2.6 4.8 7.7 7.1 8.3 1.4.4 3.9-1.5 2.7 1.4-.2-1.5-2.8-1.1-2.8.3.4-3.2-4 2.2-2.1-2-1.1.9-2.4 4-2.6.7 0 0 1.4.2 0-.7v.7c-1.1-1.9-3.3-.8-2.3-3.6-2.5 4.4-4.1 3-2.3-1.3-.4 0-.3.4-.7.7 0-.4.2-1.7-.3-1.6l-.3 2.3c.4 0 .3-.4.7-.7-.2 3.1-.7.7-1.1 1-.8.6-.3 2.1-1.5 2-.9-2.8 1.2-1.8 1.3-2 .2-.2.5-2.8.7-3.3.6-1.8.4-.9 1 0l.3-1.6c-1.1.6-.4 0-.8-.7l-.5.7-.8-1.6c.7 3.3-.9.3-.8-2 0 1.3-1.8 7.4 1 6.2-1.2 2.3-1.5 1.3-2.3-.3-2.9 6.7-.2.4-.3-.2-.2-1.2-1.8 1.9-2 2.1s-.5.2-.6.5l.6-.2c-1.1 3.3-.7.6-1.5.7s-4 3.5-4.3 4.3l-1.3-2c1.1 3-.2.8-.5 1s-2 3.4-.7 0c-1.6 1.2-2.2.1-.7-1-.8.5-2.6.2-3.1.3-.7.2-.3 1-.7 1.3s-.4-1.3-1.7-1-.6 1.3-1.6 1c-1.2-.4-.3-2.6-.2-2.6.6-.2.9.7 1.4.6 1.1-.1 8.5-1.2 8.8-1.6s-.5-1.5-.3-1.7c.4-1 1.9-1.4 2-1.5 0-.2.7-4.8.7-5.1 0-1.7-1.8-3.5-1.7-5 0-1.5 1.2-1.2 1.3-1.7s-.7-3.7-.7-4.8.8-2.1.7-3.6c0-1.4-1.1-1.8-1-2.6 0-1.2 1.1 0 1.3-.2 1.4-1.3-1.4-1.3-1.6-1.5-6.2-4.4-5.2-1.3-11.3-.8-2.1.2-5.8-.3-7.8-1.1s-6.2-4.8-7.6-5.3c-.9-.3-2.3 1.1-2.2-.4s2.2-1.3-.2-1.8-2.1 2.9-2.9 2.6.5-1.1 0-1.3c-1.4-.5-3.5 3.4-4.7 1.3-.7-1.3 1.1-3.5.9-3.6s-2.6.2-2.6-.8 5-1.4 2.6-2.8c-.6-.3-1.1.9-1.5 1-.6 0-1-.9-1.3-.9s-1.9 1.4-2.5.9 0-1.2 0-1.3-.8.4-1 .2c-.6-.5-.9-2.1-1-2.2-.4-.3-.5 1.1-1.2 1.3-.4 0-3.5-.5-3-1.3s.8.3 1 0c1.9-1.5-1.8-.5-2.6-3 0-.3 1.7-1.7 1.9-1.7s.4 1 .9 1.3 1.4-1.1 1.8 2c1-.2-.5-1.9-.2-2s1.4 1.3 2.1 1l-1 1c.9 0 5.1-1 5.3-1.3.5-.9-1-.6-1-.7-.2-.6 1-1.9.5-2.6s-2.1-.7-2.2-.6c0 .2.2 3.7-.2 4.3-1.3-.4-1.1-2.3-2.1-.6 0-.7.4-1.3.7-2s2.1-1.3.7-2.6.6 4.3-2.3.3c-.3.7 1.8 2 1.6 2.3s-2.2.7-2.3.7c-.4-.4 1-1.7.7-2s-1.1.3-1.2.3c-.2 0 .2-.6.2-.6-.4-.2-1.3.2-2-.2-1.6-.8.3-1 .3-1.1-.7.6.7 1.5 1.3 1s-.8-1.5-1.3-1c.6-1.5-1.1-3.1-1.6-1.6-3.6-1.2-1.3 2.1.3 1s-.4-.7-.3-1c2.5.9-.2 1.4-.7 2.6.4-1.5-2-1.2-2-2.5 0-2.7 4.1-.3 4.3-.5 1.5-1.8-3.1-1.1-3.3-2.1s1.2-.8 1.3-1.3-.5-.9-.6-1.6.7-1 .6-1.2-1.2 0-1.3-.5c-.3-1.2 1.3-1.7 1.3-1.8 0-.3-.6-.7-.7-1h1.3s-.3-.7-.3-1c.3-.2.6-7 .7-1.6l.3-1.6c.9 0 1.9 2 1.6 2.6l-1-1 .3 2.6-1.3-1.5c.2 2.6 1.9 1.7 2 1.8s-1 3.6.3 4.3c-.6-7.1 1.1-2.5 2-2.6s1.1-1.1 1-1.3-1.6-.5-1.6-1.2 1.4-2.1.6-3.1-3.2 0-2.6-1.5c.5-1.4 3.2 0 3.6-.3s1.3-3.2 1.3-3.8c.6 1.1.8.2 1 .3 0 .4.4 3.5 2 2.3-1.1.4-1.9.9-1.3 2.3-.3-.2-.8-1-.8-1-.9.2-.2 1.4-.2 1.6-3.8-.8-.8 1.8.3 1s-.3-.7-.3-1c.7 0 5 2.7 1-.7.8 1.8.7-1.4 1.6-1 0 .5-.2 3.1 1 2.6.9-.4-1.1-2.8-1-3s2.5-.2 2.8-.6-.5-2.1.3-2 .4 4.7 1.8.3c-1.8 1.1 0-4-.6-6 0-.4-1.1-.2-1.3-.7s1.3-.9 1.3-1c.2-.7-.4-2.4-.4-2.4.9-.9 3.3 1.9 2.6 3.3 1 0 .9-1.4 1.4-2s.9.4.9.3c.3-.5-.6-1.4-.5-2 .3-1.7 2.2-2.6 1.5-4.9l-.7 2.6c-1.6-.5-.2-3.6.5-3.6s1.7 3.7 2.1 4.3l1-1.6c-.4.8 1.4 4.9 2 4.6s-.3-4.4-.3-5.3c0 0 0 .6.2.7 1 .2.4-1.2-.2-.7v-1c1.6.5.5-.8-.3-1.3 0 .4.4 1 .3 1.3-3.8-1.3.6-1.5.7-1.6.2-.3-1.5-3 0-3.6.3 1.4.2 4.1.5 5.3s2.9 2.7.8 2.6c0-.3 0-1.2 0-1.3-.5-.7-1.4 1.2 0 1.3 1.5 3.5 1-1.2 2.3-.3 0-.6-.3-1.1-.3-1.6s.7 0 .7-.2c-.2-1.1-1.8-1.8-1.3-.2-1.5-.8-.8-.6-1.6-2.6 1.1-.7 1.2 1.7 1.6 1.3s-1-1.6.3-1.3l.7 1.3.3-1.6c-.2 1.3.6 2.5.7 3.6-1.8.9-.3 1.4 0 1.6v3.6c-.2 0-.6-.5-.7-.3-.4.8.5 3.3.7.3 1.1 0 1.4 0 2-1.6s.3-.4.3-.7c3.1 1.9 0-7.6 3-1 0-1.2.7-2 .7-3.3-.3 0-.9.8-1 .7-.2-.3.8-1.3 0-1.3l-1 1.3c.3-3.2-.8-2-.7.3l-1.5-1.3c-.5-.3-.5 2.5-1.1.7s1.9-.9 2-1c.2-.2-.4-1.3-.3-1.3.2-.2 2 1.1 2.3-1.2.2-1.6-1.1 1.3-1.6.8-.9-.9 0-5.4 1.3-4.1 1.7 1.6 0 4.9.3 5.1.4.4 1.3-1.8 1.3 1.3.6-.3 1.6-1.1 1.8-1 .4.2.6 2.2 1.8 1.5 2.1-1.3-.3-1.4-.3-1.5-.7-1.2.9-.9 1-1 0 0-.9-2.6 1.6.3-.3-.3-2 0-1.3 1s1.9-.3 1.3-1c1.8 2 0 1.6-.5 2.6-.8 1.5.4.6.5.6-.8 2.2.5 2.6 2.3 2 0-.8-1.1-.4-1.1-.4-1-1.1.7-.8-1.2-1.6 1.1-3.2 3 2.6 2.3-2.3l1.3 1.6c.2-.7-.3-1.7-.3-2.3.9.2 3 1.3 2.3-.8s-1.1.3-1.3.2 1.4-4.5-.7-1.6c.4-.6 0-2.8 1-3.3.9 3.2.8 6.9 4.6 3.6-.3 2 1.5.3 2.3 3 1-1.6-.7-3-.7-3.1 0-1 .9-.3 1-.5s-.9-3.2-.7-3.9c1.9.3 1 3.2 3 1 .7 1.5-.3 1.7-.6 3.1 3.4-2.1 0 4.1.6 5.7-1.6-.5.3-2.8 0-3s-2.1.7-2.2.7c-1.2 1.4 1.5 2.9.6 4.5l-1-1.3c.2.8 0 1-.3 1.6.6-.6-1-1.6-1.3-1.3s.7 2 1.3 1.3c-.3.7-.9 1.1-.7 2-2.2-3.7-1.2-.5-1.3-.3s-.9-.7-1.3.2-.2 3.9 0 4c.3.3 1-.9 1.6-1.3 0 .4-.2 1.1.2 1.3.6-.4.5-1 .5-1.6 0 0 1.2-.2 1 0-.2.6-1 3-1.6 3.1v-1c0-.3-.6.6-1-.3 0 1.1-.3 1.6 1 1.3.2.6-.4 1.7.5 2.3 1 0 0-1.3.2-2s.6 0 .7 0c0 .6 0 1.4 1 1.3v-2.3c-.3.2-.8.7-1 1-.6-2.4.7-1.1 1-1.6s-.8-1.1-.7-1.3 2.6 1 0-2.3l2.3 2c-.5-.9-1-2.7-.6-3.7s1.4 0 1.6-.2 0-.9.3-1.3c-.2.4.5 1.7.3 2s-.8-.5-1-.3c-.3.3.6 2.7-1 0-.3 2.1 1.7 3.3 2.3 1 .6 1.5-.5 3.5-1.6 1.6.2 1.3 1.3 1 0 1.8 4.4 1.4 2.4-.8 2.6-1.1.6-.8 1.4.7 1 1.6l1-.7c-1.7 2.6 1.5 2.2 1.6 1.8.4-1-.7-.8-.7-1 .2-1 .6 0 .7-.2 0-1.1 0-2.2 0-3.3.8.5.5 6.4 2 3.3s-1 0-.6-1.8 1.3-2.8 1.3-3c0-1.3-2.1.4-2.3.5.3-3.2-.6 0-1.6-2 0-.3 0-1.5-.3-2 .5.3 2 2.6 2.6 1.1.6-1.4-.9-.4-1-.5-.9-1.2.3-3-1.6-1l-.7-1.3c.4 3.3 0 0-.8.3s-.9 2-1.8 1.3 1.6-3.9-.3-1.3c0-4 2.3 2.1 2.6-2l1 .7c.3-2.3-.5-.7-1.6-1.3l2.3-.7c-2.7-1.7-.4-1.2-.3-1.3s-.4-.6-.3-.7h1s0-1.4 1.7-1.9c.3.7-1.4 2.2-1.3 2.3.2.2 1-.4 1.2-.2 2.2 1.4-.5 1.1-.6 1.2s0 3-.3 3.6c1.1 0 1.3-2.2 1.3 0 1-2.5.9 1.3 2.3-1.6.7 8.1.7-1.5 1.8-1.3s1.8 2.8 1.2 3.6c3.5-2.2 1.6 0 1.6.2.4 1.2 2.4 2.7-1 3.3-3.1.5-.2-1.2-2.3-2.8 1.1 1.3-.6 7.6-.3 7.9s2.6-2.1 2 1c-2.8-3.5-2.1 3.1-.3 2s0-.6 1-1.5c.3-.2.9.2 1 .2.2-.4-.5-1.4-.3-1.6s.9.5 1 .3c.2-.2-1-4.4 3.3-2.6 0 .7 0 1.4 1 1.3.2-2-.3-1-1-1.3 0-.6.4-1.3.3-2l-1 .7c0-2.1 1.8-1.2 1.3.7.9-.9 2 .4 3-.3.9-.7 1.9-7 0-2.6 1.5-2-1-4-1-4.3.2-1 3.3-.5 2-2.9-1.3-.3-.4 1.6-.6 2s-1.2 0-1.3 0c1-2.1-.4-.6-1 .3s-.7 0-1 .5.4 1.2.3 1.4l-.5-.2zm-20.1-5.2c-1.3-.2-.4 1.6-.3 2.3zm-4.3 2.6s-.9-.4-1-.3c-1 .9 1.3 1.4 1 .3zm-1.3 0c-.8-1-2.6 2-2.3 2.3.8.8 2.4-2.1 2.3-2.3zm5.3 0s-.6 0-.7.2c-.2 1 1.2.4.7-.2zm-2.3.6c-.7-1.1-.7 1.4-.3 2 .6 0 .4-1.9.3-2zm-1 2.3c0-.7.2-1.7-.6-2 0 .5 0 1.9.6 2zm31.2.4c.2-.2.3-1.6.3-2-.9 0-1.2 3-.3 2zm-35.8-1.7c-1.2-.2-.9 1.6-1 2.3 1.2.2.9-1.6 1-2.3zm14.8 0c-.3-.3-1.2.5-1 .6.3.3 1.2-.5 1-.6zm18.4.7c-.7-.3-1.4 1.5-1.3 1.6.4.4 1.7-1 1.3-1.6zm-16.8.6h-1c-.5.6.7 1.1 1 0zm-14.3.4v.3l.2-.2-.2-.2zm3.8.3s-2.3 0-2 .7c.4.6 2.9 0 2-.7zm11.5.3c-1.6-.8-.3 1.7-1.3 2.6 1.9-1.1 1.5-.6 2.3 1 .8-5.5-.6-2.6-.8-2.6-.4 0 0-.9-.2-1zm19.1 0c-1.9-1.7-1.3 4.9-.2 2.5s.3-2.5.2-2.5zm-62.5.4c0 .5 0 .7.5 1 0-.3 0-1.1-.5-1zm5.3 1.6c.2-.2-.5-1.6-1-1.6-.3.5.4 2.2 1 1.6zm54.2-1.6c-.7-1.1-1 1.9-.2 2 .2 0 .2-1.8.2-2zm-29.9.3c-2.2.3 1.1 3.3 1 .3-1.2.8-.9-.3-1-.3zm16.1 0c-1.1-.4-.5 2.3-.2 2.3s0-1.9.2-2.3zm-18.5.8s-.8-.7-1.2-.5 1.5 3.6 2.3 1.4-.7-.4-.8-.4c-.3 0 0-.5-.3-.5zm-26.9.2c0-.2-1.1-.5-1.3-.4-.8.8 3.2 3.3 1.3.4zm15.5 3.3c-.3 0-.9.4-1 .3 0-.2.8-3.3.7-3.9-1.3 0 0 1.8-2 1.6 2-.3-2 3.7 1 4.9 0 .9.4 3.2 1 3.8s1-.3 2-.2c-.3-.3-1.3.6-1 1s1.3-.7 1-1h2v1.1c.6 1.6 1.9-.8 0-1.1 0-.2.4-.7.3-.9s-2-2.1-1.9-2.7c1.3 1 3.5 1.1 3.6-.8s-1.6-1-1-1.5 3.5 1 1.3-1.3c2 .4 1.2-.7 1.3-2.3-1 0-.6.7-1.3 1.3.3-.3.5-1.9-1-.7-.2-.4.5-1.8-.7-1.2l-.6 2.5c1 0 .6-.7 1.3-1.3 0 0 .3 1.5 1 .7-1.2 1-1.5-.2-1.6 2.3-.5-.7-.4-.5-1-1 0 0 0 1-.2 1-.6 0-.6-1.7.2-1-.4-.3-.7-1.2-1.8-1.3s0 .6-.3.6c-.4 0-1.5-1.3-1.2 1h-.1zm3.6-3.7c-.4-.6-.9.4-.7 1 .4 0 .8-.7.7-1zm41.4 0c-.3-.4-1.4.8-1 1.3s1.5-.7 1-1.3zm-59.4 1.2-.4 2.4c.8 1.1 2.2-2.8.4-2.4zm15.4-.5c-.9-.9-.9 1.9 0 1s0-.9 0-1zm1.6 0c-1-1-.5 1.5.2 1.3s0-1.3-.2-1.3zm6.4.5c-.9-1.6.3 2.6.9 1.4 0-.9 0-1.6-.9-1.4zm-16.9 4.4c0-1.3.4-2.3-.6-3.7s-1.9-.9-2-.9c-.4.4.3 3.3.5 3.6s.9.2 1.1.4 0 .9 0 .9.8-.4 1-.3c.3 2.3 1 .3.7 0s-.5 0-.7 0zm-8.5-2.6c.2-.3 0-1.6-.7-1.6-.2.6 0 2.5.7 1.6zm3.9-.7c-.9-1-.9 2.4 0 1.3s0-1.3 0-1.3zm-3.6 1.7s-.8 0-1 0 .2.9-.2 1 .2-1.4-.8-1l-.3 3.6c-2-2-.9.8-1 2s-1-.2-.7.7c.9.4.6-.6.7-.7.3-.3 1 .4 1.5-1.6-.2 2.7 1 1 1.5 1.3s0 1.1.5 1.3c.6.3.6-1 1.1-1.3.6 2.7 1.1.8 1.3.7.9-.4 1.6 1 1.3-2l1 1c-.4-2 .6-1.6.7-1.6v1.3s.9 0 1 .2c.2.8 0 3.8.3 4.5.2.4.6.2.7.2-.4 2.3 1.5 2.5.9.6-.3-.8-.8-.6-.9-.6v-.7h1c.2.6 0 1.8.7 2-.3-1.8 1.1-2.3-.7-2 0-.3-.2-1.6-.3-1.6-.6-.3-.4 1.4-1 1.3-.4-.9.6-4.6.3-4.9s-.9.5-1 .3c-.6-.7.2-2.1-1-.7-.7-1.6-1.6-1.1-1.3-3.3-1.8.4.6 1.8-1.6 2 0 0 .6-2.8-.3-2-.3.3.9 1.5-.2 1.3 0-.9-1.1-1.2-1.2-1.3s0-1.5-.8-1.3 0 1.2-.2 1.3zm45.7 0s-.7-1.4-1-1.3c-.7.3-.2 2.3 1 1.3zm-34.8.3s-.7-.2-.7.5c0 2.4 2.5 1.2 1.7.2 0 0-1.9.9-1-.7 0 0 2.1 0 1-1.3-1-1.2-.9 1.2-1 1.3zm14-1.2c-1.4-.2-1.2.9-1.6 1.9.8-.2 3.5-1.7 1.6-1.9zm30.6 1.5v-1c-.4-.6-.4 1.6 0 1zm1.4-.9c-.9-1-.9 2.4 0 1.3zm11.5 1.6c0-.5.3-1.4-.3-1.3 0 .5-.3 1.4.3 1.3zm-6 .7s0-1.6-.2-1.6c-.9 0-.4 2.7.2 1.6zm-52.9-.7v-.7h-.3v.7zm15.5-.7c-.9-1-.9 2.4 0 1.3s0-1.3 0-1.3zm20.4 2s.3-1.6.3-2c-1.2 0-.9 2.4-.3 2zm26.1-2v.3l.2-.2-.2-.2zm-15.6.7c-.8-.6-1.5.6-.5 1 .8.2.5-.9.5-1zm1.3 4.3c.3-1.8-.4-6.2-1.3-2.5zm12.2-4c-.4-.3-1.3.6-1 1 .4.6 1.6-.5 1-1zm-3.7 1.7s0-1-.2-1c-.6 0-.6 1.7.2 1zm-56.2.6c0-.2.3-1.3-.2-1.2-1.1 1.3-1.1 3.3.2 1.2zm45.7-1.3c-.5-.7-1.2 1.3-1 1.6.4.5 1.4-1 1-1.6zm18.4 0s-.6 0-.7.2c-.2 1 1.2.4.7-.2zm2.3 0c-.3-.3-1.4.7-1.3 1 .3.7 2.2 0 1.3-1zm1.3.3c-.9-1.5-.9 3.4 0 2s0-1.9 0-2zm-40.9 2c0-.3.4-1.1.2-1.6-1.7.8-1.3 3.2.7 3.3.3-.9-.9-1.6-.9-1.7zm1.5 0c0-.2 0-2.8-.7-1.6-.8 1.4.6 1.6.7 1.6 0 .5-.8 1.1.2 1.6 1.4-2.8 0-1.5-.2-1.6zm1.3-1.6c-.9-.9-.9 1.9 0 1s0-.9 0-1zm20.4 0c-.8-.5-.8 1.1-.7 1.3.5.6 1.3-.9.7-1.3zm9.9 0s-.6 0-.7.2c-.2 1 1.2.4.7-.2zm-11.9 3.6c1.7 0 1.2-3.3.5-3.3s-.5 2.9-.5 3.3zm7.9-1.7c.8-.2.7-1.1.6-1.6-.7.2-.7 1-.6 1.6zm2.6-1.6s-.7 0-.7.2c0 .7 0 .6.5.2.1 0 .2-.2.2-.3zm-11.8.3s-.6 0-.7.2c-.2 1 1.2.4.7-.2zm22.4 0c-1.6 0-.7 2.4-.7 3.3zm-68.7 1.3c.5.3.8-1 .2-1s-.2 1-.2 1zm65.4-.9c-.5-.6-1.4 1.1-1 1.6s1.4-1.1 1-1.6zm5.6 0c-1.4 0-2.2 0-2 1.6zm-34.9 1.9c0-.4.4-1.5.3-1.6-.5-.7-2 .9-.3 1.6.3 3.7 1.1 0 1-.3s-.9.3-1 .3zm9.6.4c-1.3.4.4-1.9-1.3-1.6l.3 3.9c.7-.3.8-1.6 1-2.3 1.6-.5.4-1.8 0-1.3s0 1 0 1.3zm20.6.6c.4-.4.4-1.8-.1-2.3-.1 1.9-1.8 1.7-1.8 1.8 0 .4 1.8.5 1.9.5zm-71.3.3c-.5-.8-.7.6-.7 1.2s.7.4.7.5c0 .3-.2 1.1.2 1.3.9.2.3-.9.5-1.3s.6.2.7-.5-.6-1.9-.4-2.8l-1 1v-1.6c-1.3.5-.3 1.4 0 2.3zm43.4-.3c0-.3-.2-1.7-.5-1.6-.6 0-.6 2 .5 1.6zm11.2-.3c0-.5.3-1.4-.3-1.3 0 .5-.3 1.4.3 1.3zm20.2-1 .2.5.2.2v-.3l-.3-.3zm-76.1.3c-.6-.3-1 1.9-.2 2 .7 0 .3-1.9.2-2zm4.6 0s-.7 0-.7.2c0 .7 0 .6.5.2 0 0 .2-.2.2-.3zm18.4 1c0-.4-1.2-1-1.3-1-.6.4.4 1.4 1.3 1zm30.6-1c-1.4-.5.2 2.4.3 2.3.6-.3-.4-1.9-.3-2.3zm-35.5 1.3s0-1-.2-1c-.6 0-.6 1.7.2 1zm1.2 0c0-.3.3-.8 0-.9l-2.1 2.3c1.6.7 1.7.2 2.2-1.4zm-4.2-.6c-1-.4-.7 1.9-.7 2 .6.8 1.2-1.4.7-2zm57.9 1.3c.2.2.9-.8.6-1.3-.5 0-.8 1.2-.6 1.3zm-38.1.3c.3-.3-.6-1.3-1-1.3-.3.6.6 1.7 1 1.3zm20.3-.3v-1c-.4-.6-.4 1.6 0 1zm-17.1 1s.4-1.3.3-1.6c-1.1 0-1.2 2.4-.3 1.6zm5.6-1s0-.7-.2-.7c-.6 0-.6 1.2.2.7zm1.3 1s0-1.6-.2-1.6c-.9 0-.4 2.7.2 1.6zm-22.6-.3c.5.3.8-1 .2-1s-.2 1-.2 1zm9.5-.4s-.2-.4-.3-.5c-.8-.5-.2 1.1.3.5zm1-.6c-.6-1-1 1.6-.2 1.6s.2-1.5.2-1.6zm6.9 1.6c0-.6.6-1.1.5-1.6-.4.2-1.4 1.5-.5 1.6zm-27.3-.3c0-.5 0-.7-.5-1 0 .3 0 1.1.5 1zm23.7 1c0-.5-.4-1.8-1-2 0 .7 0 2.2 1 2zm-19.7-1.7c-.5-.8-.9.8-.7 1.3.5 0 .7-1.2.7-1.3zm7.5 0c-.9-.9-.9 1.9 0 1s0-.9 0-1zm20.1 1.3c0-.2 0-2.3-.7-1.3s.6 1.2.7 1.3c0 .3-.2 1.4.2 1.3 1.8-.2 0-1.2-.2-1.3zm-32.9.7c.2-.3 0-1.3-.7-1.3-.2.5 0 2.1.7 1.3zm51.6-.3c.5-.5-1-1.4-1-.5s.8.7 1 .5zm-61.1 2.3c.8.8 1.8-2.4 1.3-3-.3.2-1.7 2.6-1.3 3zm5.2-1.7c0-.4 0-1.4-.7-1.3 0 .4 0 1.3.7 1.3zm32.2.4s0-1.6-.2-1.6c-.9 0-.4 2.7.2 1.6zm6.6-1.7c-1.2-.3-.7 2.3-.2 2.6zm-33.5.3s-.6 0-.7.2c-.2 1 1.2.4.7-.2zm22 1.4c.2.2 1-1 .6-1.3s-1 1-.6 1.3zm3.6-1.4c-.7-.7-.7.4-.3 1 .5.2.4-.9.3-1zm-2.3 2.3s.2-1.7-.3-1.6c-.4.5-.3 2.7.3 1.6zm-54.5-.6-2.3-.3c0 .7 2.1 1.1 2.3.3zm83.8-.3s-.6 0-.7.2c-.2 1 1.2.4.7-.2zm-71.7 1.3c.3-.4-.6-1.3-1-1-.6.4.5 1.6 1 1zm1.7-1c-.4-.6-.9.4-.7 1 .4 0 .8-.7.7-1zm11.8 0c-.7-1.1-1 1.9-.2 2s.2-1.8.2-2zm-1.3 1.6s0-1.3-.2-1.3c-.8 0-.6 2.1.2 1.3zm65.1-1.3c-.4-.6-1.2 1.1-1 1.3.4.4 1.4-.7 1-1.3zm3.2 0h-1c-.9.9 1.9.9 1 0zm2 0c-.6-.5-2.5.3-1.6 1s2.5-.3 1.6-1zm-11.5 1v-.7h-.3v.7zm1 0c-.9-1-.9 2.4 0 1.3zm-76.9.3c-.9-1-.9 2.4 0 1.3s0-1.3 0-1.3zm27.6 2 .3-2c-.6 0-1.1 1.8-.3 2zm-10.5-.7c.5.3.8-1 .2-1s-.2 1-.2 1zm12.8 0c0-.4 0-1.6-.7-1s.6.9.7 1c0 0 0 3.2.7.5.2-.7-.6-.4-.7-.5zm52.6 0v-1c-.4-.6-.4 1.6 0 1zm-88.1-.6c-.3-.4-1 1.2-1.6.5.6.9 2.3.6 1.6-.5zm4.6 1.3c.2-.3 0-1.3-.7-1.3-.2.5 0 2.1.7 1.3zm24.3.3c.2-.5-.8-2.1-1.3-1.6s1 1.5 1.3 1.6zm34.9 2 .3-3.6c-.8.6-1.5 3-.3 3.6zm16.7-2.3s0-1-.2-1c-.6 0-.6 1.7.2 1zm-46-.7c-.4-.3-1.3.6-1 1 .4.6 1.6-.5 1-1zm47.3 0c-1 1-1.9 1.7-1.6 3 1.2-.8 2-1.4 1.6-3zm.7 1.7c.4.5 2.1-1.4.8-1.6s-1 1.4-.8 1.6zm2.6-1.3c-.5-.6-1.4 1.1-1 1.6s1.4-1.1 1-1.6zm-12.1 1.3v-1c-.4-.6-.4 1.6 0 1zm-73.3-.7h-1.3c-1 .9 2.4.9 1.3 0zm18.1 1.3c.2-.3-.2-.9-.7-1-.3.6.3 1.5.7 1zm15.7-.9s-.6 0-.7.2c-.2 1 1.2.4.7-.2zm53.6.9s.1-1-.2-1c-.6 0-.6 1.7.2 1zm1.3-.9c-1.1-.3-1 1.4-.5 1.3s.6-.9.5-1.3zm-32.5.6c-.4 0-1.1-.4-1.3-.2-1.5 1 1.2 2 1.3.2zm-54.9 1.3-1.3-1.3v1.3c0 .1 1 0 1.3 0zm81.5-.9c-.4-.4-2 .8-1.3 1.3s1.8-.8 1.3-1.3zm-88.1.6c-2.4-.4-2.7 1.9-.4.7s.5 0 .4-.7zm2.3 1v-1c-.4-.6-.4 1.6 0 1zm9.2-1c-3.3.4-.6 1.4-.2 3.3.2-1.6-.8-1.9.2-3.3zm-4.2 2s2.1-.3 1-1.6c-1.4-1.7-.9 1.1-1 1.6 0 0-1.3-.8-.7.5 1 2.2.6-.4.7-.5zm54.8 0c.3.4 3.1 2.9 3.3 2.6 1.4-1.7-2.6-2.3-3.3-2.6 0 0 .5-.5.2-1-.5-.8-3.6-.8-.2 1zm41.1 0c.3-.5-.9-2.1-1.3-1.6s.7 2.6 1.3 1.6zm-102.5-1c-.7 0-2.2 1.7-2.3 2.1-.2 1.1.9 0 1 .2.2.4-.8 1.5.2 2 1.6.8 0-.9.2-1s.8 0 .9-.9-.9-.7 0-2.4zm66 0s-.7 0-.7.2c0 .7 0 .6.5.2 0 0 .2-.2.2-.3zm20.4 0c-.6-.6-1.5 1.4-.5 1.3.4 0 .7-1.1.5-1.3zm-82.5 3.3c-.2-.3-.2-1.1-.6-1.8-.2-.4-1-.2-1-.2s.7-2.5-.7-.2.6 1.4.7 1.5c-1.3-.6-.6 1.9.3 1s-.3-1-.3-1c.4.4 1.6.6 1.6.7.3.5.3 1.4 1.3 1.3 0-1.1-.8-1-1.3-1.3zm11.5-1.7c.3-.7-1-1.3-1.3-1-.7.7 1 1.7 1.3 1zm54.6 0h-1c-.4.5.8 3.9 1.6 1.8.3-.8-1-.4-1-.5 0-.6.7 0 .7-.5s-.4-.7-.3-.8c0 0 1.9 0 1-1-.9-.9-.9.8-1 1zm21 .4c.1-.2 1.9.7 1.3-1.3-.9 0-1 1-1.3 1.3s-1.7 1.6-1.3 2.3c.9 1.6 1.2-2.2 1.3-2.3zm7.9-.4c.2.2.9-.7.6-1s-.9.7-.6 1zm-32.2-.6c-.7-.8-.9 1.3-.2 1.3s.2-1.3.2-1.3zm26.6 1v-1c-.4-.6-.4 1.6 0 1zm-73.9.9c0-.5.3-1.7-.3-1.6 0 .4-.3 1.7.3 1.6zm46-.3c0-.5.3-1.4-.3-1.3 0 .5-.3 1.4.3 1.3zm35.8-1.3h-1c-.9.9 1.9.9 1 0zm-33.5 2.3s.2-2-.3-2c-.3.5-.3 3.2.3 2zm-25.7-.6c-1.2-2.1-.9 2.4 0 1.2s0-1 0-1.2zm32.6.9s0-1-.2-1c-.6 0-.6 1.7.2 1zm-73.3 0c.4-1.1-2.5-.6-1.3.3s1.3-.3 1.3-.3zm72-.6-1 1c1.1 0 1.1 0 1-1zm-6.9 1.2s-.7-1.7-1.4-.9c-.8.9 1.5 3.4 2.6 2.3 2-1.9-.9-1.2-1.3-1.4zm-60.8 1.1c-.2 0-1-1-1.3-.7s.7 3.5 1.3.7c2.8.3.5-1.9 0-1.3s0 1 0 1.3zm64.7-1s-.6 0-.7.2c-.2 1 1.2.4.7-.2zm-.5 1v.3l.2-.2-.2-.2zm-5.4 1.9s.3-1.3.3-1.6c-.9 0-1.2 2.6-.3 1.6zm12.8-1.3c-.5-.5-1.6 1.5-1.3 2 .4 0 1.5-1.8 1.3-2zm-6.6.7c-.5-.8-2.1-.4-1 1.3.8.4 1.1-1.2 1-1.3zm-68.6 1s-3.4-1.6-1.3.7c.8.8 1.2-.6 1.3-.7 0 0 2.4 0 1.3-1s-1.2.9-1.3 1zm2.9-1s-1 0-1 .2c0 .7 1.3.3 1-.2zm61.8 9.5c-.2 4-.6 1.1-2.4 4-2.8 4.5-4.8 10.9-5.2 15.9 0 1.4.8 2.9 2 1.6 1-1.1 6.5-17.3 6.3-8 1.2-1 .4 1 .8 1s1.4-2.6 1.8-3.2 1.3 0 1.3 0-.4-1.2 0-2 2.5-2.3 2.5-2.8-1.6-1.2-1.9-2.3.7-.3.6-.6c-1.4-4-2.9-.2-4.5-4-1.1-2.7 1.3-8-3-8.8.6 2 1.6 1 1.6 1.2.8 1.1-.4 2.4-.4 3.1 0 1.7.4 3.4.4 5.1 0-.6.2-1.2-.7-1l-.3 1.6c.4.3 1-.5 1-.7zm12.5-8.9c.7-.7-.4-.7-1-.3-.2.5.9.4 1 .3zm-42.1.7s-.3.3-.3.3c-.5 0-1.1-.4-1 .5.2 2.5 4.8 2.7 1.6-.8-.2-.2 0-1.5-.3 0zm40.4-.6c-.4-.4-1.3.7-1 1.3.4 0 1.3-1 1-1.3zm-34.8.3c-.4-.6-.9.4-.7 1 .4 0 .8-.7.7-1zm22.3 1.6s0-1.6-.2-1.6c-.9 0-.4 2.7.2 1.6zm-59.4 0c.6.4 1.7-.6 1.3-1s-2 .5-1.3 1zm89.7.4c.3.4 1-1.4.2-1.3-.3 0-.2 1.3-.2 1.3zm-40.1 7.8v-.7c-2 1.3 0-.9-2.6-.3 2.2-.4.7-.9 1.1-1.3s1 .5 1.2.3 0-2.5 0-2.6c-.2-.2-4.5-.4-2.6-2-1.8-.4-.4 1.5-1.3 2.5s-1-.2-1-.2c0 .2.2 2.5-1.2 2.9-1.5.5-2.3-2.5-2-3.4s2 0 1.6-1.2-3.8-2.7-4.1-2.6c-1.8 0-2.1 9.8-2.5 10.2s-1.6-.2-1.8-.6c-.2.3.2.6.2 1-.6-.6-1.9-2.4-2.3-1.3 1 0 1.2 1.2 1.3 1.3-1-.6-.7-.4-1.6-.3 0-.3.2-2-.7-1.3v1s-.5-.5-.6-.2c0 .3.6.6.6.8s.2.4.3.7.2.2.3.3c.2.2.3 1.3.3 1.3.2 0 .7-.7.8-.6.3 0 .6 1.6 1.1 1s-1.2-.6.3-.7c.2 1.1.8.8 1 1.2.5 1-1.3-.2-1 .5s3.3 2.7 3.9 2.6l-1.3.3c.7 1.6 1.2 1.9 3.6 2.3 0 .6-.9.2-1 .3-.2.5 1.1.4 1 1-2.4-.2-1 .8.7.7h.3c1.9 0 0-.6 1.3-.7.8 3.3-2.2 0 0 2.5l-1.3-.3c1.1.8 1.2 1.2 1.6 2.5v.3c.4 2.7.8 12.8.7 3.3l.6 2.6c1.3-2.8-.3-5.7-.3-7.8s1-1.5.9-2.2-1.2-2.2-1.2-2.7c-.2-1.1 1.1.2 1-.3-.3-1.2-3.5-2.9-1.3-3.1-1.2.8-3.5-1.1-4.4-1s.2 1.4-.8 1c-.2-2-1.9-2.9-3.3-4.3.2 0 .9-.5 1.6-.2s2.5 3 2.7 3.1c1.3.7 4.3-.8 6.3 2.1 2.6 3.9 1.8 13.2 1.9 17.8s1.5 2.9-.3 2.9c2.8 2.5 1.6-2.5 2-4.3 1.2-5.4 3.8-10.8 4.3-16.1 0 0-.7-.8-.6-1.9s.9-.5.9-.7c.2-1.1-2.6-3.2-2.3-4.8l-.3 1.3c0-.9-.9-.9-1-1 .3-.7.4-1.2.3-2-.8-.2-.7.4-1 1zm-24.3-7.8c-1.7-.4.8 1.6-.3 2.5s-4.7 0-4.3 1.6c0 .2 1.5 1.1 1.8 1.2 1.3.3.2-1.3 1-.6s1 2.5 1.2 2.6c.3.2 6.3.3 6.9.2 4.7-.9 3-5.2-.2-5.1-.7 0-.4.9-1.3 1-1.9.3-1.7-.9-2-1s-3.5 2.1-1.5-1.6c-1.3.5-1.2-.6-1.3-.7zm2.1 0-.5.5.2.2.3-.3v-.3zm40.5.7c-1.8-1.2-2.8 2.6-2.5 3.9 0 .6 4.2 4.3 4.5 4.2s2.8-4.8 3.9-5.1c-.9-.6.4-3.5-1.7-3.1-2.5.5-.8 4-3.4 3.2-2.1-.7.5-2.2-1-3.1zm-43.3.2c-.7-.7-.7.4-.3 1 .5.2.4-.9.3-1zm2 1.4c.2.2.9-.7.6-1s-.9.7-.6 1zm28.6.6s-1.1-.3-1.3-.3c0 .8 2.2 1.3 1.3.3zm-12.5 3v-1c-.4-.6-.4 1.6 0 1zm-21.8.9c0-2.5-1.4.3-1.6.4-.7.4-.5-.8-1.1-.7-1 .2-1.5 1-2 1-.8 0-.5-1.5-2.1-.7-.3 1.1 1.5.8 1.6 1.5s-1 .9-1 1.6 1.3.2 1 1.6-.9.2-1 1c-.4 4.8 7.2 6.6 10.9 6.3s2.6-1.3 3.1-1.4c1.6-.4 1.1 2.5 3.4-1.5.3-.5 1.9-.5-.2-2.7-2-2.1-3.1 1.2-3.3-1.7-.7 2.6-2.5 1-2.1.3s1.4.8 1.7-.8-2.7-1.8-2.9-1.8c-1.4 0-.9 2.1-1.2 2.7s-1.1.7-1.3 1 1.6 1.4-.2 1.5c-1.6 0-.2-4.6-.5-4.9-1.1-1.2-1.5 3.5-1.6 3.6-1 .6-1.2-1-1.3-1-.3 0-1.1 1.3-1.8.3s1.3-1.6 1.5-2.2-1.3-1.2-1-1.5 2.9-.8 2.9-2zm-21.6-.6c-.9-1.2-1.3 1.6-.7 2.3.8 0 .8-2.1.7-2.3zm50.6 0c-.5-.2-1.5 0-1 .7s1.1-.3 1-.7zm-52.9.3h-1.3v1.3zm85.5.7c.1 0-.2-.4-.3-.5-.8-.5-.2 1.1.3.5zm-61.5.6c.5.3 1.3-.6 1-1s-1.6.6-1 1zm33.5 4.6c1.8 1.6 2.5-4.7 1.6-5.6-1.9.7-2.8 4.5-1.6 5.6zm-25.6-2.9c0-.5 0-.7-.5-1 0 .3 0 1.1.5 1zm-28.8-.7v.3l.2-.2-.2-.2zm7.4 0c-4 3.5 3.3 5.4 1.6 2.3s-1.9-.4-1.6-2.3zm4.3 0c-.2-.2-1.3 0-1.3.5 0 1 1.9 0 1.3-.5zm17.7 0c0 .5 0 .7.5 1 0-.3 0-1.1-.5-1zm3.7 9.2c-1.2.3-3.1.6-3.9 1.6 1.3 0 3.1-.5 3.9-1.6zm-4 .7c-.6 0-1 0-1.3.5.3 0 1.4 0 1.3-.5zm10.2 0s-.6 0-.7.2c-.2 1 1.2.4.7-.2zm22.3 2.6v-1c-.4-.6-.4 1.6 0 1zm-2.6 2.6-.3 3c.7-.4 0-1.9.4-2.6s2.1-.2 0-.4zm-7.2 15.8v-4.6h.3v4.9c1.9-1 1.2-3.5 1.7-5.2s.9 0 .9 0c.2-1 0-3.9 0-4.9-.5 1.2-1.9 1.1-1.6 2.6l-.6-1 .3 4.3-.7-3.3-.3 2.3-.6-1.3.7 6.2zm-6.3-3.6s-.8.4-1 .7v-3l-.3 2-1.3-4.3.6 4.3-1-1.1 1.3 3.8c-.5 0-.5-1.1-1-1s.3 1.1-.3 1l-.7-1.2 1.6 6.1c.6-.1 2.8-1.8 2.8-2.3.2-2-.5-1.1-1.2-2.5s.6-1.2.7-1.8 0-.2 0-.7c-.3-2.1-.2-.2-.3 0zm5.6 4.6c0-1.2 0-3-1.3-3.6-.3 3 0 2.3 1.3 3.6 0 1.2-.6.3-.7 1 2.1-.3 1.3-.4.7-1zm-1.8-1v.3l.2-.2-.2-.2zm-.1 3c0-.5.4-1.9-.3-2 0 .5-.4 1.9.3 2zm-2.7-.7c-.6-.9-1.4 2.3-.3 1.3 0 0 .4-1.2.3-1.3zm2 4.3c.4-1.1.4-2.2.3-3.3-.5.4-1 2.9-.3 3.3zm4.3 2v-1c-.4-.6-.4 1.6 0 1zm-11.2 2.9c-.2-.8.4-2.5-.3-3 .2.8-.4 2.5.3 3zm-1.3 2.3s.3-1.3.3-1.6c-.7.1-1.1 2.3-.3 1.6z"/><path d="m75.6 64.4s1-1.2 1.3-1.3c-.2.6-.6 2.5.7 2.3 0 4.1-1.3-1-2-1z"/><path d="m77.9 63.1c0 1.1 1.2 2.1-.3 2.3 0-1.4-.7-2.3.3-2.3z"/><path d="m137.4 72.6c0-.3.1-.3.3-.3 0 .2 0 .4-.3.3z"/><path d="m85.5 50.9c0-.2.3-.2.3-.3 0 0-.2.2-.3.3z"/><path d="m48.3 69c-.3-1 .5-1.7-1-2.6 1.2-.9 2.2 2.5 2.6 1s-3.4-4.8.9-2.9c.2 0 0 .9 0 .9 1.2.7 1.2-1.2 1.3-1.3 2.8-1.5.5 5.8-1.3 3.8-.3.8.8 3.3.6 3.5s-1 0-1.3 0c.5-.4-1.4-2-2-2.3h.2zm2.3-2.6c.2-1-.3-1.5-1.3-1.3zm1 .6s0-1-.2-1c-.6 0-.6 1.7.2 1zm-1.3 3c.6-.2 0-2.4-.7-1.6s0 1.8.7 1.6z"/><path d="m65.7 69.3s1.5.3.7 1.6-.6 0-.7 0c0-.2 0-1.4 0-1.6z"/><path d="m126.2 58.8c.6 0 1.3-.9 1.6-.5l-1.7 2.1c-.5-1-1.4-.5-1.6-.7.2-.5.2-.8.3-1.3.2 0-.3.4 1.3.3z"/><path d="m85.5 50.9v2c-.2 0-1 .4-1.3.3s-1.3-2-1.3-2.1c0-1.3 1.5.7 2.6-.2z"/><path d="m137.4 55.2c.4 1-1 .6-1 .7 0 1 1.7 3.8-.3 4.6l.3-2.3-.7.3-.2-1-.8.7c-.2-2.4 0-3.7 2.6-3zm-1.8 1.3v.3l.2-.2-.2-.2z"/><path d="m145.9 85.8c4.6-2.7.3 2 0 2-1.9-.2-1-1.8-.6-3l.7 1z"/><path d="m84.1 46.4c.6 0 .5 2.7.3 2.9s-2.2-.9-2.3-1c-1.1-1.2 1.6-.3 1.6-.3.4-.4-1.1-1.8.3-1.6z"/><path d="m112.7 56.9c.4.3.3 2.9 1.7.3.4 2.7-.9 1.1-1.3 1.4-.9.7 0 2.1-1.6.2 1.3-.2 1.3-1.3.3-2h1z"/><path d="m36.5 74.9s-2.7-1.1-2.6-1.6c.6.6 1.6-.7 1.6-.7s1.1 2.2 1 2.3z"/><path d="m44.6 64.5s0 .5.3.5 1-.5 1.1-.3c2.3 2.1-5.5 0-1.4-.2z"/><path d="m46.4 70c.2 0-1.6 3.5-2 .8s1.8-1 2-.8z"/><path d="m96 56.5s.8 1.2.7 1.3c-.8.6-2.1-1.4-.7-1.3z"/><path d="m67.7 50.3c.6.5-1.2 1-1.3 1-.7-.5.6-1.5 1.3-1z"/><path d="m47.3 67v1.3c-2.3-1-.4-1.7 0-1.3z"/><path d="m44.4 64.1c-.3.4-1-1.4-.2-1.3s.2 1.3.2 1.3z"/><path d="m51.9 62.8s-.3 1.7-.7 1.6c-.3-.6.2-2.5.7-1.6z"/><path d="m49.6 62.8c-.4 0-1.3-1.4-1-1.6s1.1 1.2 1 1.6z"/><path d="m94.7 142c.5.6-.9 1.1-.7.2s.6-.2.7-.2z"/><path d="m98.3 143.6c-.6.1 0-1.8.3-1.6 0 .6-.2 1.1-.3 1.6z"/><path d="m95.3 55.9c-.5.6-1.1-1-.3-.5 0 0 .4.4.3.5z"/><path d="m45.4 69.4c.6.4-1.6.4-1 0s.9 0 1 0z"/><path d="m64.1 50.9h.3v.7h-.3z"/><path d="m46 69h.3v.7h-.3z"/><path d="m58 60.2.4.3v.3l-.2-.2z"/><path d="m45.9 66.4.1.2-.1.1z"/><path d="m96.5 142.3.1.2-.1.1z"/><path d="m85.1 102.9c0 .7-1.7.2-1.6-.3.6 0 1.1.3 1.6.3z"/><path d="m88.7 109.1h.7v.3h-.7z"/><path d="m90.9 106.2.1.1-.1.2z"/><path d="m129.3 69 .2.2-.2.1z"/><path d="m99.3 59.2c.9.5-.8.7-1.3.5.2-.4.9-.7 1.3-.5z"/><path d="m101.6 61.5c.5.6-.9 1.1-.7.2s.6-.2.7-.2z"/><path d="m97.9 64.1c-.4.6-.4-1.6 0-1s0 .9 0 1z"/><path d="m100.6 62.8h.7v.3h-.7z"/><path d="m101.4 63.4.3.4v.3l-.1-.2z"/><path d="m80.5 62.4c.2.9-.9.6-1.3 1.3-.2-1 .3-1.5 1.3-1.3z"/><path d="m60.2 64.4c0 .5 0 1.9-.7 2 .4-.5-.6-2.2.7-2z"/><path d="m61.1 66.4c-.7 0-.2-1.5-.3-2 .7 0 .2 1.5.3 2z"/><path d="m60.8 63.1c.2.6 0 1.3-.7 1s.2-2 .7-1z"/><path d="m65.1 64.7c.5.6-.9 1.1-.7.2s.6-.2.7-.2z"/><path d="m71.2 59.5.1.2-.1.1z"/></g></svg>