<svg fill="none" height="207" viewBox="0 0 189 207" width="189" xmlns="http://www.w3.org/2000/svg" xmlns:xlink="http://www.w3.org/1999/xlink"><clipPath id="a"><rect height="147" rx="15" width="129" x="31" y="32"/></clipPath><rect height="192" rx="7.5" stroke="#000" stroke-width="15" width="174" x="7.5" y="7.5"/><g clip-path="url(#a)"><path d="m78.65 32.1396c5.8933 0 10.7033.8234 14.43 2.4701 3.7267 1.6466 7.063 3.64 10.01 5.98 1.04.78 1.907 1.17 2.6 1.17 1.647 0 2.73-2.6 3.25-7.8h2.99c-.173 3.38-.303 7.4966-.39 12.35-.087 4.7667-.13 11.1367-.13 19.11h-2.99c-.607-5.2-1.56-9.7067-2.86-13.52-1.213-3.9-3.51-7.2367-6.89-10.01-2.08-1.9934-4.68-3.5534-7.8-4.68-3.0333-1.1267-6.11-1.6901-9.23-1.6901-4.7667 0-8.84 1.2567-12.22 3.77-3.38 2.4267-6.1533 5.7634-8.32 10.0101s-3.77 9.0567-4.81 14.43c-1.04 5.2867-1.56 10.79-1.56 16.51 0 15.6 2.1233 26.9963 6.37 34.1903 4.3333 7.193 10.53 10.79 18.59 10.79 2.08 0 3.9-.26 5.46-.78s2.8167-1.127 3.77-1.82c1.2133-.867 2.0367-1.777 2.47-2.73.4333-1.04.65-2.384.65-4.03v-12.74c0-3.987-.3467-6.9336-1.04-8.8403-.6067-1.9933-1.8633-3.3367-3.77-4.03s-4.68-1.0833-8.32-1.17v-2.6c1.82.0867 3.9867.1733 6.5.26 2.6 0 5.2867.0433 8.06.13h7.67c3.64 0 6.977-.0433 10.01-.13s5.503-.1733 7.41-.26v2.6c-1.647.0867-2.903.39-3.77.91-.78.52-1.343 1.56-1.69 3.12-.26 1.56-.39 3.9433-.39 7.1503v25.74h-2.6c-.087-1.474-.433-3.077-1.04-4.81-.52-1.734-1.43-2.6-2.73-2.6-.607 0-1.43.173-2.47.52-.953.26-2.47.996-4.55 2.21-3.2067 1.82-6.5867 3.38-10.14 4.68-3.5533 1.213-7.28 1.82-11.18 1.82-10.0533 0-18.5467-1.864-25.48-5.59-6.9333-3.727-12.1767-9.057-15.73-15.99-3.4667-7.0203-5.2-15.427-5.2-25.2203 0-9.88 1.9933-18.46 5.98-25.74 4.0733-7.28 9.62-12.9567 16.64-17.03 7.1067-4.0734 15.2533-6.1101 24.44-6.1101z" fill="#66952f"/><path d="m125.82 86v3.5601c-2.947.0867-5.2.4333-6.76 1.04-1.473.52-2.47 1.56-2.99 3.12-.52 1.4733-.78 3.8133-.78 7.0199v65c0 2.947.217 5.157.65 6.63.52 1.473 1.473 2.47 2.86 2.99 1.473.433 3.553.65 6.24.65h8.45c3.727 0 6.847-.52 9.36-1.56 2.6-1.04 4.767-2.6 6.5-4.68s3.077-4.767 4.03-8.06 1.69-7.15 2.21-11.57h2.99c-.26 2.773-.39 6.413-.39 10.92 0 1.733.043 4.29.13 7.67.173 3.293.433 6.717.78 10.27-4.42-.173-9.403-.26-14.95-.26-5.547-.087-10.487-.13-14.82-.13-1.993 0-4.55 0-7.67 0s-6.5.043-10.14.13c-3.553 0-7.193.043-10.92.13-3.64 0-7.15.043-10.53.13v-2.6c2.9467-.173 5.1567-.52 6.63-1.04s2.4267-1.56 2.86-3.12c.52-1.56.78-3.9.78-7.02v-64.48c0-3.2066-.26-5.5466-.78-7.0199-.4333-1.56-1.43-2.6-2.99-3.12-1.4733-.6067-3.64-.9533-6.5-1.04v-2.7872c1.9933.0867 4.5529-.0868 7.6729-.0001 3.2071.0867 6.6171 0 10.2571 0 3.293 0 6.793-.1861 10-.2728 3.293-.0867 5.74-.4133 7.82-.5z" fill="#090909"/></g></svg>