<?xml version="1.0" encoding="UTF-8"?>
<svg id="_Шар_1" data-name=" Шар 1" xmlns="http://www.w3.org/2000/svg" version="1.1" viewBox="0 0 185.3 191.6">
  <defs>
    <style>
      .cls-1 {
        fill: #404231;
        stroke-width: 0px;
      }
    </style>
  </defs>
  <g id="qx1Mst">
    <g>
      <path class="cls-1" d="M98.9,137.4h-.3c.6-2.6.6-.8.3,0Z"/>
      <path class="cls-1" d="M116.7,53.2c-.5.6,1.2,4.2.7,4.9l-.7-1.3c-1.4-.2,0,2.5-1.6.8-.4-.4,0-1.7.3-2.4s.5-1.7.7-2,.6,0,.7,0h0ZM116.7,55.5h-1c-.9.9,1.9.9,1,0Z"/>
      <polygon class="cls-1" points="93.7 126.9 93.3 126.2 93.7 126.2 93.7 126.9"/>
      <path class="cls-1" d="M91,115v-.3s.7.2,0,.3Z"/>
      <path class="cls-1" d="M69,55.2c-.4,0-.5,0-.7-.3l.7.3Z"/>
      <path class="cls-1" d="M89.1,110.8c0,0-.7-.9.2-.7.3,0,.2.6.2.7h-.4Z"/>
      <path class="cls-1" d="M98.3,138.4s0-.6.3-1c0,.5,0,.5-.3,1Z"/>
      <path class="cls-1" d="M77.6,61.8c-.3,0-.6,0-.7-.3.3,0,.7,0,.7.3Z"/>
      <path class="cls-1" d="M70.3,55.5c1.5-.8,1.4.4,2.3,1.3.4-2.1,1-.6,1,.7-.8.2-.5-.2-1-.7,0,.5,0,1.2,0,1.6-.6-.4-.4-1.3-1-1.3-.7.5,1,1.8.7,2-1.6.8-.7-1.6-1-2s-.9,0-1,0v-1.6ZM71.7,55.9c-.3-.2-.9.2-1,.7.6.3,1.5-.3,1-.7Z"/>
      <path class="cls-1" d="M61.8,61.8c.2.2-.2,2.1,1.6,2,0,1,.7,1.9.7,2s-1.8.2-.7,2c-.9.4-.4-1.1-1.3-.7v-1c1.3.4.6-2.5,0-1.6s0,1.2,0,1.6c-.4,0,0-3.5-1.3-4.3.2,0,.9,0,1,0Z"/>
      <path class="cls-1" d="M116.7,53.2c0,0,.2-.2.3-.3,0,.3-.3.3-.3.3Z"/>
      <path class="cls-1" d="M82.2,101.2c0,.2,1.2.7,1,1s-.9-.3-1-.3v-.7Z"/>
      <path class="cls-1" d="M82.2,100.6v.7c-.3-.4-.6-.9-.7-1,.2,0,.5.3.7.3Z"/>
      <path class="cls-1" d="M82.2,99.9h1c0,0-.4.6-.3.7h-.7v-.7Z"/>
      <path class="cls-1" d="M81.5,100.2c0,0-.2-.2-.3-.3,0,0,.2.2.3.3Z"/>
      <path class="cls-1" d="M79.5,99.6c.2.5.2,1.1.6,1.5,0,.2-.5,0-.6-.2s-.3-.2-.3-.3-.3-.6-.3-.7v-.7c0,0,.5.3.7.3h0Z"/>
      <path class="cls-1" d="M77.6,61.8s1.3-1.3,1.6-1c-1.1.7-.3,2.1-.3,3.3-.8,0,.3-.9-1-1,0-.5-.3-1.2-.3-1.3Z"/>
      <path class="cls-1" d="M97.9,98.9c-.6,1.7-.5.2-.7,0h.7Z"/>
      <path class="cls-1" d="M97.3,98.9s-.7.2-.7-.2.5-.6.7-.8v1Z"/>
      <path class="cls-1" d="M79.5,88.4s.2,1.3.3,1.6c-1.1,0-.9-.6-1-1.3s.2,0,.3-.3h.4Z"/>
      <path class="cls-1" d="M92.4,63.1c-.2,0-.5.2-.7.3v-1.6c.5,0,.6,1.1.7,1.3Z"/>
      <path class="cls-1" d="M93.7,140.3v-.3c.7.2,0,.3,0,.3Z"/>
      <path class="cls-1" d="M97,58.2c.8-.8,1.1-.8.7-1.3,1.6-.5.8,1.2,1,1.3s1.9,0,2.3.3c2.1,1.9-3.8-.6-3.9-.3h0Z"/>
      <path class="cls-1" d="M131.1,62.4c-.2.2,0,.5-.7.3,0-.4.4-.4.7-.3Z"/>
      <path class="cls-1" d="M39.1,77.9c-.5,0-1.8,0-2,0s.2,1.3-.2,1.3-1.2-3.3-3.1-2c-.3-1.3,1.3-.4,1.6-.7s-.8-1.2-.7-1.3c.2-.2,4.3.7,3-2.6,1.3-.3.8.5,1,.7-1-1.1-.3,1.7-.3,2h-1.3c-.2.2,1.2,2.9,1.3,0,.3,0,.7.8,1,.5-.5-.4-.5-2.3-.6-2.5,1.1,1,1.3,1.9,1.3,3.6-.7.6-1.4-1.1-1,1Z"/>
      <path class="cls-1" d="M115.4,55.2s-1.3-.3-1.6,0c-.3-1.1.9-.5,1-.7.2-.4-.7-11,1.6-3.3,1.1-2.3,3.6.6,2.8-1.9s-1.1-.6-1.2-1.1.6,0,.7-.2-.7-1.3-.2-2.1,3,2.5,3.1,2.8c.2.6-.6.5-.6.6,0,.7-.7,9.8.9,7.7.2-.2-.9-5.9,2.3-3.3,0-4.9,3.7-.2,1.3,1v-2.6c-1.2.2-.4,3.1.2,3.3,1.2.3,1-2.4,2.1-2.3-1.1,2.4-1.4,3.4-1.6,5.6-.9-1.2.5-1.7-1.3-1.6,0-.2.7-.7.7-1.1-.2-.8-1.2,0-1.3-.2,0,0,.6-.8.3-1s-1.9.5-.3,1c0,.5-.5,1.6-.3,2s.8-.7,1-.7v1.3c-1.6,0-1.4.7-.3,1.3-.3.7-.6,1.1-1,1.6v-1.6c-.5,0-.9,1.3-1.2,1.3s.8-1.5-.3-1.3c-.7.6-.3,1.2-.8,2v-2.3l-1,2.3-1.6-1c2.3,1.1-1.1,1.9-.2,3.6.9,1.7.8-1.3,1-1.3.4,0-.4,1.7.8,1.3-.6-2.8,0-1.3,1-2.6,0,.9-.4,1.7-.3,2.6.3,0,.4-.4.7-.7-.8,1.3.5,1.8.7,2,1.2,1.4,1.1-.6,1-.7,0-.2-.9.8-1,.7s0-3.3-.7-2c.4-.5.7-1.8.7-1.9.3-.3,1.2-.3,1.3-.4.2,1.2.4,2,0,3.3l.6-.2c-1.5,1.6.4,1.5.7,1.8,0,.5-.4,2.2.7,2,.9-1.8-.5-1.7-.7-2v-2c.9,1,.5-1.8,2-.5,0,0,.6,3.1,1.5.8,1.1-2.8-2.3-1.3-1.5-3.9l1.3.7c-.7-.9,1.6-4.7,2.3-3.4,0,0,.2,1.6.3,2.2s.6.2.6.2c.2.9-1.6.9-1.6,1.5,0,1.1.6.7.7.8v3.6c2.2,0,.2.5.3,1.6-.6,0-.3-1.2-.3-1.6h-1.6c-.2.2.2,4.5.3,4.9-1.3-1.1-1.2.9-1.3,1-.4.3-2.9,1.6-1.1,2.6.8.5.5-1.9,1.1-2.6.6-.7,2.5,0,1.3-1,.3,1.4.6,2.8,1.3,3.6s.9.4,1-1l-1,1c-.6-1.1.3-2.7.3-3.3v1c1,1.1.9-2.8,0-1,.2-1.8.9-1.5-.7-3,.5-.2,1.3,1,1.6.7s-.4-1.4.3-1.3c.9,2.7.9,2.8-.3,5.6.9.2.5-.4,1-.7v1c1.1,1,.7-2.6,0-1,0,0-.2-.6.2-.7,1.2,0,1,.8,1.2,1s.8-.4.9-.3c.4.5-.5,3.8,2.3,3,.3,1.2-1.2.5-1.3.7s0,2.3,0,2.6c-.9,0-2.5,0-2.6,1.1.5.6,1-.6,1.5-.5s.4.4,1.2.7.8,1.8,1,.2-1,0-1-.2v-1.3h.7c0,.3-.2.9.2,1,1.4-1.9.1-1-.2-1-.3-4.3,1.2-1.7,1.5-1.7,2.1.3-.9-1.8.2-2.6-.9-.4-.5.9-1,.7s.2-.7-.2-1-1,.5-1.1.2.6-.6.5-1c-.5-1.9-2-1.1-1.5-3.1l-1.3,1.3c-.5-1.8.5-2.6,1.9-1.6.2,0,0,1.2,0,1.3.2,0,.9-.4,1-.3s-.4.4.7,1.3c1.6,1.4,3.5-1.1.3-.3-.3-3.1-.6-.8-1-1.3-.6-.9,1.2-2.3-3-1.3-.2-1,.9-.5,1-1.5s-.6-.7-.7-.8c.2-.5.3-1.1.3-1.6-2.1,1.5-.4,1.5-.3,1.6-.3.6,0,.7-1,1,0-1,.3-1.6-.7-1,.2-1.5,1.8-2,.2-3.6v2c-.9.9,0-1.3-1.1.3.4-1.3,1.2-3.3-.3-3.6.2-.2-.1-1.1,1-.9.4,0,2.7,2.9,3.1,2.8s1.5-1.4,1.2-1.6-2.6.7-1.6-.3c3-3.2,1.4,4.9,3.8.3,1.4,6.7,4.5-2.3,1.2,2v-2.6c1.3-.2.1.8.3,1,1.5,1-.2-2.5.2-3.5,1-2.2,1.4.9,1.6.9.7,0,0-2,1.2-1.6,1.4,2.6-1.6,3.8-1.7,6.4,0,2.6,1,.2,1,1s-1.6,1.6-1,2.8c.9.3.8-.8,1-.8,1.1-.3.5,3.7-2.3,2.8l2.3,1c-3.5-.4-.8.8-1.9,2.6-.4.7-1.2.2-1.6.7s6.7,2.9,5.8-1l-1,1c.7-3.3,0-.8-1-2.3,2.3-1.5,2.3,2,2.5,2,.4,0,.4-1.4.8-1.8s1.9.7,1-1.5c2.3,1.7,2.6,0,4.6-.3-.2.6-1.7.7-2,1.5s1.4.4,1.3,1.5l-2.3-.3c-.3,1.1,1.3.7,1.6,1s-.7,3.3-2.3,1.9,0-1.2,0-1.3c-.2,0-2.8.7-2.6,1.5.3,1.3,2.2-.5,1.6,1.8l-1.3-1c-.2,1.2,1.1,2.2-.7,2-.3,1.2,1.1.4,1.3.7.6.6-1,1.4-1,1.5,0,.3,1.3,1.5,1,1.8-1.1.8-2.7-2-2.9,2.8,0,.3,1,.4,1,.5-.1,2.5-3.5,1.2-5.3,2.6,1.8-3.1-.7-2.7-.6-.8,0,1.8,3.1,2.2-1.7,1.7-.2-1.5-.8,0-.7.3s.6-.3.7-.3c.1,1.2-.4,1.9-.7,3,1.9-3.5,1.9-.6,2.3-1s-.1-.8,0-.9c2.4-1.2-.1.7.4,1.9.7-1.3,2-2.2,2.8-.5,1.5-.8-.4-2,0-2.5.9-.9,1.2,1.3,1.3,1.3.8.6.4-1.6,2-.9,3.9,1.5,0,2.4-1,3.2-.8.6,2.4.8-.8,1.7-.3,0,0-.7-.5-.7s.2.9-.2,1c-1.4.2-2.4-1.4-2.5-1.3-.7.9.8,3.3-3,1.6.5.6,2,1.1,1.9,2.2-.2,1.9-1.7-.5-2.3-.7-2.1-1-3.5-2-5.2-2.2l1.6,1c-2.4,1-2.7-.5-1.6-2.3-.9.8-1,.4-2,.2.5.7,1.5,2.6.5,3.1-1.3.6-.8-2-1.5-2.5-.4-.3-1.1.3-1.5.2s-.2-.7-.4-.7c-3.2,0-1,2-1.5,3-2.7-1.5-2.9,2.5-3.6-2.3-.6,1.7-2.5,3.7-2.9,5.5s1,2.4-.4,4.8c-1,1.6-2.2,1.3-2.5,1.6-1.6,1.6-4.6,4-5.7,5.9-1.7,2.8-7.7,19.1-7.5,21.8.2,2.6,4.8,7.7,7.1,8.3,1.4.4,3.9-1.5,2.7,1.4-.2-1.5-2.8-1.1-2.8.3.4-3.2-4,2.2-2.1-2-1.1.9-2.4,4-2.6.7,0,0,1.4.2,0-.7v.7c-1.1-1.9-3.3-.8-2.3-3.6-2.5,4.4-4.1,3-2.3-1.3-.4,0-.3.4-.7.7,0-.4.2-1.7-.3-1.6l-.3,2.3c.4,0,.3-.4.7-.7-.2,3.1-.7.7-1.1,1-.8.6-.3,2.1-1.5,2-.9-2.8,1.2-1.8,1.3-2,.2-.2.5-2.8.7-3.3.6-1.8.4-.9,1,0l.3-1.6c-1.1.6-.4,0-.8-.7l-.5.7-.8-1.6c.7,3.3-.9.3-.8-2,0,1.3-1.8,7.4,1,6.2-1.2,2.3-1.5,1.3-2.3-.3-2.9,6.7-.2.4-.3-.2-.2-1.2-1.8,1.9-2,2.1s-.5.2-.6.5l.6-.2c-1.1,3.3-.7.6-1.5.7s-4,3.5-4.3,4.3l-1.3-2c1.1,3-.2.8-.5,1s-2,3.4-.7,0c-1.6,1.2-2.2.1-.7-1-.8.5-2.6.2-3.1.3-.7.2-.3,1-.7,1.3s-.4-1.3-1.7-1-.6,1.3-1.6,1c-1.2-.4-.3-2.6-.2-2.6.6-.2.9.7,1.4.6,1.1-.1,8.5-1.2,8.8-1.6s-.5-1.5-.3-1.7c.4-1,1.9-1.4,2-1.5,0-.2.7-4.8.7-5.1,0-1.7-1.8-3.5-1.7-5,0-1.5,1.2-1.2,1.3-1.7s-.7-3.7-.7-4.8.8-2.1.7-3.6c0-1.4-1.1-1.8-1-2.6,0-1.2,1.1,0,1.3-.2,1.4-1.3-1.4-1.3-1.6-1.5-6.2-4.4-5.2-1.3-11.3-.8-2.1.2-5.8-.3-7.8-1.1s-6.2-4.8-7.6-5.3c-.9-.3-2.3,1.1-2.2-.4s2.2-1.3-.2-1.8-2.1,2.9-2.9,2.6.5-1.1,0-1.3c-1.4-.5-3.5,3.4-4.7,1.3-.7-1.3,1.1-3.5.9-3.6s-2.6.2-2.6-.8,5-1.4,2.6-2.8c-.6-.3-1.1.9-1.5,1-.6,0-1-.9-1.3-.9s-1.9,1.4-2.5.9,0-1.2,0-1.3-.8.4-1,.2c-.6-.5-.9-2.1-1-2.2-.4-.3-.5,1.1-1.2,1.3-.4,0-3.5-.5-3-1.3s.8.3,1,0c1.9-1.5-1.8-.5-2.6-3,0-.3,1.7-1.7,1.9-1.7s.4,1,.9,1.3,1.4-1.1,1.8,2c1-.2-.5-1.9-.2-2s1.4,1.3,2.1,1l-1,1c.9,0,5.1-1,5.3-1.3.5-.9-1-.6-1-.7-.2-.6,1-1.9.5-2.6s-2.1-.7-2.2-.6c0,.2.2,3.7-.2,4.3-1.3-.4-1.1-2.3-2.1-.6,0-.7.4-1.3.7-2s2.1-1.3.7-2.6.6,4.3-2.3.3c-.3.7,1.8,2,1.6,2.3s-2.2.7-2.3.7c-.4-.4,1-1.7.7-2s-1.1.3-1.2.3c-.2,0,.2-.6.2-.6-.4-.2-1.3.2-2-.2-1.6-.8.3-1,.3-1.1-.7.6.7,1.5,1.3,1s-.8-1.5-1.3-1c.6-1.5-1.1-3.1-1.6-1.6-3.6-1.2-1.3,2.1.3,1s-.4-.7-.3-1c2.5.9-.2,1.4-.7,2.6.4-1.5-2-1.2-2-2.5,0-2.7,4.1-.3,4.3-.5,1.5-1.8-3.1-1.1-3.3-2.1s1.2-.8,1.3-1.3-.5-.9-.6-1.6.7-1,.6-1.2-1.2,0-1.3-.5c-.3-1.2,1.3-1.7,1.3-1.8,0-.3-.6-.7-.7-1h1.3c0,0-.3-.7-.3-1,.3-.2.6-7,.7-1.6l.3-1.6c.9,0,1.9,2,1.6,2.6l-1-1,.3,2.6-1.3-1.5c.2,2.6,1.9,1.7,2,1.8s-1,3.6.3,4.3c-.6-7.1,1.1-2.5,2-2.6s1.1-1.1,1-1.3-1.6-.5-1.6-1.2,1.4-2.1.6-3.1-3.2,0-2.6-1.5c.5-1.4,3.2,0,3.6-.3s1.3-3.2,1.3-3.8c.6,1.1.8.2,1,.3,0,.4.4,3.5,2,2.3-1.1.4-1.9.9-1.3,2.3-.3-.2-.8-1-.8-1-.9.2-.2,1.4-.2,1.6-3.8-.8-.8,1.8.3,1s-.3-.7-.3-1c.7,0,5,2.7,1-.7.8,1.8.7-1.4,1.6-1,0,.5-.2,3.1,1,2.6.9-.4-1.1-2.8-1-3s2.5-.2,2.8-.6-.5-2.1.3-2,.4,4.7,1.8.3c-1.8,1.1,0-4-.6-6,0-.4-1.1-.2-1.3-.7s1.3-.9,1.3-1c.2-.7-.4-2.4-.4-2.4.9-.9,3.3,1.9,2.6,3.3,1,0,.9-1.4,1.4-2s.9.4.9.3c.3-.5-.6-1.4-.5-2,.3-1.7,2.2-2.6,1.5-4.9l-.7,2.6c-1.6-.5-.2-3.6.5-3.6s1.7,3.7,2.1,4.3l1-1.6c-.4.8,1.4,4.9,2,4.6s-.3-4.4-.3-5.3c0,0,0,.6.2.7,1,.2.4-1.2-.2-.7v-1c1.6.5.5-.8-.3-1.3,0,.4.4,1,.3,1.3-3.8-1.3.6-1.5.7-1.6.2-.3-1.5-3,0-3.6.3,1.4.2,4.1.5,5.3s2.9,2.7.8,2.6c0-.3,0-1.2,0-1.3-.5-.7-1.4,1.2,0,1.3,1.5,3.5,1-1.2,2.3-.3,0-.6-.3-1.1-.3-1.6s.7,0,.7-.2c-.2-1.1-1.8-1.8-1.3-.2-1.5-.8-.8-.6-1.6-2.6,1.1-.7,1.2,1.7,1.6,1.3s-1-1.6.3-1.3l.7,1.3.3-1.6c-.2,1.3.6,2.5.7,3.6-1.8.9-.3,1.4,0,1.6v3.6c-.2,0-.6-.5-.7-.3-.4.8.5,3.3.7.3,1.1,0,1.4,0,2-1.6s.3-.4.3-.7c3.1,1.9,0-7.6,3-1,0-1.2.7-2,.7-3.3-.3,0-.9.8-1,.7-.2-.3.8-1.3,0-1.3l-1,1.3c.3-3.2-.8-2-.7.3l-1.5-1.3c-.5-.3-.5,2.5-1.1.7s1.9-.9,2-1c.2-.2-.4-1.3-.3-1.3.2-.2,2,1.1,2.3-1.2.2-1.6-1.1,1.3-1.6.8-.9-.9,0-5.4,1.3-4.1,1.7,1.6,0,4.9.3,5.1.4.4,1.3-1.8,1.3,1.3.6-.3,1.6-1.1,1.8-1,.4.2.6,2.2,1.8,1.5,2.1-1.3-.3-1.4-.3-1.5-.7-1.2.9-.9,1-1,0,0-.9-2.6,1.6.3-.3-.3-2,0-1.3,1s1.9-.3,1.3-1c1.8,2,0,1.6-.5,2.6-.8,1.5.4.6.5.6-.8,2.2.5,2.6,2.3,2,0-.8-1.1-.4-1.1-.4-1-1.1.7-.8-1.2-1.6,1.1-3.2,3,2.6,2.3-2.3l1.3,1.6c.2-.7-.3-1.7-.3-2.3.9.2,3,1.3,2.3-.8s-1.1.3-1.3.2,1.4-4.5-.7-1.6c.4-.6,0-2.8,1-3.3.9,3.2.8,6.9,4.6,3.6-.3,2,1.5.3,2.3,3,1-1.6-.7-3-.7-3.1,0-1,.9-.3,1-.5s-.9-3.2-.7-3.9c1.9.3,1,3.2,3,1,.7,1.5-.3,1.7-.6,3.1,3.4-2.1,0,4.1.6,5.7-1.6-.5.3-2.8,0-3s-2.1.7-2.2.7c-1.2,1.4,1.5,2.9.6,4.5l-1-1.3c.2.8,0,1-.3,1.6.6-.6-1-1.6-1.3-1.3s.7,2,1.3,1.3c-.3.7-.9,1.1-.7,2-2.2-3.7-1.2-.5-1.3-.3s-.9-.7-1.3.2-.2,3.9,0,4c.3.3,1-.9,1.6-1.3,0,.4-.2,1.1.2,1.3.6-.4.5-1,.5-1.6,0,0,1.2-.2,1,0-.2.6-1,3-1.6,3.1v-1c0-.3-.6.6-1-.3,0,1.1-.3,1.6,1,1.3.2.6-.4,1.7.5,2.3,1,0,0-1.3.2-2s.6,0,.7,0c0,.6,0,1.4,1,1.3v-2.3c-.3.2-.8.7-1,1-.6-2.4.7-1.1,1-1.6s-.8-1.1-.7-1.3,2.6,1,0-2.3l2.3,2c-.5-.9-1-2.7-.6-3.7s1.4,0,1.6-.2,0-.9.3-1.3c-.2.4.5,1.7.3,2s-.8-.5-1-.3c-.3.3.6,2.7-1,0-.3,2.1,1.7,3.3,2.3,1,.6,1.5-.5,3.5-1.6,1.6.2,1.3,1.3,1,0,1.8,4.4,1.4,2.4-.8,2.6-1.1.6-.8,1.4.7,1,1.6l1-.7c-1.7,2.6,1.5,2.2,1.6,1.8.4-1-.7-.8-.7-1,.2-1,.6,0,.7-.2,0-1.1,0-2.2,0-3.3.8.5.5,6.4,2,3.3s-1,0-.6-1.8,1.3-2.8,1.3-3c0-1.3-2.1.4-2.3.5.3-3.2-.6,0-1.6-2,0-.3,0-1.5-.3-2,.5.3,2,2.6,2.6,1.1.6-1.4-.9-.4-1-.5-.9-1.2.3-3-1.6-1l-.7-1.3c.4,3.3,0,0-.8.3s-.9,2-1.8,1.3,1.6-3.9-.3-1.3c0-4,2.3,2.1,2.6-2l1,.7c.3-2.3-.5-.7-1.6-1.3l2.3-.7c-2.7-1.7-.4-1.2-.3-1.3s-.4-.6-.3-.7c0,0,.8,0,1,0s0-1.4,1.7-1.9c.3.7-1.4,2.2-1.3,2.3.2.2,1-.4,1.2-.2,2.2,1.4-.5,1.1-.6,1.2s0,3-.3,3.6c1.1,0,1.3-2.2,1.3,0,1-2.5.9,1.3,2.3-1.6.7,8.1.7-1.5,1.8-1.3,1.1.2,1.8,2.8,1.2,3.6,3.5-2.2,1.6,0,1.6.2.4,1.2,2.4,2.7-1,3.3-3.1.5-.2-1.2-2.3-2.8,1.1,1.3-.6,7.6-.3,7.9.3.3,2.6-2.1,2,1-2.8-3.5-2.1,3.1-.3,2s0-.6,1-1.5c.3-.2.9.2,1,.2.2-.4-.5-1.4-.3-1.6s.9.5,1,.3c.2-.2-1-4.4,3.3-2.6,0,.7,0,1.4,1,1.3.2-2-.3-1-1-1.3,0-.6.4-1.3.3-2l-1,.7c0-2.1,1.8-1.2,1.3.7.9-.9,2,.4,3-.3.9-.7,1.9-7,0-2.6,1.5-2-1-4-1-4.3.2-1,3.3-.5,2-2.9-1.3-.3-.4,1.6-.6,2s-1.2,0-1.3,0c1-2.1-.4-.6-1,.3s-.7,0-1,.5.4,1.2.3,1.4l-.5-.2ZM95.3,50c-1.3-.2-.4,1.6-.3,2.3l.3-2.3ZM91,52.6s-.9-.4-1-.3c-1,.9,1.3,1.4,1,.3ZM89.7,52.6c-.8-1-2.6,2-2.3,2.3.8.8,2.4-2.1,2.3-2.3ZM95,52.6s-.6,0-.7.2c-.2,1,1.2.4.7-.2ZM92.7,53.2c-.7-1.1-.7,1.4-.3,2,.6,0,.4-1.9.3-2ZM91.7,55.5c0-.7.2-1.7-.6-2,0,.5,0,1.9.6,2ZM122.9,55.9c.2-.2.3-1.6.3-2-.9,0-1.2,3-.3,2ZM87.1,54.2c-1.2-.2-.9,1.6-1,2.3,1.2.2.9-1.6,1-2.3ZM101.9,54.2c-.3-.3-1.2.5-1,.6.3.3,1.2-.5,1-.6ZM120.3,54.9c-.7-.3-1.4,1.5-1.3,1.6.4.4,1.7-1,1.3-1.6ZM103.5,55.5h-1c-.5.6.7,1.1,1,0ZM89.2,55.9v.3l.2-.2-.2-.2h0ZM93,56.2s-2.3,0-2,.7c.4.6,2.9,0,2-.7ZM104.5,56.5c-1.6-.8-.3,1.7-1.3,2.6,1.9-1.1,1.5-.6,2.3,1,.8-5.5-.6-2.6-.8-2.6-.4,0,0-.9-.2-1ZM123.6,56.5c-1.9-1.7-1.3,4.9-.2,2.5s.3-2.5.2-2.5ZM61.1,56.9c0,.5,0,.7.5,1,0-.3,0-1.1-.5-1ZM66.4,58.5c.2-.2-.5-1.6-1-1.6-.3.5.4,2.2,1,1.6ZM120.6,56.9c-.7-1.1-1,1.9-.2,2,.2,0,.2-1.8.2-2ZM90.7,57.2c-2.2.3,1.1,3.3,1,.3-1.2.8-.9-.3-1-.3ZM106.8,57.2c-1.1-.4-.5,2.3-.2,2.3s0-1.9.2-2.3ZM88.3,58c0,0-.8-.7-1.2-.5s1.5,3.6,2.3,1.4-.7-.4-.8-.4c-.3,0,0-.5-.3-.5ZM61.4,58.2c0-.2-1.1-.5-1.3-.4-.8.8,3.2,3.3,1.3.4ZM76.9,61.5c-.3,0-.9.4-1,.3,0-.2.8-3.3.7-3.9-1.3,0,0,1.8-2,1.6,2-.3-2,3.7,1,4.9,0,.9.4,3.2,1,3.8s1-.3,2-.2c-.3-.3-1.3.6-1,1s1.3-.7,1-1h2v1.1c.6,1.6,1.9-.8,0-1.1,0-.2.4-.7.3-.9s-2-2.1-1.9-2.7c1.3,1,3.5,1.1,3.6-.8s-1.6-1-1-1.5,3.5,1,1.3-1.3c2,.4,1.2-.7,1.3-2.3-1,0-.6.7-1.3,1.3.3-.3.5-1.9-1-.7-.2-.4.5-1.8-.7-1.2l-.6,2.5c1,0,.6-.7,1.3-1.3,0,0,.3,1.5,1,.7-1.2,1-1.5-.2-1.6,2.3-.5-.7-.4-.5-1-1,0,0,0,1-.2,1-.6,0-.6-1.7.2-1-.4-.3-.7-1.2-1.8-1.3s0,.6-.3.6c-.4,0-1.5-1.3-1.2,1h-.1ZM80.5,57.8c-.4-.6-.9.4-.7,1,.4,0,.8-.7.7-1ZM121.9,57.8c-.3-.4-1.4.8-1,1.3s1.5-.7,1-1.3ZM62.5,59l-.4,2.4c.8,1.1,2.2-2.8.4-2.4ZM77.9,58.5c-.9-.9-.9,1.9,0,1s0-.9,0-1ZM79.5,58.5c-1-1-.5,1.5.2,1.3s0-1.3-.2-1.3ZM85.9,59c-.9-1.6.3,2.6.9,1.4,0-.9,0-1.6-.9-1.4ZM69,63.4c0-1.3.4-2.3-.6-3.7s-1.9-.9-2-.9c-.4.4.3,3.3.5,3.6s.9.2,1.1.4,0,.9,0,.9c0,0,.8-.4,1-.3.3,2.3,1,.3.7,0s-.5,0-.7,0ZM60.5,60.8c.2-.3,0-1.6-.7-1.6-.2.6,0,2.5.7,1.6ZM64.4,60.1c-.9-1-.9,2.4,0,1.3s0-1.3,0-1.3ZM60.8,61.8s-.8,0-1,0,.2.9-.2,1,.2-1.4-.8-1l-.3,3.6c-2-2-.9.8-1,2s-1-.2-.7.7c.9.4.6-.6.7-.7.3-.3,1,.4,1.5-1.6-.2,2.7,1,1,1.5,1.3s0,1.1.5,1.3c.6.3.6-1,1.1-1.3.6,2.7,1.1.8,1.3.7.9-.4,1.6,1,1.3-2l1,1c-.4-2,.6-1.6.7-1.6,0,.2,0,.8,0,1.3s.9,0,1,.2c.2.8,0,3.8.3,4.5.2.4.6.2.7.2-.4,2.3,1.5,2.5.9.6-.3-.8-.8-.6-.9-.6v-.7c0,0,.7,0,1,0,.2.6,0,1.8.7,2-.3-1.8,1.1-2.3-.7-2,0-.3-.2-1.6-.3-1.6-.6-.3-.4,1.4-1,1.3-.4-.9.6-4.6.3-4.9s-.9.5-1,.3c-.6-.7.2-2.1-1-.7-.7-1.6-1.6-1.1-1.3-3.3-1.8.4.6,1.8-1.6,2,0,0,.6-2.8-.3-2-.3.3.9,1.5-.2,1.3,0-.9-1.1-1.2-1.2-1.3s0-1.5-.8-1.3,0,1.2-.2,1.3h0ZM106.5,61.8s-.7-1.4-1-1.3c-.7.3-.2,2.3,1,1.3ZM71.7,62.1s-.7-.2-.7.5c0,2.4,2.5,1.2,1.7.2,0,0-1.9.9-1-.7,0,0,2.1,0,1-1.3-1-1.2-.9,1.2-1,1.3ZM85.7,60.9c-1.4-.2-1.2.9-1.6,1.9.8-.2,3.5-1.7,1.6-1.9ZM116.3,62.4v-1c-.4-.6-.4,1.6,0,1ZM117.7,61.5c-.9-1-.9,2.4,0,1.3v-1.3ZM129.2,63.1c0-.5.3-1.4-.3-1.3,0,.5-.3,1.4.3,1.3ZM123.2,63.8c0,0,0-1.6-.2-1.6-.9,0-.4,2.7.2,1.6ZM70.3,63.1v-.7h-.3v.7h.3ZM85.8,62.4c-.9-1-.9,2.4,0,1.3s0-1.3,0-1.3ZM106.2,64.4s.3-1.6.3-2c-1.2,0-.9,2.4-.3,2ZM132.3,62.4v.3l.2-.2-.2-.2h0ZM116.7,63.1c-.8-.6-1.5.6-.5,1,.8.2.5-.9.5-1ZM118,67.4c.3-1.8-.4-6.2-1.3-2.5l1.3,2.5ZM130.2,63.4c-.4-.3-1.3.6-1,1,.4.6,1.6-.5,1-1ZM126.5,65.1s0-1-.2-1c-.6,0-.6,1.7.2,1ZM70.3,65.7c0-.2.3-1.3-.2-1.2-1.1,1.3-1.1,3.3.2,1.2ZM116,64.4c-.5-.7-1.2,1.3-1,1.6.4.5,1.4-1,1-1.6ZM134.4,64.4s-.6,0-.7.2c-.2,1,1.2.4.7-.2ZM136.7,64.4c-.3-.3-1.4.7-1.3,1,.3.7,2.2,0,1.3-1ZM138,64.7c-.9-1.5-.9,3.4,0,2s0-1.9,0-2ZM97.1,66.7c0-.3.4-1.1.2-1.6-1.7.8-1.3,3.2.7,3.3.3-.9-.9-1.6-.9-1.7ZM98.6,66.7c0-.2,0-2.8-.7-1.6-.8,1.4.6,1.6.7,1.6,0,.5-.8,1.1.2,1.6,1.4-2.8,0-1.5-.2-1.6ZM99.9,65.1c-.9-.9-.9,1.9,0,1s0-.9,0-1ZM120.3,65.1c-.8-.5-.8,1.1-.7,1.3.5.6,1.3-.9.7-1.3ZM130.2,65.1s-.6,0-.7.2c-.2,1,1.2.4.7-.2ZM118.3,68.7c1.7,0,1.2-3.3.5-3.3s-.5,2.9-.5,3.3ZM126.2,67c.8-.2.7-1.1.6-1.6-.7.2-.7,1-.6,1.6ZM128.8,65.4s-.7,0-.7.2c0,.7,0,.6.5.2.1,0,.2-.2.2-.3h0ZM117,65.7s-.6,0-.7.2c-.2,1,1.2.4.7-.2ZM139.4,65.7c-1.6,0-.7,2.4-.7,3.3l.7-3.3ZM70.7,67c.5.3.8-1,.2-1s-.2,1-.2,1ZM136.1,66.1c-.5-.6-1.4,1.1-1,1.6s1.4-1.1,1-1.6ZM141.7,66.1c-1.4,0-2.2,0-2,1.6l2-1.6ZM106.8,68c0-.4.4-1.5.3-1.6-.5-.7-2,.9-.3,1.6.3,3.7,1.1,0,1-.3s-.9.3-1,.3ZM116.4,68.4c-1.3.4.4-1.9-1.3-1.6l.3,3.9c.7-.3.8-1.6,1-2.3,1.6-.5.4-1.8,0-1.3s0,1,0,1.3ZM137,69c.4-.4.4-1.8-.1-2.3-.1,1.9-1.8,1.7-1.8,1.8,0,.4,1.8.5,1.9.5h0ZM65.7,69.3c-.5-.8-.7.6-.7,1.2s.7.4.7.5c0,.3-.2,1.1.2,1.3.9.2.3-.9.5-1.3s.6.2.7-.5-.6-1.9-.4-2.8l-1,1v-1.6c-1.3.5-.3,1.4,0,2.3h0ZM109.1,69c0-.3-.2-1.7-.5-1.6-.6,0-.6,2,.5,1.6ZM120.3,68.7c0-.5.3-1.4-.3-1.3,0,.5-.3,1.4.3,1.3ZM140.5,67.7l.2.5.2.2v-.3l-.3-.3h0ZM64.4,68c-.6-.3-1,1.9-.2,2,.7,0,.3-1.9.2-2ZM69,68s-.7,0-.7.2c0,.7,0,.6.5.2,0,0,.2-.2.2-.3h0ZM87.4,69c0-.4-1.2-1-1.3-1-.6.4.4,1.4,1.3,1ZM118,68c-1.4-.5.2,2.4.3,2.3.6-.3-.4-1.9-.3-2.3ZM82.5,69.3s0-1-.2-1c-.6,0-.6,1.7.2,1ZM83.7,69.3c0-.3.3-.8,0-.9l-2.1,2.3c1.6.7,1.7.2,2.2-1.4h0ZM79.5,68.7c-1-.4-.7,1.9-.7,2,.6.8,1.2-1.4.7-2ZM137.4,70c.2.2.9-.8.6-1.3-.5,0-.8,1.2-.6,1.3ZM99.3,70.3c.3-.3-.6-1.3-1-1.3-.3.6.6,1.7,1,1.3ZM119.6,70v-1c-.4-.6-.4,1.6,0,1ZM102.5,71c0,0,.4-1.3.3-1.6-1.1,0-1.2,2.4-.3,1.6ZM108.1,70s0-.7-.2-.7c-.6,0-.6,1.2.2.7ZM109.4,71c0,0,0-1.6-.2-1.6-.9,0-.4,2.7.2,1.6ZM86.8,70.7c.5.3.8-1,.2-1s-.2,1-.2,1ZM96.3,70.3c0,0-.2-.4-.3-.5-.8-.5-.2,1.1.3.5ZM97.3,69.7c-.6-1-1,1.6-.2,1.6s.2-1.5.2-1.6ZM104.2,71.3c0-.6.6-1.1.5-1.6-.4.2-1.4,1.5-.5,1.6ZM76.9,71c0-.5,0-.7-.5-1,0,.3,0,1.1.5,1ZM100.6,72c0-.5-.4-1.8-1-2,0,.7,0,2.2,1,2ZM80.9,70.3c-.5-.8-.9.8-.7,1.3.5,0,.7-1.2.7-1.3ZM88.4,70.3c-.9-.9-.9,1.9,0,1s0-.9,0-1ZM108.5,71.6c0-.2,0-2.3-.7-1.3s.6,1.2.7,1.3c0,.3-.2,1.4.2,1.3,1.8-.2,0-1.2-.2-1.3ZM75.6,72.3c.2-.3,0-1.3-.7-1.3-.2.5,0,2.1.7,1.3ZM127.2,72c.5-.5-1-1.4-1-.5s.8.7,1,.5ZM66.1,74.3c.8.8,1.8-2.4,1.3-3-.3.2-1.7,2.6-1.3,3ZM71.3,72.6c0-.4,0-1.4-.7-1.3,0,.4,0,1.3.7,1.3ZM103.5,73c0,0,0-1.6-.2-1.6-.9,0-.4,2.7.2,1.6ZM110.1,71.3c-1.2-.3-.7,2.3-.2,2.6l.2-2.6ZM76.6,71.6s-.6,0-.7.2c-.2,1,1.2.4.7-.2ZM98.6,73c.2.2,1-1,.6-1.3s-1,1-.6,1.3ZM102.2,71.6c-.7-.7-.7.4-.3,1,.5.2.4-.9.3-1ZM99.9,73.9s.2-1.7-.3-1.6c-.4.5-.3,2.7.3,1.6ZM45.4,73.3l-2.3-.3c0,.7,2.1,1.1,2.3.3ZM129.2,73s-.6,0-.7.2c-.2,1,1.2.4.7-.2ZM57.5,74.3c.3-.4-.6-1.3-1-1-.6.4.5,1.6,1,1ZM59.2,73.3c-.4-.6-.9.4-.7,1,.4,0,.8-.7.7-1ZM71,73.3c-.7-1.1-1,1.9-.2,2s.2-1.8.2-2ZM69.7,74.9s0-1.3-.2-1.3c-.8,0-.6,2.1.2,1.3ZM134.8,73.6c-.4-.6-1.2,1.1-1,1.3.4.4,1.4-.7,1-1.3ZM138,73.6h-1c-.9.9,1.9.9,1,0ZM140,73.6c-.6-.5-2.5.3-1.6,1s2.5-.3,1.6-1ZM128.5,74.6v-.7h-.3v.7h.3ZM129.5,74.6c-.9-1-.9,2.4,0,1.3v-1.3ZM52.6,74.9c-.9-1-.9,2.4,0,1.3s0-1.3,0-1.3ZM80.2,76.9l.3-2c-.6,0-1.1,1.8-.3,2ZM69.7,76.2c.5.3.8-1,.2-1s-.2,1-.2,1ZM82.5,76.2c0-.4,0-1.6-.7-1s.6.9.7,1c0,0,0,3.2.7.5.2-.7-.6-.4-.7-.5ZM135.1,76.2v-1c-.4-.6-.4,1.6,0,1ZM47,75.6c-.3-.4-1,1.2-1.6.5.6.9,2.3.6,1.6-.5ZM51.6,76.9c.2-.3,0-1.3-.7-1.3-.2.5,0,2.1.7,1.3ZM75.9,77.2c.2-.5-.8-2.1-1.3-1.6s1,1.5,1.3,1.6ZM110.8,79.2l.3-3.6c-.8.6-1.5,3-.3,3.6ZM127.5,76.9s0-1-.2-1c-.6,0-.6,1.7.2,1ZM81.5,76.2c-.4-.3-1.3.6-1,1,.4.6,1.6-.5,1-1ZM128.8,76.2c-1,1-1.9,1.7-1.6,3,1.2-.8,2-1.4,1.6-3ZM129.5,77.9c.4.5,2.1-1.4.8-1.6s-1,1.4-.8,1.6ZM132.1,76.6c-.5-.6-1.4,1.1-1,1.6s1.4-1.1,1-1.6ZM120,77.9v-1c-.4-.6-.4,1.6,0,1ZM46.7,77.2h-1.3c-1,.9,2.4.9,1.3,0ZM64.8,78.5c.2-.3-.2-.9-.7-1-.3.6.3,1.5.7,1ZM80.5,77.6s-.6,0-.7.2c-.2,1,1.2.4.7-.2ZM134.1,78.5s.1-1-.2-1c-.6,0-.6,1.7.2,1ZM135.4,77.6c-1.1-.3-1,1.4-.5,1.3s.6-.9.5-1.3ZM102.9,78.2c-.4,0-1.1-.4-1.3-.2-1.5,1,1.2,2,1.3.2ZM48,79.5l-1.3-1.3v1.3c0,.1,1,0,1.3,0ZM129.5,78.6c-.4-.4-2,.8-1.3,1.3s1.8-.8,1.3-1.3ZM41.4,79.2c-2.4-.4-2.7,1.9-.4.7s.5,0,.4-.7ZM43.7,80.2v-1c-.4-.6-.4,1.6,0,1ZM52.9,79.2c-3.3.4-.6,1.4-.2,3.3.2-1.6-.8-1.9.2-3.3ZM48.7,81.2c0,0,2.1-.3,1-1.6-1.4-1.7-.9,1.1-1,1.6,0,0-1.3-.8-.7.5,1,2.2.6-.4.7-.5ZM103.5,81.2c.3.4,3.1,2.9,3.3,2.6,1.4-1.7-2.6-2.3-3.3-2.6,0,0,.5-.5.2-1-.5-.8-3.6-.8-.2,1ZM144.6,81.2c.3-.5-.9-2.1-1.3-1.6s.7,2.6,1.3,1.6ZM42.1,80.2c-.7,0-2.2,1.7-2.3,2.1-.2,1.1.9,0,1,.2.2.4-.8,1.5.2,2,1.6.8,0-.9.2-1s.8,0,.9-.9-.9-.7,0-2.4ZM108.1,80.2s-.7,0-.7.2c0,.7,0,.6.5.2,0,0,.2-.2.2-.3h0ZM128.5,80.2c-.6-.6-1.5,1.4-.5,1.3.4,0,.7-1.1.5-1.3ZM46,83.5c-.2-.3-.2-1.1-.6-1.8-.2-.4-1-.2-1-.2,0,0,.7-2.5-.7-.2s.6,1.4.7,1.5c-1.3-.6-.6,1.9.3,1s-.3-1-.3-1c.4.4,1.6.6,1.6.7.3.5.3,1.4,1.3,1.3,0-1.1-.8-1-1.3-1.3ZM57.5,81.8c.3-.7-1-1.3-1.3-1-.7.7,1,1.7,1.3,1ZM112.1,81.8h-1c-.4.5.8,3.9,1.6,1.8.3-.8-1-.4-1-.5,0-.6.7,0,.7-.5s-.4-.7-.3-.8c0,0,1.9,0,1-1-.9-.9-.9.8-1,1ZM133.1,82.2c.1-.2,1.9.7,1.3-1.3-.9,0-1,1-1.3,1.3s-1.7,1.6-1.3,2.3c.9,1.6,1.2-2.2,1.3-2.3ZM141,81.8c.2.2.9-.7.6-1s-.9.7-.6,1ZM108.8,81.2c-.7-.8-.9,1.3-.2,1.3s.2-1.3.2-1.3ZM135.4,82.2v-1c-.4-.6-.4,1.6,0,1ZM61.5,83.1c0-.5.3-1.7-.3-1.6,0,.4-.3,1.7.3,1.6ZM107.5,82.8c0-.5.3-1.4-.3-1.3,0,.5-.3,1.4.3,1.3ZM143.3,81.5h-1c-.9.9,1.9.9,1,0ZM109.8,83.8s.2-2-.3-2c-.3.5-.3,3.2.3,2ZM84.1,83.2c-1.2-2.1-.9,2.4,0,1.2s0-1,0-1.2ZM116.7,84.1s0-1-.2-1c-.6,0-.6,1.7.2,1ZM43.4,84.1c.4-1.1-2.5-.6-1.3.3s1.3-.3,1.3-.3ZM115.4,83.5l-1,1c1.1,0,1.1,0,1-1ZM108.5,84.7s-.7-1.7-1.4-.9c-.8.9,1.5,3.4,2.6,2.3,2-1.9-.9-1.2-1.3-1.4h.1ZM47.7,85.8c-.2,0-1-1-1.3-.7s.7,3.5,1.3.7c2.8.3.5-1.9,0-1.3s0,1,0,1.3ZM112.4,84.8s-.6,0-.7.2c-.2,1,1.2.4.7-.2ZM111.9,85.8v.3l.2-.2-.2-.2h0ZM106.5,87.7c0,0,.3-1.3.3-1.6-.9,0-1.2,2.6-.3,1.6ZM119.3,86.4c-.5-.5-1.6,1.5-1.3,2,.4,0,1.5-1.8,1.3-2ZM112.7,87.1c-.5-.8-2.1-.4-1,1.3.8.4,1.1-1.2,1-1.3ZM44.1,88.1c0,0-3.4-1.6-1.3.7.8.8,1.2-.6,1.3-.7,0,0,2.4,0,1.3-1s-1.2.9-1.3,1ZM47,87.1s-1,0-1,.2c0,.7,1.3.3,1-.2ZM108.8,96.6c-.2,4-.6,1.1-2.4,4-2.8,4.5-4.8,10.9-5.2,15.9,0,1.4.8,2.9,2,1.6,1-1.1,6.5-17.3,6.3-8,1.2-1,.4,1,.8,1s1.4-2.6,1.8-3.2,1.3,0,1.3,0c0,0-.4-1.2,0-2s2.5-2.3,2.5-2.8-1.6-1.2-1.9-2.3.7-.3.6-.6c-1.4-4-2.9-.2-4.5-4-1.1-2.7,1.3-8-3-8.8.6,2,1.6,1,1.6,1.2.8,1.1-.4,2.4-.4,3.1,0,1.7.4,3.4.4,5.1,0-.6.2-1.2-.7-1l-.3,1.6c.4.3,1-.5,1-.7h0ZM121.3,87.7c.7-.7-.4-.7-1-.3-.2.5.9.4,1,.3ZM79.2,88.4c0,0-.3.3-.3.3-.5,0-1.1-.4-1,.5.2,2.5,4.8,2.7,1.6-.8-.2-.2,0-1.5-.3,0ZM119.6,87.8c-.4-.4-1.3.7-1,1.3.4,0,1.3-1,1-1.3ZM84.8,88.1c-.4-.6-.9.4-.7,1,.4,0,.8-.7.7-1ZM107.1,89.7c0,0,0-1.6-.2-1.6-.9,0-.4,2.7.2,1.6ZM47.7,89.7c.6.4,1.7-.6,1.3-1s-2,.5-1.3,1ZM137.4,90.1c.3.4,1-1.4.2-1.3-.3,0-.2,1.3-.2,1.3ZM97.3,97.9v-.7c-2,1.3,0-.9-2.6-.3,2.2-.4.7-.9,1.1-1.3s1,.5,1.2.3,0-2.5,0-2.6c-.2-.2-4.5-.4-2.6-2-1.8-.4-.4,1.5-1.3,2.5s-1-.2-1-.2c0,.2.2,2.5-1.2,2.9-1.5.5-2.3-2.5-2-3.4s2,0,1.6-1.2-3.8-2.7-4.1-2.6c-1.8,0-2.1,9.8-2.5,10.2s-1.6-.2-1.8-.6c-.2.3.2.6.2,1-.6-.6-1.9-2.4-2.3-1.3,1,0,1.2,1.2,1.3,1.3-1-.6-.7-.4-1.6-.3,0-.3.2-2-.7-1.3,0,0,0,.9,0,1s-.5-.5-.6-.2c0,.3.6.6.6.8s.2.4.3.7.2.2.3.3c.2.2.3,1.3.3,1.3.2,0,.7-.7.8-.6.3,0,.6,1.6,1.1,1s-1.2-.6.3-.7c.2,1.1.8.8,1,1.2.5,1-1.3-.2-1,.5s3.3,2.7,3.9,2.6l-1.3.3c.7,1.6,1.2,1.9,3.6,2.3,0,.6-.9.2-1,.3-.2.5,1.1.4,1,1-2.4-.2-1,.8.7.7.2,0,.2,0,.3,0,1.9,0,0-.6,1.3-.7.8,3.3-2.2,0,0,2.5l-1.3-.3c1.1.8,1.2,1.2,1.6,2.5v.3c.4,2.7.8,12.8.7,3.3l.6,2.6c1.3-2.8-.3-5.7-.3-7.8s1-1.5.9-2.2-1.2-2.2-1.2-2.7c-.2-1.1,1.1.2,1-.3-.3-1.2-3.5-2.9-1.3-3.1-1.2.8-3.5-1.1-4.4-1s.2,1.4-.8,1c-.2-2-1.9-2.9-3.3-4.3.2,0,.9-.5,1.6-.2s2.5,3,2.7,3.1c1.3.7,4.3-.8,6.3,2.1,2.6,3.9,1.8,13.2,1.9,17.8s1.5,2.9-.3,2.9c2.8,2.5,1.6-2.5,2-4.3,1.2-5.4,3.8-10.8,4.3-16.1,0,0-.7-.8-.6-1.9s.9-.5.9-.7c.2-1.1-2.6-3.2-2.3-4.8l-.3,1.3c0-.9-.9-.9-1-1,.3-.7.4-1.2.3-2-.8-.2-.7.4-1,1h0ZM73,90.1c-1.7-.4.8,1.6-.3,2.5s-4.7,0-4.3,1.6c0,.2,1.5,1.1,1.8,1.2,1.3.3.2-1.3,1-.6s1,2.5,1.2,2.6c.3.2,6.3.3,6.9.2,4.7-.9,3-5.2-.2-5.1-.7,0-.4.9-1.3,1-1.9.3-1.7-.9-2-1s-3.5,2.1-1.5-1.6c-1.3.5-1.2-.6-1.3-.7h0ZM75.1,90.1l-.5.5.2.2.3-.3v-.3h0ZM115.6,90.8c-1.8-1.2-2.8,2.6-2.5,3.9,0,.6,4.2,4.3,4.5,4.2s2.8-4.8,3.9-5.1c-.9-.6.4-3.5-1.7-3.1-2.5.5-.8,4-3.4,3.2-2.1-.7.5-2.2-1-3.1h.2ZM72.3,91c-.7-.7-.7.4-.3,1,.5.2.4-.9.3-1ZM74.3,92.4c.2.2.9-.7.6-1s-.9.7-.6,1ZM102.9,93s-1.1-.3-1.3-.3c0,.8,2.2,1.3,1.3.3ZM90.4,96v-1c-.4-.6-.4,1.6,0,1ZM68.6,96.9c0-2.5-1.4.3-1.6.4-.7.4-.5-.8-1.1-.7-1,.2-1.5,1-2,1-.8,0-.5-1.5-2.1-.7-.3,1.1,1.5.8,1.6,1.5s-1,.9-1,1.6,1.3.2,1,1.6-.9.2-1,1c-.4,4.8,7.2,6.6,10.9,6.3s2.6-1.3,3.1-1.4c1.6-.4,1.1,2.5,3.4-1.5.3-.5,1.9-.5-.2-2.7-2-2.1-3.1,1.2-3.3-1.7-.7,2.6-2.5,1-2.1.3s1.4.8,1.7-.8-2.7-1.8-2.9-1.8c-1.4,0-.9,2.1-1.2,2.7s-1.1.7-1.3,1,1.6,1.4-.2,1.5c-1.6,0-.2-4.6-.5-4.9-1.1-1.2-1.5,3.5-1.6,3.6-1,.6-1.2-1-1.3-1-.3,0-1.1,1.3-1.8.3s1.3-1.6,1.5-2.2-1.3-1.2-1-1.5,2.9-.8,2.9-2h0ZM47,96.3c-.9-1.2-1.3,1.6-.7,2.3.8,0,.8-2.1.7-2.3ZM97.6,96.3c-.5-.2-1.5,0-1,.7s1.1-.3,1-.7ZM44.7,96.6h-1.3c0,0,0,1,0,1.3l1.3-1.3ZM130.2,97.3c.1,0-.2-.4-.3-.5-.8-.5-.2,1.1.3.5ZM68.7,97.9c.5.3,1.3-.6,1-1s-1.6.6-1,1ZM102.2,102.5c1.8,1.6,2.5-4.7,1.6-5.6-1.9.7-2.8,4.5-1.6,5.6ZM76.6,99.6c0-.5,0-.7-.5-1,0,.3,0,1.1.5,1ZM47.8,98.9v.3l.2-.2-.2-.2h0ZM55.2,98.9c-4,3.5,3.3,5.4,1.6,2.3s-1.9-.4-1.6-2.3ZM59.5,98.9c-.2-.2-1.3,0-1.3.5,0,1,1.9,0,1.3-.5ZM77.2,98.9c0,.5,0,.7.5,1,0-.3,0-1.1-.5-1ZM80.9,108.1c-1.2.3-3.1.6-3.9,1.6,1.3,0,3.1-.5,3.9-1.6ZM76.9,108.8c-.6,0-1,0-1.3.5.3,0,1.4,0,1.3-.5ZM87.1,108.8s-.6,0-.7.2c-.2,1,1.2.4.7-.2ZM109.4,111.4v-1c-.4-.6-.4,1.6,0,1ZM106.8,114l-.3,3c.7-.4,0-1.9.4-2.6s2.1-.2,0-.4h0ZM99.6,129.8v-4.6h.3v4.9c1.9-1,1.2-3.5,1.7-5.2s.9,0,.9,0c.2-1,0-3.9,0-4.9-.5,1.2-1.9,1.1-1.6,2.6l-.6-1,.3,4.3-.7-3.3-.3,2.3-.6-1.3.7,6.2h-.1ZM93.3,126.2c0,0-.8.4-1,.7v-3l-.3,2-1.3-4.3.6,4.3-1-1.1,1.3,3.8c-.5,0-.5-1.1-1-1s.3,1.1-.3,1l-.7-1.2,1.6,6.1c.6-.1,2.8-1.8,2.8-2.3.2-2-.5-1.1-1.2-2.5s.6-1.2.7-1.8,0-.2,0-.7c-.3-2.1-.2-.2-.3,0h.1ZM98.9,130.8c0-1.2,0-3-1.3-3.6-.3,3,0,2.3,1.3,3.6,0,1.2-.6.3-.7,1,2.1-.3,1.3-.4.7-1ZM97.1,129.8v.3l.2-.2-.2-.2h0ZM97,132.8c0-.5.4-1.9-.3-2,0,.5-.4,1.9.3,2ZM94.3,132.1c-.6-.9-1.4,2.3-.3,1.3,0,0,.4-1.2.3-1.3ZM96.3,136.4c.4-1.1.4-2.2.3-3.3-.5.4-1,2.9-.3,3.3ZM100.6,138.4v-1c-.4-.6-.4,1.6,0,1ZM89.4,141.3c-.2-.8.4-2.5-.3-3,.2.8-.4,2.5.3,3ZM88.1,143.6s.3-1.3.3-1.6c-.7.1-1.1,2.3-.3,1.6Z"/>
      <path class="cls-1" d="M75.6,64.4s1-1.2,1.3-1.3c-.2.6-.6,2.5.7,2.3,0,4.1-1.3-1-2-1Z"/>
      <path class="cls-1" d="M77.9,63.1c0,1.1,1.2,2.1-.3,2.3,0-1.4-.7-2.3.3-2.3Z"/>
      <path class="cls-1" d="M137.4,72.6c0-.3.1-.3.3-.3,0,.2,0,.4-.3.3Z"/>
      <path class="cls-1" d="M85.5,50.9c0-.2.3-.2.3-.3,0,0-.2.2-.3.3Z"/>
      <path class="cls-1" d="M48.3,69c-.3-1,.5-1.7-1-2.6,1.2-.9,2.2,2.5,2.6,1s-3.4-4.8.9-2.9c.2,0,0,.9,0,.9,1.2.7,1.2-1.2,1.3-1.3,2.8-1.5.5,5.8-1.3,3.8-.3.8.8,3.3.6,3.5s-1,0-1.3,0c.5-.4-1.4-2-2-2.3h.2ZM50.6,66.4c.2-1-.3-1.5-1.3-1.3l1.3,1.3ZM51.6,67s0-1-.2-1c-.6,0-.6,1.7.2,1ZM50.3,70c.6-.2,0-2.4-.7-1.6s0,1.8.7,1.6Z"/>
      <path class="cls-1" d="M65.7,69.3c0,0,1.5.3.7,1.6s-.6,0-.7,0c0-.2,0-1.4,0-1.6Z"/>
      <path class="cls-1" d="M126.2,58.8c.6,0,1.3-.9,1.6-.5l-1.7,2.1c-.5-1-1.4-.5-1.6-.7.2-.5.2-.8.3-1.3.2,0-.3.4,1.3.3h0Z"/>
      <path class="cls-1" d="M85.5,50.9c0,.3,0,1.5,0,2-.2,0-1,.4-1.3.3s-1.3-2-1.3-2.1c0-1.3,1.5.7,2.6-.2Z"/>
      <path class="cls-1" d="M137.4,55.2c.4,1-1,.6-1,.7,0,1,1.7,3.8-.3,4.6l.3-2.3-.7.3-.2-1-.8.7c-.2-2.4,0-3.7,2.6-3h0ZM135.6,56.5v.3l.2-.2-.2-.2h0Z"/>
      <path class="cls-1" d="M145.9,85.8c4.6-2.7.3,2,0,2-1.9-.2-1-1.8-.6-3l.7,1h0Z"/>
      <path class="cls-1" d="M84.1,46.4c.6,0,.5,2.7.3,2.9s-2.2-.9-2.3-1c-1.1-1.2,1.6-.3,1.6-.3.4-.4-1.1-1.8.3-1.6h0Z"/>
      <path class="cls-1" d="M112.7,56.9c.4.3.3,2.9,1.7.3.4,2.7-.9,1.1-1.3,1.4-.9.7,0,2.1-1.6.2,1.3-.2,1.3-1.3.3-2h1,0Z"/>
      <path class="cls-1" d="M36.5,74.9c0,0-2.7-1.1-2.6-1.6.6.6,1.6-.7,1.6-.7,0,0,1.1,2.2,1,2.3Z"/>
      <path class="cls-1" d="M44.6,64.5s0,.5.3.5,1-.5,1.1-.3c2.3,2.1-5.5,0-1.4-.2Z"/>
      <path class="cls-1" d="M46.4,70c.2,0-1.6,3.5-2,.8s1.8-1,2-.8Z"/>
      <path class="cls-1" d="M96,56.5s.8,1.2.7,1.3c-.8.6-2.1-1.4-.7-1.3Z"/>
      <path class="cls-1" d="M67.7,50.3c.6.5-1.2,1-1.3,1-.7-.5.6-1.5,1.3-1Z"/>
      <path class="cls-1" d="M47.3,67v1.3c-2.3-1-.4-1.7,0-1.3Z"/>
      <path class="cls-1" d="M44.4,64.1c-.3.4-1-1.4-.2-1.3s.2,1.3.2,1.3Z"/>
      <path class="cls-1" d="M51.9,62.8s-.3,1.7-.7,1.6c-.3-.6.2-2.5.7-1.6Z"/>
      <path class="cls-1" d="M49.6,62.8c-.4,0-1.3-1.4-1-1.6s1.1,1.2,1,1.6Z"/>
      <path class="cls-1" d="M94.7,142c.5.6-.9,1.1-.7.2s.6-.2.7-.2Z"/>
      <path class="cls-1" d="M98.3,143.6c-.6.1,0-1.8.3-1.6,0,.6-.2,1.1-.3,1.6Z"/>
      <path class="cls-1" d="M95.3,55.9c-.5.6-1.1-1-.3-.5,0,0,.4.4.3.5Z"/>
      <path class="cls-1" d="M45.4,69.4c.6.4-1.6.4-1,0s.9,0,1,0Z"/>
      <rect class="cls-1" x="64.1" y="50.9" width=".3" height=".7"/>
      <rect class="cls-1" x="46" y="69" width=".3" height=".7"/>
      <polygon class="cls-1" points="58 60.2 58.4 60.5 58.4 60.8 58.2 60.6 58 60.2"/>
      <polygon class="cls-1" points="45.9 66.4 46 66.6 45.9 66.7 45.9 66.4"/>
      <polygon class="cls-1" points="96.5 142.3 96.6 142.5 96.5 142.6 96.5 142.3"/>
      <path class="cls-1" d="M85.1,102.9c0,.7-1.7.2-1.6-.3.6,0,1.1.3,1.6.3Z"/>
      <rect class="cls-1" x="88.7" y="109.1" width=".7" height=".3"/>
      <polygon class="cls-1" points="90.9 106.2 91 106.3 90.9 106.5 90.9 106.2"/>
      <polygon class="cls-1" points="129.3 69 129.5 69.2 129.3 69.3 129.3 69"/>
      <path class="cls-1" d="M99.3,59.2c.9.5-.8.7-1.3.5.2-.4.9-.7,1.3-.5Z"/>
      <path class="cls-1" d="M101.6,61.5c.5.6-.9,1.1-.7.2s.6-.2.7-.2Z"/>
      <path class="cls-1" d="M97.9,64.1c-.4.6-.4-1.6,0-1s0,.9,0,1Z"/>
      <rect class="cls-1" x="100.6" y="62.8" width=".7" height=".3"/>
      <polygon class="cls-1" points="101.4 63.4 101.7 63.8 101.7 64.1 101.6 63.9 101.4 63.4"/>
      <path class="cls-1" d="M80.5,62.4c.2.9-.9.6-1.3,1.3-.2-1,.3-1.5,1.3-1.3Z"/>
      <path class="cls-1" d="M60.2,64.4c0,.5,0,1.9-.7,2,.4-.5-.6-2.2.7-2Z"/>
      <path class="cls-1" d="M61.1,66.4c-.7,0-.2-1.5-.3-2,.7,0,.2,1.5.3,2Z"/>
      <path class="cls-1" d="M60.8,63.1c.2.6,0,1.3-.7,1s.2-2,.7-1Z"/>
      <path class="cls-1" d="M65.1,64.7c.5.6-.9,1.1-.7.2s.6-.2.7-.2Z"/>
      <polygon class="cls-1" points="71.2 59.5 71.3 59.7 71.2 59.8 71.2 59.5"/>
    </g>
  </g>
</svg>