<svg width="189" height="207" viewBox="0 0 189 207" fill="none" xmlns="http://www.w3.org/2000/svg">
<rect x="7.5" y="7.5" width="174" height="192" rx="7.5" stroke="black" stroke-width="15"/>
<g clip-path="url(#clip0_377_286)">
<path d="M78.6498 32.1399C84.5431 32.1399 89.3531 32.9632 93.0798 34.6099C96.8065 36.2566 100.143 38.2499 103.09 40.5899C104.13 41.3699 104.997 41.7599 105.69 41.7599C107.337 41.7599 108.42 39.1599 108.94 33.9599H111.93C111.757 37.3399 111.627 41.4566 111.54 46.3099C111.453 51.0766 111.41 57.4466 111.41 65.4199H108.42C107.813 60.2199 106.86 55.7132 105.56 51.8999C104.347 47.9999 102.05 44.6632 98.6698 41.8899C96.5898 39.8966 93.9898 38.3366 90.8698 37.2099C87.8365 36.0832 84.7598 35.5199 81.6398 35.5199C76.8731 35.5199 72.7998 36.7766 69.4198 39.2899C66.0398 41.7166 63.2665 45.0532 61.0998 49.2999C58.9331 53.5466 57.3298 58.3566 56.2898 63.7299C55.2498 69.0166 54.7298 74.5199 54.7298 80.2399C54.7298 95.8399 56.8531 107.237 61.0998 114.43C65.4331 121.623 71.6298 125.22 79.6898 125.22C81.7698 125.22 83.5898 124.96 85.1498 124.44C86.7098 123.92 87.9665 123.313 88.9198 122.62C90.1331 121.753 90.9565 120.843 91.3898 119.89C91.8231 118.85 92.0398 117.507 92.0398 115.86V103.12C92.0398 99.1332 91.6931 96.1866 90.9998 94.2799C90.3931 92.2866 89.1365 90.9432 87.2298 90.2499C85.3231 89.5566 82.5498 89.1666 78.9098 89.0799V86.4799C80.7298 86.5666 82.8965 86.6532 85.4098 86.7399C88.0098 86.7399 90.6965 86.7832 93.4698 86.8699C96.2431 86.8699 98.7998 86.8699 101.14 86.8699C104.78 86.8699 108.117 86.8266 111.15 86.7399C114.183 86.6532 116.653 86.5666 118.56 86.4799V89.0799C116.913 89.1666 115.657 89.4699 114.79 89.9899C114.01 90.5099 113.447 91.5499 113.1 93.1099C112.84 94.6699 112.71 97.0532 112.71 100.26V126H110.11C110.023 124.527 109.677 122.923 109.07 121.19C108.55 119.457 107.64 118.59 106.34 118.59C105.733 118.59 104.91 118.763 103.87 119.11C102.917 119.37 101.4 120.107 99.3198 121.32C96.1131 123.14 92.7331 124.7 89.1798 126C85.6265 127.213 81.8998 127.82 77.9998 127.82C67.9465 127.82 59.4531 125.957 52.5198 122.23C45.5865 118.503 40.3432 113.173 36.7898 106.24C33.3232 99.2199 31.5898 90.8132 31.5898 81.0199C31.5898 71.1399 33.5832 62.5599 37.5698 55.2799C41.6431 47.9999 47.1898 42.3232 54.2098 38.2499C61.3165 34.1766 69.4631 32.1399 78.6498 32.1399Z" fill="black"/>
<path d="M125.82 86V89.5601C122.873 89.6468 120.62 89.9934 119.06 90.6001C117.587 91.1201 116.59 92.1601 116.07 93.7201C115.55 95.1934 115.29 97.5334 115.29 100.74V165.74C115.29 168.687 115.507 170.897 115.94 172.37C116.46 173.843 117.413 174.84 118.8 175.36C120.273 175.793 122.353 176.01 125.04 176.01H133.49C137.217 176.01 140.337 175.49 142.85 174.45C145.45 173.41 147.617 171.85 149.35 169.77C151.083 167.69 152.427 165.003 153.38 161.71C154.333 158.417 155.07 154.56 155.59 150.14H158.58C158.32 152.913 158.19 156.553 158.19 161.06C158.19 162.793 158.233 165.35 158.32 168.73C158.493 172.023 158.753 175.447 159.1 179C154.68 178.827 149.697 178.74 144.15 178.74C138.603 178.653 133.663 178.61 129.33 178.61C127.337 178.61 124.78 178.61 121.66 178.61C118.54 178.61 115.16 178.653 111.52 178.74C107.967 178.74 104.327 178.783 100.6 178.87C96.9598 178.87 93.4498 178.913 90.0698 179V176.4C93.0165 176.227 95.2265 175.88 96.6998 175.36C98.1731 174.84 99.1265 173.8 99.5598 172.24C100.08 170.68 100.34 168.34 100.34 165.22V100.74C100.34 97.5334 100.08 95.1934 99.5598 93.7201C99.1265 92.1601 98.1298 91.1201 96.5698 90.6001C95.0965 89.9934 92.9298 89.6468 90.0698 89.5601V86.7729C92.0631 86.8596 94.6227 86.6861 97.7427 86.7728C100.949 86.8595 104.36 86.7728 108 86.7728C111.293 86.7728 114.793 86.5867 118 86.5C121.293 86.4133 123.74 86.0867 125.82 86Z" fill="#66952F"/>
</g>
<defs>
<clipPath id="clip0_377_286">
<rect x="31" y="32" width="129" height="147" rx="15" fill="white"/>
</clipPath>
</defs>
</svg>
