<svg fill="none" height="60" viewBox="0 0 54 60" width="54" xmlns="http://www.w3.org/2000/svg"><g stroke="#000" stroke-linecap="round" stroke-miterlimit="10" stroke-width="2"><path d="m47.925 38.25c1.4911 0 2.7-1.3432 2.7-3v-22.5c0-1.6568-1.2089-3-2.7-3h-41.85c-1.49108 0-2.7 1.3432-2.7 3v22.5c0 1.6568 1.20892 3 2.7 3z"/><path d="m18.9004 14.25v19.5"/><path d="m35.0996 14.25v19.5"/><path d="m7.4248 24h39.15"/><g stroke-linejoin="round"><path d="m36.4498 46.5h-22.95c-1.4911 0-2.7-1.3432-2.7-3v-5.25"/><path d="m38.4752 42.75h.675c1.1185 0 2.025 1.0073 2.025 2.25v3c0 1.2427-.9065 2.25-2.025 2.25h-.675c-1.1185 0-2.025-1.0073-2.025-2.25v-3c0-1.2427.9065-2.25 2.025-2.25z"/><path d="m43.2 44.25h-2.1404"/><path d="m43.2 48.75h-2.1404"/></g></g></svg>